<?xml version="1.0" encoding="utf-8"?>
<!-- Generator: Adobe Illustrator 19.1.0, SVG Export Plug-In . SVG Version: 6.00 Build 0)  -->
<svg version="1.1" id="Layer_1" xmlns="http://www.w3.org/2000/svg" xmlns:xlink="http://www.w3.org/1999/xlink" x="0px" y="0px"
	 viewBox="-111 -104 1000 1000" style="enable-background:new -111 -104 1000 1000;" xml:space="preserve">
<style type="text/css">
	.st0{fill:#FFF5F3;}
	.st1{fill:#600D13;}
	.st2{fill:#E32527;}
	.st3{fill:#C4161C;}
	.st4{fill:#F6AB8E;}
	.st5{fill:#FFFFFF;}
	.st6{fill:#9A1C1F;}
</style>
<rect x="-111" y="-104" class="st0" width="1000" height="1000"/>
<path class="st1" d="M830.5,448.8c-11.7-15.8-19.8-20.5-31.2-36.5c-21.7-30.3-43.5-80.5-65.5-110.6c-0.9-1.3-2.1-2.4-3.2-3.6
	c-0.8,1.5-1.9,2.9-2.4,4.5c-3.6,12.8-16.4,19.4-28.6,15.5c-9-2.9-16.6-12.1-28,0.4c-11.1,12.2-46.9-3.3-56.6-17.5
	c-1.2-1.8-2.1-2.9-3.9-0.9c-12.8,14.8-33.4,29.8-47.6,20.1c-6.5-4.4-13.3-10.8-22.5-0.7c-9.3,10.3-21.6,10.9-34.4,3.2
	c-6.2-3.7-15.1-10.8-19.9,3.3c-1.1,3.4-5.3,6.2-8.7,8.1c-16.8,9.7-33.5,14.9-51.8,13c-12-1.2-22.3-12.1-25.1-24.9
	c-0.1-0.7-1.5-1.1-2.3-1.7c-0.6,0.9-1.5,1.8-1.8,2.8c-2.1,6.1-6.4,9.4-12.6,10.6c-6.9,1.3-12.3,9.8-19.2,10.9
	c-1.2,0.2-2.4,0.4-3.7,0.5c-0.3,0-0.6,0.1-0.8,0.1c-0.6,0.1-1.2,0.2-1.8,0.2c-0.9,0.1-1.7,0.2-2.6,0.3c-0.4,0-0.9,0.1-1.3,0.1
	c-0.4,0-0.8,0.1-1.3,0.1c-0.2,0-0.5,0-0.8,0.1c-26.5,1.9-44.1-15.8-42.7-51.6c-0.1-1-11.4,2.5-11.9,1.6c0,0,0-0.1,0-0.1
	c0-0.1-0.1-0.1-0.1-0.2c-1.1,0.7-2.2,1.5-3.3,2.2c-7.5,5.4-13.3,14.6-22.9,15.4c-0.7,0.3-2.4,0.3-5.2-0.3c1.8,0.4,3.6,0.5,5.2,0.3
	c5.6-2.7-43.1-29.6-27.8-10.5c-6.3-7.6-10.7-14.6-16.3,0.6c-0.5,1.3-2.1,2.2-3.1,3.3c-16.5,17.4-30.5,11.3-46-3.9
	c-5.5-5.4-6.1-8.6-10.5,1.1c-5.6,12.4-18.2,18.7-30.3,24.6c-20.3,9.9-30.6,7.9-44-9.7c-1.1-1.5-2.7-1.6-3.2,0.1
	c-2.8,10.1-14.6,24.5-21.6,31.3c-10.6,10.5-28.5,6.9-38.1-2c-10.3-9.7-23.7,5.7-29.1,12.6c-19.8,25.1-28.3,49.5-49.6,73.4
	c-4.2,4.7-6,11.3-2,18.3c12.1,21,20.6,40.3,37.2,57.2c33.7,34.2,81.8,68.5,123.8,91.2c0.8,0.4,2.9-0.2,3.4-0.9
	c11.6-17.8,11.9-31.5,29.8-23.9c11.5,4.9,26.3,6,31.5,20.9c0.2,0.6,10.9,7.3,11.1,7c5.6-7.4,6.9-13.7,14.1-17.6
	c24-13.1,48.4-25.1,73.1-36.6c16.7-7.8,34-14.5,51.7-17.3c14.8-2.3,30.4,1.1,45.8,3.8c20.9,3.7,43,2.4,64.7-0.7
	c27.3-3.9,55-7.2,81.7,3.6c32.2,13.1,62,31.2,92.8,47.1c12.6,6.5,21,8.4,32.7-2.5c10.5-9.8,22.4-6.4,21.5,8.3
	c-1.3,21.6,20.2,5.1,22.6,13.7c0.8,2.7,6.3-5.4,7.9-6.5c23.6-16.8,45.1-36.2,64.8-57.3c19.6-21,38.3-43,60.2-61.8
	c5.7-4.9,6.2-22.2,11.1-27.8C831.5,451.1,831.2,449.8,830.5,448.8z M87.2,361.1c0-0.2,0-0.4,0.1-0.5C87.4,361,87.4,361.2,87.2,361.1
	z"/>
<path class="st2" d="M816.9,485.7c-0.1,1-4.3,6.2-4.8,7c-14,21.7-28.6,43.1-42.1,65.2c-15.6,25.6-32,50.6-52.2,72.9
	c-17.5,19.3-35.5,38.1-53.2,57.2c-33.3,36.1-71.5,63.5-121.7,70.1c-8.8,1.2-17.6,1.8-26.3,2.6c0-0.2,0-0.3,0-0.5
	c-18.8,1.3-37.6,4.1-56.3,3.6c-32.9-0.9-65.9,2.2-98.8-2.4c-19.6-2.7-39.5-3.9-59.1-7.3c-27.6-4.8-53.8-13.2-79-25.2
	c-27.4-13-52.6-29.2-77.1-47.1c-27.9-20.3-52.4-44.4-78.6-66.5c-25.5-21.4-42.8-50.1-64.5-75c-11.3-13.1-22.8-23.8-32.2-38.3
	c-0.5-0.8-3.2-9.2-3.6-10.2c-0.2-4,6.1-7,6.7-6.2c32.8,42.7,75.3,72.6,121.2,98.1c22.6,12.6,45.8,24.8,70.7,33.7
	c23.9,8.6,47,18.2,72.7,21.1c31,3.4,61.8,2.9,92.6-0.4c29.2-3.2,58.3-3.8,87.6-2.1c29,1.7,58,2.5,86.9,4.5
	c18.3,1.3,36.5,3.9,54.7,6.2c28.5,3.7,54.4-3.4,78.9-17.9c21.7-12.8,42.1-27.7,62.1-43c28.1-21.6,53.4-43.9,76.3-70.8
	c9.5-11.2,24.4-25.9,34.9-36.3C812.9,478.4,816.4,485.9,816.9,485.7z"/>
<path class="st2" d="M833.8,448.6c-0.6,1.1-0.9,8.7-1.5,9.7c6.3,13.7-8.9,0.1-9.5-0.8c-13.4-19.5-23.2-36.4-35.7-56.4
	c-11-17.6-20.5-36.1-30.5-54.3c-12.2-22.1-27.6-42-42-62.7c-18.3-26.4-40.9-48.8-65-69.3c-26.6-22.7-56.4-41.2-91.3-49.2
	c-37.6-8.6-72.3,2.3-106.3,16.4c-30.7,12.7-60.8,12.4-92.6,3.8c-33.4-9-65.5-24.7-101.4-23.3c-34.4,1.4-63.7,15.3-89.5,37.3
	c-30.8,26.3-60.3,54-89,82.6C56.6,305.2,37,330.7,15.8,355c-22.2,25.4-42.4,48.1-62.1,75.4c-0.7,1-4.2,6.7-5.3,7.4
	c0.2-2,1.9-14,2.7-15.7c6.4-13.2,12.5-26.5,19.6-39.3c16.8-30.1,33.8-60.1,51.2-89.9c15.5-26.7,33.3-52,51.1-77.3
	c18-25.6,35.1-52,56.7-74.7c20.7-21.8,43.1-42,65-62.7C206.6,66.8,219,55.8,233,47c29-18.3,58.5-19.8,90.5-6.7
	c27.1,11.1,52.9,25.1,80,36.3c29.4,12.1,58.4,8.8,88,0.4c24.4-6.9,47-20.1,73.1-20.8c18.5-0.5,32.7,9.7,46.4,19.9
	c19.8,14.9,39.6,29.8,56.8,48.1c29.6,31.6,51.4,67.8,69.6,106.7c14.6,31.2,31.6,61.3,45.2,92.9c10.4,24.1,21.5,48.1,28.8,73.6
	c4.1,14.4,10.6,28.2,15.9,42.3C828.5,442.9,832.6,444.9,833.8,448.6z"/>
<path class="st1" d="M267,313.4c2.8,0.6,4.4,0.7,5.2,0.3C270.6,313.9,268.9,313.8,267,313.4z"/>
<path class="st3" d="M293.1,132.8c0.2,0.6,0.1,1.6-0.2,2.4C293.2,134.4,293.3,133.4,293.1,132.8z"/>
<path d="M572.9,106.4c1.9,11.5-4.4,24.6-12,37.3c-1.3,2.2-3,4.7-6,3c-3-1.7-1.9-4.7-0.5-6.8c8.6-12.4,10.9-26.2,9.4-40.9
	c-0.3-2.4-0.7-5.5,0.2-7.7c0.1-0.2,0.1-0.3,0.2-0.4c0.6-1.2,1.6-2,3.4-2.2c1.6-0.2,2.7,0.2,3.3,0.8c0.1,0.1,0.3,0.3,0.4,0.5
	c0,0.1,0.1,0.1,0.1,0.2c0.1,0.1,0.1,0.2,0.2,0.4c0.8,2.1,0.1,5.4,0.7,7.5C572.6,99.4,572.5,100.9,572.9,106.4z"/>
<path class="st3" d="M292.9,135.3c-0.1,0.2-0.1,0.4-0.2,0.5C292.8,135.6,292.9,135.4,292.9,135.3z"/>
<path class="st3" d="M292.6,136.1c-0.1,0.3-0.2,0.5-0.4,0.7C292.4,136.6,292.5,136.3,292.6,136.1z"/>
<path class="st3" d="M564.1,90.9c-0.1,0.1-0.1,0.3-0.2,0.4C564,91.2,564.1,91,564.1,90.9z"/>
<path d="M280.6,90.1c0.1-1.8,0.5-4.4,3.6-4c3.1,0.3,3.9,2.6,4.1,5.1c0.1,2.2-0.2,4.5-0.6,10.9c-1.7,7.9-1.1,19.6,5.3,30.5
	c0.1,0.1,0.1,0.2,0.1,0.3c0.2,0.6,0.1,1.6-0.2,2.4c0,0,0,0,0,0c-0.1,0.2-0.1,0.4-0.2,0.5c0,0.1-0.1,0.2-0.1,0.3
	c-0.1,0.3-0.2,0.5-0.4,0.7c-0.2,0.3-0.4,0.5-0.6,0.7c-2.4,1.7-2.6-1.3-3.7-2.5C275.1,121.7,279.3,105.6,280.6,90.1z"/>
<path d="M680.3,561.9c-1.2,3.1-4.8,4.6-6.2,4c-2.5-1.1-1.6-4.6-0.7-6.9c10-27.2,17.7-55,20-84c2.6-31.6,2.9-63.2-7.4-93.8
	c-2.7-8-5.4-16-8.4-24c-1.1-2.9,0.3-5.1,2.2-6.1c2.5-1.2,5.1,0.5,6.1,2.9c10.8,25.1,18,51.1,17.9,83.2c1.6,28.1-3.8,60-10.8,91.5
	C690.4,540.2,684.5,550.8,680.3,561.9z"/>
<path class="st4" d="M91,280.4c-1.5,0.8,1.1-7.4,0.9-7.7c-1.1-2.4,1.4-3,2.6-4.2c29.3-28.6,59.1-56.7,91.6-81.6
	c22.7-17.4,48.9-25.3,70.5-25.6c26.4-0.5,44,7.7,62.3,12.2c27.6,6.8,54.4,18.2,83.2,18.6c19.3,0.3,37.3-6.9,55.3-13.7
	c32-12,64.3-24,99.1-14.9c20.7,5.4,39.8,15,57.8,26.9c23.8,15.8,45.3,34,63.9,55.7c0.6,0.7,2,0.7,2.6,1.4c2.9,3.6,13.1,13.4,12.1,18
	c-0.5,2.4-11.4-2-14.5-2.1c-47-1.4-89-18.7-133.7-31.9c-22.3-6.6-43-3.5-65.4,0c-38.9,6-77.6,14.4-117.1,5.7
	c-18.3-4-39.8-4.9-58.5-7.4c-14.2-1.9-26.5-5.4-40.9-2.3c-20.3,4.4-41.5,7.5-62,11.1c-11.8,2.1-22.5,5.2-34,8.2
	C142,253.3,113.6,268.8,91,280.4z"/>
<path class="st5" d="M619.6,387.8c5.7-1.3,13.7,0.3,18.6,3.6c15.9,10.9,16.7,26.8,3,41.1c-2.4,2.5-2.7,2.8,0.8,4
	c14.5,4.9,21.1,26.7,13.9,45.4c-3.3,8.6-22.9,14-33.6,9.1c-2.4-1.1-3.6-3.4-3.5-6.2c0.1-5.4,0-10.7,0-19.9c2.4-18.8-2.7-41.2-2-63.7
	C616.9,396.3,614.9,388.8,619.6,387.8z M647.9,476.3c4.6-9.2,3.6-18.5-1.9-26.9c-3.7-5.7-10.5-8.5-16.4-7.2
	c-3.6,0.8-1.3,7.9-1.7,12.1c-0.2,2.7,0,5.5-0.1,8.3c0,5.9,0.4,11.8-0.2,17.6c-0.3,3.1-0.6,4,3.1,3.8
	C637.6,483.6,644.4,483.4,647.9,476.3z M628.2,432.3c7.8-6.8,14.8-14.7,14-25.7c-0.6-7.4-7.4-9.1-14.2-9.2c-2.9,0-3.5,1.2-3.3,3.7
	c0.5,6.8,0.9,13.7,1.4,20.5c-0.1,0-0.2,0-0.3,0c0,2.9-0.1,5.9,0,8.8C625.8,432,625.9,434.3,628.2,432.3z"/>
<path class="st1" d="M646,449.4c5.5,8.4,6.5,17.7,1.9,26.9c-3.5,7.1-10.3,7.3-17.2,7.6c-3.7,0.2-3.4-0.6-3.1-3.8
	c0.6-5.8,0.2-11.7,0.2-17.6c0-2.8-0.2-5.5,0.1-8.3c0.4-4.2-1.9-11.3,1.7-12.1C635.4,440.9,642.3,443.7,646,449.4z"/>
<path class="st1" d="M642.2,406.6c0.9,10.9-6.1,18.9-14,25.7c-2.3,2-2.4-0.3-2.4-1.8c-0.1-2.9,0-5.9,0-8.8c0.1,0,0.2,0,0.3,0
	c-0.5-6.8-0.9-13.7-1.4-20.5c-0.2-2.5,0.3-3.7,3.3-3.7C634.8,397.5,641.6,399.2,642.2,406.6z"/>
<path d="M583.3,147.3c-0.2,0.1-3.1-3-2.8-3.9c2-5.7-0.3-13.4,6.8-16.5c1.5-0.7,4.6,1.3,3.5,7.1C589.8,137.3,589.4,143.8,583.3,147.3
	z"/>
<path class="st1" d="M587.2,448.9c-0.2,4.1-2.2,2.4-3.9,2.8c-14.2,2.9-11.1-6.6-10.4-14.2c0.8-7.8,1.9-15.5,3.1-23.3
	c0.2-1.2,0.8-3.4,1.4-3.4c2.2-0.2,1.7,1.8,2,3.3C582,425.9,584.7,437.7,587.2,448.9z"/>
<path class="st5" d="M563.1,494.5c-3.6-1.6-3.9-5.2-3-13.2c2.1-25.1,5.1-54.6,11.1-83.8c0.7-3.6,3.1-6.4,7.1-2.7
	c10.1,9.1,9.9,22.4,12.9,34.1c4.9,19.2,8.3,38.8,12.3,58.3c0.6,3.1-0.2,6.6-3,7.3c-3,0.8-4.2-2.5-4.9-5.2
	c-1.6-6.1-4.5-12.1-4.5-18.2c-0.2-13.5-9.4-12.3-17.4-10.9c-5.8,1-2.9,7.8-3.9,11.8c-1.4,5.8-1.3,11.9-2.5,17.7
	C567,491.6,563.7,494.8,563.1,494.5z M583.2,451.6c1.8-0.4,3.8,1.4,3.9-2.8c-2.5-11.1-5.2-23-7.8-34.9c-0.3-1.4,0.1-3.5-2-3.3
	c-0.6,0-1.2,2.2-1.4,3.4c-1.1,7.7-2.3,15.5-3.1,23.3C572.1,445,569,454.5,583.2,451.6z"/>
<path class="st6" d="M400.2,583.7c-2.7,19-13.5-4.1-17.5-7.1c-23.4-18.5-42.1-19.8-59.3,8.3c-0.8,1.3-1.7,3.1-1.7,4.6
	c0,19.7-6.9,13.7-14.4,6.5c-14.9-14.5-31.1-13.3-47.6-5.4c-4.3,2.1-5.1,7.8-5.9,11.9c-2.9,16.1-9.8,7-15.7,4.8
	c-0.2-0.1-0.3-0.3-0.4-0.4c-18.1-7.1-22.1-19.8-11-27.1c26.3-17.3,62.2-31.9,91.3-41.7c8.4-2.8,17.1-3.8,22.8-5.1
	c15.3,0.4,31,4,42.7,8.2c20,7.2,27.8-1.8,47.2-4.5c27.8-3.8,64.5-6.7,91.2,7.8c23.2,12.7,53.4,25.9,75.7,40.7
	c12.3,3.5-11.3,8.8-11.1,9.3c-1.3,0.4-2.6,1.3-3.8,1.1c-14.6-2.3-29.4-2-41.1,10.3c-8.1,8.5-7.5,4.1-9.7-5
	c-4.4-18.2-17.5-24.2-33.6-16.9c-8.7,3.9-20.4,2.6-28.3,9.7c-2.4,2.1-20.3,6.4-20.2,4.7c2-29.9,0.6-24.8-18.8-20.9
	c-9.4,1.8-12.8-9.5-21.3-5.1C406.3,574,400.7,580.2,400.2,583.7z"/>
<path class="st5" d="M509.2,496.9c-2.8,0-4.1-3.7-4.7-6.5c-4.7-21.9-11.3-43.3-13.5-65.7c-1-9.8-2-19.7-3.1-29.5
	c-0.3-3,1.1-5.9,3.5-5.9c1.8,0,4.1,2.5,4.5,5.5c3.1,21.2,6.2,42.4,9.5,63.6c0.3,1.9,1.8,3.6,2.7,5.4c0.4-1.9,1-3.8,1.3-5.7
	c0.3-2,0.2-4.1,0.4-6.1c0,0,0,0-0.1,0c1.1-17,2.1-33.9,3.3-50.9c0.1-1.7,1.8-4.3,3-4.5c2.7-0.4,5.1,1.1,6.2,4.1
	c7.4,21,12.8,42.6,17.3,64.3c0.3,1.7-0.1,3.7,2.3,3.7c0.4,0,1-2.3,1.1-3.6c1.8-24.8,3.5-49.5,5.2-74.3c0.2-3,0.8-5.3,4.2-5.3
	c3.2,0.1,3.9,2.9,3.8,5.2c-0.9,16-2,32-3.1,48c-1.1,17-2.1,34-3,51.1c-0.2,3-1.1,5.1-4,5.7c-3.1,0.7-3.5-1.9-4.5-4
	c-9.7-20-14.7-41.4-19.3-62.9c-0.3-1.5-1.2-2.8-1.9-4.2c-0.4,1.8-1.2,3.5-1.2,5.3c-0.1,20.3-1.7,40.5-5,60.5
	C513.5,493.1,512.7,497,509.2,496.9z"/>
<path class="st5" d="M467.2,446.8c7.2,11.3,12,24.1,6.7,37.7c-4.1,10.6-12.9,16.2-23.7,13.2c-9.1-2.5-19.2-6.9-16.4-20.4
	c0.5-2.4,1.6-4.3,3.7-4.2c2.1,0,3.1,2.2,3.4,4.5c1.2,9.3,6.6,13.7,15.8,11.5c8.3-2,10-8.6,9.7-16.5c-0.7-22.1-18.1-34.4-29.1-50.4
	c-5.6-8.2-8.2-17.1-3.3-25.9c3.3-6,7.3-14.2,15.9-12.8c8.2,1.4,17.5,4,18.4,14.4c-0.7,3,0.8,6.3-2.4,6.5c-1.6,0.1-4.3-1.9-4.9-3.6
	c-2.2-6.3-5.9-12.2-12.7-8.2c-8.2,4.9-10.5,13.8-5,22.1C450.5,425.9,460,435.6,467.2,446.8z"/>
<path d="M410.2,145.8c6.1-0.3,4.3,6.8,5.6,10.1c-0.1,4.8-1.2,9.5-5.5,9.5c-5.3,0.1-1.3-5.1-2.5-7.6c-0.3-0.6-0.1-1.4,0-2
	C408.4,152.2,403.8,146.1,410.2,145.8z"/>
<path d="M393.1,153.3c-0.5,2.9-0.6,5-1.3,6.9c-1.1,3-1.2,7.9-5.4,7.4c-4.9-0.6-1.2-4.8-1.2-7.1c0-6.8-1-13.3-3.5-19.5
	c-1.2-2.9-0.7-5.6,1.6-6.6c2.2-0.9,4.7,1.2,5.4,3.6C390.5,143.3,391.8,148.7,393.1,153.3z"/>
<path class="st1" d="M361.6,348.8c0.3,0,0.5-0.1,0.8-0.1C362.1,348.7,361.9,348.7,361.6,348.8z"/>
<path d="M365,159.2c2.5,3.6,3.4,8.2-1.2,10.5c-4.3,2.1-4.2-3.6-5.3-5.5c-5.2-8.4-10.9-16.8-11.5-29.9c-2-10.8,2.7-22.3,9.7-33.4
	c1.8-2.8,3.6-3.2,5.8-2.1c2.4,1.3,2,3.9,0.7,5.9C352.1,123.3,352.7,141.4,365,159.2z"/>
<path d="M357.3,349.2c0.8-0.1,1.7-0.2,2.5-0.3C359,349.1,358.1,349.2,357.3,349.2z"/>
<path d="M354.9,349.5c0.4,0,0.8-0.1,1.2-0.1C355.7,349.4,355.3,349.4,354.9,349.5z"/>
<path class="st5" d="M340.2,386.2c3.2,0.1,4.7,3.3,4.9,6.2c0.9,13.3,1.4,26.5,2.4,39.8c0.1,1-2.2,2.7,0.7,3.4
	c2.4,0.6,2.8-1.2,3.6-2.6c5.7-10.6,11.2-21.2,17.2-31.7c0.9-1.5,1.8-5.5,4.9-3.2c2.1,1.5,3.9,3.8,1.9,7.4
	c-7.1,12.2-13.5,24.8-20.8,36.8c-2.2,3.7-2,6.2,0,9.1c7.9,11.6,15.3,23.6,24,34.5c3.2,4,7.9,6.8,1.8,10.3c-5.4,3.1-7.1-3.3-9.5-6.8
	c-6.7-9.8-13.4-19.7-20.1-29.5c-0.4-0.5-1.1-0.8-1.7-1.3c-0.5,1.9-1,3.8-1.2,4.6c0.8,11.8,1.4,22.2,2.2,32.7
	c0.2,2.9-1.1,4.8-3.2,6.4c-1-2.4-4.5-1.7-5.1-5.4c-3.9-23.5-1.2-47.3-3.2-70.9c-1-11.4-1.3-22.9-1.8-34.3
	C337,389.1,336.9,386,340.2,386.2z"/>
<path class="st1" d="M303.9,310.6c3.5,34.3,25.7,40.7,50.3,38.9C328.4,351.4,302.5,345.3,303.9,310.6z"/>
<path d="M302.6,307.8c0.5,0.9,1.3,1.8,1.3,2.8C303.8,309.6,303.1,308.7,302.6,307.8z"/>
<path d="M302.4,307.5c0,0.1,0.1,0.1,0.1,0.2C302.5,307.6,302.5,307.6,302.4,307.5L302.4,307.5z"/>
<path class="st5" d="M301.5,497.8c3.1-1.3,5.1,2.8,5,5.2c-0.2,4.1-3.8,4.2-6.7,3.6c-19.6-0.6-22.2-4.1-23-24
	c-1-24.7-3.6-49.4-4.9-74.1c-0.8-14.3,5.9-20,19.9-17.6c4.7,0.8,14-3.6,13.3,5c-0.6,7.4-9.7,3.7-14.5,3.3c-13.2-1-9.4,8.2-9.6,14.7
	c-0.2,6.3,1.7,12.9,0.7,19c-2.1,11.8,4.3,12,12.7,11.3c4-0.3,10.6-3.9,11,3.2c0.3,6-6.4,5.2-10.6,5.1c-23-0.3-5.5,15.8-9.4,23.3
	c-1.1,2.2,0.8,6,1.1,9.1C287.3,494,287.4,503.6,301.5,497.8z"/>
<path class="st5" d="M262.9,496.9c0.4,0.6-0.2,2-0.7,2.8c-1.5,2.1-2.4,5.1-6.3,3.4c-1.3-0.6-3.3,0-4.8,0.4
	c-22.3,6-19.3-11.1-20.6-23.2c-2.3-21.4-4.3-42.9-5.4-64.5c-0.9-18.2,0.6-19,19.6-19c4.2,1,12.8-2.9,12.9,3.6
	c0.1,5.9-8.8,4.3-13.7,4.2c-7.6-0.3-11.1,1.8-10,10c1.4,11,1.5,22.2,3.6,33c0.9,4.6,6.3,1.2,9.6,1.1c3.3-0.1,6.5,0.1,7.5,3.8
	c1,3.5-2.8,3.9-4.2,3.8c-19.3-1.9-10.1,11.4-10.6,19.5c-0.1,1,0.6,2.1,0.4,3c-2.2,13.6,2.7,19.5,16.7,15.7
	C259.6,493.7,261.6,494.8,262.9,496.9z"/>
<path class="st5" d="M174.6,443.4c0.1,2.7,0.9,3.1,3.7,3c11.6-0.5,21.6-0.8,17.9-17.9c-2.2-10.6-0.4-22-0.4-33
	c0-2.9,0.5-6.7,3.4-6.8c3.6-0.2,4.3,4,4.4,6.8c0.8,15.3,1.6,30.5,1.7,45.8c0.2,20.7-0.1,41.5-0.4,62.2c0,2.3,1.1,5.6-2.7,6.3
	c-3.8,0.7-5.7-1.7-5.8-4.9c-0.3-8.6-0.1-17.2-0.1-25.8c-0.2,0-0.4,0-0.6,0c0-6.8-0.3-13.5,0.1-20.2c0.3-5.8-2.3-5.8-7.1-6.1
	c-14.3-0.7-15.3,7.4-14.2,18.6c1.1,10.8,0.7,21.7,1.3,32.5c0.2,3.6-0.9,6.4-4.3,6.8c-3.4,0.4-3.5-3.3-4-5.6
	c-2.8-12.8-1.9-25.8-2-38.8c-0.2-18.6-1.3-37.3-1.8-55.9c-0.2-6.2-0.8-16.8,5.2-16.4c7.3,0.6,3.2,10.9,3.8,16.9
	C173.9,421.5,174.1,432.5,174.6,443.4z"/>
<path class="st5" d="M120.2,489.5c0.8,4.3,3.6,11.1,10.7,8.9c6.3-1.9,5.1-7.6,4.8-12.7c-0.2-3.1-0.5-7.3,3.3-7.5
	c3.7-0.3,3,3.9,3.7,6.7c2.5,10.5,1.3,20-10.6,22.4c-12.1,2.5-18-6.1-21.5-16.4c-2.2-6.4-3.8-12.8-3.2-19.6
	c2.6-19.4-0.1-39.3,7.9-58.2c6-14.1,17.4-20.4,28.8-14.5c5.1,2.7,6.1,7.4,7.1,12.2c0.2,1.1-1.3,3-2.5,3.6c-0.8,0.4-3.5-0.7-3.5-1.3
	c-0.4-5.9-4.2-9.9-9.2-9.7c-5.3,0.3-8.9,6-10.6,10.4C115.8,438.4,115.1,463.9,120.2,489.5z"/>
<path d="M87.2,361.1c0-0.2,0-0.4,0.1-0.5C87.4,361,87.4,361.2,87.2,361.1z"/>
<path d="M84.2,359.5c1.8,0.4,2.7,1.6,3,1.7c-2.6,23.2-5.2,42.6-7,62.1c-2.5,27.7,2.5,54.7,9.8,81.2c5,18.3,11.3,36.3,20.2,53.2
	c1,1.9,2.5,4.4,0,5.9c-2.2,1.3-5,0.6-6.8-1.6c-6.4-7.6-9.1-17-12.6-26c-13.2-34.6-21.2-70.5-20.3-107.5c0.5-21.6,5.2-43.1,8.3-64.6
	C79.1,361.5,80.9,358.8,84.2,359.5z"/>
<g id="XMLID_7_">
	<g>
		<path d="M837.7,447.8c3.6,10.9-3.2,19.8-8.3,27.9c-25.2,40.2-50.6,80.2-77.1,119.5c-15.8,23.4-34.9,44.5-54.7,64.8
			c-17.4,17.9-33.7,37.1-52.2,53.8c-30.5,27.5-65.4,46.7-107.5,49.7c-26.6,1.9-53.2,5.3-79.8,5.9c-36.6,0.8-73.2,0.5-109.9-3.1
			c-32.1-3.2-63.7-8.2-94.2-17.8c-23.6-7.4-46.2-17.9-67.3-31.1c-35.5-22.1-69.2-46.7-99.7-75.5c-21.1-20-45-37.4-61.9-61.3
			c-21.6-30.7-50.5-56-66.8-90.5c-7.5-15.8-18.6-30.6-17.2-49.2c-2.2-16,6.5-28.7,13.2-41.1c21.5-39.7,43.2-79.4,67.2-117.6
			c28.9-45.9,58.9-91.3,94.2-132.7c23-26.9,50.6-49.4,76.3-73.7c21.7-20.6,45.2-37.9,74.7-45.6c18.5-4.9,36-0.8,53.6,5.2
			c31.7,10.7,60.6,28,92.5,38.2c28.4,9.1,55.1,1.3,82.3-5.2c23.8-5.7,46.4-16.1,71.4-16.5c16.9-0.3,30.6,8.7,43.5,17.5
			c38.4,26.2,72.9,57,99,95.8c21.8,32.4,38,68.1,55.6,103c23.4,46.4,43.6,94.1,59.9,143.4C828.5,423.5,833.6,435.5,837.7,447.8z
			 M828.6,457.5c0.6-1,1.3-2.1,1.9-3.1c-1.2-3.7-2-7-3.2-10.2c-5.3-14.1-11.8-27.9-15.9-42.3c-7.3-25.5-18.3-49.5-28.8-73.6
			c-13.7-31.6-30.7-61.7-45.2-92.9c-18.2-38.9-40-75.1-69.6-106.7c-17.2-18.3-37-33.2-56.8-48.1c-13.7-10.2-27.8-20.4-46.4-19.9
			c-26.1,0.7-48.7,13.9-73.1,20.8c-29.6,8.4-58.6,11.7-88-0.4c-27.1-11.2-52.8-25.2-80-36.3c-32-13.1-61.5-11.6-90.5,6.7
			c-14.1,8.9-26.5,19.8-38.5,31.2c-21.9,20.7-44.3,40.9-65,62.7c-21.6,22.7-38.7,49.1-56.7,74.7c-17.8,25.3-35.5,50.6-51.1,77.3
			c-17.4,29.8-34.4,59.8-51.2,89.9c-7.1,12.8-13.2,26.1-19.6,39.3c-0.8,1.7-0.4,4-0.6,6c1.1-0.7,2.5-1.2,3.2-2.2
			c19.7-27.3,39.3-54.6,61.5-80c21.1-24.3,40.8-49.7,63.6-72.6c28.7-28.6,58.1-56.3,89-82.6c25.8-22,55.1-35.9,89.5-37.3
			c35.8-1.4,67.9,14.3,101.4,23.3c31.9,8.6,62,8.9,92.6-3.8c33.9-14.1,68.7-25,106.3-16.4c35,8,64.7,26.5,91.3,49.2
			c24.1,20.5,46.7,43,65,69.3c14.4,20.7,29.8,40.6,42,62.7c10,18.2,19.5,36.8,30.5,54.3c12.6,20,26.5,39.2,39.9,58.7
			C826.9,456,827.8,456.8,828.6,457.5z M822.8,463.1c-0.7-1.6-1-2.8-1.7-3.8c-11.3-15.3-23-30.5-34.1-46c-21-29.4-33.6-63.8-55-92.9
			c-0.9-1.2-2.1-2.3-3.1-3.5c-0.8,1.5-1.9,2.8-2.3,4.4c-3.5,12.5-15.9,18.8-27.8,15c-8.8-2.8-16.1-11.8-27.2,0.4
			c-10.8,11.8-44.1,3.7-53.5-10.1c-1.2-1.8-2-2.8-3.8-0.8c-12.4,14.4-40.9,14.6-54.8,5.2c-6.3-4.3-12.9-10.5-21.8-0.7
			c-9,10-20.9,10.6-33.3,3.1c-6.1-3.6-14.7-10.5-19.3,3.2c-1.1,3.2-5.2,6-8.5,7.9c-16.3,9.4-33.9,7.6-51.6,5.8
			c-11.7-1.2-20.3-4.9-23-17.3c-0.1-0.7-1.5-1.1-2.2-1.6c-0.6,0.9-1.4,1.7-1.8,2.7c-2,5.9-6.2,9.2-12.2,10.3
			c-6.6,1.3-13.3,2.7-20,3.7c-1.2,0.2-2.4,0.4-3.6,0.5c-0.3,0-0.5,0.1-0.8,0.1c-0.6,0.1-1.2,0.1-1.8,0.2c-0.8,0.1-1.7,0.2-2.5,0.3
			c-0.4,0-0.8,0.1-1.3,0.1c-0.4,0-0.8,0.1-1.2,0.1c-0.2,0-0.5,0-0.7,0.1c-24.6,1.7-46.7-4.7-50.3-38.9c0-1-0.8-1.9-1.3-2.8
			c0,0,0-0.1,0-0.1c0-0.1-0.1-0.1-0.1-0.2c-1.1,0.7-2.1,1.4-3.2,2.2c-8.6,6.2-14.9,17.5-27.8,14.4c-9.3-2.2-16.5-9-22.4-16
			c-6.3-7.6-10.7-15-16.3,0c-0.5,1.3-2,2.1-3.1,3.2c-16,16.9-33.5,18.9-48.5,4.1c-5.4-5.3-5.9-8.3-10.1,1.1
			c-5.5,12.1-17.6,18.1-29.4,23.8C122,350,112.1,348,99,331c-1.1-1.4-2.6-1.6-3.1,0.1c-2.7,9.8-10.3,15.8-17,22.5
			c-10.3,10.1-37,15.1-46.3,6.5c-10-9.4-13.6-2.8-18.9,3.9c-19.2,24.3-36,50.5-56.7,73.7c-4,4.5-5.9,10.9-1.9,17.7
			c11.7,20.4,28.6,36.7,44.7,53C32.4,541.5,72.5,565,113.2,587c0.8,0.4,2.8-0.2,3.3-0.9c11.3-17.2,18.2-20.7,35.5-13.4
			c11.1,4.7,25.5,5.8,30.6,20.3c0.2,0.6,2.7,1.2,3,0.9c5.4-7.2,14.4-7.4,21.5-11.3c23.3-12.7,47-24.3,71-35.6
			c16.2-7.6,33-14.1,50.2-16.8c14.4-2.3,29.5,1,44.5,3.7c20.3,3.6,41.7,2.3,62.7-0.7c26.5-3.8,53.4-7,79.3,3.5
			c31.3,12.7,60.1,30.3,90,45.7c12.2,6.3,20.4,8.1,31.8-2.4c10.2-9.5,22.9-15.3,31.7-4c4.9,6.3,12.4,10.5,14.7,18.9
			c0.7,2.7,2.5,1.3,4,0.3c22.9-16.3,43.8-35.1,62.9-55.6c19-20.4,37.1-41.7,58.4-60C813.7,474.8,818,468.6,822.8,463.1z
			 M811.9,488.8c0.5-0.8,0.3-2,0.4-3c-0.6,0.2-1.3,0.2-1.7,0.6c-10.5,10.4-21.7,20.3-31.2,31.5c-22.9,27-47.7,51.9-75.7,73.5
			c-20,15.4-40.3,30.2-62.1,43c-24.4,14.4-50.3,21.6-78.9,17.9c-18.2-2.3-36.4-4.9-54.7-6.2c-28.9-2-58-2.8-86.9-4.5
			c-29.3-1.7-58.4-1.1-87.6,2.1c-30.8,3.4-61.6,3.9-92.6,0.4c-25.7-2.9-48.8-12.5-72.7-21.1c-24.9-8.9-48-21.2-70.7-33.7
			C51.7,563.8,6.8,536.2-26,493.5c-0.6-0.7-2-0.8-3.1-1.2c0.4,1,0.5,2,1.1,2.9c9.4,14.5,19.6,28.3,30.9,41.4
			c21.6,24.9,39,53.6,64.5,75c26.2,22.1,50.7,46.1,78.6,66.5c24.5,17.9,49.7,34.1,77.1,47.1c25.3,11.9,51.5,20.4,79,25.2
			c19.6,3.4,39.5,4.6,59.1,7.3c32.9,4.6,65.9,1.5,98.8,2.4c18.7,0.5,37.5-2.3,56.3-3.6c0,0.2,0,0.3,0,0.5c8.8-0.9,17.6-1.5,26.3-2.6
			c50.2-6.6,88.5-34,121.7-70.1c17.6-19.2,35.7-38,53.2-57.2c20.2-22.2,36.6-47.2,52.2-72.9C783.3,531.9,797.9,510.5,811.9,488.8z
			 M690.8,324.3c18.1,6.9,32.9-0.1,32.8-16.2c-0.8-1.3-1.6-2.8-2.6-4.1c-6.3-8.5-12.7-16.8-18.8-25.4c-2.7-3.9-7.2-4.8-10.6-4.8
			c-2.9,0-1,5-1.5,7.7c-1,6.2-3.2,12.6-2.4,18.6C688.9,308.1,674.5,318.1,690.8,324.3z M688.6,263.1c0.9-4.6-4.8-7.4-7.6-11
			c-0.6-0.7-2-0.7-2.6-1.4c-18.6-21.7-40.2-39.9-63.9-55.7c-18-11.9-37.1-21.5-57.8-26.9c-34.8-9.2-67.2,2.9-99.1,14.9
			c-17.9,6.7-36,13.9-55.3,13.7c-28.8-0.4-55.6-11.8-83.2-18.6c-18.4-4.5-35.9-12.7-62.3-12.2c-21.6,0.3-47.8,8.2-70.5,25.6
			c-32.5,24.9-62.3,53-91.6,81.6c-1.2,1.2-3.8,1.8-2.6,4.2c0.1,0.3,3.2-0.5,4.7-1.2c22.6-11.7,44.2-25.2,69.2-31.7
			c11.5-3,22.9-5.9,34.7-8c20.5-3.6,40.7-8.7,61-13.1c14.4-3.1,28.5,0,42.7,1.9c18.7,2.5,38,1.8,56.3,5.8
			c39.5,8.7,78.3,3.7,117.2-2.4c22.4-3.5,44.8-8.1,67.2-1.4c44.7,13.2,89.3,26.6,135.5,33.6C683.6,261.2,688.1,265.6,688.6,263.1z
			 M682.2,277.8c-0.8-3,2.4-8-4.7-9.2c-16-2.7-31.8-6-47.7-9.3c-3.2-0.7-3.9-0.6-4.1,2.9c-1.1,15.2-1.1,30.7-4.6,45.4
			c-2.2,9.4,0.9,14.2,7.1,18c5.8,3.6,12.6,5.9,19.2,7.6c13.5,3.5,23-2,27.6-14.9C679.5,305.3,681.3,291.9,682.2,277.8z M669.2,608.1
			c8.9-5.9,7.8-9.7,1.9-16.9c-7.2-8.8-13.8-16.2-25.6-7.6c-6.2,4.5-12.6,8.7-18.6,13.5c-4.6,3.6-9,7.8-9.6,14
			c1.5,7.1,3.3,13.8,4.2,20.7c0.5,4.1,1.7,3.9,4.6,2.4C641.1,626.4,655.2,617.3,669.2,608.1z M617.7,262.4c-0.4-1.6,1.5-5.3-2-6
			c-19.1-3.9-37.4-10.1-55.4-17.5c-2-0.8-2.9,0.4-2.8,2.3c0.7,24.5-0.8,48.7-8.6,72.1c-0.4,1.3-1.9,2.8,0.7,3.6
			c11.5,3.8,21.3,11.7,34.3,12.4c13.8,0.7,25.5-6.6,28.9-20C616.5,294.2,616.5,278.6,617.7,262.4z M615.5,637.9
			c1.2-0.8-3.8-9.9-4.9-15.4c-5-26.2-8.8-28.9-34.5-28.8c-26.1,0.2-45.1,8.1-36.4,32.4c1.9,5.3-2.4,14.2,6.8,15.6
			c11.5,1.7,23.2,2.1,34.8,3.1c0-0.2,0-0.5,0.1-0.7c2.9,0,5.9,0,8.8,0C599.2,644.2,608.2,642.8,615.5,637.9z M586.5,584.8
			c-0.2-0.4-0.2-1-0.5-1.2c-22.3-11.5-43.5-24.9-66.7-34.8c-26.6-11.3-53.1-10.5-81-7.5c-19.4,2.1-38.8,8.5-58.8,2.8
			c-11.7-3.3-23.3-7.2-38.6-7.5c-5.7,1-14.5,1.8-22.8,4c-29,7.7-53.8,24.6-80.1,38.1c-11.1,5.7-18.3,10.2-0.2,15.7
			c0.2,0,0.3,0.3,0.4,0.3c5.9,1.8,12.7,8.8,15.7-3.7c0.7-3.2,1.6-7.7,5.9-9.3c16.6-6.2,32.7-7.1,47.6,4.2c7.5,5.7,14.3,10.4,14.4-5
			c0-1.2,0.9-2.6,1.7-3.6c17.2-22,35.9-21,59.3-6.5c3.9,2.4,9.8,13.3,12.5-1.6c0.5-2.7,4.8-5.6,8-6.8c8.5-3.4,16.9-6.6,26.3-8
			c19.5-3,42.4,5.2,40.4,28.6c-0.1,1.3-0.2,4.6,2.1,3c7.9-5.6,17.4-6.2,26.1-9.3c16.1-5.6,29.2-1,33.6,13.3
			c2.2,7.1,1.6,10.5,9.7,3.9c11.7-9.7,26.5-9.9,41.1-8.1C583.9,585.8,585.2,585.1,586.5,584.8z M549.8,254.8
			c0.6-12.9-0.6-20.4-14.6-21.5c-5.1-0.4-10.2-0.9-15.3-1.4c-10.8-1.5-21.1,2.5-31.8,2.6c-2.5,0-3.9,1.2-3.1,4.8
			c5.2,23.3,10,46.9,8.3,70.9c-0.7,9.6,4.1,11.4,10.4,13.9c3.2,1.2,6.3,2.6,9.4,4c9.6,4.2,23.9-3.4,26.8-13.6
			C545.4,294.9,548.8,275.2,549.8,254.8z M529.1,639.5c3.1,1.4,3.6,0.8,3.2-1.5c-1.7-10.3-3.3-20.7-5-31.1
			c-2.9-17.8-9.2-25-20.9-23.3c-7,1-13.9,3.2-20.9,4.5c-12.7,2.5-18.8,9.4-16.8,22.8c0.6,4.5-1.5,9.4-0.5,13.7
			c0.8,3.5-3.3,10.3,2.7,10.3C490.7,635.3,510.4,637.3,529.1,639.5z M444.5,342.7c27.8,0,42.2-12.1,41.2-33.9
			c-1.1-22.5-2.2-44.9-8.9-66.6c-0.7-2.1,1.7-5.6-3.4-4.8c-6.9,1-13.9,1.7-20.8,2.5c-17.4,2-31.1,7.2-49,3.9c-3.1-0.6-2.1,1.4-1.9,3
			c2.4,21.8,0.5,43.7,4.1,65.3c1.8,11-0.6,26,16.3,29c6.4,1.1,12.9,1.5,19.3,2.3c0-0.2,0.1-0.4,0.1-0.6
			C442.5,342.7,443.5,342.7,444.5,342.7z M460,626.2c-1.1-9.1,0.9-18.6,0.7-27.9c-0.3-11.6,4.8-25.5-8-33.1
			c-9.6-5.7-21-4.8-31.8-0.8c-9.6,3.6-20.9,5-20.6,19.2c0.1,2.8,0.1,5.7,0.1,8.5c0,2.4,0,4.7,0,7.1c0,0,0,0,0,0c0,2.4,0,4.8,0,7.2
			c0,2,0,3.9,0,5.9c0,0.2,0,0.3,0,0.5c0,1.9,0,3.8,0,5.7c0,3.2,0,6.5-0.1,9.7c-0.1,2.8,0.9,3.9,3.7,3.9c14.8,0,29.5,0.3,44.2,2.2
			C453.6,635.1,461.4,638.1,460,626.2z M366.3,339.6c21.2-1.5,33.2-14.3,31.1-33.4c-1.8-16.3,0.1-32.6-1.7-48.8
			c-0.5-4.5-0.9-12.6-2.2-12.8c-19.7-3-39.5-5.1-59.2-8.1c-5.8-0.9-16.9-4.1-22,0.4c-6,5.3-2.3,26.1-2.5,33.5
			c-0.2,13.1,0.1,26.2,2.3,39.2c2.2,13.1,5.6,26.5,22,29.7c7.3,1.4,14.7,2.7,22.2,1.5C359.6,340.4,363,339.9,366.3,339.6z
			 M377.3,630.9c14,4.8,17-1.9,15-13.8c-0.3-2,0.3-4.2-0.1-6.2c-1.9-9.4,4.3-20.7-5.3-28.1c-6.2-4.8-13.6-8.1-20.5-11.9
			c-13.3-7.3-31.9,0.7-36,15.3c-4.5,16-0.5,32.3-1.6,48.5c0,0.2,1.9,0.8,2.8,0.7C347,633.9,362.2,632.3,377.3,630.9z M317.1,636.2
			c3.7,0.2,3.5-1.5,3.5-3.9c-0.3-8.6-0.6-17.2-1.1-25.7c-0.1-1.7-0.5-4.4-1.6-5c-9.9-5.5-18.7-13.7-30.2-15.4
			c-8.7-1.3-19.1-3.2-24.9,6.7c-6.7,11.4-9.4,24.3-10.9,37.4c-0.2,1.9-2.3,5.2,3.3,5.9c15.6,2,31.1,0.6,46.6,1.1
			C306.8,636.8,312,635.9,317.1,636.2z M299.8,288.2c-3-15.2,1.7-25.9,0.4-41.4c-0.9-9.6-2.1-14-10-15.7c-0.1,0-0.2-0.1-0.4-0.1
			c-17-3.4-33,1.3-49.1,5.2c-4,1-9.7,0-7.8,7.5c3.1,20.3,8,40.3,20.5,57.3c10.7,14.4,21.4,17.4,31.1,8.9
			C291.2,304.2,302.2,300.7,299.8,288.2z M243.1,633.1c2.8-7.5,2.2-16.3,3.3-27.7c-0.6-3.8-7.4-1.3-11.2-3.1
			c-22.8-11-34.8-16.8-47.8,2.2c-2.9,4.2-10.2,11.6-3.3,14.8c14.4,6.6,30.2,10.3,45.7,14.1C233.9,634.2,241.2,638.2,243.1,633.1z
			 M234.1,288.7c2.8-5-2.4-11-3.9-16.6c-1.6-6.1-2.3-12.4-4.5-18.3c-1.7-4.5,1.1-11.3-4.4-13.8c-14.6,2.7-27.6,4.2-40,7.6
			c-5,1.4-15,1.3-14.3,7.3c2,17.1,5.3,34.4,15.5,49.1c5,7.1,12.2,13.4,21,12.2C219.2,313.9,227.3,301.1,234.1,288.7z M177.3,601.8
			c-0.2-2.2,0-3.8-0.4-5.3c-2.6-8.6-34-22.5-41.9-18.3c-4.8,2.6-10.6,6-10.7,11.7c-0.1,4.4,6.3,5.3,10,7.3
			c9.4,4.9,19.6,8.5,28.7,13.8C175.7,618.4,176.1,609.7,177.3,601.8z M148.6,326.3c15.9-9.2,21.5-22.8,16.7-40
			c-2.5-9-6.5-17.7-5.9-27.3c0.3-4.6-1.5-4.6-5.4-3.5c-18.5,5.3-33.7,17.4-51.1,24.9c-3.1,1.4-9.5,2.3-8.2,8.5
			c0.1,5.7,10.8,39.3,14.1,43.2c2.6,3.2,5.9,5.6,10.6,5.2C130.1,336.4,139.4,331.6,148.6,326.3z M87.3,331.5
			c9.4-14.5-0.2-27.7-0.9-41.5c0-0.3-1.8-0.9-2.3-0.6c-5.3,3.3-11.3,6-15.5,10.4c-12,12.6-23.4,25.7-34.7,39
			c-3.3,3.9-5.8,8.5,0.7,13c6.8,4.8,14.6,0,19.8,3.3C64.6,355.7,79.9,342.9,87.3,331.5z"/>
		<path class="st5" d="M723.6,308.1c0.1,16.1-14.7,23.2-32.8,16.2c-16.3-6.3-1.9-16.2-3-24.3c-0.9-6,1.4-12.4,2.4-18.6
			c0.4-2.7-1.4-7.7,1.5-7.7c3.4,0,7.8,0.9,10.6,4.8c6,8.6,12.5,16.9,18.8,25.4C722,305.3,722.8,306.8,723.6,308.1z"/>
		<path class="st5" d="M677.4,268.5c7.1,1.2,3.9,6.2,4.7,9.2c-0.9,14.1-2.7,27.5-7.2,40.4c-4.5,12.9-14,18.4-27.6,14.9
			c-6.6-1.7-13.4-4.1-19.2-7.6c-6.2-3.8-9.4-8.6-7.1-18c3.5-14.7,3.4-30.2,4.6-45.4c0.2-3.5,1-3.6,4.1-2.9
			C645.6,262.5,661.5,265.8,677.4,268.5z"/>
		<path class="st5" d="M671.1,591.1c5.9,7.2,7,11.1-1.9,16.9c-14.1,9.3-28.1,18.4-43.1,26c-2.9,1.5-4.1,1.7-4.6-2.4
			c-0.8-6.9-2.7-13.6-4.2-20.7c0.7-6.2,5-10.3,9.6-14c6-4.8,12.4-9,18.6-13.5C657.4,575,663.9,582.4,671.1,591.1z"/>
		<path class="st5" d="M615.7,256.4c3.5,0.7,1.6,4.4,2,6c-1.1,16.2-1.1,31.8-5,47c-3.4,13.4-15.1,20.7-28.9,20
			c-13-0.6-22.8-8.6-34.3-12.4c-2.6-0.8-1.2-2.3-0.7-3.6c7.8-23.5,9.3-47.7,8.6-72.1c-0.1-1.9,0.9-3.1,2.8-2.3
			C578.2,246.3,596.5,252.5,615.7,256.4z"/>
		<path class="st5" d="M610.6,622.5c1.1,5.5,6.1,14.6,4.9,15.4c-7.3,4.9-16.3,6.2-25.3,6.2c-2.9,0-5.9,0-8.8,0c0,0.2,0,0.5-0.1,0.7
			c-11.6-1-23.3-1.4-34.8-3.1c-9.3-1.4-4.9-10.3-6.8-15.6c-8.6-24.3,10.4-32.3,36.4-32.4C601.9,593.6,605.6,596.3,610.6,622.5z"/>
		<path class="st5" d="M535.2,233.3c14,1.1,15.2,8.6,14.6,21.5c-1,20.5-4.4,40.1-9.9,59.6c-2.9,10.3-17.2,17.9-26.8,13.6
			c-3.1-1.4-6.2-2.8-9.4-4c-6.3-2.5-11.1-4.3-10.4-13.9c1.7-23.9-3.2-47.5-8.3-70.9c-0.8-3.6,0.6-4.8,3.1-4.8
			c10.6-0.1,21-4,31.8-2.6C525,232.4,530.1,232.9,535.2,233.3z"/>
		<path class="st5" d="M532.3,638c0.4,2.3-0.2,2.9-3.2,1.5c-18.7-2.2-38.3-4.2-58.2-4.5c-6-0.1-1.9-6.8-2.7-10.3
			c-1-4.3,1.2-9.3,0.5-13.7c-1.9-13.5,4.2-20.3,16.8-22.8c7-1.4,13.8-3.5,20.9-4.5c11.8-1.7,18,5.5,20.9,23.3
			C529,617.3,530.6,627.7,532.3,638z"/>
		<path class="st5" d="M485.7,308.8c1.1,21.8-13.3,33.9-41.2,33.9c-1,0-2.1,0-3.1,0c0,0.2,0,0.4-0.1,0.6c-6.4-0.7-12.9-1.1-19.3-2.3
			c-16.9-3-14.5-18-16.3-29c-3.6-21.6-1.6-43.5-4.1-65.3c-0.2-1.6-1.2-3.6,1.9-3c17.8,3.4,31.5-1.9,49-3.9
			c6.9-0.8,13.9-1.4,20.8-2.5c5-0.7,2.7,2.7,3.4,4.8C483.5,263.9,484.6,286.4,485.7,308.8z"/>
		<path class="st5" d="M460.6,598.3c0.3,9.3-1.7,18.8-0.7,27.9c1.4,11.9-6.4,8.9-11.9,8.2c-14.7-1.9-29.5-2.2-44.2-2.2
			c-2.8,0-3.7-1.1-3.7-3.9c0.1-3.2,0.1-6.5,0.1-9.7c0-1.9,0-3.8,0-5.7c0-0.2,0-0.3,0-0.5c0-2,0-3.9,0-5.9c0-2.4,0-4.8,0-7.2
			c0,0,0,0,0,0c0-2.4,0-4.7,0-7.1c0-2.8,0-5.7-0.1-8.5c-0.3-14.2,11-15.7,20.6-19.2c10.8-4,22.1-4.9,31.8,0.8
			C465.4,572.9,460.3,586.8,460.6,598.3z"/>
		<path class="st5" d="M397.4,306.2c2.1,19.1-9.8,32-31.1,33.4c-3.3,0.2-6.7,0.7-10,1.1c-7.5,1.2-14.9,0-22.2-1.5
			c-16.3-3.2-19.8-16.6-22-29.7c-2.2-13-2.5-26-2.3-39.2c0.1-7.4-3.5-28.2,2.5-33.5c5.1-4.5,16.2-1.2,22-0.4
			c19.7,3,39.5,5.1,59.2,8.1c1.4,0.2,1.7,8.3,2.2,12.8C397.5,273.6,395.6,289.9,397.4,306.2z"/>
		<path class="st5" d="M392.3,617c2,11.9-1.1,18.6-15,13.8c-15,1.5-30.3,3-45.6,4.5c-1,0.1-2.9-0.5-2.8-0.7
			c1.1-16.1-2.9-32.5,1.6-48.5c4.1-14.6,22.7-22.6,36-15.3c6.9,3.8,14.4,7.1,20.5,11.9c9.5,7.4,3.4,18.7,5.3,28.1
			C392.6,612.8,392,615,392.3,617z"/>
		<path class="st5" d="M320.5,632.3c0.1,2.3,0.2,4.1-3.5,3.9c-5.1-0.3-10.2,0.6-15.4,1c-15.6-0.4-31.1,0.9-46.6-1.1
			c-5.6-0.7-3.5-4-3.3-5.9c1.5-13.1,4.2-25.9,10.9-37.4c5.8-9.9,16.2-8,24.9-6.7c11.4,1.7,20.2,10,30.2,15.4c1.1,0.6,1.5,3.2,1.6,5
			C319.9,615.1,320.2,623.7,320.5,632.3z"/>
		<path class="st5" d="M300.1,246.8c1.4,15.5-3.3,26.1-0.4,41.4c2.4,12.5-8.6,16-15.2,21.8c-9.7,8.5-20.5,5.5-31.1-8.9
			c-12.5-16.9-17.5-37-20.5-57.3c-2-7.5,3.7-6.5,7.8-7.5c16.1-3.9,32-8.6,49.1-5.2c0.1,0,0.2,0.1,0.4,0.1
			C298,232.8,299.3,237.3,300.1,246.8z"/>
		<path class="st5" d="M246.4,605.3c-1.2,11.4-0.6,20.2-3.3,27.7c-1.9,5.1-9.2,1.2-13.2,0.2c-15.5-3.8-31.3-7.5-45.7-14.1
			c-6.9-3.2,0.4-10.5,3.3-14.8c13-19,25-13.1,47.8-2.2C239,604,245.8,601.5,246.4,605.3z"/>
		<path class="st5" d="M230.3,272c1.4,5.6,6.7,11.6,3.9,16.6c-6.9,12.4-15,25.2-30.6,27.5c-8.8,1.3-16.1-5-21-12.2
			c-10.2-14.7-13.5-32-15.5-49.1c-0.7-6,9.3-5.9,14.3-7.3c12.4-3.5,25.4-5,40-7.6c5.5,2.5,2.8,9.3,4.4,13.8
			C227.9,259.6,228.7,265.9,230.3,272z"/>
		<path class="st5" d="M176.8,596.6c0.4,1.4,0.3,3.1,0.4,5.3c-1.2,7.8-1.5,16.5-14.3,9.1c-9.1-5.3-19.3-8.9-28.7-13.8
			c-3.7-1.9-10.1-2.8-10-7.3c0.1-5.7,5.9-9.1,10.7-11.7C142.9,574,174.3,588,176.8,596.6z"/>
		<path class="st5" d="M165.3,286.3c4.8,17.2-0.8,30.8-16.7,40c-9.2,5.3-18.5,10.1-29.2,11c-4.6,0.4-7.9-2-10.6-5.2
			c-3.2-3.9-14-37.6-14.1-43.2c-1.3-6.2,5.1-7.1,8.2-8.5c17.4-7.5,32.6-19.6,51.1-24.9c3.9-1.1,5.6-1.2,5.4,3.5
			C158.8,268.6,162.8,277.4,165.3,286.3z"/>
		<path class="st5" d="M86.4,290c0.7,13.8,10.3,27,0.9,41.5c-7.4,11.4-22.8,24.2-32.9,23.6c-5.2-3.3-13,1.6-19.8-3.3
			c-6.4-4.6-4-9.1-0.7-13c11.3-13.3,22.7-26.4,34.7-39c4.2-4.4,10.2-7.1,15.5-10.4C84.6,289.1,86.4,289.8,86.4,290z"/>
	</g>
	<g>
	</g>
</g>
</svg>
