<?xml version="1.0" encoding="utf-8"?>
<!-- Generator: Adobe Illustrator 19.1.0, SVG Export Plug-In . SVG Version: 6.00 Build 0)  -->
<svg version="1.1" id="Layer_1" xmlns="http://www.w3.org/2000/svg" xmlns:xlink="http://www.w3.org/1999/xlink" x="0px" y="0px"
	 viewBox="-576 372 50 50" style="enable-background:new -576 372 50 50;" xml:space="preserve">
<style type="text/css">
	.st0{fill:#FF9D6C;stroke:#FFFFFF;stroke-width:2.7636;stroke-miterlimit:10;}
	.st1{fill:#FFFFFF;}
</style>
<g>
	<path class="st0" d="M-532.5,392.9c-1.6-7.5-7.9-13.5-15.5-14.6c-0.7-0.1-1.3-0.2-2-0.3h-1.9c-0.6,0.1-1.3,0.1-1.9,0.3
		c-8.2,1.2-14.7,7.8-15.9,16.1c-1.5,10.2,5.5,19.6,15.4,21.3c0.8,0.1,1.5,0.2,2.3,0.3h1.9c0.7-0.1,1.3-0.2,2-0.3
		c8-1.2,14.6-7.6,15.8-15.5c0.1-0.6,0.1-1.1,0.3-1.7v-3C-532.3,394.6-532.3,393.8-532.5,392.9z"/>
	<path class="st1" d="M-559,394.7c0.2-0.4,0.6-0.7,1-0.7h14c0.4,0,0.8,0.3,1,0.7c0.2,0.4,0.1,0.9-0.2,1.2c0,0-6.6,7.7-7,8.1
		c-0.1,0.1-0.1,0.1-0.3,0.2c-0.2,0.1-0.4,0.2-0.6,0.2c-0.3,0-0.6-0.1-0.8-0.4l-7-8.1C-559.1,395.6-559.2,395.1-559,394.7z"/>
</g>
</svg>
