<?xml version="1.0" encoding="utf-8"?>
<!-- Generator: Adobe Illustrator 19.1.0, SVG Export Plug-In . SVG Version: 6.00 Build 0)  -->
<svg version="1.1" id="Layer_1" xmlns="http://www.w3.org/2000/svg" xmlns:xlink="http://www.w3.org/1999/xlink" x="0px" y="0px"
	 viewBox="-275 367 59.9 60" style="enable-background:new -275 367 59.9 60;" xml:space="preserve">
<style type="text/css">
	.st0{fill:none;stroke:#FFFFFF;stroke-width:4;stroke-miterlimit:10;}
	.st1{fill:#FFFFFF;}
	.st2{opacity:0.21;fill:#FFFFFF;stroke:#FFFFFF;stroke-width:4;stroke-miterlimit:10;}
</style>
<path class="st0" d="M-218.3,391c-2.3-10.9-11.5-19.5-22.5-21.1c-1-0.2-1.9-0.3-2.9-0.4h-2.7c-0.9,0.1-1.9,0.2-2.8,0.4
	c-11.9,1.8-21.3,11.3-23,23.3c-2.1,14.7,7.9,28.4,22.3,30.9c1.1,0.2,2.2,0.3,3.3,0.4h2.7c1-0.1,1.9-0.3,2.9-0.4
	c11.6-1.7,21.1-11,22.9-22.5c0.2-0.8,0.2-1.6,0.4-2.4v-4.4C-217.9,393.5-218,392.3-218.3,391z"/>
<path class="st1" d="M-256.6,393.7c0.3-0.6,0.8-1,1.5-1h20.2c0.6,0,1.2,0.4,1.5,1s0.2,1.3-0.3,1.7c0,0-9.6,11.2-10.1,11.7
	c-0.1,0.1-0.2,0.2-0.4,0.3c-0.3,0.2-0.6,0.3-0.9,0.3c-0.5,0-0.9-0.2-1.2-0.6l-10.1-11.7C-256.8,395-256.9,394.3-256.6,393.7z"/>
<path class="st2" d="M-218.3,391c-2.3-10.9-11.5-19.5-22.5-21.1c-1-0.2-1.9-0.3-2.9-0.4h-2.7c-0.9,0.1-1.9,0.2-2.8,0.4
	c-11.9,1.8-21.3,11.3-23,23.3c-2.1,14.7,7.9,28.4,22.3,30.9c1.1,0.2,2.2,0.3,3.3,0.4h2.7c1-0.1,1.9-0.3,2.9-0.4
	c11.6-1.7,21.1-11,22.9-22.5c0.2-0.8,0.2-1.6,0.4-2.4v-4.4C-217.9,393.5-218,392.3-218.3,391z"/>
</svg>
