<?xml version="1.0" encoding="utf-8"?>
<!-- Generator: Adobe Illustrator 19.1.0, SVG Export Plug-In . SVG Version: 6.00 Build 0)  -->
<svg version="1.1" id="Layer_1" xmlns="http://www.w3.org/2000/svg" xmlns:xlink="http://www.w3.org/1999/xlink" x="0px" y="0px"
	 viewBox="0 0 1000 1000" style="enable-background:new 0 0 1000 1000;" xml:space="preserve">
<style type="text/css">
	.st0{fill:#232222;}
	.st1{fill:#22D3C5;}
</style>
<g>
	<g>
		<path class="st0" d="M653.3,286.9H346.7L191.6,136v427h616.8V136L653.3,286.9z M379.6,405.9c-8.1-1.5-14.6-8.3-15.9-16.4
			c-2-12.7,7.7-23.5,19.9-23.5c11.1,0,20.2,9,20.2,20.2C403.7,398.6,392.4,408.4,379.6,405.9z M500.6,482.2l-45.1-45.1l89,1.2
			L500.6,482.2z M598.8,405.9c-14.3,2.6-26.4-9.5-23.7-23.7c1.5-7.9,7.9-14.3,15.8-15.8c14.2-2.7,26.4,9.4,23.7,23.7
			C613.2,398,606.7,404.5,598.8,405.9z"/>
	</g>
	<path class="st1" d="M191.6,588v276h136.1c7.9-7.8,7-19.2,7-19.3c0-0.2,0-0.5,0-0.7V683.3c0-4.4,3.6-8,8-8s8,3.6,8,8v160.3
		c0.4,5.1-0.4,12.8-3.9,20.4h461.6V734.6V588H191.6z M435.3,664.2c-11.1,0-20.2-9-20.2-20.2c0-11.1,9.1-20.1,20.2-20.1
		s20.2,9,20.2,20.1C455.5,655.2,446.4,664.2,435.3,664.2z M794.9,748.6L633.2,671v-69h161.7V748.6z"/>
</g>
</svg>
