<?xml version="1.0" encoding="utf-8"?>
<!-- Generator: Adobe Illustrator 19.1.0, SVG Export Plug-In . SVG Version: 6.00 Build 0)  -->
<svg version="1.1" id="Layer_1" xmlns="http://www.w3.org/2000/svg" xmlns:xlink="http://www.w3.org/1999/xlink" x="0px" y="0px"
	 viewBox="0 0 1000 1000" style="enable-background:new 0 0 1000 1000;" xml:space="preserve">
<style type="text/css">
	.st0{fill:#232222;}
	.st1{fill:#22D3C5;}
</style>
<g>
	<g>
		<g>
			<path class="st0" d="M241.1,111.4H93.8L19.3,38.9V244h296.3V38.9L241.1,111.4z M109.6,168.5c-3.9-0.7-7-4-7.6-7.9
				c-1-6.1,3.7-11.3,9.6-11.3c5.3,0,9.7,4.3,9.7,9.7C121.2,165,115.8,169.7,109.6,168.5z M167.7,205.2l-21.7-21.7l42.8,0.6
				L167.7,205.2z M214.9,168.5c-6.9,1.3-12.7-4.6-11.4-11.4c0.7-3.8,3.8-6.9,7.6-7.6c6.8-1.3,12.7,4.5,11.4,11.4
				C221.8,164.7,218.7,167.8,214.9,168.5z"/>
		</g>
		<path class="st1" d="M19.3,260.4V393h65.4c3.8-3.8,3.4-9.2,3.4-9.3c0-0.1,0-0.2,0-0.3v-77.2c0-2.1,1.7-3.8,3.8-3.8
			c2.1,0,3.8,1.7,3.8,3.8v77c0.2,2.5-0.2,6.2-1.9,9.8h221.8v-62.2v-70.4H19.3z M136.4,297c-5.3,0-9.7-4.3-9.7-9.7
			c0-5.3,4.4-9.7,9.7-9.7s9.7,4.3,9.7,9.7C146.1,292.7,141.7,297,136.4,297z M309.1,337.5l-77.7-37.3v-33.1h77.7V337.5z"/>
		<path d="M347.4,126.6h57.3v22.3h-33.1v22.6h33.1v22.3h-33.1V222h33.1v22.3h-57.3V126.6z"/>
		<path d="M440.6,244.3h-24.5l32.1-117.7h22.3l33.4,117.7h-24.5l-6-22.4h-27L440.6,244.3z M459.7,161.1l-7.5,38.5h14.9L459.7,161.1z
			"/>
		<path d="M533.8,207.2c0.3,12.2,4.5,18,15,18c8.9,0,13.7-5.6,13.7-14c0-10.7-12.7-13.2-25.4-18.1c-12.7-5.1-25.4-12.4-25.4-32.3
			c0-22.3,13.7-36.6,36.1-36.6c21.8,0,33.9,10.5,37.4,33.7h-23.5c-0.3-8.6-5.1-13.7-12.9-13.7c-7.6,0-12.2,5.7-12.2,12.9
			c0,11.1,12.7,13.2,25.4,18.3c12.7,5.1,25.4,13,25.4,35.5c0,22.1-16.5,35.6-39,35.6c-26.9,0-38.6-14.5-38.6-39.3H533.8z"/>
		<path d="M615.9,148.9h-19.7v-22.3h63.6v22.3H640v95.4h-24.2V148.9z"/>
		<path d="M663.9,126.6h24.5l15.3,75.4l15.6-75.4h21.3l15.6,75.4l14.6-75.4h24.2l-27.7,117.7h-21.3l-16.5-79.5l-15.9,79.5h-21.3
			L663.9,126.6z"/>
		<path d="M815,244.3h-24.5l32.1-117.7h22.3l33.4,117.7h-24.5l-6-22.4h-27L815,244.3z M834,161.1l-7.5,38.5h14.9L834,161.1z"/>
		<path d="M898.3,197.2L870,126.6h24.8l15.7,48l15.4-48h24.8l-28.3,70.6v47.1h-24.2V197.2z"/>
		<g>
			<path class="st1" d="M346.3,261.2h11.8V303l25.2-41.9h13.1l-27.1,43.4l29.2,44.8h-13.8l-26.6-42v42h-11.8V261.2z"/>
			<path class="st1" d="M436.2,261.2h41.9V272H448v26.5h30.1v10.9H448v29.2h30.1v10.9h-41.9V261.2z"/>
			<path class="st1" d="M569,327.9v-66.8h10.6v88.3h-11.9L534.9,280v69.4h-10.6v-88.3h13.1L569,327.9z"/>
			<path class="st1" d="M671.3,327.9v-66.8h10.6v88.3H670L637.2,280v69.4h-10.6v-88.3h13.1L671.3,327.9z"/>
			<path class="st1" d="M729.2,261.2H771V272H741v26.5H771v10.9H741v29.2H771v10.9h-41.9V261.2z"/>
			<path class="st1" d="M817.4,261.2h11.8v77.4h26.6v10.9h-38.4V261.2z"/>
			<path class="st1" d="M904.7,324c0.8,12.3,7.4,16.6,14.4,16.6c8.6,0,14.7-5.7,14.7-15c0-11.4-10.5-14.1-19.4-17.2
				c-8.2-3-19.9-7.8-19.9-23.4c-0.1-15.7,9.8-25.5,24.4-25.5c14.2,0,22.9,7.2,25,23.3h-11.4c-0.6-6.4-3.9-13.4-13.1-13.4
				c-8,0-12.8,5.8-12.8,13.7c-0.1,10.6,8.9,13,19.7,16.7c7.8,2.9,19.6,8,19.6,25.3c0,16-11.6,26-26.7,26c-15.7,0-25.8-9.3-26.1-27.1
				H904.7z"/>
		</g>
	</g>
	<g>
		<g>
			<path class="st0" d="M559.6,541.5H410.4L335,468v207.7h300.1V468L559.6,541.5z M426.4,599.3c-3.9-0.8-7.1-4-7.7-8
				c-1-6.2,3.7-11.5,9.7-11.5c5.4,0,9.8,4.4,9.8,9.8C438.2,595.8,432.7,600.5,426.4,599.3z M485.3,636.4l-21.9-21.9l43.3,0.6
				L485.3,636.4z M533.1,599.3c-6.9,1.3-12.8-4.6-11.5-11.5c0.7-3.8,3.9-7,7.7-7.7c6.9-1.3,12.8,4.6,11.5,11.5
				C540.1,595.5,537,598.6,533.1,599.3z"/>
		</g>
		<path class="st1" d="M335,687.9v134.3h66.2c3.9-3.8,3.4-9.3,3.4-9.4c0-0.1,0-0.2,0-0.4v-78.2c0-2.1,1.7-3.9,3.9-3.9
			s3.9,1.7,3.9,3.9v78c0.2,2.5-0.2,6.2-1.9,9.9h224.6v-62.9v-71.3H335z M453.6,725c-5.4,0-9.8-4.4-9.8-9.8c0-5.4,4.4-9.8,9.8-9.8
			c5.4,0,9.8,4.4,9.8,9.8C463.4,720.6,459,725,453.6,725z M628.5,766.1l-78.7-37.8v-33.6h78.7V766.1z"/>
		<g>
			<path d="M337.2,833.2h28.5v11.1h-16.5v11.2h16.5v11.1h-16.5v14.1h16.5v11.1h-28.5V833.2z"/>
			<path d="M383.5,891.8h-12.2l16-58.6h11.1l16.6,58.6h-12.2l-3-11.2h-13.5L383.5,891.8z M393,850.4l-3.7,19.2h7.4L393,850.4z"/>
			<path d="M429.9,873.3c0.2,6.1,2.2,8.9,7.4,8.9c4.4,0,6.8-2.8,6.8-7c0-5.3-6.3-6.6-12.7-9c-6.3-2.5-12.7-6.2-12.7-16.1
				c0-11.1,6.8-18.2,18-18.2c10.8,0,16.9,5.2,18.6,16.8h-11.7c-0.2-4.3-2.5-6.8-6.4-6.8c-3.8,0-6.1,2.8-6.1,6.4
				c0,5.5,6.3,6.6,12.7,9.1c6.3,2.5,12.7,6.5,12.7,17.6c0,11-8.2,17.7-19.4,17.7c-13.4,0-19.2-7.2-19.2-19.5H429.9z"/>
			<path d="M470.7,844.3h-9.8v-11.1h31.7v11.1h-9.8v47.5h-12V844.3z"/>
			<path d="M494.6,833.2h12.2l7.6,37.5l7.8-37.5h10.6l7.8,37.5l7.3-37.5h12l-13.8,58.6h-10.6l-8.2-39.6l-7.9,39.6h-10.6L494.6,833.2
				z"/>
			<path d="M569.8,891.8h-12.2l16-58.6h11.1l16.6,58.6h-12.2l-3-11.2h-13.5L569.8,891.8z M579.3,850.4l-3.7,19.2h7.4L579.3,850.4z"
				/>
			<path d="M611.3,868.3l-14.1-35.1h12.3l7.8,23.9l7.7-23.9h12.3l-14.1,35.1v23.4h-12V868.3z"/>
		</g>
		<g>
			<path class="st1" d="M336.6,902.4h5.9v20.8l12.5-20.8h6.5L348.1,924l14.5,22.3h-6.9l-13.2-20.9v20.9h-5.9V902.4z"/>
			<path class="st1" d="M381.4,902.4h20.8v5.4h-15V921h15v5.4h-15v14.5h15v5.4h-20.8V902.4z"/>
			<path class="st1" d="M447.4,935.6v-33.2h5.3v43.9h-5.9l-16.3-34.5v34.5h-5.3v-43.9h6.5L447.4,935.6z"/>
			<path class="st1" d="M498.3,935.6v-33.2h5.3v43.9h-5.9l-16.3-34.5v34.5h-5.3v-43.9h6.5L498.3,935.6z"/>
			<path class="st1" d="M527.1,902.4h20.8v5.4h-15V921h15v5.4h-15v14.5h15v5.4h-20.8V902.4z"/>
			<path class="st1" d="M571,902.4h5.9v38.5h13.2v5.4H571V902.4z"/>
			<path class="st1" d="M614.5,933.7c0.4,6.1,3.7,8.2,7.2,8.2c4.3,0,7.3-2.8,7.3-7.5c0-5.7-5.2-7-9.7-8.5c-4.1-1.5-9.9-3.9-9.9-11.6
				c-0.1-7.8,4.9-12.7,12.2-12.7c7.1,0,11.4,3.6,12.5,11.6h-5.7c-0.3-3.2-2-6.6-6.5-6.6c-4,0-6.3,2.9-6.3,6.8
				c-0.1,5.3,4.5,6.5,9.8,8.3c3.9,1.4,9.7,4,9.7,12.6c0,8-5.8,12.9-13.3,12.9c-7.8,0-12.8-4.6-13-13.5H614.5z"/>
		</g>
	</g>
</g>
</svg>
