<?xml version="1.0" encoding="utf-8"?>
<!-- Generator: Adobe Illustrator 19.1.0, SVG Export Plug-In . SVG Version: 6.00 Build 0)  -->
<svg version="1.1" id="Layer_1" xmlns="http://www.w3.org/2000/svg" xmlns:xlink="http://www.w3.org/1999/xlink" x="0px" y="0px"
	 viewBox="0 0 393.3 157.5" style="enable-background:new 0 0 393.3 157.5;" xml:space="preserve">
<style type="text/css">
	.st0{fill:#706259;}
	.st1{fill:#C1B8AF;}
	.st2{fill:#F7986E;}
	.st3{fill:#FF9D6C;}
	.st4{fill:#B7ADA5;}
	.st5{fill:#565759;}
</style>
<g>
	<path d="M277,419.9c0.1,0,0.2,0.1,0.4,0c0.2,0,0.5,0,0.8-0.1c0.2,0,0.5-0.1,0.8-0.1c0-0.1,0-0.2,0-0.3c-0.3,0-0.5,0-0.7,0
		c-0.3,0-0.6,0-0.7,0c-0.2,0-0.3,0-0.4,0s-0.2,0-0.2,0c0,0-0.1,0-0.1,0c0,0-0.1,0-0.1,0.1c0,0.1,0,0.1,0,0.2
		C276.9,419.8,276.9,419.9,277,419.9z"/>
	<path d="M101.6,419.9c0.1,0,0.2,0.1,0.4,0c0.2,0,0.5,0,0.8-0.1c0.2,0,0.4,0,0.6-0.1c0-0.1,0-0.1,0-0.2c0-0.1,0-0.1,0-0.2
		c-0.2,0-0.3,0-0.5,0c-0.3,0-0.6,0-0.7,0c-0.2,0-0.3,0-0.4,0c-0.1,0-0.2,0-0.2,0c0,0-0.1,0-0.1,0c0,0-0.1,0-0.1,0.1
		c0,0.1,0,0.1,0,0.2C101.5,419.8,101.6,419.9,101.6,419.9z"/>
	<g>
		<path d="M62.2,425.5c0.1,0,0.2,0,0.3,0c0.1,0,0.1,0.1,0.1,0.2c0,0.1,0,0.2-0.1,0.2c-0.1,0.1-0.1,0.1-0.2,0.1c0,0-0.1,0-0.1,0
			c0,0-0.1,0-0.1,0c0,0-0.1,0-0.2,0s-0.2,0-0.3,0.1c-0.1,0-0.3,0.1-0.5,0.2c-0.2,0.1-0.5,0.2-0.7,0.4c-0.1,0.1-0.3,0.2-0.4,0.3
			c-0.1,0.1-0.2,0.3-0.3,0.5c-0.1,0.2-0.1,0.4-0.1,0.7c0,0.3,0.1,0.5,0.3,0.8c0.1,0.2,0.2,0.3,0.3,0.4c0.1,0.1,0.3,0.2,0.4,0.4
			c0.2,0.1,0.3,0.2,0.5,0.3c0.2,0.1,0.4,0.2,0.6,0.2c0.4,0.1,0.9,0.2,1.4,0.3c0.5,0.1,1,0.1,1.6,0.1c0.4,0,0.7,0,0.9,0s0.5,0,0.7,0
			c0.2,0,0.4,0,0.6,0c0.2,0,0.4,0,0.6-0.1c0.2,0,0.4-0.1,0.7-0.1c0.2,0,0.5-0.1,0.8-0.2s0.7-0.2,1.1-0.4c0.4-0.2,0.9-0.4,1.5-0.6
			c0.6-0.3,1.1-0.5,1.5-0.8c0.4-0.3,0.8-0.5,1.2-0.7c0.4-0.2,0.7-0.4,0.9-0.6c0.3-0.2,0.5-0.4,0.7-0.5c0.4-0.3,0.7-0.5,0.9-0.7
			c0.2-0.2,0.3-0.2,0.3-0.3c0.1-0.1,0.2-0.1,0.2-0.1c0.1,0,0.2,0,0.2,0.1c0.1,0.1,0.1,0.1,0.1,0.2c0,0.1-0.1,0.2-0.1,0.2
			c0,0-0.1,0-0.1,0.1c0,0-0.1,0.1-0.2,0.1c-0.1,0-0.2,0.1-0.3,0.2c-0.1,0.1-0.3,0.2-0.4,0.3c-0.2,0.1-0.4,0.3-0.7,0.4
			c-0.3,0.2-0.6,0.4-1,0.6c-0.4,0.2-0.8,0.5-1.3,0.8c-0.5,0.3-1.1,0.6-1.8,0.9c-0.6,0.3-1.2,0.5-1.7,0.7c-0.5,0.2-0.9,0.3-1.3,0.4
			c-0.4,0.1-0.7,0.2-1,0.3c-0.3,0.1-0.5,0.1-0.8,0.2c-0.2,0.1-0.5,0.1-0.7,0.1c-0.2,0-0.5,0.1-0.7,0.1c-0.3,0-0.6,0-0.9,0
			c-0.3,0-0.7,0-1.2-0.1c-0.6-0.1-1.1-0.2-1.5-0.4c-0.4-0.1-0.7-0.3-1-0.4c-0.1-0.1-0.3-0.2-0.4-0.2c-0.1-0.1-0.3-0.2-0.4-0.3
			c-0.1-0.1-0.2-0.2-0.3-0.3c-0.1-0.1-0.2-0.3-0.3-0.4c-0.1-0.3-0.2-0.5-0.3-0.8c0-0.3-0.1-0.5,0-0.7c0.1-0.2,0.1-0.4,0.2-0.6
			c0.1-0.2,0.2-0.3,0.3-0.4c0.3-0.2,0.5-0.4,0.7-0.5c0.2-0.1,0.4-0.2,0.5-0.3c0.2-0.1,0.3-0.1,0.4-0.2c0.1,0,0.2-0.1,0.3-0.1
			c0.1,0,0.1-0.1,0.2-0.1C62,425.5,62.1,425.5,62.2,425.5z"/>
		<path d="M100.2,425.5c0.1-0.1,0.2-0.1,0.3-0.1c0.1,0,0.2,0.1,0.2,0.1c0,0.1,0,0.2,0,0.2c-0.1,0.1-0.1,0.2-0.3,0.2c0,0-0.1,0-0.1,0
			s-0.1,0-0.1,0c-0.1,0-0.1,0-0.2,0.1c-0.1,0-0.2,0.1-0.4,0.2c-0.2,0.1-0.4,0.2-0.7,0.3c-0.3,0.1-0.6,0.3-1,0.5
			c-0.4,0.2-0.9,0.4-1.5,0.7c-0.6,0.3-1.2,0.5-2,0.9c-0.4,0.2-0.9,0.4-1.3,0.6c-0.5,0.2-1,0.5-1.5,0.7c-0.3,0.1-0.6,0.2-0.8,0.4
			c-0.3,0.1-0.6,0.2-0.9,0.4c-0.3,0.1-0.7,0.2-1,0.3s-0.7,0.2-1.1,0.2c-0.1,0-0.3,0-0.4,0c-0.1,0-0.3,0-0.4-0.1
			c-0.1,0-0.1-0.1-0.2-0.1c-0.1,0-0.1-0.1-0.2-0.1c-0.1-0.1-0.2-0.2-0.2-0.3c0-0.1-0.1-0.2-0.1-0.3c0-0.1,0-0.2,0-0.3
			c0-0.1,0-0.2,0-0.2c0-0.1,0-0.2,0-0.2c0.1-0.3,0.2-0.5,0.3-0.8c0.1-0.2,0.2-0.5,0.3-0.7c0.1-0.2,0.3-0.5,0.4-0.8
			c0.2-0.3,0.3-0.6,0.5-1c0.1-0.1,0.1-0.2,0.2-0.3c0.1-0.1,0.1-0.2,0.2-0.3l0-0.1l0,0c0,0,0,0,0,0s0,0,0,0c0,0,0,0,0,0
			c0,0,0.1,0.1,0.2,0.2l0,0l-0.1,0c0,0-0.1,0-0.1,0c0,0-0.1,0-0.1,0c-0.1,0-0.1,0-0.2,0c-0.1,0-0.1,0-0.2,0.1
			c-0.3,0.1-0.6,0.1-0.9,0.2c-0.3,0.1-0.7,0.1-1.1,0.2c-0.8,0.1-1.5,0.2-2.2,0.3c-0.7,0-1.3,0.1-1.8,0.1c-0.6,0-1,0-1.5-0.1
			c-0.4,0-0.8-0.1-1.1-0.1c-0.3,0-0.6-0.1-0.9-0.2s-0.4-0.1-0.6-0.1c-0.2,0-0.3-0.1-0.4-0.1c-0.1,0-0.2-0.1-0.2-0.1
			c-0.1,0-0.2-0.1-0.3-0.2s-0.1-0.2,0-0.2c0-0.1,0.1-0.1,0.2-0.1c0.1,0,0.2,0,0.3,0c0,0,0.1,0,0.1,0.1c0,0,0.1,0.1,0.2,0.1
			c0.1,0,0.2,0.1,0.4,0.1c0.2,0.1,0.4,0.1,0.7,0.2c0.3,0.1,0.6,0.1,1,0.2c0.4,0.1,0.9,0.1,1.5,0.2c0.6,0,1.2,0.1,2,0
			c0.7,0,1.6-0.1,2.6-0.2c0.5-0.1,0.9-0.1,1.2-0.2c0.4-0.1,0.7-0.2,1.1-0.2c0,0,0.1,0,0.1,0c0,0,0.1,0,0.1,0l0.1,0l0,0h0
			c0,0,0,0,0,0c0,0,0,0,0,0v0l0,0.1c0,0.1-0.1,0.1-0.1,0.2c0,0.1-0.1,0.1-0.1,0.2c-0.1,0.1-0.1,0.3-0.2,0.4
			c-0.1,0.1-0.1,0.2-0.2,0.3c-0.2,0.4-0.4,0.8-0.5,1.2c-0.1,0.3-0.3,0.6-0.4,0.9s-0.2,0.6-0.2,0.8c0,0.1,0,0.3,0,0.4
			c0,0.1,0,0.3,0.1,0.4c0.1,0.1,0.2,0.2,0.3,0.2c0.2,0,0.3,0.1,0.5,0c0.2,0,0.4,0,0.7-0.1c0.2,0,0.5-0.1,0.8-0.2
			c0.4-0.1,0.7-0.2,1-0.3c0.3-0.1,0.6-0.2,0.8-0.3c0.3-0.1,0.5-0.2,0.7-0.3c0.2-0.1,0.4-0.2,0.6-0.2c0.2-0.1,0.4-0.2,0.5-0.2
			c0.2-0.1,0.3-0.2,0.5-0.2c0.2-0.1,0.4-0.2,0.5-0.2c0.2-0.1,0.4-0.2,0.6-0.3c0.7-0.3,1.2-0.6,1.7-0.8c0.5-0.2,0.9-0.4,1.3-0.6
			c0.4-0.2,0.7-0.3,0.9-0.5c0.3-0.1,0.5-0.2,0.7-0.3c0.2-0.1,0.3-0.2,0.4-0.2c0.1-0.1,0.2-0.1,0.3-0.2c0.1,0,0.2-0.1,0.2-0.1
			C100,425.6,100.1,425.6,100.2,425.5z"/>
		<path d="M120.5,425.6c0-0.1-0.1-0.1-0.2-0.1c-0.1,0-0.2,0-0.3,0c-0.1,0-0.2,0.1-0.3,0.1c-0.1,0-0.2,0.1-0.3,0.1
			c-0.1,0.1-0.3,0.1-0.4,0.2c-0.2,0.1-0.4,0.2-0.7,0.3c-0.3,0.1-0.7,0.3-1.2,0.5c-0.5,0.2-1,0.4-1.7,0.7c-0.7,0.3-1.5,0.6-2.4,0.9
			c-0.9,0.3-2.1,0.7-3.3,1.1c-0.8,0.3-1.6,0.5-2.3,0.6c-0.7,0.2-1.4,0.3-2.1,0.4c-0.7,0.1-1.3,0.2-1.8,0.2c-0.6,0-1.1,0-1.6,0
			c-0.5-0.1-0.9-0.2-1.3-0.4c-0.2-0.1-0.3-0.2-0.5-0.3c-0.1-0.1-0.2-0.3-0.3-0.4c-0.1-0.1-0.1-0.3-0.2-0.4c0-0.1-0.1-0.3-0.1-0.4
			c0-0.3,0-0.5,0.1-0.7c0.1-0.2,0.1-0.4,0.2-0.6c0.1-0.2,0.1-0.3,0.2-0.4c0.1-0.3,0.2-0.4,0.3-0.6c0.1-0.1,0.1-0.2,0.2-0.3
			c0-0.1,0.1-0.1,0.1-0.1c0.1-0.1,0.1-0.2,0.1-0.3c0-0.1,0-0.2-0.1-0.2c-0.1,0-0.1,0-0.2,0c-0.1,0-0.2,0.1-0.2,0.2
			c0,0-0.1,0.1-0.1,0.2c-0.1,0.1-0.1,0.3-0.2,0.5c-0.1,0.1-0.1,0.3-0.2,0.4c-0.1,0.1-0.1,0.3-0.2,0.5c-0.1,0.2-0.1,0.4-0.1,0.6
			c0,0.2,0,0.5,0,0.8c0,0.1,0,0.3,0.1,0.4c0,0.2,0.1,0.3,0.2,0.5c0.2,0.3,0.4,0.6,0.8,0.8c0.3,0.2,0.7,0.3,1.2,0.4
			c0.4,0.1,0.9,0.1,1.3,0.1c1,0,2-0.2,3.2-0.4c1.1-0.2,2.4-0.6,3.8-1c1.4-0.4,2.6-0.8,3.6-1.2s1.9-0.7,2.6-1
			c0.7-0.3,1.4-0.5,1.8-0.7c0.5-0.2,0.9-0.3,1.2-0.4c0.3-0.1,0.5-0.2,0.7-0.3c0.2-0.1,0.3-0.1,0.4-0.1c0.1,0,0.1,0,0.2,0
			c0,0,0.1,0,0.1,0c0.1,0,0.2-0.1,0.2-0.2C120.5,425.7,120.6,425.6,120.5,425.6z"/>
		<path d="M145.8,425.8c0.1-0.1,0.2-0.2,0.4-0.2c0.1,0,0.2,0,0.2,0.1c0,0.1,0,0.2,0,0.3c-0.1,0.1-0.1,0.2-0.3,0.3
			c0,0-0.1,0.1-0.1,0.1c0,0-0.1,0-0.1,0.1c-0.1,0-0.1,0.1-0.3,0.2c-0.1,0.1-0.3,0.2-0.5,0.3c-0.2,0.1-0.5,0.3-0.8,0.5
			c-0.3,0.2-0.7,0.4-1.2,0.7c-0.2,0.1-0.5,0.3-0.8,0.5c-0.3,0.2-0.6,0.3-0.9,0.5c-0.3,0.2-0.7,0.3-1.1,0.5c-0.4,0.2-0.8,0.4-1.3,0.5
			c-0.5,0.2-1.1,0.3-1.7,0.5c-0.6,0.2-1.3,0.2-2,0.3c-0.4,0-0.7,0-1.1-0.1s-0.8-0.1-1.2-0.3c-0.4-0.1-0.8-0.3-1.2-0.5
			c-0.4-0.2-0.8-0.5-1.1-0.8c-0.4-0.4-0.8-0.8-1-1.2c-0.3-0.4-0.5-0.7-0.7-1c-0.1-0.2-0.2-0.3-0.2-0.4c-0.1-0.1-0.1-0.3-0.2-0.4
			c0,0,0-0.1,0-0.1c0,0,0-0.1,0-0.1l-0.1-0.1l0-0.1v0c0.1,0.1,0.2,0.1,0.3,0.1c0,0,0.1,0,0,0c0,0,0,0,0,0c0,0,0,0,0,0h0l0,0
			c-0.1,0-0.1,0.1-0.2,0.1c-0.1,0-0.1,0.1-0.2,0.1c-0.3,0.1-0.6,0.3-1,0.5c-0.3,0.2-0.7,0.4-1.2,0.7c-0.5,0.3-1,0.6-1.6,1
			c-0.6,0.4-1.3,0.8-2.1,1.3c-0.4,0.3-0.8,0.5-1.2,0.7c-0.4,0.2-0.8,0.4-1.2,0.6c-0.2,0.1-0.4,0.2-0.6,0.2c-0.2,0.1-0.4,0.1-0.6,0.1
			s-0.4,0.1-0.6,0c-0.2,0-0.4,0-0.6-0.1c0,0,0,0-0.1,0c0,0,0,0-0.1,0l0,0l-0.1,0c0,0-0.1-0.1-0.1-0.1c0-0.1-0.1-0.1-0.1-0.2
			c0-0.1,0-0.1,0-0.2c0-0.1,0-0.2,0.1-0.3c0-0.1,0-0.2,0.1-0.2c0.1-0.1,0.1-0.3,0.2-0.4c0.1-0.1,0.1-0.3,0.2-0.4
			c0.1-0.2,0.2-0.5,0.3-0.7c0.1-0.2,0.2-0.4,0.3-0.6c0.2-0.4,0.4-0.7,0.5-0.9c0.1-0.2,0.3-0.5,0.4-0.6c0.1-0.2,0.2-0.3,0.2-0.4
			c0.1-0.1,0.1-0.2,0.1-0.2c0.1-0.1,0.2-0.2,0.3-0.3c0.1-0.1,0.2-0.1,0.3,0c0.1,0,0.1,0.1,0.1,0.2c0,0.1-0.1,0.2-0.1,0.4
			c0,0-0.1,0.1-0.1,0.1s-0.1,0.1-0.2,0.2c-0.1,0.1-0.2,0.2-0.3,0.4c-0.1,0.2-0.3,0.4-0.5,0.7c-0.1,0.1-0.2,0.3-0.3,0.5
			c-0.1,0.2-0.2,0.4-0.3,0.6c-0.1,0.1-0.1,0.2-0.2,0.3c-0.1,0.1-0.1,0.2-0.2,0.4c-0.1,0.1-0.1,0.3-0.2,0.4c-0.1,0.1-0.1,0.3-0.2,0.5
			c0,0,0,0.1,0,0.1c0,0,0,0.1,0,0.1c0,0,0,0.1,0,0.1c0,0,0,0,0,0c0,0,0,0,0,0c0,0,0,0,0,0c0,0,0,0,0,0c0,0,0,0,0,0c0,0,0,0,0.1,0
			c0,0,0,0,0.1,0c0,0,0.1,0,0.1,0c0,0,0.1,0,0.1,0c0.2,0,0.4,0,0.6,0c0.2,0,0.4-0.1,0.6-0.2c0.4-0.1,0.9-0.3,1.3-0.6
			c0.5-0.2,1-0.5,1.5-0.8c0.5-0.3,0.9-0.6,1.3-0.8c0.4-0.3,0.8-0.5,1.1-0.7c0.3-0.2,0.7-0.4,1-0.6c0.3-0.2,0.6-0.3,0.8-0.5
			c0.3-0.2,0.5-0.3,0.7-0.4c0.2-0.1,0.4-0.2,0.6-0.3l0.6-0.3l0.1,0l0,0l0,0h0h0c0,0,0,0,0,0c0,0,0,0,0.1,0c0,0,0,0,0,0c0,0,0,0,0,0
			c0,0,0.1,0.1,0.1,0.1c0,0,0,0.1,0.1,0.1c0,0,0,0.1,0.1,0.1c0.2,0.3,0.4,0.6,0.5,0.9s0.4,0.6,0.7,0.9c0.1,0.2,0.3,0.3,0.4,0.5
			c0.2,0.2,0.3,0.3,0.5,0.5c0.2,0.2,0.4,0.3,0.6,0.5c0.2,0.2,0.5,0.3,0.8,0.5c0.4,0.2,0.8,0.4,1.2,0.5c0.4,0.1,0.7,0.2,1,0.2
			c0.3,0,0.6,0.1,0.9,0.1c0.3,0,0.5,0,0.8,0c0.2,0,0.5-0.1,0.7-0.1c0.2,0,0.5-0.1,0.7-0.1c0.2-0.1,0.4-0.1,0.7-0.2
			c0.2-0.1,0.5-0.2,0.7-0.2c0.8-0.3,1.5-0.6,2.1-0.9c0.6-0.3,1.1-0.6,1.5-0.9c0.4-0.3,0.8-0.5,1-0.7c0.3-0.2,0.5-0.4,0.7-0.5
			c0.2-0.2,0.4-0.3,0.5-0.4c0.1-0.1,0.2-0.2,0.3-0.3c0.1-0.1,0.2-0.1,0.3-0.2C145.6,425.9,145.7,425.8,145.8,425.8z"/>
		<path d="M198.2,425.6c0,0.1,0,0.2-0.1,0.3c-0.1,0.1-0.2,0.2-0.4,0.3c-0.1,0-0.1,0.1-0.1,0.1c0,0-0.1,0-0.2,0.1s-0.2,0.1-0.3,0.2
			c-0.1,0.1-0.4,0.2-0.6,0.3c-0.3,0.1-0.6,0.3-1,0.5c-0.4,0.2-0.9,0.5-1.6,0.8c-0.3,0.2-0.7,0.3-1,0.5c-0.4,0.2-0.8,0.4-1.2,0.6
			c-0.5,0.2-0.9,0.4-1.5,0.6c-0.5,0.2-1.1,0.4-1.7,0.6c-0.4,0.1-0.7,0.2-1.1,0.2c-0.2,0-0.4,0-0.6-0.1c-0.2,0-0.4-0.1-0.6-0.2
			c-0.4-0.2-0.7-0.4-1.1-0.7c-0.3-0.3-0.6-0.7-0.8-1.1c-0.2-0.4-0.4-0.9-0.6-1.3c0-0.1,0-0.1-0.1-0.2c0-0.1,0-0.1-0.1-0.2
			c0,0-0.1,0.1-0.1,0.1c0,0-0.1,0.1-0.1,0.1c-0.4,0.3-0.8,0.7-1.2,1c-0.4,0.3-0.9,0.7-1.4,1c-0.6,0.4-1.2,0.8-1.7,1
			c-0.5,0.3-0.9,0.5-1.4,0.6c-0.2,0.1-0.4,0.1-0.6,0.2c-0.2,0.1-0.4,0.1-0.6,0.1c-0.2,0-0.4,0-0.6,0c-0.2,0-0.4-0.1-0.6-0.1
			c-0.2-0.1-0.4-0.2-0.6-0.4c-0.2-0.2-0.3-0.4-0.5-0.6c-0.3-0.5-0.5-1-0.6-1.7c-0.1-0.3-0.1-0.7-0.1-1.1c0-0.4,0-0.8,0-1.2l-0.2,0.1
			c-0.1,0.1-0.2,0.1-0.3,0.2c-0.1,0.1-0.2,0.1-0.3,0.2c-0.2,0.1-0.5,0.3-0.7,0.4c-0.2,0.2-0.5,0.3-0.7,0.5c-1.1,0.7-2,1.3-2.9,1.8
			c-0.9,0.5-1.7,1-2.5,1.3c-0.2,0.1-0.4,0.2-0.6,0.3c-0.2,0.1-0.4,0.1-0.6,0.2c-0.1,0-0.2,0.1-0.3,0.1c-0.1,0-0.2,0-0.3,0
			c-0.1,0-0.1,0-0.2,0c0,0-0.1,0-0.1-0.1c0,0-0.1-0.1-0.1-0.1c0,0,0-0.1,0-0.1c0,0,0,0,0-0.1c0-0.1,0-0.1,0-0.2c0,0,0-0.1,0-0.1
			c0.1-0.2,0.1-0.3,0.2-0.5c0.1-0.1,0.1-0.3,0.2-0.4c0.1-0.1,0.1-0.3,0.2-0.4c0.1-0.1,0.1-0.2,0.2-0.4c0.2-0.5,0.4-0.8,0.6-1.2
			c0.2-0.3,0.3-0.6,0.5-0.8c0.1-0.2,0.2-0.4,0.3-0.5c0.1-0.1,0.1-0.2,0.2-0.3c0.1-0.2,0.2-0.3,0.3-0.4c0.1-0.1,0.2-0.1,0.3-0.1
			c0.1,0,0.1,0.1,0.1,0.3c0,0.1-0.1,0.3-0.2,0.5c0,0.1-0.1,0.1-0.1,0.2c0,0.1-0.1,0.2-0.2,0.3c-0.1,0.1-0.2,0.3-0.4,0.5
			c-0.1,0.2-0.3,0.5-0.6,0.9c-0.1,0.2-0.2,0.4-0.4,0.6c-0.1,0.2-0.3,0.5-0.4,0.8c-0.1,0.1-0.1,0.3-0.2,0.5c-0.1,0.2-0.1,0.3-0.2,0.5
			c0,0,0,0.1,0,0.1c0.1,0,0.1,0,0.2,0c0.1,0,0.2,0,0.3-0.1c0.1,0,0.2-0.1,0.3-0.1c0.4-0.1,0.8-0.3,1.3-0.6c0.5-0.2,1-0.5,1.5-0.8
			c0.5-0.3,1.1-0.6,1.6-0.9c0.6-0.3,1.2-0.7,1.9-1.1c0.3-0.2,0.6-0.4,0.9-0.5c0.3-0.2,0.5-0.3,0.8-0.5c0.1-0.1,0.3-0.2,0.4-0.2
			c0.1-0.1,0.2-0.2,0.4-0.2l0,0v-0.1c0,0,0,0,0,0c0,0,0,0,0,0c0,0,0,0,0,0c0,0,0,0,0.1,0h0l0,0l0,0h0c0,0,0,0,0,0c0,0,0,0,0,0v0v0.1
			c0,0,0,0,0.1,0l0,0l0,0l0,0v0.1c0,0.1,0,0.1,0,0.2c0,0.1,0,0.1,0,0.2c0,0.5,0,1,0.1,1.4c0.1,0.4,0.1,0.8,0.3,1.2
			c0.1,0.4,0.3,0.7,0.4,1c0.2,0.3,0.4,0.5,0.6,0.6c0.2,0.1,0.5,0.2,0.7,0.2c0.2,0,0.5,0,0.7-0.1c0.2,0,0.4-0.1,0.6-0.2
			c0.2-0.1,0.4-0.2,0.6-0.2c0.2-0.1,0.4-0.2,0.6-0.3c0.2-0.1,0.4-0.2,0.6-0.3c0.5-0.3,0.9-0.6,1.5-0.9c0.5-0.4,1.2-0.8,1.9-1.3
			c0.4-0.3,0.8-0.6,1.2-0.9v0h0c0,0,0,0,0,0c0,0,0,0,0,0l0,0l0,0h0v0c0.1,0,0.1,0.1,0.2,0.1c0,0,0,0,0,0c0,0,0,0,0,0c0,0,0,0,0,0v0
			c0,0,0,0,0,0c0,0,0,0,0,0c0,0,0,0,0,0s0,0,0,0c0.1,0,0.1,0,0.1,0c0,0,0,0-0.1,0h0c0,0,0,0,0,0.1c0,0.1,0,0.1,0,0.2s0,0.1,0,0.2
			c0,0.1,0.1,0.2,0.1,0.3c0,0.1,0.1,0.2,0.1,0.3c0.3,0.8,0.6,1.4,1.1,1.9c0.4,0.5,0.9,0.8,1.5,0.9c0.3,0.1,0.6,0.1,0.9,0.1
			s0.6-0.1,0.9-0.2c0.5-0.2,1-0.3,1.5-0.5c0.4-0.2,0.9-0.4,1.2-0.5c0.4-0.2,0.7-0.4,1.1-0.5c0.3-0.2,0.6-0.3,0.9-0.5
			c0.6-0.3,1-0.6,1.4-0.8c0.4-0.2,0.7-0.4,1-0.6c0.3-0.2,0.5-0.3,0.7-0.4c0.2-0.1,0.3-0.2,0.5-0.3c0.1-0.1,0.2-0.2,0.4-0.2
			c0.1-0.1,0.2-0.1,0.4-0.2c0.2-0.1,0.3-0.2,0.5-0.2C198.1,425.5,198.1,425.5,198.2,425.6z"/>
		<path d="M212.2,425.6c0.1,0,0.2,0,0.3,0c0.1,0,0.1,0.1,0.2,0.1c0,0.1,0,0.1,0,0.2c0,0.1-0.1,0.1-0.2,0.2c0,0-0.1,0-0.1,0
			c0,0-0.1,0-0.1,0c0,0-0.1,0-0.2,0.1c-0.1,0-0.2,0.1-0.3,0.1c-0.1,0.1-0.3,0.1-0.6,0.2s-0.5,0.2-0.9,0.3c-0.3,0.1-0.8,0.2-1.2,0.4
			c-0.5,0.1-1,0.3-1.7,0.5c-0.4,0.1-0.7,0.2-1.1,0.3c-0.4,0.1-0.8,0.2-1.3,0.3c-0.5,0.1-1,0.2-1.5,0.2c-0.5,0.1-1.1,0.1-1.7,0.1
			c-0.4,0-0.7,0-1,0c-0.3,0-0.5,0-0.7,0c-0.2,0-0.4,0-0.5-0.1c0,0.1-0.1,0.1-0.1,0.1c0,0-0.1,0.1-0.1,0.1s-0.1,0.1-0.1,0.1
			c-0.1,0.2-0.3,0.3-0.5,0.5c-0.2,0.2-0.4,0.4-0.6,0.7c-0.1,0.1-0.3,0.2-0.4,0.4c-0.2,0.1-0.3,0.3-0.5,0.4c-0.1,0.1-0.2,0.1-0.3,0.2
			c-0.1,0.1-0.2,0.1-0.4,0.2c-0.1,0-0.1,0-0.2,0.1c-0.1,0-0.1,0-0.2,0c0,0-0.1,0-0.1,0c0,0-0.1,0-0.1,0h0h0h0h0h0
			c-0.1,0-0.2,0-0.3-0.1c-0.2-0.1-0.3-0.2-0.4-0.3c-0.1-0.2-0.2-0.3-0.2-0.5c0-0.2-0.1-0.3-0.1-0.4c0-0.1,0-0.3,0-0.4
			c0-0.1,0-0.3,0-0.4c0-0.1,0-0.3,0-0.4c0-0.1,0-0.2,0.1-0.4c0-0.1,0.1-0.2,0.1-0.3c0.1-0.2,0.1-0.4,0.2-0.6
			c0.1-0.2,0.2-0.3,0.3-0.5c0.1-0.1,0.2-0.3,0.3-0.4c0.1-0.1,0.2-0.2,0.4-0.3c0.2-0.2,0.4-0.3,0.6-0.4s0.3-0.1,0.5-0.2
			c0.1,0,0.2-0.1,0.3-0.1c0.1,0,0.1,0,0.2,0c0.1,0,0.2,0,0.3,0.1c0.1,0.1,0.1,0.1,0.1,0.2c0,0.1,0,0.1-0.1,0.2
			c-0.1,0.1-0.1,0.1-0.2,0.1c0,0-0.1,0-0.1,0c0,0-0.1,0-0.2,0c-0.1,0-0.2,0-0.3,0.1c-0.1,0-0.3,0.1-0.5,0.2c-0.1,0-0.2,0.1-0.3,0.2
			c-0.1,0.1-0.2,0.1-0.3,0.2s-0.2,0.2-0.4,0.4c-0.1,0.1-0.2,0.3-0.3,0.5c-0.1,0.2-0.2,0.4-0.2,0.7c-0.1,0.2-0.1,0.5-0.1,0.8
			c0,0.1,0,0.3,0,0.5c0,0.2,0,0.3,0,0.5c0,0.2,0.1,0.3,0.2,0.5c0.1,0.2,0.2,0.3,0.4,0.4c0.2,0.1,0.3,0.1,0.5,0.1
			c0.2,0,0.3-0.1,0.5-0.1c0.1,0,0.3-0.1,0.4-0.2c0.1-0.1,0.2-0.1,0.3-0.2c0.2-0.1,0.4-0.3,0.6-0.4c0.2-0.2,0.3-0.3,0.4-0.4
			c0.1-0.1,0.3-0.3,0.4-0.4c0.1-0.1,0.2-0.3,0.3-0.4c0-0.1,0.1-0.1,0.1-0.2c0-0.1,0.1-0.1,0.1-0.2c0,0,0-0.1,0.1-0.1
			c0,0,0-0.1,0-0.1l0-0.1l0,0l0,0c0,0,0,0,0,0c0,0,0,0,0.1,0h0c0.2,0,0.5,0,0.7,0c0.2,0,0.5,0,0.7,0c0.3,0,0.6,0,0.9,0
			c0.3,0,0.7,0,1.2,0c0.6,0,1.1,0,1.5-0.1c0.4,0,0.8-0.1,1.1-0.2c0.3,0,0.6-0.1,0.9-0.2c0.3-0.1,0.6-0.1,0.9-0.2
			c0.5-0.2,1-0.3,1.4-0.4c0.4-0.1,0.8-0.3,1.1-0.4c0.3-0.1,0.6-0.2,0.8-0.3c0.2-0.1,0.4-0.2,0.5-0.2c0.1-0.1,0.3-0.1,0.4-0.2
			c0.1,0,0.2-0.1,0.2-0.1c0.1,0,0.1-0.1,0.2-0.1C212.1,425.6,212.1,425.6,212.2,425.6z"/>
		<path d="M238,425.8c0.1-0.1,0.2-0.2,0.4-0.2c0.1,0,0.2,0,0.2,0.1c0,0.1,0,0.2,0,0.3c-0.1,0.1-0.1,0.2-0.3,0.3c0,0-0.1,0.1-0.1,0.1
			s-0.1,0-0.1,0.1c-0.1,0-0.1,0.1-0.3,0.2c-0.1,0.1-0.3,0.2-0.5,0.3c-0.2,0.1-0.5,0.3-0.8,0.5c-0.3,0.2-0.7,0.4-1.2,0.7
			c-0.2,0.1-0.5,0.3-0.8,0.5c-0.3,0.2-0.6,0.3-0.9,0.5c-0.3,0.2-0.7,0.3-1.1,0.5c-0.4,0.2-0.8,0.4-1.3,0.5c-0.5,0.2-1.1,0.3-1.7,0.5
			c-0.6,0.2-1.3,0.2-2,0.3c-0.4,0-0.7,0-1.1-0.1c-0.4-0.1-0.8-0.1-1.2-0.3c-0.4-0.1-0.8-0.3-1.2-0.5c-0.4-0.2-0.8-0.5-1.1-0.8
			c-0.4-0.4-0.8-0.8-1-1.2c-0.3-0.4-0.5-0.7-0.7-1c-0.1-0.2-0.2-0.3-0.2-0.4c-0.1-0.1-0.1-0.3-0.2-0.4c0,0,0-0.1,0-0.1
			c0,0,0-0.1,0-0.1l-0.1-0.1l0-0.1v0c0.1,0.1,0.2,0.1,0.3,0.1c0,0,0.1,0,0,0c0,0,0,0,0,0c0,0,0,0,0,0h0l0,0c-0.1,0-0.1,0.1-0.2,0.1
			c-0.1,0-0.1,0.1-0.2,0.1c-0.3,0.1-0.6,0.3-1,0.5c-0.3,0.2-0.7,0.4-1.2,0.7c-0.5,0.3-1,0.6-1.6,1c-0.6,0.4-1.3,0.8-2.1,1.3
			c-0.4,0.3-0.8,0.5-1.2,0.7c-0.4,0.2-0.8,0.4-1.2,0.6c-0.2,0.1-0.4,0.2-0.6,0.2c-0.2,0.1-0.4,0.1-0.6,0.1s-0.4,0.1-0.6,0
			c-0.2,0-0.4,0-0.6-0.1c0,0,0,0-0.1,0c0,0,0,0-0.1,0l0,0l-0.1,0c0,0-0.1-0.1-0.1-0.1c0-0.1-0.1-0.1-0.1-0.2c0-0.1,0-0.1,0-0.2
			c0-0.1,0-0.2,0.1-0.3c0-0.1,0-0.2,0.1-0.2c0.1-0.1,0.1-0.3,0.2-0.4c0.1-0.1,0.1-0.3,0.2-0.4c0.1-0.2,0.2-0.5,0.3-0.7
			c0.1-0.2,0.2-0.4,0.3-0.6c0.2-0.4,0.4-0.7,0.5-0.9c0.1-0.2,0.3-0.5,0.4-0.6c0.1-0.2,0.2-0.3,0.2-0.4c0.1-0.1,0.1-0.2,0.1-0.2
			c0.1-0.1,0.2-0.2,0.3-0.3c0.1-0.1,0.2-0.1,0.3,0c0.1,0,0.1,0.1,0.1,0.2c0,0.1-0.1,0.2-0.1,0.4c0,0-0.1,0.1-0.1,0.1
			s-0.1,0.1-0.2,0.2c-0.1,0.1-0.2,0.2-0.3,0.4c-0.1,0.2-0.3,0.4-0.5,0.7c-0.1,0.1-0.2,0.3-0.3,0.5c-0.1,0.2-0.2,0.4-0.3,0.6
			c-0.1,0.1-0.1,0.2-0.2,0.3c-0.1,0.1-0.1,0.2-0.2,0.4c-0.1,0.1-0.1,0.3-0.2,0.4s-0.1,0.3-0.2,0.5c0,0,0,0.1,0,0.1c0,0,0,0.1,0,0.1
			c0,0,0,0.1,0,0.1c0,0,0,0,0,0c0,0,0,0,0,0c0,0,0,0,0,0c0,0,0,0,0,0c0,0,0,0,0,0c0,0,0,0,0.1,0c0,0,0,0,0.1,0c0,0,0.1,0,0.1,0
			c0,0,0.1,0,0.1,0c0.2,0,0.4,0,0.6,0c0.2,0,0.4-0.1,0.6-0.2c0.4-0.1,0.9-0.3,1.3-0.6c0.5-0.2,1-0.5,1.5-0.8
			c0.5-0.3,0.9-0.6,1.3-0.8c0.4-0.3,0.8-0.5,1.1-0.7c0.3-0.2,0.7-0.4,1-0.6c0.3-0.2,0.6-0.3,0.8-0.5c0.3-0.2,0.5-0.3,0.7-0.4
			c0.2-0.1,0.4-0.2,0.6-0.3l0.6-0.3l0.1,0l0,0l0,0h0h0c0,0,0,0,0,0c0,0,0,0,0.1,0c0,0,0,0,0,0c0,0,0,0,0,0c0,0,0.1,0.1,0.1,0.1
			c0,0,0,0.1,0.1,0.1c0,0,0,0.1,0.1,0.1c0.2,0.3,0.4,0.6,0.5,0.9s0.4,0.6,0.7,0.9c0.1,0.2,0.3,0.3,0.4,0.5c0.2,0.2,0.3,0.3,0.5,0.5
			c0.2,0.2,0.4,0.3,0.6,0.5c0.2,0.2,0.5,0.3,0.8,0.5c0.4,0.2,0.8,0.4,1.2,0.5c0.4,0.1,0.7,0.2,1,0.2c0.3,0,0.6,0.1,0.9,0.1
			c0.3,0,0.5,0,0.8,0c0.2,0,0.5-0.1,0.7-0.1c0.2,0,0.5-0.1,0.7-0.1c0.2-0.1,0.4-0.1,0.7-0.2c0.2-0.1,0.5-0.2,0.7-0.2
			c0.8-0.3,1.5-0.6,2.1-0.9c0.6-0.3,1.1-0.6,1.5-0.9c0.4-0.3,0.8-0.5,1-0.7c0.3-0.2,0.5-0.4,0.7-0.5c0.2-0.2,0.4-0.3,0.5-0.4
			c0.1-0.1,0.2-0.2,0.3-0.3c0.1-0.1,0.2-0.1,0.3-0.2C237.9,425.9,237.9,425.8,238,425.8z"/>
		<path d="M254.2,425.6c0.1-0.1,0.2-0.1,0.2-0.1c0.1,0,0.2,0,0.2,0.1c0,0.1,0.1,0.1,0.1,0.2c0,0.1-0.1,0.2-0.1,0.2
			c0,0-0.1,0-0.1,0.1c0,0-0.1,0-0.1,0.1c-0.1,0-0.2,0.1-0.3,0.2c-0.1,0.1-0.3,0.2-0.6,0.4c-0.3,0.2-0.6,0.4-1,0.7
			c-0.4,0.3-1,0.6-1.6,0.9c-0.3,0.2-0.7,0.4-1.1,0.5c-0.4,0.2-0.8,0.4-1.3,0.6c-0.5,0.2-1,0.4-1.6,0.6c-0.6,0.2-1.2,0.4-1.9,0.5
			c-1.3,0.3-2.6,0.4-3.7,0.5c-0.6,0-1.1,0-1.6-0.1c-0.5-0.1-1-0.2-1.4-0.4c-0.2-0.1-0.4-0.2-0.6-0.3c-0.2-0.1-0.3-0.3-0.5-0.4
			c-0.1-0.1-0.1-0.2-0.2-0.3c-0.1-0.1-0.1-0.2-0.1-0.3c0-0.1-0.1-0.2-0.1-0.3c0-0.1,0-0.2,0-0.3c0-0.4,0.1-0.7,0.2-1
			c0.1-0.3,0.2-0.6,0.3-0.8c0.1-0.2,0.3-0.5,0.4-0.6c0.1-0.2,0.3-0.3,0.4-0.5c0.1-0.1,0.3-0.2,0.4-0.3c0.1-0.1,0.2-0.2,0.4-0.2
			c0.2-0.1,0.4-0.2,0.5-0.3c0.1-0.1,0.2-0.1,0.2-0.1c0.1,0,0.2,0,0.3,0c0.1,0,0.1,0.1,0.2,0.2c0,0.1,0,0.2,0,0.2
			c0,0.1-0.1,0.1-0.2,0.1c0,0-0.1,0-0.1,0s-0.2,0-0.3,0.1c-0.1,0-0.2,0.1-0.2,0.1c-0.1,0-0.2,0.1-0.3,0.2c-0.1,0.1-0.2,0.2-0.4,0.3
			c-0.1,0.1-0.3,0.2-0.4,0.4c-0.1,0.2-0.3,0.3-0.4,0.6c-0.1,0.2-0.3,0.5-0.4,0.8c-0.1,0.2-0.1,0.3-0.1,0.5c0,0.2,0,0.4-0.1,0.6
			c0,0.2,0,0.4,0.1,0.6c0.1,0.2,0.2,0.4,0.4,0.5c0.2,0.2,0.4,0.3,0.6,0.4c0.2,0.1,0.5,0.2,0.7,0.3c0.5,0.2,1.1,0.3,1.7,0.3
			c0.6,0,1.3,0,2,0c0.7-0.1,1.5-0.2,2.3-0.4c0.6-0.1,1.2-0.3,1.7-0.5c0.5-0.2,1-0.4,1.5-0.5c0.5-0.2,0.9-0.4,1.2-0.5
			c0.4-0.2,0.7-0.4,1-0.5c0.6-0.3,1.1-0.7,1.5-0.9c0.4-0.3,0.7-0.5,1-0.7c0.3-0.2,0.5-0.4,0.6-0.5c0.1-0.1,0.3-0.2,0.3-0.3
			c0.1-0.1,0.2-0.2,0.2-0.2C254,425.7,254.1,425.7,254.2,425.6z"/>
		<path d="M277.3,425.5c0.1-0.1,0.2-0.1,0.3-0.1c0.1,0,0.2,0.1,0.2,0.1c0,0.1,0,0.2,0,0.2c-0.1,0.1-0.1,0.2-0.3,0.2c0,0-0.1,0-0.1,0
			c0,0-0.1,0-0.1,0c-0.1,0-0.1,0-0.2,0.1c-0.1,0-0.2,0.1-0.4,0.2c-0.2,0.1-0.4,0.2-0.7,0.3c-0.3,0.1-0.6,0.3-1,0.5
			c-0.4,0.2-0.9,0.4-1.5,0.7c-0.6,0.3-1.2,0.5-2,0.9c-0.4,0.2-0.9,0.4-1.3,0.6c-0.5,0.2-1,0.5-1.5,0.7c-0.3,0.1-0.6,0.2-0.8,0.4
			c-0.3,0.1-0.6,0.2-0.9,0.4c-0.3,0.1-0.7,0.2-1,0.3s-0.7,0.2-1.1,0.2c-0.1,0-0.3,0-0.4,0c-0.1,0-0.3,0-0.4-0.1
			c-0.1,0-0.1-0.1-0.2-0.1c-0.1,0-0.1-0.1-0.2-0.1c-0.1-0.1-0.2-0.2-0.2-0.3c0-0.1-0.1-0.2-0.1-0.3c0-0.1,0-0.2,0-0.3
			c0-0.1,0-0.2,0-0.2c0-0.1,0-0.2,0-0.2c0.1-0.3,0.2-0.5,0.3-0.8c0.1-0.2,0.2-0.5,0.3-0.7c0.1-0.2,0.3-0.5,0.4-0.8
			c0.2-0.3,0.3-0.6,0.5-1c0.1-0.1,0.1-0.2,0.2-0.3c0.1-0.1,0.1-0.2,0.2-0.3l0-0.1l0,0c0,0,0,0,0,0s0,0,0,0c0,0,0,0,0,0
			c0,0,0.1,0.1,0.2,0.2l0,0l-0.1,0c0,0-0.1,0-0.1,0c0,0-0.1,0-0.1,0c-0.1,0-0.1,0-0.2,0c-0.1,0-0.1,0-0.2,0.1
			c-0.3,0.1-0.6,0.1-0.9,0.2c-0.3,0.1-0.7,0.1-1.1,0.2c-0.8,0.1-1.5,0.2-2.2,0.3c-0.7,0-1.3,0.1-1.8,0.1c-0.6,0-1,0-1.5-0.1
			c-0.4,0-0.8-0.1-1.1-0.1c-0.3,0-0.6-0.1-0.9-0.2s-0.4-0.1-0.6-0.1c-0.2,0-0.3-0.1-0.4-0.1s-0.2-0.1-0.2-0.1
			c-0.1,0-0.2-0.1-0.3-0.2c-0.1-0.1-0.1-0.2,0-0.2c0-0.1,0.1-0.1,0.2-0.1c0.1,0,0.2,0,0.3,0c0,0,0.1,0,0.1,0.1c0,0,0.1,0.1,0.2,0.1
			c0.1,0,0.2,0.1,0.4,0.1c0.2,0.1,0.4,0.1,0.7,0.2c0.3,0.1,0.6,0.1,1,0.2c0.4,0.1,0.9,0.1,1.5,0.2c0.6,0,1.2,0.1,2,0
			c0.7,0,1.6-0.1,2.6-0.2c0.5-0.1,0.9-0.1,1.2-0.2c0.4-0.1,0.7-0.2,1.1-0.2c0,0,0.1,0,0.1,0c0,0,0.1,0,0.1,0l0.1,0l0,0h0
			c0,0,0,0,0,0c0,0,0,0,0,0v0l0,0.1c0,0.1-0.1,0.1-0.1,0.2c0,0.1-0.1,0.1-0.1,0.2c-0.1,0.1-0.1,0.3-0.2,0.4
			c-0.1,0.1-0.1,0.2-0.2,0.3c-0.2,0.4-0.4,0.8-0.5,1.2c-0.1,0.3-0.3,0.6-0.4,0.9s-0.2,0.6-0.2,0.8c0,0.1,0,0.3,0,0.4
			c0,0.1,0,0.3,0.1,0.4c0.1,0.1,0.2,0.2,0.3,0.2c0.2,0,0.3,0.1,0.5,0c0.2,0,0.4,0,0.7-0.1c0.2,0,0.5-0.1,0.8-0.2
			c0.4-0.1,0.7-0.2,1-0.3c0.3-0.1,0.6-0.2,0.8-0.3c0.3-0.1,0.5-0.2,0.7-0.3c0.2-0.1,0.4-0.2,0.6-0.2c0.2-0.1,0.4-0.2,0.5-0.2
			c0.2-0.1,0.3-0.2,0.5-0.2c0.2-0.1,0.4-0.2,0.5-0.2c0.2-0.1,0.4-0.2,0.6-0.3c0.7-0.3,1.2-0.6,1.7-0.8c0.5-0.2,0.9-0.4,1.3-0.6
			c0.4-0.2,0.7-0.3,0.9-0.5c0.3-0.1,0.5-0.2,0.7-0.3c0.2-0.1,0.3-0.2,0.4-0.2c0.1-0.1,0.2-0.1,0.3-0.2c0.1,0,0.2-0.1,0.2-0.1
			C277.2,425.6,277.3,425.6,277.3,425.5z"/>
		<path d="M297.7,425.6c0-0.1-0.1-0.1-0.2-0.1c-0.1,0-0.2,0-0.3,0c-0.1,0-0.2,0.1-0.3,0.1c-0.1,0-0.2,0.1-0.3,0.1
			c-0.1,0.1-0.3,0.1-0.4,0.2c-0.2,0.1-0.4,0.2-0.7,0.3c-0.3,0.1-0.7,0.3-1.2,0.5c-0.5,0.2-1,0.4-1.7,0.7c-0.7,0.3-1.5,0.6-2.4,0.9
			c-0.9,0.3-2.1,0.7-3.3,1.1c-0.8,0.3-1.6,0.5-2.3,0.6c-0.7,0.2-1.4,0.3-2.1,0.4c-0.7,0.1-1.3,0.2-1.8,0.2c-0.6,0-1.1,0-1.6,0
			c-0.5-0.1-0.9-0.2-1.3-0.4c-0.2-0.1-0.3-0.2-0.5-0.3c-0.1-0.1-0.2-0.3-0.3-0.4c-0.1-0.1-0.1-0.3-0.2-0.4c0-0.1-0.1-0.3-0.1-0.4
			c0-0.3,0-0.5,0.1-0.7c0.1-0.2,0.1-0.4,0.2-0.6c0.1-0.2,0.1-0.3,0.2-0.4c0.1-0.3,0.2-0.4,0.3-0.6c0.1-0.1,0.1-0.2,0.2-0.3
			c0-0.1,0.1-0.1,0.1-0.1c0.1-0.1,0.1-0.2,0.1-0.3c0-0.1,0-0.2-0.1-0.2c-0.1,0-0.1,0-0.2,0c-0.1,0-0.2,0.1-0.2,0.2
			c0,0-0.1,0.1-0.1,0.2c-0.1,0.1-0.1,0.3-0.2,0.5c-0.1,0.1-0.1,0.3-0.2,0.4s-0.1,0.3-0.2,0.5c-0.1,0.2-0.1,0.4-0.1,0.6
			c0,0.2,0,0.5,0,0.8c0,0.1,0,0.3,0.1,0.4c0,0.2,0.1,0.3,0.2,0.5c0.2,0.3,0.4,0.6,0.8,0.8c0.3,0.2,0.7,0.3,1.2,0.4
			c0.4,0.1,0.9,0.1,1.3,0.1c1,0,2-0.2,3.2-0.4c1.1-0.2,2.4-0.6,3.8-1c1.4-0.4,2.6-0.8,3.6-1.2c1-0.4,1.9-0.7,2.6-1
			c0.7-0.3,1.4-0.5,1.8-0.7c0.5-0.2,0.9-0.3,1.2-0.4c0.3-0.1,0.5-0.2,0.7-0.3c0.2-0.1,0.3-0.1,0.4-0.1c0.1,0,0.1,0,0.2,0
			c0,0,0.1,0,0.1,0c0.1,0,0.2-0.1,0.2-0.2C297.7,425.7,297.7,425.6,297.7,425.6z"/>
		<path d="M297.2,425.5c0.1,0,0.2,0,0.3,0c0.1,0,0.1,0.1,0.1,0.2c0,0.1,0,0.2-0.1,0.2c-0.1,0.1-0.1,0.1-0.2,0.1c0,0-0.1,0-0.1,0
			c0,0-0.1,0-0.1,0c0,0-0.1,0-0.2,0s-0.2,0-0.3,0.1c-0.1,0-0.3,0.1-0.5,0.2c-0.2,0.1-0.5,0.2-0.7,0.4c-0.1,0.1-0.3,0.2-0.4,0.3
			c-0.1,0.1-0.2,0.3-0.3,0.5c-0.1,0.2-0.1,0.4-0.1,0.7c0,0.3,0.1,0.5,0.3,0.8c0.1,0.2,0.2,0.3,0.3,0.4c0.1,0.1,0.3,0.2,0.4,0.4
			c0.2,0.1,0.3,0.2,0.5,0.3c0.2,0.1,0.4,0.2,0.6,0.2c0.4,0.1,0.9,0.2,1.4,0.3c0.5,0.1,1,0.1,1.6,0.1c0.4,0,0.7,0,0.9,0
			c0.3,0,0.5,0,0.7,0c0.2,0,0.4,0,0.6,0c0.2,0,0.4,0,0.6-0.1c0.2,0,0.4-0.1,0.7-0.1c0.2,0,0.5-0.1,0.8-0.2c0.3-0.1,0.7-0.2,1.1-0.4
			s0.9-0.4,1.5-0.6c0.6-0.3,1.1-0.5,1.5-0.8c0.4-0.3,0.8-0.5,1.2-0.7c0.4-0.2,0.7-0.4,0.9-0.6c0.3-0.2,0.5-0.4,0.7-0.5
			c0.4-0.3,0.7-0.5,0.9-0.7c0.2-0.2,0.3-0.2,0.3-0.3c0.1-0.1,0.2-0.1,0.2-0.1c0.1,0,0.2,0,0.2,0.1c0.1,0.1,0.1,0.1,0.1,0.2
			c0,0.1-0.1,0.2-0.1,0.2c0,0-0.1,0-0.1,0.1c0,0-0.1,0.1-0.2,0.1c-0.1,0-0.2,0.1-0.3,0.2c-0.1,0.1-0.3,0.2-0.4,0.3
			c-0.2,0.1-0.4,0.3-0.7,0.4c-0.3,0.2-0.6,0.4-1,0.6c-0.4,0.2-0.8,0.5-1.3,0.8c-0.5,0.3-1.1,0.6-1.8,0.9c-0.6,0.3-1.2,0.5-1.7,0.7
			c-0.5,0.2-0.9,0.3-1.3,0.4c-0.4,0.1-0.7,0.2-1,0.3c-0.3,0.1-0.5,0.1-0.8,0.2c-0.2,0.1-0.5,0.1-0.7,0.1c-0.2,0-0.5,0.1-0.7,0.1
			c-0.3,0-0.6,0-0.9,0c-0.3,0-0.7,0-1.2-0.1c-0.6-0.1-1.1-0.2-1.5-0.4c-0.4-0.1-0.7-0.3-1-0.4c-0.1-0.1-0.3-0.2-0.4-0.2
			c-0.1-0.1-0.3-0.2-0.4-0.3c-0.1-0.1-0.2-0.2-0.3-0.3c-0.1-0.1-0.2-0.3-0.3-0.4c-0.1-0.3-0.2-0.5-0.3-0.8c0-0.3-0.1-0.5,0-0.7
			c0.1-0.2,0.1-0.4,0.2-0.6c0.1-0.2,0.2-0.3,0.3-0.4c0.3-0.2,0.5-0.4,0.7-0.5c0.2-0.1,0.4-0.2,0.5-0.3c0.2-0.1,0.3-0.1,0.4-0.2
			c0.1,0,0.2-0.1,0.3-0.1c0.1,0,0.1-0.1,0.2-0.1C297,425.5,297.1,425.5,297.2,425.5z"/>
		<path d="M310.7,441.8C310.7,441.8,310.6,441.9,310.7,441.8c0,0.1,0,0.1,0,0.1c-0.1,0.3-0.1,0.5-0.2,0.6c-0.1,0.2-0.2,0.3-0.2,0.2
			c-0.1,0-0.1-0.1-0.2-0.3c0-0.2,0-0.4,0.1-0.7c0-0.1,0-0.2,0.1-0.2c0-0.1,0.1-0.2,0.1-0.4c0-0.2,0.1-0.4,0.1-0.6
			c0.1-0.3,0.1-0.6,0.2-1c0.1-0.5,0.2-1.1,0.3-1.9c0.1-0.8,0.2-1.7,0.3-2.9c0.1-1.2,0.2-2.2,0.3-3.1c0.1-0.9,0.2-1.7,0.2-2.3
			c0.1-0.7,0.1-1.2,0.1-1.6s0.1-0.8,0.1-1.1c0-0.3,0-0.5,0-0.6c0-0.1,0-0.2,0-0.2c0-0.1,0-0.1,0.1-0.2c0.1,0,0.1-0.1,0.2,0
			s0.1,0,0.2,0.1s0.1,0.1,0.1,0.2c0,0,0,0.1,0,0.2c0,0.1,0,0.2-0.1,0.4c0,0.2-0.1,0.5-0.1,0.8s-0.1,0.9-0.2,1.5
			c-0.1,0.6-0.2,1.5-0.3,2.4c-0.1,1-0.3,2.2-0.4,3.6c-0.1,0.6-0.1,1.2-0.2,1.7c-0.1,0.5-0.1,0.9-0.1,1.4c0.1-0.5,0.3-1.2,0.5-1.9
			c0.2-0.7,0.4-1.5,0.6-2.4c0.2-0.6,0.3-1.2,0.5-1.9c0.2-0.7,0.4-1.4,0.6-2.2c0.2-0.8,0.5-1.6,0.7-2.5c0.3-0.9,0.6-1.8,0.9-2.8
			c0.3-0.9,0.6-1.8,0.9-2.5c0.3-0.8,0.6-1.5,0.8-2.2c0.3-0.7,0.5-1.3,0.8-1.8c0.2-0.6,0.5-1.1,0.7-1.5c0.5-0.9,0.9-1.7,1.3-2.4
			c0.4-0.6,0.9-1.2,1.3-1.7c0.2-0.2,0.5-0.4,0.7-0.6s0.5-0.3,0.8-0.5c0.1,0,0.2-0.1,0.2-0.1c0.1,0,0.2,0,0.2-0.1c0,0,0.1,0,0.1,0
			c0,0,0.1,0,0.1,0h0.1c0,0,0.1,0,0.1,0c0,0,0.1,0.1,0.1,0.1c0,0,0,0.1,0,0.1c0,0.1,0,0.1,0,0.2s0,0.1,0,0.1c0,0.1,0,0.1,0,0.1
			c0,0,0,0.1,0,0.1c0,0.1,0,0.2-0.1,0.3c0,0.1-0.1,0.2-0.1,0.3c-0.1,0.3-0.3,0.7-0.4,1c-0.2,0.4-0.3,0.8-0.5,1.2
			c-0.2,0.4-0.4,0.9-0.7,1.3c-0.2,0.5-0.5,1-0.8,1.5c-0.4,0.7-0.7,1.4-1.1,2c-0.3,0.6-0.6,1.2-0.9,1.7c-0.3,0.5-0.5,1-0.8,1.4
			c-0.2,0.4-0.5,0.8-0.7,1.2s-0.4,0.8-0.6,1.1c-0.2,0.4-0.4,0.7-0.6,1.1c-0.2,0.4-0.4,0.7-0.6,1.1c-0.2,0.4-0.4,0.8-0.7,1.2
			c0,0-0.1,0.1-0.1,0.1s0,0.1-0.1,0.1l0,0c0.1,0,0.2,0,0.3,0c0.1,0,0.2,0,0.2,0c0.2,0,0.4,0,0.5,0c0.2,0,0.3,0,0.5,0
			c0.3,0,0.6,0,1,0s0.6,0,0.9,0c0.6,0,1.1-0.1,1.6-0.1c0.5-0.1,1-0.1,1.4-0.2c0.8-0.1,1.5-0.3,2.1-0.5c0.6-0.2,1.1-0.3,1.5-0.5
			c0.4-0.1,0.7-0.3,1-0.4c0.3-0.1,0.5-0.2,0.7-0.3c0.2-0.1,0.4-0.2,0.5-0.2c0.2-0.1,0.3-0.2,0.5-0.3c0.2-0.1,0.4-0.2,0.6-0.2
			c0.2,0,0.3,0,0.3,0c0,0.1,0,0.2-0.2,0.3c-0.1,0.1-0.3,0.3-0.6,0.4c-0.1,0-0.1,0.1-0.2,0.1s-0.1,0.1-0.2,0.1
			c-0.1,0-0.3,0.1-0.5,0.2c-0.2,0.1-0.5,0.2-0.9,0.3c-0.4,0.1-0.9,0.3-1.5,0.5c-0.6,0.2-1.4,0.4-2.3,0.6c-0.5,0.1-1,0.2-1.6,0.2
			c-0.6,0.1-1.2,0.1-1.9,0.1c-0.3,0-0.7,0-1,0c-0.4,0-0.7,0-1.1,0c-0.4,0-0.8-0.1-1.2-0.1c-0.1,0-0.2,0-0.3,0c-0.1,0-0.2,0-0.3-0.1
			c0-0.1-0.1-0.1-0.1-0.1s0,0,0,0s0,0,0,0c0,0,0,0,0,0l0,0l0,0l0,0l0-0.1l0.1-0.1c0,0,0.1-0.1,0.1-0.1s0.1-0.1,0.1-0.1
			c0.5-0.8,1-1.7,1.5-2.7c0.5-1,1.1-2,1.7-3.1c0.6-1.1,1.2-2.3,1.8-3.5c0.6-1.2,1.3-2.6,2-4c0.2-0.5,0.4-0.9,0.6-1.3
			c0.2-0.4,0.3-0.8,0.4-1.1c0-0.1,0.1-0.2,0.1-0.3c0-0.1,0-0.2,0.1-0.2c0,0,0-0.1,0-0.1c-0.3,0-0.5,0.1-0.7,0.2
			c-0.3,0.1-0.5,0.3-0.7,0.4c-0.2,0.2-0.4,0.3-0.6,0.5c-0.4,0.4-0.7,0.7-1,1.2c-0.3,0.4-0.7,1-1,1.5c-0.3,0.6-0.7,1.3-1.1,2.1
			c-0.2,0.4-0.4,0.9-0.6,1.4c-0.2,0.5-0.4,1-0.7,1.6c-0.2,0.6-0.5,1.2-0.7,1.9c-0.2,0.7-0.5,1.4-0.7,2.2c-0.5,1.6-1,3.1-1.3,4.5
			c-0.4,1.4-0.7,2.6-1,3.7c-0.3,1.1-0.5,2.1-0.7,3c-0.2,0.9-0.4,1.7-0.5,2.4c-0.2,0.8-0.3,1.5-0.4,2.1c-0.1,0.5-0.2,1-0.3,1.3
			L310.7,441.8z"/>
		<path d="M326.3,441.8C326.3,441.8,326.3,441.9,326.3,441.8c0,0.1,0,0.1,0,0.1c-0.1,0.3-0.1,0.5-0.2,0.6c-0.1,0.2-0.2,0.3-0.2,0.2
			c-0.1,0-0.1-0.1-0.2-0.3c0-0.2,0-0.4,0.1-0.7c0-0.1,0-0.2,0.1-0.2c0-0.1,0.1-0.2,0.1-0.4c0-0.2,0.1-0.4,0.1-0.6
			c0.1-0.3,0.1-0.6,0.2-1c0.1-0.5,0.2-1.1,0.3-1.9c0.1-0.8,0.2-1.7,0.3-2.9c0.1-1.2,0.2-2.2,0.3-3.1c0.1-0.9,0.2-1.7,0.2-2.3
			c0.1-0.7,0.1-1.2,0.1-1.6c0-0.4,0.1-0.8,0.1-1.1c0-0.3,0-0.5,0-0.6c0-0.1,0-0.2,0-0.2c0-0.1,0-0.1,0.1-0.2c0.1,0,0.1-0.1,0.2,0
			s0.1,0,0.2,0.1s0.1,0.1,0.1,0.2c0,0,0,0.1,0,0.2c0,0.1,0,0.2-0.1,0.4c0,0.2-0.1,0.5-0.1,0.8c-0.1,0.4-0.1,0.9-0.2,1.5
			c-0.1,0.6-0.2,1.5-0.3,2.4c-0.1,1-0.3,2.2-0.4,3.6c-0.1,0.6-0.1,1.2-0.2,1.7c-0.1,0.5-0.1,0.9-0.1,1.4c0.1-0.5,0.3-1.2,0.5-1.9
			c0.2-0.7,0.4-1.5,0.6-2.4c0.2-0.6,0.3-1.2,0.5-1.9c0.2-0.7,0.4-1.4,0.6-2.2c0.2-0.8,0.5-1.6,0.7-2.5c0.3-0.9,0.6-1.8,0.9-2.8
			c0.3-0.9,0.6-1.8,0.9-2.5c0.3-0.8,0.6-1.5,0.8-2.2c0.3-0.7,0.5-1.3,0.8-1.8c0.2-0.6,0.5-1.1,0.7-1.5c0.5-0.9,0.9-1.7,1.3-2.4
			c0.4-0.6,0.9-1.2,1.3-1.7c0.2-0.2,0.5-0.4,0.7-0.6c0.2-0.2,0.5-0.3,0.8-0.5c0.1,0,0.2-0.1,0.2-0.1c0.1,0,0.2,0,0.2-0.1
			c0,0,0.1,0,0.1,0c0,0,0.1,0,0.1,0h0.1c0,0,0.1,0,0.1,0c0,0,0.1,0.1,0.1,0.1c0,0,0,0.1,0,0.1c0,0.1,0,0.1,0,0.2s0,0.1,0,0.1
			c0,0.1,0,0.1,0,0.1c0,0,0,0.1,0,0.1c0,0.1,0,0.2-0.1,0.3c0,0.1-0.1,0.2-0.1,0.3c-0.1,0.3-0.3,0.7-0.4,1c-0.2,0.4-0.3,0.8-0.5,1.2
			c-0.2,0.4-0.4,0.9-0.7,1.3c-0.2,0.5-0.5,1-0.8,1.5c-0.4,0.7-0.7,1.4-1.1,2c-0.3,0.6-0.6,1.2-0.9,1.7c-0.3,0.5-0.5,1-0.8,1.4
			c-0.2,0.4-0.5,0.8-0.7,1.2s-0.4,0.8-0.6,1.1c-0.2,0.4-0.4,0.7-0.6,1.1c-0.2,0.4-0.4,0.7-0.6,1.1c-0.2,0.4-0.4,0.8-0.7,1.2
			c0,0-0.1,0.1-0.1,0.1s0,0.1-0.1,0.1l0,0c0.1,0,0.2,0,0.3,0c0.1,0,0.2,0,0.2,0c0.2,0,0.4,0,0.5,0c0.2,0,0.3,0,0.5,0
			c0.3,0,0.6,0,1,0c0.3,0,0.6,0,0.9,0c0.6,0,1.1-0.1,1.6-0.1c0.5-0.1,1-0.1,1.4-0.2c0.8-0.1,1.5-0.3,2.1-0.5
			c0.6-0.2,1.1-0.3,1.5-0.5c0.4-0.1,0.7-0.3,1-0.4c0.3-0.1,0.5-0.2,0.7-0.3c0.2-0.1,0.4-0.2,0.5-0.2c0.2-0.1,0.3-0.2,0.5-0.3
			c0.2-0.1,0.4-0.2,0.6-0.2c0.2,0,0.3,0,0.3,0c0,0.1,0,0.2-0.2,0.3c-0.1,0.1-0.3,0.3-0.6,0.4c-0.1,0-0.1,0.1-0.2,0.1
			c-0.1,0-0.1,0.1-0.2,0.1c-0.1,0-0.3,0.1-0.5,0.2c-0.2,0.1-0.5,0.2-0.9,0.3c-0.4,0.1-0.9,0.3-1.5,0.5c-0.6,0.2-1.4,0.4-2.3,0.6
			c-0.5,0.1-1,0.2-1.6,0.2c-0.6,0.1-1.2,0.1-1.9,0.1c-0.3,0-0.7,0-1,0c-0.4,0-0.7,0-1.1,0c-0.4,0-0.8-0.1-1.2-0.1
			c-0.1,0-0.2,0-0.3,0c-0.1,0-0.2,0-0.3-0.1c0-0.1-0.1-0.1-0.1-0.1c0,0,0,0,0,0s0,0,0,0c0,0,0,0,0,0l0,0l0,0l0,0l0-0.1l0.1-0.1
			c0,0,0.1-0.1,0.1-0.1s0.1-0.1,0.1-0.1c0.5-0.8,1-1.7,1.5-2.7c0.5-1,1.1-2,1.7-3.1c0.6-1.1,1.2-2.3,1.8-3.5c0.6-1.2,1.3-2.6,2-4
			c0.2-0.5,0.4-0.9,0.6-1.3c0.2-0.4,0.3-0.8,0.4-1.1c0-0.1,0.1-0.2,0.1-0.3c0-0.1,0-0.2,0.1-0.2c0,0,0-0.1,0-0.1
			c-0.3,0-0.5,0.1-0.7,0.2c-0.3,0.1-0.5,0.3-0.7,0.4c-0.2,0.2-0.4,0.3-0.6,0.5c-0.4,0.4-0.7,0.7-1,1.2c-0.3,0.4-0.7,1-1,1.5
			c-0.3,0.6-0.7,1.3-1.1,2.1c-0.2,0.4-0.4,0.9-0.6,1.4c-0.2,0.5-0.4,1-0.7,1.6c-0.2,0.6-0.5,1.2-0.7,1.9c-0.2,0.7-0.5,1.4-0.7,2.2
			c-0.5,1.6-1,3.1-1.3,4.5c-0.4,1.4-0.7,2.6-1,3.7c-0.3,1.1-0.5,2.1-0.7,3c-0.2,0.9-0.4,1.7-0.5,2.4c-0.2,0.8-0.3,1.5-0.4,2.1
			c-0.1,0.5-0.2,1-0.3,1.3L326.3,441.8z"/>
		<path d="M62.7,426.1c0-0.1-0.1-0.1-0.3-0.1c-0.1,0-0.3,0.1-0.5,0.2c-0.1,0.1-0.3,0.2-0.4,0.2c-0.1,0.1-0.2,0.1-0.4,0.2
			c-0.1,0.1-0.3,0.2-0.5,0.3c-0.2,0.1-0.4,0.2-0.7,0.4c-0.3,0.2-0.6,0.3-1,0.6c-0.4,0.2-0.9,0.5-1.4,0.8c-0.3,0.1-0.6,0.3-0.9,0.5
			c-0.3,0.2-0.7,0.3-1.1,0.5c-0.4,0.2-0.8,0.4-1.2,0.5s-0.9,0.4-1.5,0.5c-0.3,0.1-0.6,0.2-0.9,0.2c-0.3,0-0.5,0-0.8,0
			c0.1,0.1,0.3,0.2,0.4,0.2c0,0,0.1,0,0.1,0c0.4,0,0.7-0.1,1.1-0.2c0.6-0.2,1.2-0.4,1.7-0.6c0.5-0.2,1-0.4,1.5-0.6
			c0.5-0.2,0.9-0.4,1.2-0.6c0.4-0.2,0.7-0.4,1-0.5c0.6-0.3,1.2-0.6,1.6-0.8c0.4-0.2,0.8-0.4,1-0.5c0.3-0.1,0.5-0.3,0.6-0.3
			c0.1-0.1,0.3-0.1,0.3-0.2c0.1,0,0.1-0.1,0.2-0.1c0,0,0.1,0,0.1-0.1c0.2-0.1,0.3-0.2,0.4-0.3C62.7,426.2,62.7,426.1,62.7,426.1z"/>
		<path d="M62.2,425.5c0,0,0.3,0,0.5,0s0.3,0.2,0.3,0.3c0,0.1-0.1,0.4-0.5,0.7c-0.4,0.3-0.3-0.4-0.3-0.4l0.3-0.6h-0.2L62.2,425.5z"
			/>
	</g>
	<path d="M114.4,348.8h9.4v7.7c3-6.2,8.5-9.1,15.6-9.2v10h-0.7c-9.4,0-14.3,5.2-14.3,15.6v28.3h-10V348.8z"/>
	<path d="M147.3,348.8h9.4v8.1c2.5-5.4,8.4-9.7,17.7-9.6c16.8,0.2,21.2,12.3,21.2,23.2v30.7h-10.1v-28.4c0-9.4-3.7-16.2-13.9-16.1
		c-9.8,0.1-14.3,6.3-14.3,15.3v29.2h-10V348.8z"/>
	<path d="M258.2,382.8c-3.2,11.4-13.5,19.9-26.6,19.9c-17.1,0-28-13.2-28-27.7c0-15.5,11.8-27.7,27.5-27.7
		c12.5,0,23.8,7.7,27.1,20.3h-10.3c-2.7-7-9.2-11-16.4-11c-5.3-0.1-9.1,1.6-12.8,5.1c-3.1,3.1-5.1,8-5.1,13.3
		c0,10.8,7.9,18.4,17.9,18.4c8.8-0.1,14.3-5.4,16.4-10.6H258.2z"/>
	<path d="M321.3,401.2h-10v-9.1c-3.7,7-11.2,10.7-19.5,10.7c-16.9,0-26.9-13.1-26.9-27.7c0-16,11.7-27.7,26.9-27.7
		c10.4,0,17,5.8,19.5,10.8v-9.2h10V401.2z M275,375.2c0.1,7.8,5.6,18.2,18.3,18.2c8,0,13.7-4.4,16.3-10.4c1.2-2.4,1.7-5.1,1.8-7.8
		c0.1-2.7-0.4-5.4-1.5-7.8c-2.5-6.1-8.4-10.8-16.8-10.8C282.1,356.6,275,365.3,275,375.2L275,375.2z"/>
	<path d="M338.3,356.6h-9.4v-7.8h9.4V330h10v18.9h10.1v7.8h-10.1v44.6h-10V356.6z"/>
	<path d="M102.5,361.4l-7.9,7.9c2,6.3,0.6,12.8-4.7,18.1c-6,6-17,8.9-25.4,1.2l33.9-33.9c-5.3-6.4-12.2-10.5-20.2-11.4l-10.6-13
		l-5.1,15.8c-2.9,1.4-5.7,3.4-8.1,5.8c-3.7,3.7-6.1,8-7.5,12.5L32,372.3l14.7,8.2c1.3,5,4,9.7,7.8,13.5
		c10.5,10.5,28.9,12.9,41.9-0.1c4-4,6.9-9,7.9-14.6C105.5,373.7,105,367.7,102.5,361.4z M60.8,358.5c7.4-7.7,18.5-7,24.1-2.1
		l-26.2,26.2C53.7,376.9,53.1,366.2,60.8,358.5z"/>
</g>
<g>
	<path d="M277,115.4c0.1,0,0.2,0.1,0.4,0c0.2,0,0.5,0,0.8-0.1c0.2,0,0.5-0.1,0.8-0.1c0-0.1,0-0.2,0-0.3c-0.3,0-0.5,0-0.7,0
		c-0.3,0-0.6,0-0.7,0c-0.2,0-0.3,0-0.4,0s-0.2,0-0.2,0c0,0-0.1,0-0.1,0c0,0-0.1,0-0.1,0.1c0,0.1,0,0.1,0,0.2
		C276.9,115.3,276.9,115.4,277,115.4z"/>
	<path d="M101.6,115.4c0.1,0,0.2,0.1,0.4,0c0.2,0,0.5,0,0.8-0.1c0.2,0,0.4,0,0.6-0.1c0-0.1,0-0.1,0-0.2c0-0.1,0-0.1,0-0.2
		c-0.2,0-0.3,0-0.5,0c-0.3,0-0.6,0-0.7,0c-0.2,0-0.3,0-0.4,0c-0.1,0-0.2,0-0.2,0c0,0-0.1,0-0.1,0c0,0-0.1,0-0.1,0.1
		c0,0.1,0,0.1,0,0.2C101.5,115.3,101.6,115.4,101.6,115.4z"/>
	<g>
		<path class="st0" d="M62.2,121c0.1,0,0.2,0,0.3,0c0.1,0,0.1,0.1,0.1,0.2c0,0.1,0,0.2-0.1,0.2c-0.1,0.1-0.1,0.1-0.2,0.1
			c0,0-0.1,0-0.1,0c0,0-0.1,0-0.1,0c0,0-0.1,0-0.2,0s-0.2,0-0.3,0.1c-0.1,0-0.3,0.1-0.5,0.2c-0.2,0.1-0.5,0.2-0.7,0.4
			c-0.1,0.1-0.3,0.2-0.4,0.3c-0.1,0.1-0.2,0.3-0.3,0.5c-0.1,0.2-0.1,0.4-0.1,0.7c0,0.3,0.1,0.5,0.3,0.8c0.1,0.2,0.2,0.3,0.3,0.4
			c0.1,0.1,0.3,0.2,0.4,0.4c0.2,0.1,0.3,0.2,0.5,0.3c0.2,0.1,0.4,0.2,0.6,0.2c0.4,0.1,0.9,0.2,1.4,0.3c0.5,0.1,1,0.1,1.6,0.1
			c0.4,0,0.7,0,0.9,0c0.3,0,0.5,0,0.7,0c0.2,0,0.4,0,0.6,0c0.2,0,0.4,0,0.6-0.1c0.2,0,0.4-0.1,0.7-0.1s0.5-0.1,0.8-0.2
			s0.7-0.2,1.1-0.4c0.4-0.2,0.9-0.4,1.5-0.6c0.6-0.3,1.1-0.5,1.5-0.8c0.4-0.3,0.8-0.5,1.2-0.7c0.4-0.2,0.7-0.4,0.9-0.6
			c0.3-0.2,0.5-0.4,0.7-0.5c0.4-0.3,0.7-0.5,0.9-0.7c0.2-0.2,0.3-0.2,0.3-0.3c0.1-0.1,0.2-0.1,0.2-0.1c0.1,0,0.2,0,0.2,0.1
			c0.1,0.1,0.1,0.1,0.1,0.2c0,0.1-0.1,0.2-0.1,0.2c0,0-0.1,0-0.1,0.1c0,0-0.1,0.1-0.2,0.1c-0.1,0-0.2,0.1-0.3,0.2
			c-0.1,0.1-0.3,0.2-0.4,0.3c-0.2,0.1-0.4,0.3-0.7,0.4c-0.3,0.2-0.6,0.4-1,0.6c-0.4,0.2-0.8,0.5-1.3,0.8c-0.5,0.3-1.1,0.6-1.8,0.9
			c-0.6,0.3-1.2,0.5-1.7,0.7c-0.5,0.2-0.9,0.3-1.3,0.4c-0.4,0.1-0.7,0.2-1,0.3c-0.3,0.1-0.5,0.1-0.8,0.2c-0.2,0.1-0.5,0.1-0.7,0.1
			c-0.2,0-0.5,0.1-0.7,0.1c-0.3,0-0.6,0-0.9,0c-0.3,0-0.7,0-1.2-0.1c-0.6-0.1-1.1-0.2-1.5-0.4c-0.4-0.1-0.7-0.3-1-0.4
			c-0.1-0.1-0.3-0.2-0.4-0.2c-0.1-0.1-0.3-0.2-0.4-0.3c-0.1-0.1-0.2-0.2-0.3-0.3c-0.1-0.1-0.2-0.3-0.3-0.4c-0.1-0.3-0.2-0.5-0.3-0.8
			c0-0.3-0.1-0.5,0-0.7c0.1-0.2,0.1-0.4,0.2-0.6c0.1-0.2,0.2-0.3,0.3-0.4c0.3-0.2,0.5-0.4,0.7-0.5c0.2-0.1,0.4-0.2,0.5-0.3
			c0.2-0.1,0.3-0.1,0.4-0.2c0.1,0,0.2-0.1,0.3-0.1c0.1,0,0.1-0.1,0.2-0.1C62,121,62.1,121,62.2,121z"/>
		<path class="st0" d="M100.2,121.1c0.1-0.1,0.2-0.1,0.3-0.1c0.1,0,0.2,0.1,0.2,0.1c0,0.1,0,0.2,0,0.2c-0.1,0.1-0.1,0.2-0.3,0.2
			c0,0-0.1,0-0.1,0c0,0-0.1,0-0.1,0c-0.1,0-0.1,0-0.2,0.1c-0.1,0-0.2,0.1-0.4,0.2c-0.2,0.1-0.4,0.2-0.7,0.3c-0.3,0.1-0.6,0.3-1,0.5
			c-0.4,0.2-0.9,0.4-1.5,0.7c-0.6,0.3-1.2,0.5-2,0.9c-0.4,0.2-0.9,0.4-1.3,0.6c-0.5,0.2-1,0.5-1.5,0.7c-0.3,0.1-0.6,0.2-0.8,0.4
			c-0.3,0.1-0.6,0.2-0.9,0.4c-0.3,0.1-0.7,0.2-1,0.3c-0.3,0.1-0.7,0.2-1.1,0.2c-0.1,0-0.3,0-0.4,0c-0.1,0-0.3,0-0.4-0.1
			c-0.1,0-0.1-0.1-0.2-0.1c-0.1,0-0.1-0.1-0.2-0.1c-0.1-0.1-0.2-0.2-0.2-0.3c0-0.1-0.1-0.2-0.1-0.3c0-0.1,0-0.2,0-0.3
			c0-0.1,0-0.2,0-0.2c0-0.1,0-0.2,0-0.2c0.1-0.3,0.2-0.5,0.3-0.8c0.1-0.2,0.2-0.5,0.3-0.7c0.1-0.2,0.3-0.5,0.4-0.8
			c0.2-0.3,0.3-0.6,0.5-1c0.1-0.1,0.1-0.2,0.2-0.3c0.1-0.1,0.1-0.2,0.2-0.3l0-0.1l0,0c0,0,0,0,0,0s0,0,0,0c0,0,0,0,0,0
			c0,0,0.1,0.1,0.2,0.2l0,0l-0.1,0c0,0-0.1,0-0.1,0c0,0-0.1,0-0.1,0c-0.1,0-0.1,0-0.2,0c-0.1,0-0.1,0-0.2,0.1
			c-0.3,0.1-0.6,0.1-0.9,0.2c-0.3,0.1-0.7,0.1-1.1,0.2c-0.8,0.1-1.5,0.2-2.2,0.3c-0.7,0-1.3,0.1-1.8,0.1c-0.6,0-1,0-1.5-0.1
			c-0.4,0-0.8-0.1-1.1-0.1c-0.3,0-0.6-0.1-0.9-0.2s-0.4-0.1-0.6-0.1c-0.2,0-0.3-0.1-0.4-0.1c-0.1,0-0.2-0.1-0.2-0.1
			c-0.1,0-0.2-0.1-0.3-0.2s-0.1-0.2,0-0.2c0-0.1,0.1-0.1,0.2-0.1c0.1,0,0.2,0,0.3,0c0,0,0.1,0,0.1,0.1c0,0,0.1,0.1,0.2,0.1
			c0.1,0,0.2,0.1,0.4,0.1c0.2,0.1,0.4,0.1,0.7,0.2c0.3,0.1,0.6,0.1,1,0.2c0.4,0.1,0.9,0.1,1.5,0.2c0.6,0,1.2,0.1,2,0
			c0.7,0,1.6-0.1,2.6-0.2c0.5-0.1,0.9-0.1,1.2-0.2c0.4-0.1,0.7-0.2,1.1-0.2c0,0,0.1,0,0.1,0c0,0,0.1,0,0.1,0l0.1,0l0,0h0
			c0,0,0,0,0,0c0,0,0,0,0,0v0l0,0.1c0,0.1-0.1,0.1-0.1,0.2c0,0.1-0.1,0.1-0.1,0.2c-0.1,0.1-0.1,0.3-0.2,0.4
			c-0.1,0.1-0.1,0.2-0.2,0.3c-0.2,0.4-0.4,0.8-0.5,1.2c-0.1,0.3-0.3,0.6-0.4,0.9c-0.1,0.3-0.2,0.6-0.2,0.8c0,0.1,0,0.3,0,0.4
			c0,0.1,0,0.3,0.1,0.4c0.1,0.1,0.2,0.2,0.3,0.2c0.2,0,0.3,0.1,0.5,0c0.2,0,0.4,0,0.7-0.1c0.2,0,0.5-0.1,0.8-0.2
			c0.4-0.1,0.7-0.2,1-0.3c0.3-0.1,0.6-0.2,0.8-0.3c0.3-0.1,0.5-0.2,0.7-0.3c0.2-0.1,0.4-0.2,0.6-0.2c0.2-0.1,0.4-0.2,0.5-0.2
			c0.2-0.1,0.3-0.2,0.5-0.2c0.2-0.1,0.4-0.2,0.5-0.2c0.2-0.1,0.4-0.2,0.6-0.3c0.7-0.3,1.2-0.6,1.7-0.8c0.5-0.2,0.9-0.4,1.3-0.6
			c0.4-0.2,0.7-0.3,0.9-0.5c0.3-0.1,0.5-0.2,0.7-0.3c0.2-0.1,0.3-0.2,0.4-0.2c0.1-0.1,0.2-0.1,0.3-0.2s0.2-0.1,0.2-0.1
			C100,121.2,100.1,121.1,100.2,121.1z"/>
		<path class="st0" d="M120.5,121.1c0-0.1-0.1-0.1-0.2-0.1c-0.1,0-0.2,0-0.3,0c-0.1,0-0.2,0.1-0.3,0.1c-0.1,0-0.2,0.1-0.3,0.1
			c-0.1,0.1-0.3,0.1-0.4,0.2c-0.2,0.1-0.4,0.2-0.7,0.3s-0.7,0.3-1.2,0.5c-0.5,0.2-1,0.4-1.7,0.7c-0.7,0.3-1.5,0.6-2.4,0.9
			c-0.9,0.3-2.1,0.7-3.3,1.1c-0.8,0.3-1.6,0.5-2.3,0.6s-1.4,0.3-2.1,0.4c-0.7,0.1-1.3,0.2-1.8,0.2c-0.6,0-1.1,0-1.6,0
			c-0.5-0.1-0.9-0.2-1.3-0.4c-0.2-0.1-0.3-0.2-0.5-0.3c-0.1-0.1-0.2-0.3-0.3-0.4c-0.1-0.1-0.1-0.3-0.2-0.4c0-0.1-0.1-0.3-0.1-0.4
			c0-0.3,0-0.5,0.1-0.7c0.1-0.2,0.1-0.4,0.2-0.6c0.1-0.2,0.1-0.3,0.2-0.4c0.1-0.3,0.2-0.4,0.3-0.6c0.1-0.1,0.1-0.2,0.2-0.3
			c0-0.1,0.1-0.1,0.1-0.1c0.1-0.1,0.1-0.2,0.1-0.3c0-0.1,0-0.2-0.1-0.2c-0.1,0-0.1,0-0.2,0c-0.1,0-0.2,0.1-0.2,0.2
			c0,0-0.1,0.1-0.1,0.2c-0.1,0.1-0.1,0.3-0.2,0.5c-0.1,0.1-0.1,0.3-0.2,0.4c-0.1,0.1-0.1,0.3-0.2,0.5c-0.1,0.2-0.1,0.4-0.1,0.6
			c0,0.2,0,0.5,0,0.8c0,0.1,0,0.3,0.1,0.4c0,0.2,0.1,0.3,0.2,0.5c0.2,0.3,0.4,0.6,0.8,0.8c0.3,0.2,0.7,0.3,1.2,0.4
			c0.4,0.1,0.9,0.1,1.3,0.1c1,0,2-0.2,3.2-0.4c1.1-0.2,2.4-0.6,3.8-1c1.4-0.4,2.6-0.8,3.6-1.2s1.9-0.7,2.6-1
			c0.7-0.3,1.4-0.5,1.8-0.7c0.5-0.2,0.9-0.3,1.2-0.4c0.3-0.1,0.5-0.2,0.7-0.3c0.2-0.1,0.3-0.1,0.4-0.1c0.1,0,0.1,0,0.2,0
			c0,0,0.1,0,0.1,0c0.1,0,0.2-0.1,0.2-0.2C120.5,121.3,120.6,121.2,120.5,121.1z"/>
		<path class="st0" d="M145.8,121.3c0.1-0.1,0.2-0.2,0.4-0.2c0.1,0,0.2,0,0.2,0.1c0,0.1,0,0.2,0,0.3c-0.1,0.1-0.1,0.2-0.3,0.3
			c0,0-0.1,0.1-0.1,0.1c0,0-0.1,0-0.1,0.1c-0.1,0-0.1,0.1-0.3,0.2c-0.1,0.1-0.3,0.2-0.5,0.3c-0.2,0.1-0.5,0.3-0.8,0.5
			c-0.3,0.2-0.7,0.4-1.2,0.7c-0.2,0.1-0.5,0.3-0.8,0.5c-0.3,0.2-0.6,0.3-0.9,0.5c-0.3,0.2-0.7,0.3-1.1,0.5c-0.4,0.2-0.8,0.4-1.3,0.5
			c-0.5,0.2-1.1,0.3-1.7,0.5c-0.6,0.2-1.3,0.2-2,0.3c-0.4,0-0.7,0-1.1-0.1s-0.8-0.1-1.2-0.3c-0.4-0.1-0.8-0.3-1.2-0.5
			s-0.8-0.5-1.1-0.8c-0.4-0.4-0.8-0.8-1-1.2c-0.3-0.4-0.5-0.7-0.7-1c-0.1-0.2-0.2-0.3-0.2-0.4c-0.1-0.1-0.1-0.3-0.2-0.4
			c0,0,0-0.1,0-0.1c0,0,0-0.1,0-0.1l-0.1-0.1l0-0.1v0c0.1,0.1,0.2,0.1,0.3,0.1c0,0,0.1,0,0,0c0,0,0,0,0,0c0,0,0,0,0,0h0l0,0
			c-0.1,0-0.1,0.1-0.2,0.1c-0.1,0-0.1,0.1-0.2,0.1c-0.3,0.1-0.6,0.3-1,0.5c-0.3,0.2-0.7,0.4-1.2,0.7c-0.5,0.3-1,0.6-1.6,1
			c-0.6,0.4-1.3,0.8-2.1,1.3c-0.4,0.3-0.8,0.5-1.2,0.7c-0.4,0.2-0.8,0.4-1.2,0.6c-0.2,0.1-0.4,0.2-0.6,0.2c-0.2,0.1-0.4,0.1-0.6,0.1
			c-0.2,0-0.4,0.1-0.6,0c-0.2,0-0.4,0-0.6-0.1c0,0,0,0-0.1,0c0,0,0,0-0.1,0l0,0l-0.1,0c0,0-0.1-0.1-0.1-0.1c0-0.1-0.1-0.1-0.1-0.2
			c0-0.1,0-0.1,0-0.2c0-0.1,0-0.2,0.1-0.3c0-0.1,0-0.2,0.1-0.2c0.1-0.1,0.1-0.3,0.2-0.4c0.1-0.1,0.1-0.3,0.2-0.4
			c0.1-0.2,0.2-0.5,0.3-0.7c0.1-0.2,0.2-0.4,0.3-0.6c0.2-0.4,0.4-0.7,0.5-0.9c0.1-0.2,0.3-0.5,0.4-0.6c0.1-0.2,0.2-0.3,0.2-0.4
			c0.1-0.1,0.1-0.2,0.1-0.2c0.1-0.1,0.2-0.2,0.3-0.3c0.1-0.1,0.2-0.1,0.3,0c0.1,0,0.1,0.1,0.1,0.2c0,0.1-0.1,0.2-0.1,0.4
			c0,0-0.1,0.1-0.1,0.1c0,0.1-0.1,0.1-0.2,0.2c-0.1,0.1-0.2,0.2-0.3,0.4c-0.1,0.2-0.3,0.4-0.5,0.7c-0.1,0.1-0.2,0.3-0.3,0.5
			c-0.1,0.2-0.2,0.4-0.3,0.6c-0.1,0.1-0.1,0.2-0.2,0.3c-0.1,0.1-0.1,0.2-0.2,0.4c-0.1,0.1-0.1,0.3-0.2,0.4c-0.1,0.1-0.1,0.3-0.2,0.5
			c0,0,0,0.1,0,0.1c0,0,0,0.1,0,0.1c0,0,0,0.1,0,0.1c0,0,0,0,0,0c0,0,0,0,0,0c0,0,0,0,0,0c0,0,0,0,0,0c0,0,0,0,0,0c0,0,0,0,0.1,0
			c0,0,0,0,0.1,0c0,0,0.1,0,0.1,0c0,0,0.1,0,0.1,0c0.2,0,0.4,0,0.6,0c0.2,0,0.4-0.1,0.6-0.2c0.4-0.1,0.9-0.3,1.3-0.6
			c0.5-0.2,1-0.5,1.5-0.8c0.5-0.3,0.9-0.6,1.3-0.8c0.4-0.3,0.8-0.5,1.1-0.7c0.3-0.2,0.7-0.4,1-0.6c0.3-0.2,0.6-0.3,0.8-0.5
			c0.3-0.2,0.5-0.3,0.7-0.4c0.2-0.1,0.4-0.2,0.6-0.3l0.6-0.3l0.1,0l0,0l0,0h0h0c0,0,0,0,0,0c0,0,0,0,0.1,0c0,0,0,0,0,0c0,0,0,0,0,0
			c0,0,0.1,0.1,0.1,0.1c0,0,0,0.1,0.1,0.1c0,0,0,0.1,0.1,0.1c0.2,0.3,0.4,0.6,0.5,0.9s0.4,0.6,0.7,0.9c0.1,0.2,0.3,0.3,0.4,0.5
			c0.2,0.2,0.3,0.3,0.5,0.5c0.2,0.2,0.4,0.3,0.6,0.5c0.2,0.2,0.5,0.3,0.8,0.5c0.4,0.2,0.8,0.4,1.2,0.5c0.4,0.1,0.7,0.2,1,0.2
			c0.3,0,0.6,0.1,0.9,0.1c0.3,0,0.5,0,0.8,0c0.2,0,0.5-0.1,0.7-0.1c0.2,0,0.5-0.1,0.7-0.1c0.2-0.1,0.4-0.1,0.7-0.2
			c0.2-0.1,0.5-0.2,0.7-0.2c0.8-0.3,1.5-0.6,2.1-0.9c0.6-0.3,1.1-0.6,1.5-0.9c0.4-0.3,0.8-0.5,1-0.7c0.3-0.2,0.5-0.4,0.7-0.5
			c0.2-0.2,0.4-0.3,0.5-0.4c0.1-0.1,0.2-0.2,0.3-0.3c0.1-0.1,0.2-0.1,0.3-0.2C145.6,121.4,145.7,121.4,145.8,121.3z"/>
		<path class="st0" d="M198.2,121.1c0,0.1,0,0.2-0.1,0.3c-0.1,0.1-0.2,0.2-0.4,0.3c-0.1,0-0.1,0.1-0.1,0.1c0,0-0.1,0-0.2,0.1
			c-0.1,0-0.2,0.1-0.3,0.2c-0.1,0.1-0.4,0.2-0.6,0.3c-0.3,0.1-0.6,0.3-1,0.5c-0.4,0.2-0.9,0.5-1.6,0.8c-0.3,0.2-0.7,0.3-1,0.5
			s-0.8,0.4-1.2,0.6c-0.5,0.2-0.9,0.4-1.5,0.6c-0.5,0.2-1.1,0.4-1.7,0.6c-0.4,0.1-0.7,0.2-1.1,0.2c-0.2,0-0.4,0-0.6-0.1
			c-0.2,0-0.4-0.1-0.6-0.2c-0.4-0.2-0.7-0.4-1.1-0.7c-0.3-0.3-0.6-0.7-0.8-1.1c-0.2-0.4-0.4-0.9-0.6-1.3c0-0.1,0-0.1-0.1-0.2
			c0-0.1,0-0.1-0.1-0.2c0,0-0.1,0.1-0.1,0.1c0,0-0.1,0.1-0.1,0.1c-0.4,0.3-0.8,0.7-1.2,1c-0.4,0.3-0.9,0.7-1.4,1
			c-0.6,0.4-1.2,0.8-1.7,1c-0.5,0.3-0.9,0.5-1.4,0.6c-0.2,0.1-0.4,0.1-0.6,0.2c-0.2,0.1-0.4,0.1-0.6,0.1c-0.2,0-0.4,0-0.6,0
			c-0.2,0-0.4-0.1-0.6-0.1c-0.2-0.1-0.4-0.2-0.6-0.4c-0.2-0.2-0.3-0.4-0.5-0.6c-0.3-0.5-0.5-1-0.6-1.7c-0.1-0.3-0.1-0.7-0.1-1.1
			c0-0.4,0-0.8,0-1.2l-0.2,0.1c-0.1,0.1-0.2,0.1-0.3,0.2c-0.1,0.1-0.2,0.1-0.3,0.2c-0.2,0.1-0.5,0.3-0.7,0.4
			c-0.2,0.2-0.5,0.3-0.7,0.5c-1.1,0.7-2,1.3-2.9,1.8c-0.9,0.5-1.7,1-2.5,1.3c-0.2,0.1-0.4,0.2-0.6,0.3c-0.2,0.1-0.4,0.1-0.6,0.2
			c-0.1,0-0.2,0.1-0.3,0.1c-0.1,0-0.2,0-0.3,0c-0.1,0-0.1,0-0.2,0c0,0-0.1,0-0.1-0.1c0,0-0.1-0.1-0.1-0.1c0,0,0-0.1,0-0.1
			c0,0,0,0,0-0.1c0-0.1,0-0.1,0-0.2c0,0,0-0.1,0-0.1c0.1-0.2,0.1-0.3,0.2-0.5c0.1-0.1,0.1-0.3,0.2-0.4c0.1-0.1,0.1-0.3,0.2-0.4
			c0.1-0.1,0.1-0.2,0.2-0.4c0.2-0.5,0.4-0.8,0.6-1.2c0.2-0.3,0.3-0.6,0.5-0.8c0.1-0.2,0.2-0.4,0.3-0.5c0.1-0.1,0.1-0.2,0.2-0.3
			c0.1-0.2,0.2-0.3,0.3-0.4c0.1-0.1,0.2-0.1,0.3-0.1c0.1,0,0.1,0.1,0.1,0.3c0,0.1-0.1,0.3-0.2,0.5c0,0.1-0.1,0.1-0.1,0.2
			c0,0.1-0.1,0.2-0.2,0.3c-0.1,0.1-0.2,0.3-0.4,0.5c-0.1,0.2-0.3,0.5-0.6,0.9c-0.1,0.2-0.2,0.4-0.4,0.6c-0.1,0.2-0.3,0.5-0.4,0.8
			c-0.1,0.1-0.1,0.3-0.2,0.5c-0.1,0.2-0.1,0.3-0.2,0.5c0,0,0,0.1,0,0.1c0.1,0,0.1,0,0.2,0c0.1,0,0.2,0,0.3-0.1
			c0.1,0,0.2-0.1,0.3-0.1c0.4-0.1,0.8-0.3,1.3-0.6c0.5-0.2,1-0.5,1.5-0.8c0.5-0.3,1.1-0.6,1.6-0.9c0.6-0.3,1.2-0.7,1.9-1.1
			c0.3-0.2,0.6-0.4,0.9-0.5c0.3-0.2,0.5-0.3,0.8-0.5c0.1-0.1,0.3-0.2,0.4-0.2c0.1-0.1,0.2-0.2,0.4-0.2l0,0v-0.1c0,0,0,0,0,0
			c0,0,0,0,0,0c0,0,0,0,0,0c0,0,0,0,0.1,0h0l0,0l0,0h0c0,0,0,0,0,0c0,0,0,0,0,0v0v0.1c0,0,0,0,0.1,0l0,0l0,0l0,0v0.1
			c0,0.1,0,0.1,0,0.2c0,0.1,0,0.1,0,0.2c0,0.5,0,1,0.1,1.4c0.1,0.4,0.1,0.8,0.3,1.2c0.1,0.4,0.3,0.7,0.4,1c0.2,0.3,0.4,0.5,0.6,0.6
			c0.2,0.1,0.5,0.2,0.7,0.2c0.2,0,0.5,0,0.7-0.1c0.2,0,0.4-0.1,0.6-0.2c0.2-0.1,0.4-0.2,0.6-0.2c0.2-0.1,0.4-0.2,0.6-0.3
			c0.2-0.1,0.4-0.2,0.6-0.3c0.5-0.3,0.9-0.6,1.5-0.9c0.5-0.4,1.2-0.8,1.9-1.3c0.4-0.3,0.8-0.6,1.2-0.9v0h0c0,0,0,0,0,0c0,0,0,0,0,0
			l0,0l0,0h0v0c0.1,0,0.1,0.1,0.2,0.1c0,0,0,0,0,0c0,0,0,0,0,0c0,0,0,0,0,0v0c0,0,0,0,0,0c0,0,0,0,0,0c0,0,0,0,0,0s0,0,0,0
			c0.1,0,0.1,0,0.1,0c0,0,0,0-0.1,0h0c0,0,0,0,0,0.1c0,0.1,0,0.1,0,0.2c0,0.1,0,0.1,0,0.2c0,0.1,0.1,0.2,0.1,0.3
			c0,0.1,0.1,0.2,0.1,0.3c0.3,0.8,0.6,1.4,1.1,1.9c0.4,0.5,0.9,0.8,1.5,0.9c0.3,0.1,0.6,0.1,0.9,0.1c0.3,0,0.6-0.1,0.9-0.2
			c0.5-0.2,1-0.3,1.5-0.5c0.4-0.2,0.9-0.4,1.2-0.5c0.4-0.2,0.7-0.4,1.1-0.5c0.3-0.2,0.6-0.3,0.9-0.5c0.6-0.3,1-0.6,1.4-0.8
			c0.4-0.2,0.7-0.4,1-0.6c0.3-0.2,0.5-0.3,0.7-0.4s0.3-0.2,0.5-0.3c0.1-0.1,0.2-0.2,0.4-0.2c0.1-0.1,0.2-0.1,0.4-0.2
			c0.2-0.1,0.3-0.2,0.5-0.2C198.1,121.1,198.1,121.1,198.2,121.1z"/>
		<path class="st0" d="M212.2,121.1c0.1,0,0.2,0,0.3,0c0.1,0,0.1,0.1,0.2,0.1c0,0.1,0,0.1,0,0.2c0,0.1-0.1,0.1-0.2,0.2
			c0,0-0.1,0-0.1,0c0,0-0.1,0-0.1,0c0,0-0.1,0-0.2,0.1c-0.1,0-0.2,0.1-0.3,0.1c-0.1,0.1-0.3,0.1-0.6,0.2s-0.5,0.2-0.9,0.3
			c-0.3,0.1-0.8,0.2-1.2,0.4c-0.5,0.1-1,0.3-1.7,0.5c-0.4,0.1-0.7,0.2-1.1,0.3c-0.4,0.1-0.8,0.2-1.3,0.3c-0.5,0.1-1,0.2-1.5,0.2
			c-0.5,0.1-1.1,0.1-1.7,0.1c-0.4,0-0.7,0-1,0c-0.3,0-0.5,0-0.7,0c-0.2,0-0.4,0-0.5-0.1c0,0.1-0.1,0.1-0.1,0.1c0,0-0.1,0.1-0.1,0.1
			s-0.1,0.1-0.1,0.1c-0.1,0.2-0.3,0.3-0.5,0.5c-0.2,0.2-0.4,0.4-0.6,0.7c-0.1,0.1-0.3,0.2-0.4,0.4c-0.2,0.1-0.3,0.3-0.5,0.4
			c-0.1,0.1-0.2,0.1-0.3,0.2c-0.1,0.1-0.2,0.1-0.4,0.2c-0.1,0-0.1,0-0.2,0.1c-0.1,0-0.1,0-0.2,0c0,0-0.1,0-0.1,0c0,0-0.1,0-0.1,0h0
			h0h0h0h0c-0.1,0-0.2,0-0.3-0.1c-0.2-0.1-0.3-0.2-0.4-0.3c-0.1-0.2-0.2-0.3-0.2-0.5c0-0.2-0.1-0.3-0.1-0.4c0-0.1,0-0.3,0-0.4
			c0-0.1,0-0.3,0-0.4c0-0.1,0-0.3,0-0.4c0-0.1,0-0.2,0.1-0.4c0-0.1,0.1-0.2,0.1-0.3c0.1-0.2,0.1-0.4,0.2-0.6
			c0.1-0.2,0.2-0.3,0.3-0.5c0.1-0.1,0.2-0.3,0.3-0.4c0.1-0.1,0.2-0.2,0.4-0.3c0.2-0.2,0.4-0.3,0.6-0.4s0.3-0.1,0.5-0.2
			c0.1,0,0.2-0.1,0.3-0.1c0.1,0,0.1,0,0.2,0c0.1,0,0.2,0,0.3,0.1c0.1,0.1,0.1,0.1,0.1,0.2c0,0.1,0,0.1-0.1,0.2
			c-0.1,0.1-0.1,0.1-0.2,0.1c0,0-0.1,0-0.1,0c0,0-0.1,0-0.2,0c-0.1,0-0.2,0-0.3,0.1c-0.1,0-0.3,0.1-0.5,0.2c-0.1,0-0.2,0.1-0.3,0.2
			c-0.1,0.1-0.2,0.1-0.3,0.2c-0.1,0.1-0.2,0.2-0.4,0.4c-0.1,0.1-0.2,0.3-0.3,0.5c-0.1,0.2-0.2,0.4-0.2,0.7c-0.1,0.2-0.1,0.5-0.1,0.8
			c0,0.1,0,0.3,0,0.5c0,0.2,0,0.3,0,0.5c0,0.2,0.1,0.3,0.2,0.5c0.1,0.2,0.2,0.3,0.4,0.4c0.2,0.1,0.3,0.1,0.5,0.1
			c0.2,0,0.3-0.1,0.5-0.1c0.1,0,0.3-0.1,0.4-0.2c0.1-0.1,0.2-0.1,0.3-0.2c0.2-0.1,0.4-0.3,0.6-0.4c0.2-0.2,0.3-0.3,0.4-0.4
			c0.1-0.1,0.3-0.3,0.4-0.4c0.1-0.1,0.2-0.3,0.3-0.4c0-0.1,0.1-0.1,0.1-0.2c0-0.1,0.1-0.1,0.1-0.2c0,0,0-0.1,0.1-0.1
			c0,0,0-0.1,0-0.1l0-0.1l0,0l0,0c0,0,0,0,0,0c0,0,0,0,0.1,0h0c0.2,0,0.5,0,0.7,0c0.2,0,0.5,0,0.7,0c0.3,0,0.6,0,0.9,0
			c0.3,0,0.7,0,1.2,0c0.6,0,1.1,0,1.5-0.1c0.4,0,0.8-0.1,1.1-0.2c0.3,0,0.6-0.1,0.9-0.2c0.3-0.1,0.6-0.1,0.9-0.2
			c0.5-0.2,1-0.3,1.4-0.4c0.4-0.1,0.8-0.3,1.1-0.4c0.3-0.1,0.6-0.2,0.8-0.3c0.2-0.1,0.4-0.2,0.5-0.2c0.1-0.1,0.3-0.1,0.4-0.2
			c0.1,0,0.2-0.1,0.2-0.1c0.1,0,0.1-0.1,0.2-0.1C212.1,121.2,212.1,121.1,212.2,121.1z"/>
		<path class="st0" d="M238,121.3c0.1-0.1,0.2-0.2,0.4-0.2c0.1,0,0.2,0,0.2,0.1c0,0.1,0,0.2,0,0.3c-0.1,0.1-0.1,0.2-0.3,0.3
			c0,0-0.1,0.1-0.1,0.1c0,0-0.1,0-0.1,0.1c-0.1,0-0.1,0.1-0.3,0.2c-0.1,0.1-0.3,0.2-0.5,0.3c-0.2,0.1-0.5,0.3-0.8,0.5
			c-0.3,0.2-0.7,0.4-1.2,0.7c-0.2,0.1-0.5,0.3-0.8,0.5c-0.3,0.2-0.6,0.3-0.9,0.5c-0.3,0.2-0.7,0.3-1.1,0.5c-0.4,0.2-0.8,0.4-1.3,0.5
			c-0.5,0.2-1.1,0.3-1.7,0.5c-0.6,0.2-1.3,0.2-2,0.3c-0.4,0-0.7,0-1.1-0.1c-0.4-0.1-0.8-0.1-1.2-0.3c-0.4-0.1-0.8-0.3-1.2-0.5
			c-0.4-0.2-0.8-0.5-1.1-0.8c-0.4-0.4-0.8-0.8-1-1.2c-0.3-0.4-0.5-0.7-0.7-1c-0.1-0.2-0.2-0.3-0.2-0.4c-0.1-0.1-0.1-0.3-0.2-0.4
			c0,0,0-0.1,0-0.1c0,0,0-0.1,0-0.1l-0.1-0.1l0-0.1v0c0.1,0.1,0.2,0.1,0.3,0.1c0,0,0.1,0,0,0c0,0,0,0,0,0c0,0,0,0,0,0h0l0,0
			c-0.1,0-0.1,0.1-0.2,0.1c-0.1,0-0.1,0.1-0.2,0.1c-0.3,0.1-0.6,0.3-1,0.5s-0.7,0.4-1.2,0.7c-0.5,0.3-1,0.6-1.6,1
			c-0.6,0.4-1.3,0.8-2.1,1.3c-0.4,0.3-0.8,0.5-1.2,0.7c-0.4,0.2-0.8,0.4-1.2,0.6c-0.2,0.1-0.4,0.2-0.6,0.2c-0.2,0.1-0.4,0.1-0.6,0.1
			c-0.2,0-0.4,0.1-0.6,0c-0.2,0-0.4,0-0.6-0.1c0,0,0,0-0.1,0c0,0,0,0-0.1,0l0,0l-0.1,0c0,0-0.1-0.1-0.1-0.1c0-0.1-0.1-0.1-0.1-0.2
			c0-0.1,0-0.1,0-0.2c0-0.1,0-0.2,0.1-0.3c0-0.1,0-0.2,0.1-0.2c0.1-0.1,0.1-0.3,0.2-0.4c0.1-0.1,0.1-0.3,0.2-0.4
			c0.1-0.2,0.2-0.5,0.3-0.7c0.1-0.2,0.2-0.4,0.3-0.6c0.2-0.4,0.4-0.7,0.5-0.9s0.3-0.5,0.4-0.6c0.1-0.2,0.2-0.3,0.2-0.4
			c0.1-0.1,0.1-0.2,0.1-0.2c0.1-0.1,0.2-0.2,0.3-0.3c0.1-0.1,0.2-0.1,0.3,0c0.1,0,0.1,0.1,0.1,0.2c0,0.1-0.1,0.2-0.1,0.4
			c0,0-0.1,0.1-0.1,0.1c0,0.1-0.1,0.1-0.2,0.2c-0.1,0.1-0.2,0.2-0.3,0.4c-0.1,0.2-0.3,0.4-0.5,0.7c-0.1,0.1-0.2,0.3-0.3,0.5
			c-0.1,0.2-0.2,0.4-0.3,0.6c-0.1,0.1-0.1,0.2-0.2,0.3c-0.1,0.1-0.1,0.2-0.2,0.4c-0.1,0.1-0.1,0.3-0.2,0.4c-0.1,0.1-0.1,0.3-0.2,0.5
			c0,0,0,0.1,0,0.1c0,0,0,0.1,0,0.1c0,0,0,0.1,0,0.1c0,0,0,0,0,0c0,0,0,0,0,0c0,0,0,0,0,0c0,0,0,0,0,0c0,0,0,0,0,0c0,0,0,0,0.1,0
			c0,0,0,0,0.1,0c0,0,0.1,0,0.1,0c0,0,0.1,0,0.1,0c0.2,0,0.4,0,0.6,0c0.2,0,0.4-0.1,0.6-0.2c0.4-0.1,0.9-0.3,1.3-0.6
			c0.5-0.2,1-0.5,1.5-0.8c0.5-0.3,0.9-0.6,1.3-0.8s0.8-0.5,1.1-0.7c0.3-0.2,0.7-0.4,1-0.6c0.3-0.2,0.6-0.3,0.8-0.5
			c0.3-0.2,0.5-0.3,0.7-0.4c0.2-0.1,0.4-0.2,0.6-0.3l0.6-0.3l0.1,0l0,0l0,0h0h0c0,0,0,0,0,0c0,0,0,0,0.1,0c0,0,0,0,0,0c0,0,0,0,0,0
			c0,0,0.1,0.1,0.1,0.1c0,0,0,0.1,0.1,0.1c0,0,0,0.1,0.1,0.1c0.2,0.3,0.4,0.6,0.5,0.9s0.4,0.6,0.7,0.9c0.1,0.2,0.3,0.3,0.4,0.5
			c0.2,0.2,0.3,0.3,0.5,0.5c0.2,0.2,0.4,0.3,0.6,0.5c0.2,0.2,0.5,0.3,0.8,0.5c0.4,0.2,0.8,0.4,1.2,0.5c0.4,0.1,0.7,0.2,1,0.2
			c0.3,0,0.6,0.1,0.9,0.1c0.3,0,0.5,0,0.8,0c0.2,0,0.5-0.1,0.7-0.1c0.2,0,0.5-0.1,0.7-0.1c0.2-0.1,0.4-0.1,0.7-0.2
			c0.2-0.1,0.5-0.2,0.7-0.2c0.8-0.3,1.5-0.6,2.1-0.9c0.6-0.3,1.1-0.6,1.5-0.9c0.4-0.3,0.8-0.5,1-0.7c0.3-0.2,0.5-0.4,0.7-0.5
			c0.2-0.2,0.4-0.3,0.5-0.4c0.1-0.1,0.2-0.2,0.3-0.3c0.1-0.1,0.2-0.1,0.3-0.2C237.9,121.4,237.9,121.4,238,121.3z"/>
		<path class="st0" d="M254.2,121.1c0.1-0.1,0.2-0.1,0.2-0.1c0.1,0,0.2,0,0.2,0.1c0,0.1,0.1,0.1,0.1,0.2c0,0.1-0.1,0.2-0.1,0.2
			c0,0-0.1,0-0.1,0.1c0,0-0.1,0-0.1,0.1c-0.1,0-0.2,0.1-0.3,0.2c-0.1,0.1-0.3,0.2-0.6,0.4c-0.3,0.2-0.6,0.4-1,0.7
			c-0.4,0.3-1,0.6-1.6,0.9c-0.3,0.2-0.7,0.4-1.1,0.5c-0.4,0.2-0.8,0.4-1.3,0.6c-0.5,0.2-1,0.4-1.6,0.6c-0.6,0.2-1.2,0.4-1.9,0.5
			c-1.3,0.3-2.6,0.4-3.7,0.5c-0.6,0-1.1,0-1.6-0.1c-0.5-0.1-1-0.2-1.4-0.4c-0.2-0.1-0.4-0.2-0.6-0.3c-0.2-0.1-0.3-0.3-0.5-0.4
			c-0.1-0.1-0.1-0.2-0.2-0.3c-0.1-0.1-0.1-0.2-0.1-0.3c0-0.1-0.1-0.2-0.1-0.3c0-0.1,0-0.2,0-0.3c0-0.4,0.1-0.7,0.2-1
			c0.1-0.3,0.2-0.6,0.3-0.8c0.1-0.2,0.3-0.5,0.4-0.6c0.1-0.2,0.3-0.3,0.4-0.5c0.1-0.1,0.3-0.2,0.4-0.3c0.1-0.1,0.2-0.2,0.4-0.2
			c0.2-0.1,0.4-0.2,0.5-0.3c0.1-0.1,0.2-0.1,0.2-0.1c0.1,0,0.2,0,0.3,0c0.1,0,0.1,0.1,0.2,0.2c0,0.1,0,0.2,0,0.2
			c0,0.1-0.1,0.1-0.2,0.1c0,0-0.1,0-0.1,0c-0.1,0-0.2,0-0.3,0.1c-0.1,0-0.2,0.1-0.2,0.1c-0.1,0-0.2,0.1-0.3,0.2
			c-0.1,0.1-0.2,0.2-0.4,0.3c-0.1,0.1-0.3,0.2-0.4,0.4c-0.1,0.2-0.3,0.3-0.4,0.6c-0.1,0.2-0.3,0.5-0.4,0.8c-0.1,0.2-0.1,0.3-0.1,0.5
			c0,0.2,0,0.4-0.1,0.6c0,0.2,0,0.4,0.1,0.6c0.1,0.2,0.2,0.4,0.4,0.5c0.2,0.2,0.4,0.3,0.6,0.4c0.2,0.1,0.5,0.2,0.7,0.3
			c0.5,0.2,1.1,0.3,1.7,0.3c0.6,0,1.3,0,2,0c0.7-0.1,1.5-0.2,2.3-0.4c0.6-0.1,1.2-0.3,1.7-0.5c0.5-0.2,1-0.4,1.5-0.5
			c0.5-0.2,0.9-0.4,1.2-0.5c0.4-0.2,0.7-0.4,1-0.5c0.6-0.3,1.1-0.7,1.5-0.9c0.4-0.3,0.7-0.5,1-0.7c0.3-0.2,0.5-0.4,0.6-0.5
			c0.1-0.1,0.3-0.2,0.3-0.3c0.1-0.1,0.2-0.2,0.2-0.2C254,121.3,254.1,121.2,254.2,121.1z"/>
		<path class="st0" d="M277.3,121.1c0.1-0.1,0.2-0.1,0.3-0.1c0.1,0,0.2,0.1,0.2,0.1c0,0.1,0,0.2,0,0.2c-0.1,0.1-0.1,0.2-0.3,0.2
			c0,0-0.1,0-0.1,0c0,0-0.1,0-0.1,0c-0.1,0-0.1,0-0.2,0.1c-0.1,0-0.2,0.1-0.4,0.2c-0.2,0.1-0.4,0.2-0.7,0.3c-0.3,0.1-0.6,0.3-1,0.5
			c-0.4,0.2-0.9,0.4-1.5,0.7c-0.6,0.3-1.2,0.5-2,0.9c-0.4,0.2-0.9,0.4-1.3,0.6c-0.5,0.2-1,0.5-1.5,0.7c-0.3,0.1-0.6,0.2-0.8,0.4
			c-0.3,0.1-0.6,0.2-0.9,0.4c-0.3,0.1-0.7,0.2-1,0.3c-0.3,0.1-0.7,0.2-1.1,0.2c-0.1,0-0.3,0-0.4,0c-0.1,0-0.3,0-0.4-0.1
			c-0.1,0-0.1-0.1-0.2-0.1c-0.1,0-0.1-0.1-0.2-0.1c-0.1-0.1-0.2-0.2-0.2-0.3c0-0.1-0.1-0.2-0.1-0.3c0-0.1,0-0.2,0-0.3
			c0-0.1,0-0.2,0-0.2c0-0.1,0-0.2,0-0.2c0.1-0.3,0.2-0.5,0.3-0.8c0.1-0.2,0.2-0.5,0.3-0.7c0.1-0.2,0.3-0.5,0.4-0.8
			c0.2-0.3,0.3-0.6,0.5-1c0.1-0.1,0.1-0.2,0.2-0.3c0.1-0.1,0.1-0.2,0.2-0.3l0-0.1l0,0c0,0,0,0,0,0s0,0,0,0c0,0,0,0,0,0
			c0,0,0.1,0.1,0.2,0.2l0,0l-0.1,0c0,0-0.1,0-0.1,0c0,0-0.1,0-0.1,0c-0.1,0-0.1,0-0.2,0c-0.1,0-0.1,0-0.2,0.1
			c-0.3,0.1-0.6,0.1-0.9,0.2c-0.3,0.1-0.7,0.1-1.1,0.2c-0.8,0.1-1.5,0.2-2.2,0.3c-0.7,0-1.3,0.1-1.8,0.1c-0.6,0-1,0-1.5-0.1
			c-0.4,0-0.8-0.1-1.1-0.1c-0.3,0-0.6-0.1-0.9-0.2s-0.4-0.1-0.6-0.1c-0.2,0-0.3-0.1-0.4-0.1c-0.1,0-0.2-0.1-0.2-0.1
			c-0.1,0-0.2-0.1-0.3-0.2c-0.1-0.1-0.1-0.2,0-0.2c0-0.1,0.1-0.1,0.2-0.1c0.1,0,0.2,0,0.3,0c0,0,0.1,0,0.1,0.1c0,0,0.1,0.1,0.2,0.1
			c0.1,0,0.2,0.1,0.4,0.1c0.2,0.1,0.4,0.1,0.7,0.2c0.3,0.1,0.6,0.1,1,0.2c0.4,0.1,0.9,0.1,1.5,0.2c0.6,0,1.2,0.1,2,0
			c0.7,0,1.6-0.1,2.6-0.2c0.5-0.1,0.9-0.1,1.2-0.2c0.4-0.1,0.7-0.2,1.1-0.2c0,0,0.1,0,0.1,0c0,0,0.1,0,0.1,0l0.1,0l0,0h0
			c0,0,0,0,0,0c0,0,0,0,0,0v0l0,0.1c0,0.1-0.1,0.1-0.1,0.2c0,0.1-0.1,0.1-0.1,0.2c-0.1,0.1-0.1,0.3-0.2,0.4
			c-0.1,0.1-0.1,0.2-0.2,0.3c-0.2,0.4-0.4,0.8-0.5,1.2c-0.1,0.3-0.3,0.6-0.4,0.9c-0.1,0.3-0.2,0.6-0.2,0.8c0,0.1,0,0.3,0,0.4
			c0,0.1,0,0.3,0.1,0.4c0.1,0.1,0.2,0.2,0.3,0.2c0.2,0,0.3,0.1,0.5,0c0.2,0,0.4,0,0.7-0.1c0.2,0,0.5-0.1,0.8-0.2
			c0.4-0.1,0.7-0.2,1-0.3c0.3-0.1,0.6-0.2,0.8-0.3c0.3-0.1,0.5-0.2,0.7-0.3c0.2-0.1,0.4-0.2,0.6-0.2c0.2-0.1,0.4-0.2,0.5-0.2
			c0.2-0.1,0.3-0.2,0.5-0.2c0.2-0.1,0.4-0.2,0.5-0.2c0.2-0.1,0.4-0.2,0.6-0.3c0.7-0.3,1.2-0.6,1.7-0.8c0.5-0.2,0.9-0.4,1.3-0.6
			c0.4-0.2,0.7-0.3,0.9-0.5c0.3-0.1,0.5-0.2,0.7-0.3c0.2-0.1,0.3-0.2,0.4-0.2c0.1-0.1,0.2-0.1,0.3-0.2c0.1,0,0.2-0.1,0.2-0.1
			C277.2,121.2,277.3,121.1,277.3,121.1z"/>
		<path class="st0" d="M297.7,121.1c0-0.1-0.1-0.1-0.2-0.1c-0.1,0-0.2,0-0.3,0c-0.1,0-0.2,0.1-0.3,0.1c-0.1,0-0.2,0.1-0.3,0.1
			c-0.1,0.1-0.3,0.1-0.4,0.2c-0.2,0.1-0.4,0.2-0.7,0.3s-0.7,0.3-1.2,0.5c-0.5,0.2-1,0.4-1.7,0.7c-0.7,0.3-1.5,0.6-2.4,0.9
			c-0.9,0.3-2.1,0.7-3.3,1.1c-0.8,0.3-1.6,0.5-2.3,0.6c-0.7,0.2-1.4,0.3-2.1,0.4c-0.7,0.1-1.3,0.2-1.8,0.2c-0.6,0-1.1,0-1.6,0
			c-0.5-0.1-0.9-0.2-1.3-0.4c-0.2-0.1-0.3-0.2-0.5-0.3c-0.1-0.1-0.2-0.3-0.3-0.4c-0.1-0.1-0.1-0.3-0.2-0.4c0-0.1-0.1-0.3-0.1-0.4
			c0-0.3,0-0.5,0.1-0.7c0.1-0.2,0.1-0.4,0.2-0.6c0.1-0.2,0.1-0.3,0.2-0.4c0.1-0.3,0.2-0.4,0.3-0.6c0.1-0.1,0.1-0.2,0.2-0.3
			c0-0.1,0.1-0.1,0.1-0.1c0.1-0.1,0.1-0.2,0.1-0.3c0-0.1,0-0.2-0.1-0.2c-0.1,0-0.1,0-0.2,0c-0.1,0-0.2,0.1-0.2,0.2
			c0,0-0.1,0.1-0.1,0.2c-0.1,0.1-0.1,0.3-0.2,0.5c-0.1,0.1-0.1,0.3-0.2,0.4s-0.1,0.3-0.2,0.5c-0.1,0.2-0.1,0.4-0.1,0.6
			c0,0.2,0,0.5,0,0.8c0,0.1,0,0.3,0.1,0.4c0,0.2,0.1,0.3,0.2,0.5c0.2,0.3,0.4,0.6,0.8,0.8c0.3,0.2,0.7,0.3,1.2,0.4
			c0.4,0.1,0.9,0.1,1.3,0.1c1,0,2-0.2,3.2-0.4c1.1-0.2,2.4-0.6,3.8-1c1.4-0.4,2.6-0.8,3.6-1.2c1-0.4,1.9-0.7,2.6-1
			c0.7-0.3,1.4-0.5,1.8-0.7c0.5-0.2,0.9-0.3,1.2-0.4c0.3-0.1,0.5-0.2,0.7-0.3c0.2-0.1,0.3-0.1,0.4-0.1c0.1,0,0.1,0,0.2,0
			c0,0,0.1,0,0.1,0c0.1,0,0.2-0.1,0.2-0.2C297.7,121.3,297.7,121.2,297.7,121.1z"/>
		<path class="st0" d="M297.2,121c0.1,0,0.2,0,0.3,0c0.1,0,0.1,0.1,0.1,0.2c0,0.1,0,0.2-0.1,0.2c-0.1,0.1-0.1,0.1-0.2,0.1
			c0,0-0.1,0-0.1,0c0,0-0.1,0-0.1,0c0,0-0.1,0-0.2,0s-0.2,0-0.3,0.1c-0.1,0-0.3,0.1-0.5,0.2c-0.2,0.1-0.5,0.2-0.7,0.4
			c-0.1,0.1-0.3,0.2-0.4,0.3c-0.1,0.1-0.2,0.3-0.3,0.5c-0.1,0.2-0.1,0.4-0.1,0.7c0,0.3,0.1,0.5,0.3,0.8c0.1,0.2,0.2,0.3,0.3,0.4
			c0.1,0.1,0.3,0.2,0.4,0.4c0.2,0.1,0.3,0.2,0.5,0.3c0.2,0.1,0.4,0.2,0.6,0.2c0.4,0.1,0.9,0.2,1.4,0.3c0.5,0.1,1,0.1,1.6,0.1
			c0.4,0,0.7,0,0.9,0c0.3,0,0.5,0,0.7,0c0.2,0,0.4,0,0.6,0c0.2,0,0.4,0,0.6-0.1c0.2,0,0.4-0.1,0.7-0.1s0.5-0.1,0.8-0.2
			c0.3-0.1,0.7-0.2,1.1-0.4s0.9-0.4,1.5-0.6c0.6-0.3,1.1-0.5,1.5-0.8c0.4-0.3,0.8-0.5,1.2-0.7c0.4-0.2,0.7-0.4,0.9-0.6
			c0.3-0.2,0.5-0.4,0.7-0.5c0.4-0.3,0.7-0.5,0.9-0.7c0.2-0.2,0.3-0.2,0.3-0.3c0.1-0.1,0.2-0.1,0.2-0.1c0.1,0,0.2,0,0.2,0.1
			c0.1,0.1,0.1,0.1,0.1,0.2c0,0.1-0.1,0.2-0.1,0.2c0,0-0.1,0-0.1,0.1c0,0-0.1,0.1-0.2,0.1c-0.1,0-0.2,0.1-0.3,0.2
			c-0.1,0.1-0.3,0.2-0.4,0.3c-0.2,0.1-0.4,0.3-0.7,0.4c-0.3,0.2-0.6,0.4-1,0.6c-0.4,0.2-0.8,0.5-1.3,0.8c-0.5,0.3-1.1,0.6-1.8,0.9
			c-0.6,0.3-1.2,0.5-1.7,0.7c-0.5,0.2-0.9,0.3-1.3,0.4c-0.4,0.1-0.7,0.2-1,0.3c-0.3,0.1-0.5,0.1-0.8,0.2c-0.2,0.1-0.5,0.1-0.7,0.1
			c-0.2,0-0.5,0.1-0.7,0.1c-0.3,0-0.6,0-0.9,0c-0.3,0-0.7,0-1.2-0.1c-0.6-0.1-1.1-0.2-1.5-0.4c-0.4-0.1-0.7-0.3-1-0.4
			c-0.1-0.1-0.3-0.2-0.4-0.2c-0.1-0.1-0.3-0.2-0.4-0.3c-0.1-0.1-0.2-0.2-0.3-0.3c-0.1-0.1-0.2-0.3-0.3-0.4c-0.1-0.3-0.2-0.5-0.3-0.8
			c0-0.3-0.1-0.5,0-0.7c0.1-0.2,0.1-0.4,0.2-0.6c0.1-0.2,0.2-0.3,0.3-0.4c0.3-0.2,0.5-0.4,0.7-0.5c0.2-0.1,0.4-0.2,0.5-0.3
			c0.2-0.1,0.3-0.1,0.4-0.2c0.1,0,0.2-0.1,0.3-0.1c0.1,0,0.1-0.1,0.2-0.1C297,121,297.1,121,297.2,121z"/>
		<path class="st0" d="M310.7,137.4C310.7,137.4,310.6,137.4,310.7,137.4c0,0.1,0,0.1,0,0.1c-0.1,0.3-0.1,0.5-0.2,0.6
			c-0.1,0.2-0.2,0.3-0.2,0.2c-0.1,0-0.1-0.1-0.2-0.3c0-0.2,0-0.4,0.1-0.7c0-0.1,0-0.2,0.1-0.2c0-0.1,0.1-0.2,0.1-0.4
			c0-0.2,0.1-0.4,0.1-0.6c0.1-0.3,0.1-0.6,0.2-1c0.1-0.5,0.2-1.1,0.3-1.9c0.1-0.8,0.2-1.7,0.3-2.9s0.2-2.2,0.3-3.1
			c0.1-0.9,0.2-1.7,0.2-2.3c0.1-0.7,0.1-1.2,0.1-1.6s0.1-0.8,0.1-1.1c0-0.3,0-0.5,0-0.6c0-0.1,0-0.2,0-0.2c0-0.1,0-0.1,0.1-0.2
			c0.1,0,0.1-0.1,0.2,0s0.1,0,0.2,0.1s0.1,0.1,0.1,0.2c0,0,0,0.1,0,0.2c0,0.1,0,0.2-0.1,0.4c0,0.2-0.1,0.5-0.1,0.8
			c-0.1,0.4-0.1,0.9-0.2,1.5c-0.1,0.6-0.2,1.5-0.3,2.4c-0.1,1-0.3,2.2-0.4,3.6c-0.1,0.6-0.1,1.2-0.2,1.7c-0.1,0.5-0.1,0.9-0.1,1.4
			c0.1-0.5,0.3-1.2,0.5-1.9c0.2-0.7,0.4-1.5,0.6-2.4c0.2-0.6,0.3-1.2,0.5-1.9c0.2-0.7,0.4-1.4,0.6-2.2c0.2-0.8,0.5-1.6,0.7-2.5
			c0.3-0.9,0.6-1.8,0.9-2.8c0.3-0.9,0.6-1.8,0.9-2.5c0.3-0.8,0.6-1.5,0.8-2.2c0.3-0.7,0.5-1.3,0.8-1.8c0.2-0.6,0.5-1.1,0.7-1.5
			c0.5-0.9,0.9-1.7,1.3-2.4c0.4-0.6,0.9-1.2,1.3-1.7c0.2-0.2,0.5-0.4,0.7-0.6c0.2-0.2,0.5-0.3,0.8-0.5c0.1,0,0.2-0.1,0.2-0.1
			c0.1,0,0.2,0,0.2-0.1c0,0,0.1,0,0.1,0c0,0,0.1,0,0.1,0h0.1c0,0,0.1,0,0.1,0c0,0,0.1,0.1,0.1,0.1c0,0,0,0.1,0,0.1
			c0,0.1,0,0.1,0,0.2s0,0.1,0,0.1c0,0.1,0,0.1,0,0.1c0,0,0,0.1,0,0.1c0,0.1,0,0.2-0.1,0.3c0,0.1-0.1,0.2-0.1,0.3
			c-0.1,0.3-0.3,0.7-0.4,1c-0.2,0.4-0.3,0.8-0.5,1.2c-0.2,0.4-0.4,0.9-0.7,1.3c-0.2,0.5-0.5,1-0.8,1.5c-0.4,0.7-0.7,1.4-1.1,2
			c-0.3,0.6-0.6,1.2-0.9,1.7c-0.3,0.5-0.5,1-0.8,1.4c-0.2,0.4-0.5,0.8-0.7,1.2c-0.2,0.4-0.4,0.8-0.6,1.1c-0.2,0.4-0.4,0.7-0.6,1.1
			c-0.2,0.4-0.4,0.7-0.6,1.1s-0.4,0.8-0.7,1.2c0,0-0.1,0.1-0.1,0.1s0,0.1-0.1,0.1l0,0c0.1,0,0.2,0,0.3,0c0.1,0,0.2,0,0.2,0
			c0.2,0,0.4,0,0.5,0c0.2,0,0.3,0,0.5,0c0.3,0,0.6,0,1,0s0.6,0,0.9,0c0.6,0,1.1-0.1,1.6-0.1c0.5-0.1,1-0.1,1.4-0.2
			c0.8-0.1,1.5-0.3,2.1-0.5c0.6-0.2,1.1-0.3,1.5-0.5c0.4-0.1,0.7-0.3,1-0.4c0.3-0.1,0.5-0.2,0.7-0.3c0.2-0.1,0.4-0.2,0.5-0.2
			c0.2-0.1,0.3-0.2,0.5-0.3c0.2-0.1,0.4-0.2,0.6-0.2c0.2,0,0.3,0,0.3,0c0,0.1,0,0.2-0.2,0.3c-0.1,0.1-0.3,0.3-0.6,0.4
			c-0.1,0-0.1,0.1-0.2,0.1c-0.1,0-0.1,0.1-0.2,0.1c-0.1,0-0.3,0.1-0.5,0.2c-0.2,0.1-0.5,0.2-0.9,0.3c-0.4,0.1-0.9,0.3-1.5,0.5
			c-0.6,0.2-1.4,0.4-2.3,0.6c-0.5,0.1-1,0.2-1.6,0.2c-0.6,0.1-1.2,0.1-1.9,0.1c-0.3,0-0.7,0-1,0c-0.4,0-0.7,0-1.1,0
			c-0.4,0-0.8-0.1-1.2-0.1c-0.1,0-0.2,0-0.3,0c-0.1,0-0.2,0-0.3-0.1c0-0.1-0.1-0.1-0.1-0.1c0,0,0,0,0,0c0,0,0,0,0,0c0,0,0,0,0,0l0,0
			l0,0l0,0l0-0.1l0.1-0.1c0,0,0.1-0.1,0.1-0.1s0.1-0.1,0.1-0.1c0.5-0.8,1-1.7,1.5-2.7c0.5-1,1.1-2,1.7-3.1c0.6-1.1,1.2-2.3,1.8-3.5
			c0.6-1.2,1.3-2.6,2-4c0.2-0.5,0.4-0.9,0.6-1.3c0.2-0.4,0.3-0.8,0.4-1.1c0-0.1,0.1-0.2,0.1-0.3c0-0.1,0-0.2,0.1-0.2
			c0,0,0-0.1,0-0.1c-0.3,0-0.5,0.1-0.7,0.2c-0.3,0.1-0.5,0.3-0.7,0.4c-0.2,0.2-0.4,0.3-0.6,0.5c-0.4,0.4-0.7,0.7-1,1.2
			c-0.3,0.4-0.7,1-1,1.5c-0.3,0.6-0.7,1.3-1.1,2.1c-0.2,0.4-0.4,0.9-0.6,1.4c-0.2,0.5-0.4,1-0.7,1.6c-0.2,0.6-0.5,1.2-0.7,1.9
			c-0.2,0.7-0.5,1.4-0.7,2.2c-0.5,1.6-1,3.1-1.3,4.5c-0.4,1.4-0.7,2.6-1,3.7c-0.3,1.1-0.5,2.1-0.7,3c-0.2,0.9-0.4,1.7-0.5,2.4
			c-0.2,0.8-0.3,1.5-0.4,2.1c-0.1,0.5-0.2,1-0.3,1.3L310.7,137.4z"/>
		<path class="st0" d="M326.3,137.4C326.3,137.4,326.3,137.4,326.3,137.4c0,0.1,0,0.1,0,0.1c-0.1,0.3-0.1,0.5-0.2,0.6
			c-0.1,0.2-0.2,0.3-0.2,0.2c-0.1,0-0.1-0.1-0.2-0.3c0-0.2,0-0.4,0.1-0.7c0-0.1,0-0.2,0.1-0.2c0-0.1,0.1-0.2,0.1-0.4
			c0-0.2,0.1-0.4,0.1-0.6c0.1-0.3,0.1-0.6,0.2-1c0.1-0.5,0.2-1.1,0.3-1.9c0.1-0.8,0.2-1.7,0.3-2.9s0.2-2.2,0.3-3.1
			c0.1-0.9,0.2-1.7,0.2-2.3c0.1-0.7,0.1-1.2,0.1-1.6c0-0.4,0.1-0.8,0.1-1.1c0-0.3,0-0.5,0-0.6c0-0.1,0-0.2,0-0.2
			c0-0.1,0-0.1,0.1-0.2c0.1,0,0.1-0.1,0.2,0s0.1,0,0.2,0.1s0.1,0.1,0.1,0.2c0,0,0,0.1,0,0.2c0,0.1,0,0.2-0.1,0.4
			c0,0.2-0.1,0.5-0.1,0.8c-0.1,0.4-0.1,0.9-0.2,1.5c-0.1,0.6-0.2,1.5-0.3,2.4c-0.1,1-0.3,2.2-0.4,3.6c-0.1,0.6-0.1,1.2-0.2,1.7
			c-0.1,0.5-0.1,0.9-0.1,1.4c0.1-0.5,0.3-1.2,0.5-1.9c0.2-0.7,0.4-1.5,0.6-2.4c0.2-0.6,0.3-1.2,0.5-1.9c0.2-0.7,0.4-1.4,0.6-2.2
			c0.2-0.8,0.5-1.6,0.7-2.5c0.3-0.9,0.6-1.8,0.9-2.8c0.3-0.9,0.6-1.8,0.9-2.5c0.3-0.8,0.6-1.5,0.8-2.2c0.3-0.7,0.5-1.3,0.8-1.8
			c0.2-0.6,0.5-1.1,0.7-1.5c0.5-0.9,0.9-1.7,1.3-2.4c0.4-0.6,0.9-1.2,1.3-1.7c0.2-0.2,0.5-0.4,0.7-0.6c0.2-0.2,0.5-0.3,0.8-0.5
			c0.1,0,0.2-0.1,0.2-0.1c0.1,0,0.2,0,0.2-0.1c0,0,0.1,0,0.1,0c0,0,0.1,0,0.1,0h0.1c0,0,0.1,0,0.1,0c0,0,0.1,0.1,0.1,0.1
			c0,0,0,0.1,0,0.1c0,0.1,0,0.1,0,0.2s0,0.1,0,0.1c0,0.1,0,0.1,0,0.1c0,0,0,0.1,0,0.1c0,0.1,0,0.2-0.1,0.3c0,0.1-0.1,0.2-0.1,0.3
			c-0.1,0.3-0.3,0.7-0.4,1s-0.3,0.8-0.5,1.2c-0.2,0.4-0.4,0.9-0.7,1.3c-0.2,0.5-0.5,1-0.8,1.5c-0.4,0.7-0.7,1.4-1.1,2
			c-0.3,0.6-0.6,1.2-0.9,1.7c-0.3,0.5-0.5,1-0.8,1.4c-0.2,0.4-0.5,0.8-0.7,1.2c-0.2,0.4-0.4,0.8-0.6,1.1c-0.2,0.4-0.4,0.7-0.6,1.1
			c-0.2,0.4-0.4,0.7-0.6,1.1s-0.4,0.8-0.7,1.2c0,0-0.1,0.1-0.1,0.1s0,0.1-0.1,0.1l0,0c0.1,0,0.2,0,0.3,0c0.1,0,0.2,0,0.2,0
			c0.2,0,0.4,0,0.5,0c0.2,0,0.3,0,0.5,0c0.3,0,0.6,0,1,0c0.3,0,0.6,0,0.9,0c0.6,0,1.1-0.1,1.6-0.1c0.5-0.1,1-0.1,1.4-0.2
			c0.8-0.1,1.5-0.3,2.1-0.5c0.6-0.2,1.1-0.3,1.5-0.5c0.4-0.1,0.7-0.3,1-0.4c0.3-0.1,0.5-0.2,0.7-0.3c0.2-0.1,0.4-0.2,0.5-0.2
			c0.2-0.1,0.3-0.2,0.5-0.3c0.2-0.1,0.4-0.2,0.6-0.2c0.2,0,0.3,0,0.3,0c0,0.1,0,0.2-0.2,0.3c-0.1,0.1-0.3,0.3-0.6,0.4
			c-0.1,0-0.1,0.1-0.2,0.1c-0.1,0-0.1,0.1-0.2,0.1c-0.1,0-0.3,0.1-0.5,0.2s-0.5,0.2-0.9,0.3c-0.4,0.1-0.9,0.3-1.5,0.5
			c-0.6,0.2-1.4,0.4-2.3,0.6c-0.5,0.1-1,0.2-1.6,0.2c-0.6,0.1-1.2,0.1-1.9,0.1c-0.3,0-0.7,0-1,0c-0.4,0-0.7,0-1.1,0
			c-0.4,0-0.8-0.1-1.2-0.1c-0.1,0-0.2,0-0.3,0c-0.1,0-0.2,0-0.3-0.1c0-0.1-0.1-0.1-0.1-0.1c0,0,0,0,0,0c0,0,0,0,0,0c0,0,0,0,0,0l0,0
			l0,0l0,0l0-0.1l0.1-0.1c0,0,0.1-0.1,0.1-0.1s0.1-0.1,0.1-0.1c0.5-0.8,1-1.7,1.5-2.7c0.5-1,1.1-2,1.7-3.1c0.6-1.1,1.2-2.3,1.8-3.5
			c0.6-1.2,1.3-2.6,2-4c0.2-0.5,0.4-0.9,0.6-1.3c0.2-0.4,0.3-0.8,0.4-1.1c0-0.1,0.1-0.2,0.1-0.3c0-0.1,0-0.2,0.1-0.2
			c0,0,0-0.1,0-0.1c-0.3,0-0.5,0.1-0.7,0.2c-0.3,0.1-0.5,0.3-0.7,0.4c-0.2,0.2-0.4,0.3-0.6,0.5c-0.4,0.4-0.7,0.7-1,1.2
			c-0.3,0.4-0.7,1-1,1.5c-0.3,0.6-0.7,1.3-1.1,2.1c-0.2,0.4-0.4,0.9-0.6,1.4c-0.2,0.5-0.4,1-0.7,1.6c-0.2,0.6-0.5,1.2-0.7,1.9
			c-0.2,0.7-0.5,1.4-0.7,2.2c-0.5,1.6-1,3.1-1.3,4.5c-0.4,1.4-0.7,2.6-1,3.7c-0.3,1.1-0.5,2.1-0.7,3c-0.2,0.9-0.4,1.7-0.5,2.4
			c-0.2,0.8-0.3,1.5-0.4,2.1c-0.1,0.5-0.2,1-0.3,1.3L326.3,137.4z"/>
		<path class="st0" d="M62.7,121.6c0-0.1-0.1-0.1-0.3-0.1c-0.1,0-0.3,0.1-0.5,0.2c-0.1,0.1-0.3,0.2-0.4,0.2
			c-0.1,0.1-0.2,0.1-0.4,0.2c-0.1,0.1-0.3,0.2-0.5,0.3c-0.2,0.1-0.4,0.2-0.7,0.4c-0.3,0.2-0.6,0.3-1,0.6c-0.4,0.2-0.9,0.5-1.4,0.8
			c-0.3,0.1-0.6,0.3-0.9,0.5c-0.3,0.2-0.7,0.3-1.1,0.5c-0.4,0.2-0.8,0.4-1.2,0.5c-0.4,0.2-0.9,0.4-1.5,0.5c-0.3,0.1-0.6,0.2-0.9,0.2
			c-0.3,0-0.5,0-0.8,0c0.1,0.1,0.3,0.2,0.4,0.2c0,0,0.1,0,0.1,0c0.4,0,0.7-0.1,1.1-0.2c0.6-0.2,1.2-0.4,1.7-0.6
			c0.5-0.2,1-0.4,1.5-0.6c0.5-0.2,0.9-0.4,1.2-0.6c0.4-0.2,0.7-0.4,1-0.5c0.6-0.3,1.2-0.6,1.6-0.8c0.4-0.2,0.8-0.4,1-0.5
			c0.3-0.1,0.5-0.3,0.6-0.3c0.1-0.1,0.3-0.1,0.3-0.2c0.1,0,0.1-0.1,0.2-0.1c0,0,0.1,0,0.1-0.1c0.2-0.1,0.3-0.2,0.4-0.3
			C62.7,121.8,62.7,121.7,62.7,121.6z"/>
		<path class="st0" d="M62.2,121c0,0,0.3,0,0.5,0c0.2,0,0.3,0.2,0.3,0.3c0,0.1-0.1,0.4-0.5,0.7c-0.4,0.3-0.3-0.4-0.3-0.4l0.3-0.6
			h-0.2L62.2,121z"/>
	</g>
	<path class="st1" d="M114.4,44.4h9.4v7.7c3-6.2,8.5-9.1,15.6-9.2v10h-0.7c-9.4,0-14.3,5.2-14.3,15.6v28.3h-10V44.4z"/>
	<path class="st1" d="M147.3,44.4h9.4v8.1c2.5-5.4,8.4-9.7,17.7-9.6c16.8,0.2,21.2,12.3,21.2,23.2v30.7h-10.1V68.4
		c0-9.4-3.7-16.2-13.9-16.1c-9.8,0.1-14.3,6.3-14.3,15.3v29.2h-10V44.4z"/>
	<path class="st1" d="M258.2,78.4c-3.2,11.4-13.5,19.9-26.6,19.9c-17.1,0-28-13.2-28-27.7c0-15.5,11.8-27.7,27.5-27.7
		c12.5,0,23.8,7.7,27.1,20.3h-10.3c-2.7-7-9.2-11-16.4-11c-5.3-0.1-9.1,1.6-12.8,5.1c-3.1,3.1-5.1,8-5.1,13.3
		c0,10.8,7.9,18.4,17.9,18.4c8.8-0.1,14.3-5.4,16.4-10.6H258.2z"/>
	<path class="st1" d="M321.3,96.8h-10v-9.1c-3.7,7-11.2,10.7-19.5,10.7C275,98.3,265,85.2,265,70.6c0-16,11.7-27.7,26.9-27.7
		c10.4,0,17,5.8,19.5,10.8v-9.2h10V96.8z M275,70.8c0.1,7.8,5.6,18.2,18.3,18.2c8,0,13.7-4.4,16.3-10.4c1.2-2.4,1.7-5.1,1.8-7.8
		c0.1-2.7-0.4-5.4-1.5-7.8c-2.5-6.1-8.4-10.8-16.8-10.8C282.1,52.2,275,60.9,275,70.8L275,70.8z"/>
	<path class="st1" d="M338.3,52.2h-9.4v-7.8h9.4V25.5h10v18.9h10.1v7.8h-10.1v44.6h-10V52.2z"/>
	<path class="st2" d="M102.5,57l-7.9,7.9c2,6.3,0.6,12.8-4.7,18.1c-6,6-17,8.9-25.4,1.2l33.9-33.9C93.1,43.9,86.1,39.9,78.1,39
		l-10.6-13l-5.1,15.8c-2.9,1.4-5.7,3.4-8.1,5.8c-3.7,3.7-6.1,8-7.5,12.5L32,67.8L46.7,76c1.3,5,4,9.7,7.8,13.5
		C65,100,83.4,102.4,96.4,89.5c4-4,6.9-9,7.9-14.6C105.5,69.3,105,63.2,102.5,57z M60.8,54.1c7.4-7.7,18.5-7,24.1-2.1L58.7,78.2
		C53.7,72.4,53.1,61.8,60.8,54.1z"/>
</g>
<g>
	<path d="M277,267.7c0.1,0,0.2,0.1,0.4,0c0.2,0,0.5,0,0.8-0.1c0.2,0,0.5-0.1,0.8-0.1c0-0.1,0-0.2,0-0.3c-0.3,0-0.5,0-0.7,0
		c-0.3,0-0.6,0-0.7,0c-0.2,0-0.3,0-0.4,0s-0.2,0-0.2,0c0,0-0.1,0-0.1,0c0,0-0.1,0-0.1,0.1c0,0.1,0,0.1,0,0.2
		C276.9,267.6,276.9,267.6,277,267.7z"/>
	<path d="M101.6,267.7c0.1,0,0.2,0.1,0.4,0c0.2,0,0.5,0,0.8-0.1c0.2,0,0.4,0,0.6-0.1c0-0.1,0-0.1,0-0.2c0-0.1,0-0.1,0-0.2
		c-0.2,0-0.3,0-0.5,0c-0.3,0-0.6,0-0.7,0c-0.2,0-0.3,0-0.4,0c-0.1,0-0.2,0-0.2,0c0,0-0.1,0-0.1,0c0,0-0.1,0-0.1,0.1
		c0,0.1,0,0.1,0,0.2C101.5,267.6,101.6,267.6,101.6,267.7z"/>
	<g>
		<path class="st0" d="M62.2,273.2c0.1,0,0.2,0,0.3,0c0.1,0,0.1,0.1,0.1,0.2c0,0.1,0,0.2-0.1,0.2c-0.1,0.1-0.1,0.1-0.2,0.1
			c0,0-0.1,0-0.1,0c0,0-0.1,0-0.1,0c0,0-0.1,0-0.2,0s-0.2,0-0.3,0.1c-0.1,0-0.3,0.1-0.5,0.2c-0.2,0.1-0.5,0.2-0.7,0.4
			c-0.1,0.1-0.3,0.2-0.4,0.3c-0.1,0.1-0.2,0.3-0.3,0.5c-0.1,0.2-0.1,0.4-0.1,0.7c0,0.3,0.1,0.5,0.3,0.8c0.1,0.2,0.2,0.3,0.3,0.4
			c0.1,0.1,0.3,0.2,0.4,0.4c0.2,0.1,0.3,0.2,0.5,0.3c0.2,0.1,0.4,0.2,0.6,0.2c0.4,0.1,0.9,0.2,1.4,0.3c0.5,0.1,1,0.1,1.6,0.1
			c0.4,0,0.7,0,0.9,0c0.3,0,0.5,0,0.7,0c0.2,0,0.4,0,0.6,0c0.2,0,0.4,0,0.6-0.1c0.2,0,0.4-0.1,0.7-0.1s0.5-0.1,0.8-0.2
			s0.7-0.2,1.1-0.4c0.4-0.2,0.9-0.4,1.5-0.6c0.6-0.3,1.1-0.5,1.5-0.8c0.4-0.3,0.8-0.5,1.2-0.7c0.4-0.2,0.7-0.4,0.9-0.6
			c0.3-0.2,0.5-0.4,0.7-0.5c0.4-0.3,0.7-0.5,0.9-0.7c0.2-0.2,0.3-0.2,0.3-0.3c0.1-0.1,0.2-0.1,0.2-0.1c0.1,0,0.2,0,0.2,0.1
			c0.1,0.1,0.1,0.1,0.1,0.2c0,0.1-0.1,0.2-0.1,0.2c0,0-0.1,0-0.1,0.1c0,0-0.1,0.1-0.2,0.1c-0.1,0-0.2,0.1-0.3,0.2
			c-0.1,0.1-0.3,0.2-0.4,0.3c-0.2,0.1-0.4,0.3-0.7,0.4c-0.3,0.2-0.6,0.4-1,0.6c-0.4,0.2-0.8,0.5-1.3,0.8c-0.5,0.3-1.1,0.6-1.8,0.9
			c-0.6,0.3-1.2,0.5-1.7,0.7c-0.5,0.2-0.9,0.3-1.3,0.4c-0.4,0.1-0.7,0.2-1,0.3c-0.3,0.1-0.5,0.1-0.8,0.2c-0.2,0.1-0.5,0.1-0.7,0.1
			c-0.2,0-0.5,0.1-0.7,0.1s-0.6,0-0.9,0c-0.3,0-0.7,0-1.2-0.1c-0.6-0.1-1.1-0.2-1.5-0.4c-0.4-0.1-0.7-0.3-1-0.4
			c-0.1-0.1-0.3-0.2-0.4-0.2c-0.1-0.1-0.3-0.2-0.4-0.3c-0.1-0.1-0.2-0.2-0.3-0.3c-0.1-0.1-0.2-0.3-0.3-0.4c-0.1-0.3-0.2-0.5-0.3-0.8
			c0-0.3-0.1-0.5,0-0.7c0.1-0.2,0.1-0.4,0.2-0.6c0.1-0.2,0.2-0.3,0.3-0.4c0.3-0.2,0.5-0.4,0.7-0.5c0.2-0.1,0.4-0.2,0.5-0.3
			c0.2-0.1,0.3-0.1,0.4-0.2c0.1,0,0.2-0.1,0.3-0.1s0.1-0.1,0.2-0.1C62,273.3,62.1,273.2,62.2,273.2z"/>
		<path class="st0" d="M100.2,273.3c0.1-0.1,0.2-0.1,0.3-0.1c0.1,0,0.2,0.1,0.2,0.1c0,0.1,0,0.2,0,0.2c-0.1,0.1-0.1,0.2-0.3,0.2
			c0,0-0.1,0-0.1,0s-0.1,0-0.1,0c-0.1,0-0.1,0-0.2,0.1c-0.1,0-0.2,0.1-0.4,0.2c-0.2,0.1-0.4,0.2-0.7,0.3c-0.3,0.1-0.6,0.3-1,0.5
			c-0.4,0.2-0.9,0.4-1.5,0.7c-0.6,0.3-1.2,0.5-2,0.9c-0.4,0.2-0.9,0.4-1.3,0.6c-0.5,0.2-1,0.5-1.5,0.7c-0.3,0.1-0.6,0.2-0.8,0.4
			c-0.3,0.1-0.6,0.2-0.9,0.4c-0.3,0.1-0.7,0.2-1,0.3c-0.3,0.1-0.7,0.2-1.1,0.2c-0.1,0-0.3,0-0.4,0c-0.1,0-0.3,0-0.4-0.1
			c-0.1,0-0.1-0.1-0.2-0.1c-0.1,0-0.1-0.1-0.2-0.1c-0.1-0.1-0.2-0.2-0.2-0.3c0-0.1-0.1-0.2-0.1-0.3c0-0.1,0-0.2,0-0.3
			c0-0.1,0-0.2,0-0.2c0-0.1,0-0.2,0-0.2c0.1-0.3,0.2-0.5,0.3-0.8c0.1-0.2,0.2-0.5,0.3-0.7c0.1-0.2,0.3-0.5,0.4-0.8
			c0.2-0.3,0.3-0.6,0.5-1c0.1-0.1,0.1-0.2,0.2-0.3c0.1-0.1,0.1-0.2,0.2-0.3l0-0.1l0,0c0,0,0,0,0,0s0,0,0,0c0,0,0,0,0,0
			s0.1,0.1,0.2,0.2l0,0l-0.1,0c0,0-0.1,0-0.1,0c0,0-0.1,0-0.1,0c-0.1,0-0.1,0-0.2,0c-0.1,0-0.1,0-0.2,0.1c-0.3,0.1-0.6,0.1-0.9,0.2
			c-0.3,0.1-0.7,0.1-1.1,0.2c-0.8,0.1-1.5,0.2-2.2,0.3c-0.7,0-1.3,0.1-1.8,0.1c-0.6,0-1,0-1.5-0.1c-0.4,0-0.8-0.1-1.1-0.1
			c-0.3,0-0.6-0.1-0.9-0.2s-0.4-0.1-0.6-0.1c-0.2,0-0.3-0.1-0.4-0.1c-0.1,0-0.2-0.1-0.2-0.1c-0.1,0-0.2-0.1-0.3-0.2
			c-0.1-0.1-0.1-0.2,0-0.2c0-0.1,0.1-0.1,0.2-0.1c0.1,0,0.2,0,0.3,0c0,0,0.1,0,0.1,0.1c0,0,0.1,0.1,0.2,0.1c0.1,0,0.2,0.1,0.4,0.1
			c0.2,0.1,0.4,0.1,0.7,0.2c0.3,0.1,0.6,0.1,1,0.2c0.4,0.1,0.9,0.1,1.5,0.2c0.6,0,1.2,0.1,2,0c0.7,0,1.6-0.1,2.6-0.2
			c0.5-0.1,0.9-0.1,1.2-0.2c0.4-0.1,0.7-0.2,1.1-0.2c0,0,0.1,0,0.1,0c0,0,0.1,0,0.1,0l0.1,0l0,0h0c0,0,0,0,0,0c0,0,0,0,0,0v0l0,0.1
			c0,0.1-0.1,0.1-0.1,0.2c0,0.1-0.1,0.1-0.1,0.2c-0.1,0.1-0.1,0.3-0.2,0.4c-0.1,0.1-0.1,0.2-0.2,0.3c-0.2,0.4-0.4,0.8-0.5,1.2
			c-0.1,0.3-0.3,0.6-0.4,0.9c-0.1,0.3-0.2,0.6-0.2,0.8c0,0.1,0,0.3,0,0.4c0,0.1,0,0.3,0.1,0.4c0.1,0.1,0.2,0.2,0.3,0.2
			c0.2,0,0.3,0.1,0.5,0c0.2,0,0.4,0,0.7-0.1c0.2,0,0.5-0.1,0.8-0.2c0.4-0.1,0.7-0.2,1-0.3c0.3-0.1,0.6-0.2,0.8-0.3
			c0.3-0.1,0.5-0.2,0.7-0.3c0.2-0.1,0.4-0.2,0.6-0.2c0.2-0.1,0.4-0.2,0.5-0.2c0.2-0.1,0.3-0.2,0.5-0.2c0.2-0.1,0.4-0.2,0.5-0.2
			c0.2-0.1,0.4-0.2,0.6-0.3c0.7-0.3,1.2-0.6,1.7-0.8c0.5-0.2,0.9-0.4,1.3-0.6c0.4-0.2,0.7-0.3,0.9-0.5c0.3-0.1,0.5-0.2,0.7-0.3
			c0.2-0.1,0.3-0.2,0.4-0.2c0.1-0.1,0.2-0.1,0.3-0.2s0.2-0.1,0.2-0.1C100,273.4,100.1,273.4,100.2,273.3z"/>
		<path class="st0" d="M120.5,273.3c0-0.1-0.1-0.1-0.2-0.1c-0.1,0-0.2,0-0.3,0c-0.1,0-0.2,0.1-0.3,0.1c-0.1,0-0.2,0.1-0.3,0.1
			c-0.1,0.1-0.3,0.1-0.4,0.2c-0.2,0.1-0.4,0.2-0.7,0.3c-0.3,0.1-0.7,0.3-1.2,0.5c-0.5,0.2-1,0.4-1.7,0.7c-0.7,0.3-1.5,0.6-2.4,0.9
			c-0.9,0.3-2.1,0.7-3.3,1.1c-0.8,0.3-1.6,0.5-2.3,0.6c-0.7,0.2-1.4,0.3-2.1,0.4c-0.7,0.1-1.3,0.2-1.8,0.2c-0.6,0-1.1,0-1.6,0
			c-0.5-0.1-0.9-0.2-1.3-0.4c-0.2-0.1-0.3-0.2-0.5-0.3c-0.1-0.1-0.2-0.3-0.3-0.4c-0.1-0.1-0.1-0.3-0.2-0.4c0-0.1-0.1-0.3-0.1-0.4
			c0-0.3,0-0.5,0.1-0.7c0.1-0.2,0.1-0.4,0.2-0.6c0.1-0.2,0.1-0.3,0.2-0.4c0.1-0.3,0.2-0.4,0.3-0.6c0.1-0.1,0.1-0.2,0.2-0.3
			c0-0.1,0.1-0.1,0.1-0.1c0.1-0.1,0.1-0.2,0.1-0.3c0-0.1,0-0.2-0.1-0.2c-0.1,0-0.1,0-0.2,0c-0.1,0-0.2,0.1-0.2,0.2
			c0,0-0.1,0.1-0.1,0.2c-0.1,0.1-0.1,0.3-0.2,0.5c-0.1,0.1-0.1,0.3-0.2,0.4c-0.1,0.1-0.1,0.3-0.2,0.5c-0.1,0.2-0.1,0.4-0.1,0.6
			c0,0.2,0,0.5,0,0.8c0,0.1,0,0.3,0.1,0.4c0,0.2,0.1,0.3,0.2,0.5c0.2,0.3,0.4,0.6,0.8,0.8c0.3,0.2,0.7,0.3,1.2,0.4
			c0.4,0.1,0.9,0.1,1.3,0.1c1,0,2-0.2,3.2-0.4c1.1-0.2,2.4-0.6,3.8-1c1.4-0.4,2.6-0.8,3.6-1.2c1-0.4,1.9-0.7,2.6-1
			c0.7-0.3,1.4-0.5,1.8-0.7c0.5-0.2,0.9-0.3,1.2-0.4c0.3-0.1,0.5-0.2,0.7-0.3c0.2-0.1,0.3-0.1,0.4-0.1c0.1,0,0.1,0,0.2,0
			c0,0,0.1,0,0.1,0c0.1,0,0.2-0.1,0.2-0.2C120.5,273.5,120.6,273.4,120.5,273.3z"/>
		<path class="st0" d="M145.8,273.5c0.1-0.1,0.2-0.2,0.4-0.2c0.1,0,0.2,0,0.2,0.1c0,0.1,0,0.2,0,0.3c-0.1,0.1-0.1,0.2-0.3,0.3
			c0,0-0.1,0.1-0.1,0.1c0,0-0.1,0-0.1,0.1c-0.1,0-0.1,0.1-0.3,0.2c-0.1,0.1-0.3,0.2-0.5,0.3c-0.2,0.1-0.5,0.3-0.8,0.5
			c-0.3,0.2-0.7,0.4-1.2,0.7c-0.2,0.1-0.5,0.3-0.8,0.5c-0.3,0.2-0.6,0.3-0.9,0.5c-0.3,0.2-0.7,0.3-1.1,0.5c-0.4,0.2-0.8,0.4-1.3,0.5
			c-0.5,0.2-1.1,0.3-1.7,0.5c-0.6,0.2-1.3,0.2-2,0.3c-0.4,0-0.7,0-1.1-0.1s-0.8-0.1-1.2-0.3c-0.4-0.1-0.8-0.3-1.2-0.5
			s-0.8-0.5-1.1-0.8c-0.4-0.4-0.8-0.8-1-1.2c-0.3-0.4-0.5-0.7-0.7-1c-0.1-0.2-0.2-0.3-0.2-0.4c-0.1-0.1-0.1-0.3-0.2-0.4
			c0,0,0-0.1,0-0.1c0,0,0-0.1,0-0.1l-0.1-0.1l0-0.1v0c0.1,0.1,0.2,0.1,0.3,0.1c0,0,0.1,0,0,0c0,0,0,0,0,0c0,0,0,0,0,0h0l0,0
			c-0.1,0-0.1,0.1-0.2,0.1c-0.1,0-0.1,0.1-0.2,0.1c-0.3,0.1-0.6,0.3-1,0.5c-0.3,0.2-0.7,0.4-1.2,0.7c-0.5,0.3-1,0.6-1.6,1
			c-0.6,0.4-1.3,0.8-2.1,1.3c-0.4,0.3-0.8,0.5-1.2,0.7c-0.4,0.2-0.8,0.4-1.2,0.6c-0.2,0.1-0.4,0.2-0.6,0.2c-0.2,0.1-0.4,0.1-0.6,0.1
			s-0.4,0.1-0.6,0c-0.2,0-0.4,0-0.6-0.1c0,0,0,0-0.1,0c0,0,0,0-0.1,0l0,0l-0.1,0c0,0-0.1-0.1-0.1-0.1c0-0.1-0.1-0.1-0.1-0.2
			c0-0.1,0-0.1,0-0.2c0-0.1,0-0.2,0.1-0.3c0-0.1,0-0.2,0.1-0.2c0.1-0.1,0.1-0.3,0.2-0.4c0.1-0.1,0.1-0.3,0.2-0.4
			c0.1-0.2,0.2-0.5,0.3-0.7c0.1-0.2,0.2-0.4,0.3-0.6c0.2-0.4,0.4-0.7,0.5-0.9c0.1-0.2,0.3-0.5,0.4-0.6c0.1-0.2,0.2-0.3,0.2-0.4
			c0.1-0.1,0.1-0.2,0.1-0.2c0.1-0.1,0.2-0.2,0.3-0.3c0.1-0.1,0.2-0.1,0.3,0c0.1,0,0.1,0.1,0.1,0.2c0,0.1-0.1,0.2-0.1,0.4
			c0,0-0.1,0.1-0.1,0.1s-0.1,0.1-0.2,0.2c-0.1,0.1-0.2,0.2-0.3,0.4c-0.1,0.2-0.3,0.4-0.5,0.7c-0.1,0.1-0.2,0.3-0.3,0.5
			c-0.1,0.2-0.2,0.4-0.3,0.6c-0.1,0.1-0.1,0.2-0.2,0.3c-0.1,0.1-0.1,0.2-0.2,0.4c-0.1,0.1-0.1,0.3-0.2,0.4c-0.1,0.1-0.1,0.3-0.2,0.5
			c0,0,0,0.1,0,0.1c0,0,0,0.1,0,0.1c0,0,0,0.1,0,0.1c0,0,0,0,0,0c0,0,0,0,0,0c0,0,0,0,0,0c0,0,0,0,0,0c0,0,0,0,0,0c0,0,0,0,0.1,0
			c0,0,0,0,0.1,0c0,0,0.1,0,0.1,0c0,0,0.1,0,0.1,0c0.2,0,0.4,0,0.6,0c0.2,0,0.4-0.1,0.6-0.2c0.4-0.1,0.9-0.3,1.3-0.6
			c0.5-0.2,1-0.5,1.5-0.8c0.5-0.3,0.9-0.6,1.3-0.8c0.4-0.3,0.8-0.5,1.1-0.7c0.3-0.2,0.7-0.4,1-0.6c0.3-0.2,0.6-0.3,0.8-0.5
			c0.3-0.2,0.5-0.3,0.7-0.4c0.2-0.1,0.4-0.2,0.6-0.3l0.6-0.3l0.1,0l0,0l0,0h0h0c0,0,0,0,0,0c0,0,0,0,0.1,0c0,0,0,0,0,0c0,0,0,0,0,0
			c0,0,0.1,0.1,0.1,0.1c0,0,0,0.1,0.1,0.1c0,0,0,0.1,0.1,0.1c0.2,0.3,0.4,0.6,0.5,0.9c0.2,0.3,0.4,0.6,0.7,0.9
			c0.1,0.2,0.3,0.3,0.4,0.5c0.2,0.2,0.3,0.3,0.5,0.5c0.2,0.2,0.4,0.3,0.6,0.5s0.5,0.3,0.8,0.5c0.4,0.2,0.8,0.4,1.2,0.5
			c0.4,0.1,0.7,0.2,1,0.2c0.3,0,0.6,0.1,0.9,0.1c0.3,0,0.5,0,0.8,0c0.2,0,0.5-0.1,0.7-0.1c0.2,0,0.5-0.1,0.7-0.1
			c0.2-0.1,0.4-0.1,0.7-0.2c0.2-0.1,0.5-0.2,0.7-0.2c0.8-0.3,1.5-0.6,2.1-0.9c0.6-0.3,1.1-0.6,1.5-0.9c0.4-0.3,0.8-0.5,1-0.7
			c0.3-0.2,0.5-0.4,0.7-0.5c0.2-0.2,0.4-0.3,0.5-0.4c0.1-0.1,0.2-0.2,0.3-0.3c0.1-0.1,0.2-0.1,0.3-0.2
			C145.6,273.7,145.7,273.6,145.8,273.5z"/>
		<path class="st0" d="M198.2,273.4c0,0.1,0,0.2-0.1,0.3c-0.1,0.1-0.2,0.2-0.4,0.3c-0.1,0-0.1,0.1-0.1,0.1c0,0-0.1,0-0.2,0.1
			s-0.2,0.1-0.3,0.2c-0.1,0.1-0.4,0.2-0.6,0.3c-0.3,0.1-0.6,0.3-1,0.5c-0.4,0.2-0.9,0.5-1.6,0.8c-0.3,0.2-0.7,0.3-1,0.5
			s-0.8,0.4-1.2,0.6c-0.5,0.2-0.9,0.4-1.5,0.6c-0.5,0.2-1.1,0.4-1.7,0.6c-0.4,0.1-0.7,0.2-1.1,0.2c-0.2,0-0.4,0-0.6-0.1
			c-0.2,0-0.4-0.1-0.6-0.2c-0.4-0.2-0.7-0.4-1.1-0.7c-0.3-0.3-0.6-0.7-0.8-1.1c-0.2-0.4-0.4-0.9-0.6-1.3c0-0.1,0-0.1-0.1-0.2
			c0-0.1,0-0.1-0.1-0.2c0,0-0.1,0.1-0.1,0.1c0,0-0.1,0.1-0.1,0.1c-0.4,0.3-0.8,0.7-1.2,1s-0.9,0.7-1.4,1c-0.6,0.4-1.2,0.8-1.7,1
			c-0.5,0.3-0.9,0.5-1.4,0.6c-0.2,0.1-0.4,0.1-0.6,0.2c-0.2,0.1-0.4,0.1-0.6,0.1c-0.2,0-0.4,0-0.6,0c-0.2,0-0.4-0.1-0.6-0.1
			c-0.2-0.1-0.4-0.2-0.6-0.4c-0.2-0.2-0.3-0.4-0.5-0.6c-0.3-0.5-0.5-1-0.6-1.7c-0.1-0.3-0.1-0.7-0.1-1.1c0-0.4,0-0.8,0-1.2l-0.2,0.1
			c-0.1,0.1-0.2,0.1-0.3,0.2c-0.1,0.1-0.2,0.1-0.3,0.2c-0.2,0.1-0.5,0.3-0.7,0.4c-0.2,0.2-0.5,0.3-0.7,0.5c-1.1,0.7-2,1.3-2.9,1.8
			c-0.9,0.5-1.7,1-2.5,1.3c-0.2,0.1-0.4,0.2-0.6,0.3c-0.2,0.1-0.4,0.1-0.6,0.2c-0.1,0-0.2,0.1-0.3,0.1s-0.2,0-0.3,0
			c-0.1,0-0.1,0-0.2,0c0,0-0.1,0-0.1-0.1c0,0-0.1-0.1-0.1-0.1c0,0,0-0.1,0-0.1c0,0,0,0,0-0.1c0-0.1,0-0.1,0-0.2c0,0,0-0.1,0-0.1
			c0.1-0.2,0.1-0.3,0.2-0.5c0.1-0.1,0.1-0.3,0.2-0.4c0.1-0.1,0.1-0.3,0.2-0.4c0.1-0.1,0.1-0.2,0.2-0.4c0.2-0.5,0.4-0.8,0.6-1.2
			c0.2-0.3,0.3-0.6,0.5-0.8c0.1-0.2,0.2-0.4,0.3-0.5c0.1-0.1,0.1-0.2,0.2-0.3c0.1-0.2,0.2-0.3,0.3-0.4c0.1-0.1,0.2-0.1,0.3-0.1
			c0.1,0,0.1,0.1,0.1,0.3c0,0.1-0.1,0.3-0.2,0.5c0,0.1-0.1,0.1-0.1,0.2c0,0.1-0.1,0.2-0.2,0.3c-0.1,0.1-0.2,0.3-0.4,0.5
			c-0.1,0.2-0.3,0.5-0.6,0.9c-0.1,0.2-0.2,0.4-0.4,0.6c-0.1,0.2-0.3,0.5-0.4,0.8c-0.1,0.1-0.1,0.3-0.2,0.5c-0.1,0.2-0.1,0.3-0.2,0.5
			c0,0,0,0.1,0,0.1c0.1,0,0.1,0,0.2,0c0.1,0,0.2,0,0.3-0.1c0.1,0,0.2-0.1,0.3-0.1c0.4-0.1,0.8-0.3,1.3-0.6c0.5-0.2,1-0.5,1.5-0.8
			c0.5-0.3,1.1-0.6,1.6-0.9c0.6-0.3,1.2-0.7,1.9-1.1c0.3-0.2,0.6-0.4,0.9-0.5s0.5-0.3,0.8-0.5c0.1-0.1,0.3-0.2,0.4-0.2
			c0.1-0.1,0.2-0.2,0.4-0.2l0,0v-0.1c0,0,0,0,0,0c0,0,0,0,0,0c0,0,0,0,0,0c0,0,0,0,0.1,0h0l0,0l0,0h0c0,0,0,0,0,0c0,0,0,0,0,0v0v0.1
			c0,0,0,0,0.1,0l0,0l0,0l0,0v0.1c0,0.1,0,0.1,0,0.2s0,0.1,0,0.2c0,0.5,0,1,0.1,1.4c0.1,0.4,0.1,0.8,0.3,1.2c0.1,0.4,0.3,0.7,0.4,1
			c0.2,0.3,0.4,0.5,0.6,0.6c0.2,0.1,0.5,0.2,0.7,0.2c0.2,0,0.5,0,0.7-0.1c0.2,0,0.4-0.1,0.6-0.2c0.2-0.1,0.4-0.2,0.6-0.2
			c0.2-0.1,0.4-0.2,0.6-0.3c0.2-0.1,0.4-0.2,0.6-0.3c0.5-0.3,0.9-0.6,1.5-0.9c0.5-0.4,1.2-0.8,1.9-1.3c0.4-0.3,0.8-0.6,1.2-0.9v0h0
			c0,0,0,0,0,0s0,0,0,0l0,0l0,0h0v0c0.1,0,0.1,0.1,0.2,0.1c0,0,0,0,0,0c0,0,0,0,0,0c0,0,0,0,0,0v0c0,0,0,0,0,0c0,0,0,0,0,0
			c0,0,0,0,0,0c0,0,0,0,0,0c0.1,0,0.1,0,0.1,0c0,0,0,0-0.1,0h0c0,0,0,0,0,0.1c0,0.1,0,0.1,0,0.2s0,0.1,0,0.2c0,0.1,0.1,0.2,0.1,0.3
			c0,0.1,0.1,0.2,0.1,0.3c0.3,0.8,0.6,1.4,1.1,1.9c0.4,0.5,0.9,0.8,1.5,0.9c0.3,0.1,0.6,0.1,0.9,0.1s0.6-0.1,0.9-0.2
			c0.5-0.2,1-0.3,1.5-0.5c0.4-0.2,0.9-0.4,1.2-0.5c0.4-0.2,0.7-0.4,1.1-0.5c0.3-0.2,0.6-0.3,0.9-0.5c0.6-0.3,1-0.6,1.4-0.8
			c0.4-0.2,0.7-0.4,1-0.6c0.3-0.2,0.5-0.3,0.7-0.4c0.2-0.1,0.3-0.2,0.5-0.3c0.1-0.1,0.2-0.2,0.4-0.2c0.1-0.1,0.2-0.1,0.4-0.2
			c0.2-0.1,0.3-0.2,0.5-0.2C198.1,273.3,198.1,273.3,198.2,273.4z"/>
		<path class="st0" d="M212.2,273.3c0.1,0,0.2,0,0.3,0c0.1,0,0.1,0.1,0.2,0.1c0,0.1,0,0.1,0,0.2c0,0.1-0.1,0.1-0.2,0.2
			c0,0-0.1,0-0.1,0c0,0-0.1,0-0.1,0c0,0-0.1,0-0.2,0.1c-0.1,0-0.2,0.1-0.3,0.1c-0.1,0.1-0.3,0.1-0.6,0.2s-0.5,0.2-0.9,0.3
			c-0.3,0.1-0.8,0.2-1.2,0.4c-0.5,0.1-1,0.3-1.7,0.5c-0.4,0.1-0.7,0.2-1.1,0.3c-0.4,0.1-0.8,0.2-1.3,0.3c-0.5,0.1-1,0.2-1.5,0.2
			c-0.5,0.1-1.1,0.1-1.7,0.1c-0.4,0-0.7,0-1,0c-0.3,0-0.5,0-0.7,0c-0.2,0-0.4,0-0.5-0.1c0,0.1-0.1,0.1-0.1,0.1c0,0-0.1,0.1-0.1,0.1
			s-0.1,0.1-0.1,0.1c-0.1,0.2-0.3,0.3-0.5,0.5c-0.2,0.2-0.4,0.4-0.6,0.7c-0.1,0.1-0.3,0.2-0.4,0.4c-0.2,0.1-0.3,0.3-0.5,0.4
			c-0.1,0.1-0.2,0.1-0.3,0.2c-0.1,0.1-0.2,0.1-0.4,0.2c-0.1,0-0.1,0-0.2,0.1c-0.1,0-0.1,0-0.2,0c0,0-0.1,0-0.1,0c0,0-0.1,0-0.1,0h0
			h0h0h0h0c-0.1,0-0.2,0-0.3-0.1c-0.2-0.1-0.3-0.2-0.4-0.3c-0.1-0.2-0.2-0.3-0.2-0.5c0-0.2-0.1-0.3-0.1-0.4c0-0.1,0-0.3,0-0.4
			c0-0.1,0-0.3,0-0.4c0-0.1,0-0.3,0-0.4c0-0.1,0-0.2,0.1-0.4c0-0.1,0.1-0.2,0.1-0.3c0.1-0.2,0.1-0.4,0.2-0.6
			c0.1-0.2,0.2-0.3,0.3-0.5c0.1-0.1,0.2-0.3,0.3-0.4c0.1-0.1,0.2-0.2,0.4-0.3c0.2-0.2,0.4-0.3,0.6-0.4s0.3-0.1,0.5-0.2
			c0.1,0,0.2-0.1,0.3-0.1c0.1,0,0.1,0,0.2,0c0.1,0,0.2,0,0.3,0.1c0.1,0.1,0.1,0.1,0.1,0.2c0,0.1,0,0.1-0.1,0.2
			c-0.1,0.1-0.1,0.1-0.2,0.1c0,0-0.1,0-0.1,0c0,0-0.1,0-0.2,0c-0.1,0-0.2,0-0.3,0.1c-0.1,0-0.3,0.1-0.5,0.2c-0.1,0-0.2,0.1-0.3,0.2
			c-0.1,0.1-0.2,0.1-0.3,0.2c-0.1,0.1-0.2,0.2-0.4,0.4c-0.1,0.1-0.2,0.3-0.3,0.5c-0.1,0.2-0.2,0.4-0.2,0.7c-0.1,0.2-0.1,0.5-0.1,0.8
			c0,0.1,0,0.3,0,0.5c0,0.2,0,0.3,0,0.5c0,0.2,0.1,0.3,0.2,0.5c0.1,0.2,0.2,0.3,0.4,0.4c0.2,0.1,0.3,0.1,0.5,0.1
			c0.2,0,0.3-0.1,0.5-0.1c0.1,0,0.3-0.1,0.4-0.2c0.1-0.1,0.2-0.1,0.3-0.2c0.2-0.1,0.4-0.3,0.6-0.4c0.2-0.2,0.3-0.3,0.4-0.4
			c0.1-0.1,0.3-0.3,0.4-0.4c0.1-0.1,0.2-0.3,0.3-0.4c0-0.1,0.1-0.1,0.1-0.2c0-0.1,0.1-0.1,0.1-0.2c0,0,0-0.1,0.1-0.1
			c0,0,0-0.1,0-0.1l0-0.1l0,0l0,0c0,0,0,0,0,0c0,0,0,0,0.1,0h0c0.2,0,0.5,0,0.7,0c0.2,0,0.5,0,0.7,0c0.3,0,0.6,0,0.9,0
			c0.3,0,0.7,0,1.2,0c0.6,0,1.1,0,1.5-0.1c0.4,0,0.8-0.1,1.1-0.2c0.3,0,0.6-0.1,0.9-0.2c0.3-0.1,0.6-0.1,0.9-0.2
			c0.5-0.2,1-0.3,1.4-0.4c0.4-0.1,0.8-0.3,1.1-0.4c0.3-0.1,0.6-0.2,0.8-0.3c0.2-0.1,0.4-0.2,0.5-0.2c0.1-0.1,0.3-0.1,0.4-0.2
			c0.1,0,0.2-0.1,0.2-0.1c0.1,0,0.1-0.1,0.2-0.1C212.1,273.4,212.1,273.4,212.2,273.3z"/>
		<path class="st0" d="M238,273.5c0.1-0.1,0.2-0.2,0.4-0.2c0.1,0,0.2,0,0.2,0.1c0,0.1,0,0.2,0,0.3c-0.1,0.1-0.1,0.2-0.3,0.3
			c0,0-0.1,0.1-0.1,0.1s-0.1,0-0.1,0.1c-0.1,0-0.1,0.1-0.3,0.2c-0.1,0.1-0.3,0.2-0.5,0.3c-0.2,0.1-0.5,0.3-0.8,0.5
			c-0.3,0.2-0.7,0.4-1.2,0.7c-0.2,0.1-0.5,0.3-0.8,0.5c-0.3,0.2-0.6,0.3-0.9,0.5c-0.3,0.2-0.7,0.3-1.1,0.5c-0.4,0.2-0.8,0.4-1.3,0.5
			c-0.5,0.2-1.1,0.3-1.7,0.5c-0.6,0.2-1.3,0.2-2,0.3c-0.4,0-0.7,0-1.1-0.1c-0.4-0.1-0.8-0.1-1.2-0.3c-0.4-0.1-0.8-0.3-1.2-0.5
			c-0.4-0.2-0.8-0.5-1.1-0.8c-0.4-0.4-0.8-0.8-1-1.2c-0.3-0.4-0.5-0.7-0.7-1c-0.1-0.2-0.2-0.3-0.2-0.4c-0.1-0.1-0.1-0.3-0.2-0.4
			c0,0,0-0.1,0-0.1c0,0,0-0.1,0-0.1l-0.1-0.1l0-0.1v0c0.1,0.1,0.2,0.1,0.3,0.1c0,0,0.1,0,0,0c0,0,0,0,0,0c0,0,0,0,0,0h0l0,0
			c-0.1,0-0.1,0.1-0.2,0.1c-0.1,0-0.1,0.1-0.2,0.1c-0.3,0.1-0.6,0.3-1,0.5c-0.3,0.2-0.7,0.4-1.2,0.7c-0.5,0.3-1,0.6-1.6,1
			c-0.6,0.4-1.3,0.8-2.1,1.3c-0.4,0.3-0.8,0.5-1.2,0.7c-0.4,0.2-0.8,0.4-1.2,0.6c-0.2,0.1-0.4,0.2-0.6,0.2c-0.2,0.1-0.4,0.1-0.6,0.1
			s-0.4,0.1-0.6,0c-0.2,0-0.4,0-0.6-0.1c0,0,0,0-0.1,0c0,0,0,0-0.1,0l0,0l-0.1,0c0,0-0.1-0.1-0.1-0.1c0-0.1-0.1-0.1-0.1-0.2
			c0-0.1,0-0.1,0-0.2c0-0.1,0-0.2,0.1-0.3c0-0.1,0-0.2,0.1-0.2c0.1-0.1,0.1-0.3,0.2-0.4c0.1-0.1,0.1-0.3,0.2-0.4
			c0.1-0.2,0.2-0.5,0.3-0.7c0.1-0.2,0.2-0.4,0.3-0.6c0.2-0.4,0.4-0.7,0.5-0.9s0.3-0.5,0.4-0.6c0.1-0.2,0.2-0.3,0.2-0.4
			c0.1-0.1,0.1-0.2,0.1-0.2c0.1-0.1,0.2-0.2,0.3-0.3c0.1-0.1,0.2-0.1,0.3,0c0.1,0,0.1,0.1,0.1,0.2c0,0.1-0.1,0.2-0.1,0.4
			c0,0-0.1,0.1-0.1,0.1s-0.1,0.1-0.2,0.2c-0.1,0.1-0.2,0.2-0.3,0.4c-0.1,0.2-0.3,0.4-0.5,0.7c-0.1,0.1-0.2,0.3-0.3,0.5
			c-0.1,0.2-0.2,0.4-0.3,0.6c-0.1,0.1-0.1,0.2-0.2,0.3c-0.1,0.1-0.1,0.2-0.2,0.4c-0.1,0.1-0.1,0.3-0.2,0.4c-0.1,0.1-0.1,0.3-0.2,0.5
			c0,0,0,0.1,0,0.1c0,0,0,0.1,0,0.1c0,0,0,0.1,0,0.1c0,0,0,0,0,0c0,0,0,0,0,0c0,0,0,0,0,0c0,0,0,0,0,0c0,0,0,0,0,0c0,0,0,0,0.1,0
			c0,0,0,0,0.1,0c0,0,0.1,0,0.1,0c0,0,0.1,0,0.1,0c0.2,0,0.4,0,0.6,0c0.2,0,0.4-0.1,0.6-0.2c0.4-0.1,0.9-0.3,1.3-0.6
			c0.5-0.2,1-0.5,1.5-0.8c0.5-0.3,0.9-0.6,1.3-0.8c0.4-0.3,0.8-0.5,1.1-0.7c0.3-0.2,0.7-0.4,1-0.6c0.3-0.2,0.6-0.3,0.8-0.5
			c0.3-0.2,0.5-0.3,0.7-0.4c0.2-0.1,0.4-0.2,0.6-0.3l0.6-0.3l0.1,0l0,0l0,0h0h0c0,0,0,0,0,0c0,0,0,0,0.1,0c0,0,0,0,0,0c0,0,0,0,0,0
			c0,0,0.1,0.1,0.1,0.1c0,0,0,0.1,0.1,0.1c0,0,0,0.1,0.1,0.1c0.2,0.3,0.4,0.6,0.5,0.9c0.2,0.3,0.4,0.6,0.7,0.9
			c0.1,0.2,0.3,0.3,0.4,0.5c0.2,0.2,0.3,0.3,0.5,0.5c0.2,0.2,0.4,0.3,0.6,0.5s0.5,0.3,0.8,0.5c0.4,0.2,0.8,0.4,1.2,0.5
			c0.4,0.1,0.7,0.2,1,0.2c0.3,0,0.6,0.1,0.9,0.1c0.3,0,0.5,0,0.8,0c0.2,0,0.5-0.1,0.7-0.1c0.2,0,0.5-0.1,0.7-0.1
			c0.2-0.1,0.4-0.1,0.7-0.2c0.2-0.1,0.5-0.2,0.7-0.2c0.8-0.3,1.5-0.6,2.1-0.9c0.6-0.3,1.1-0.6,1.5-0.9c0.4-0.3,0.8-0.5,1-0.7
			c0.3-0.2,0.5-0.4,0.7-0.5c0.2-0.2,0.4-0.3,0.5-0.4c0.1-0.1,0.2-0.2,0.3-0.3c0.1-0.1,0.2-0.1,0.3-0.2
			C237.9,273.7,237.9,273.6,238,273.5z"/>
		<path class="st0" d="M254.2,273.4c0.1-0.1,0.2-0.1,0.2-0.1c0.1,0,0.2,0,0.2,0.1c0,0.1,0.1,0.1,0.1,0.2c0,0.1-0.1,0.2-0.1,0.2
			c0,0-0.1,0-0.1,0.1c0,0-0.1,0-0.1,0.1c-0.1,0-0.2,0.1-0.3,0.2c-0.1,0.1-0.3,0.2-0.6,0.4c-0.3,0.2-0.6,0.4-1,0.7
			c-0.4,0.3-1,0.6-1.6,0.9c-0.3,0.2-0.7,0.4-1.1,0.5c-0.4,0.2-0.8,0.4-1.3,0.6c-0.5,0.2-1,0.4-1.6,0.6c-0.6,0.2-1.2,0.4-1.9,0.5
			c-1.3,0.3-2.6,0.4-3.7,0.5c-0.6,0-1.1,0-1.6-0.1c-0.5-0.1-1-0.2-1.4-0.4c-0.2-0.1-0.4-0.2-0.6-0.3c-0.2-0.1-0.3-0.3-0.5-0.4
			c-0.1-0.1-0.1-0.2-0.2-0.3c-0.1-0.1-0.1-0.2-0.1-0.3c0-0.1-0.1-0.2-0.1-0.3c0-0.1,0-0.2,0-0.3c0-0.4,0.1-0.7,0.2-1
			c0.1-0.3,0.2-0.6,0.3-0.8c0.1-0.2,0.3-0.5,0.4-0.6c0.1-0.2,0.3-0.3,0.4-0.5c0.1-0.1,0.3-0.2,0.4-0.3c0.1-0.1,0.2-0.2,0.4-0.2
			c0.2-0.1,0.4-0.2,0.5-0.3c0.1-0.1,0.2-0.1,0.2-0.1c0.1,0,0.2,0,0.3,0c0.1,0,0.1,0.1,0.2,0.2c0,0.1,0,0.2,0,0.2
			c0,0.1-0.1,0.1-0.2,0.1c0,0-0.1,0-0.1,0s-0.2,0-0.3,0.1c-0.1,0-0.2,0.1-0.2,0.1c-0.1,0-0.2,0.1-0.3,0.2c-0.1,0.1-0.2,0.2-0.4,0.3
			c-0.1,0.1-0.3,0.2-0.4,0.4c-0.1,0.2-0.3,0.3-0.4,0.6c-0.1,0.2-0.3,0.5-0.4,0.8c-0.1,0.2-0.1,0.3-0.1,0.5c0,0.2,0,0.4-0.1,0.6
			c0,0.2,0,0.4,0.1,0.6c0.1,0.2,0.2,0.4,0.4,0.5c0.2,0.2,0.4,0.3,0.6,0.4c0.2,0.1,0.5,0.2,0.7,0.3c0.5,0.2,1.1,0.3,1.7,0.3
			c0.6,0,1.3,0,2,0c0.7-0.1,1.5-0.2,2.3-0.4c0.6-0.1,1.2-0.3,1.7-0.5c0.5-0.2,1-0.4,1.5-0.5c0.5-0.2,0.9-0.4,1.2-0.5
			c0.4-0.2,0.7-0.4,1-0.5c0.6-0.3,1.1-0.7,1.5-0.9c0.4-0.3,0.7-0.5,1-0.7c0.3-0.2,0.5-0.4,0.6-0.5c0.1-0.1,0.3-0.2,0.3-0.3
			c0.1-0.1,0.2-0.2,0.2-0.2C254,273.5,254.1,273.4,254.2,273.4z"/>
		<path class="st0" d="M277.3,273.3c0.1-0.1,0.2-0.1,0.3-0.1c0.1,0,0.2,0.1,0.2,0.1c0,0.1,0,0.2,0,0.2c-0.1,0.1-0.1,0.2-0.3,0.2
			c0,0-0.1,0-0.1,0c0,0-0.1,0-0.1,0c-0.1,0-0.1,0-0.2,0.1c-0.1,0-0.2,0.1-0.4,0.2c-0.2,0.1-0.4,0.2-0.7,0.3c-0.3,0.1-0.6,0.3-1,0.5
			c-0.4,0.2-0.9,0.4-1.5,0.7c-0.6,0.3-1.2,0.5-2,0.9c-0.4,0.2-0.9,0.4-1.3,0.6c-0.5,0.2-1,0.5-1.5,0.7c-0.3,0.1-0.6,0.2-0.8,0.4
			c-0.3,0.1-0.6,0.2-0.9,0.4c-0.3,0.1-0.7,0.2-1,0.3c-0.3,0.1-0.7,0.2-1.1,0.2c-0.1,0-0.3,0-0.4,0c-0.1,0-0.3,0-0.4-0.1
			c-0.1,0-0.1-0.1-0.2-0.1c-0.1,0-0.1-0.1-0.2-0.1c-0.1-0.1-0.2-0.2-0.2-0.3c0-0.1-0.1-0.2-0.1-0.3c0-0.1,0-0.2,0-0.3
			c0-0.1,0-0.2,0-0.2c0-0.1,0-0.2,0-0.2c0.1-0.3,0.2-0.5,0.3-0.8c0.1-0.2,0.2-0.5,0.3-0.7c0.1-0.2,0.3-0.5,0.4-0.8
			c0.2-0.3,0.3-0.6,0.5-1c0.1-0.1,0.1-0.2,0.2-0.3c0.1-0.1,0.1-0.2,0.2-0.3l0-0.1l0,0c0,0,0,0,0,0s0,0,0,0c0,0,0,0,0,0
			s0.1,0.1,0.2,0.2l0,0l-0.1,0c0,0-0.1,0-0.1,0c0,0-0.1,0-0.1,0c-0.1,0-0.1,0-0.2,0c-0.1,0-0.1,0-0.2,0.1c-0.3,0.1-0.6,0.1-0.9,0.2
			c-0.3,0.1-0.7,0.1-1.1,0.2c-0.8,0.1-1.5,0.2-2.2,0.3c-0.7,0-1.3,0.1-1.8,0.1c-0.6,0-1,0-1.5-0.1c-0.4,0-0.8-0.1-1.1-0.1
			c-0.3,0-0.6-0.1-0.9-0.2s-0.4-0.1-0.6-0.1c-0.2,0-0.3-0.1-0.4-0.1s-0.2-0.1-0.2-0.1c-0.1,0-0.2-0.1-0.3-0.2
			c-0.1-0.1-0.1-0.2,0-0.2c0-0.1,0.1-0.1,0.2-0.1c0.1,0,0.2,0,0.3,0c0,0,0.1,0,0.1,0.1c0,0,0.1,0.1,0.2,0.1c0.1,0,0.2,0.1,0.4,0.1
			c0.2,0.1,0.4,0.1,0.7,0.2c0.3,0.1,0.6,0.1,1,0.2c0.4,0.1,0.9,0.1,1.5,0.2c0.6,0,1.2,0.1,2,0c0.7,0,1.6-0.1,2.6-0.2
			c0.5-0.1,0.9-0.1,1.2-0.2c0.4-0.1,0.7-0.2,1.1-0.2c0,0,0.1,0,0.1,0c0,0,0.1,0,0.1,0l0.1,0l0,0h0c0,0,0,0,0,0c0,0,0,0,0,0v0l0,0.1
			c0,0.1-0.1,0.1-0.1,0.2c0,0.1-0.1,0.1-0.1,0.2c-0.1,0.1-0.1,0.3-0.2,0.4c-0.1,0.1-0.1,0.2-0.2,0.3c-0.2,0.4-0.4,0.8-0.5,1.2
			c-0.1,0.3-0.3,0.6-0.4,0.9c-0.1,0.3-0.2,0.6-0.2,0.8c0,0.1,0,0.3,0,0.4c0,0.1,0,0.3,0.1,0.4c0.1,0.1,0.2,0.2,0.3,0.2
			c0.2,0,0.3,0.1,0.5,0c0.2,0,0.4,0,0.7-0.1c0.2,0,0.5-0.1,0.8-0.2c0.4-0.1,0.7-0.2,1-0.3c0.3-0.1,0.6-0.2,0.8-0.3
			c0.3-0.1,0.5-0.2,0.7-0.3c0.2-0.1,0.4-0.2,0.6-0.2c0.2-0.1,0.4-0.2,0.5-0.2c0.2-0.1,0.3-0.2,0.5-0.2c0.2-0.1,0.4-0.2,0.5-0.2
			c0.2-0.1,0.4-0.2,0.6-0.3c0.7-0.3,1.2-0.6,1.7-0.8c0.5-0.2,0.9-0.4,1.3-0.6c0.4-0.2,0.7-0.3,0.9-0.5c0.3-0.1,0.5-0.2,0.7-0.3
			c0.2-0.1,0.3-0.2,0.4-0.2c0.1-0.1,0.2-0.1,0.3-0.2c0.1,0,0.2-0.1,0.2-0.1C277.2,273.4,277.3,273.4,277.3,273.3z"/>
		<path class="st0" d="M297.7,273.3c0-0.1-0.1-0.1-0.2-0.1c-0.1,0-0.2,0-0.3,0c-0.1,0-0.2,0.1-0.3,0.1c-0.1,0-0.2,0.1-0.3,0.1
			c-0.1,0.1-0.3,0.1-0.4,0.2c-0.2,0.1-0.4,0.2-0.7,0.3c-0.3,0.1-0.7,0.3-1.2,0.5c-0.5,0.2-1,0.4-1.7,0.7c-0.7,0.3-1.5,0.6-2.4,0.9
			c-0.9,0.3-2.1,0.7-3.3,1.1c-0.8,0.3-1.6,0.5-2.3,0.6c-0.7,0.2-1.4,0.3-2.1,0.4c-0.7,0.1-1.3,0.2-1.8,0.2c-0.6,0-1.1,0-1.6,0
			c-0.5-0.1-0.9-0.2-1.3-0.4c-0.2-0.1-0.3-0.2-0.5-0.3c-0.1-0.1-0.2-0.3-0.3-0.4c-0.1-0.1-0.1-0.3-0.2-0.4c0-0.1-0.1-0.3-0.1-0.4
			c0-0.3,0-0.5,0.1-0.7c0.1-0.2,0.1-0.4,0.2-0.6s0.1-0.3,0.2-0.4c0.1-0.3,0.2-0.4,0.3-0.6c0.1-0.1,0.1-0.2,0.2-0.3
			c0-0.1,0.1-0.1,0.1-0.1c0.1-0.1,0.1-0.2,0.1-0.3c0-0.1,0-0.2-0.1-0.2c-0.1,0-0.1,0-0.2,0c-0.1,0-0.2,0.1-0.2,0.2
			c0,0-0.1,0.1-0.1,0.2c-0.1,0.1-0.1,0.3-0.2,0.5c-0.1,0.1-0.1,0.3-0.2,0.4s-0.1,0.3-0.2,0.5c-0.1,0.2-0.1,0.4-0.1,0.6
			c0,0.2,0,0.5,0,0.8c0,0.1,0,0.3,0.1,0.4c0,0.2,0.1,0.3,0.2,0.5c0.2,0.3,0.4,0.6,0.8,0.8c0.3,0.2,0.7,0.3,1.2,0.4
			c0.4,0.1,0.9,0.1,1.3,0.1c1,0,2-0.2,3.2-0.4c1.1-0.2,2.4-0.6,3.8-1c1.4-0.4,2.6-0.8,3.6-1.2c1-0.4,1.9-0.7,2.6-1
			c0.7-0.3,1.4-0.5,1.8-0.7c0.5-0.2,0.9-0.3,1.2-0.4c0.3-0.1,0.5-0.2,0.7-0.3c0.2-0.1,0.3-0.1,0.4-0.1c0.1,0,0.1,0,0.2,0
			c0,0,0.1,0,0.1,0c0.1,0,0.2-0.1,0.2-0.2C297.7,273.5,297.7,273.4,297.7,273.3z"/>
		<path class="st0" d="M297.2,273.2c0.1,0,0.2,0,0.3,0c0.1,0,0.1,0.1,0.1,0.2c0,0.1,0,0.2-0.1,0.2c-0.1,0.1-0.1,0.1-0.2,0.1
			c0,0-0.1,0-0.1,0c0,0-0.1,0-0.1,0c0,0-0.1,0-0.2,0s-0.2,0-0.3,0.1c-0.1,0-0.3,0.1-0.5,0.2c-0.2,0.1-0.5,0.2-0.7,0.4
			c-0.1,0.1-0.3,0.2-0.4,0.3c-0.1,0.1-0.2,0.3-0.3,0.5c-0.1,0.2-0.1,0.4-0.1,0.7c0,0.3,0.1,0.5,0.3,0.8c0.1,0.2,0.2,0.3,0.3,0.4
			c0.1,0.1,0.3,0.2,0.4,0.4c0.2,0.1,0.3,0.2,0.5,0.3c0.2,0.1,0.4,0.2,0.6,0.2c0.4,0.1,0.9,0.2,1.4,0.3c0.5,0.1,1,0.1,1.6,0.1
			c0.4,0,0.7,0,0.9,0c0.3,0,0.5,0,0.7,0c0.2,0,0.4,0,0.6,0c0.2,0,0.4,0,0.6-0.1c0.2,0,0.4-0.1,0.7-0.1s0.5-0.1,0.8-0.2
			c0.3-0.1,0.7-0.2,1.1-0.4c0.4-0.2,0.9-0.4,1.5-0.6c0.6-0.3,1.1-0.5,1.5-0.8c0.4-0.3,0.8-0.5,1.2-0.7c0.4-0.2,0.7-0.4,0.9-0.6
			c0.3-0.2,0.5-0.4,0.7-0.5c0.4-0.3,0.7-0.5,0.9-0.7c0.2-0.2,0.3-0.2,0.3-0.3c0.1-0.1,0.2-0.1,0.2-0.1c0.1,0,0.2,0,0.2,0.1
			c0.1,0.1,0.1,0.1,0.1,0.2c0,0.1-0.1,0.2-0.1,0.2c0,0-0.1,0-0.1,0.1c0,0-0.1,0.1-0.2,0.1c-0.1,0-0.2,0.1-0.3,0.2
			c-0.1,0.1-0.3,0.2-0.4,0.3c-0.2,0.1-0.4,0.3-0.7,0.4c-0.3,0.2-0.6,0.4-1,0.6c-0.4,0.2-0.8,0.5-1.3,0.8c-0.5,0.3-1.1,0.6-1.8,0.9
			c-0.6,0.3-1.2,0.5-1.7,0.7c-0.5,0.2-0.9,0.3-1.3,0.4c-0.4,0.1-0.7,0.2-1,0.3c-0.3,0.1-0.5,0.1-0.8,0.2c-0.2,0.1-0.5,0.1-0.7,0.1
			c-0.2,0-0.5,0.1-0.7,0.1s-0.6,0-0.9,0c-0.3,0-0.7,0-1.2-0.1c-0.6-0.1-1.1-0.2-1.5-0.4c-0.4-0.1-0.7-0.3-1-0.4
			c-0.1-0.1-0.3-0.2-0.4-0.2c-0.1-0.1-0.3-0.2-0.4-0.3c-0.1-0.1-0.2-0.2-0.3-0.3c-0.1-0.1-0.2-0.3-0.3-0.4c-0.1-0.3-0.2-0.5-0.3-0.8
			c0-0.3-0.1-0.5,0-0.7c0.1-0.2,0.1-0.4,0.2-0.6c0.1-0.2,0.2-0.3,0.3-0.4c0.3-0.2,0.5-0.4,0.7-0.5c0.2-0.1,0.4-0.2,0.5-0.3
			c0.2-0.1,0.3-0.1,0.4-0.2c0.1,0,0.2-0.1,0.3-0.1c0.1,0,0.1-0.1,0.2-0.1C297,273.3,297.1,273.2,297.2,273.2z"/>
		<path class="st0" d="M310.7,289.6C310.7,289.6,310.6,289.6,310.7,289.6c0,0.1,0,0.1,0,0.1c-0.1,0.3-0.1,0.5-0.2,0.6
			c-0.1,0.2-0.2,0.3-0.2,0.2c-0.1,0-0.1-0.1-0.2-0.3c0-0.2,0-0.4,0.1-0.7c0-0.1,0-0.2,0.1-0.2c0-0.1,0.1-0.2,0.1-0.4
			c0-0.2,0.1-0.4,0.1-0.6c0.1-0.3,0.1-0.6,0.2-1c0.1-0.5,0.2-1.1,0.3-1.9c0.1-0.8,0.2-1.7,0.3-2.9c0.1-1.2,0.2-2.2,0.3-3.1
			c0.1-0.9,0.2-1.7,0.2-2.3c0.1-0.7,0.1-1.2,0.1-1.6s0.1-0.8,0.1-1.1c0-0.3,0-0.5,0-0.6s0-0.2,0-0.2c0-0.1,0-0.1,0.1-0.2
			c0.1,0,0.1-0.1,0.2,0s0.1,0,0.2,0.1c0.1,0,0.1,0.1,0.1,0.2c0,0,0,0.1,0,0.2c0,0.1,0,0.2-0.1,0.4c0,0.2-0.1,0.5-0.1,0.8
			s-0.1,0.9-0.2,1.5c-0.1,0.6-0.2,1.5-0.3,2.4c-0.1,1-0.3,2.2-0.4,3.6c-0.1,0.6-0.1,1.2-0.2,1.7c-0.1,0.5-0.1,0.9-0.1,1.4
			c0.1-0.5,0.3-1.2,0.5-1.9c0.2-0.7,0.4-1.5,0.6-2.4c0.2-0.6,0.3-1.2,0.5-1.9c0.2-0.7,0.4-1.4,0.6-2.2c0.2-0.8,0.5-1.6,0.7-2.5
			c0.3-0.9,0.6-1.8,0.9-2.8c0.3-0.9,0.6-1.8,0.9-2.5c0.3-0.8,0.6-1.5,0.8-2.2c0.3-0.7,0.5-1.3,0.8-1.8c0.2-0.6,0.5-1.1,0.7-1.5
			c0.5-0.9,0.9-1.7,1.3-2.4c0.4-0.6,0.9-1.2,1.3-1.7c0.2-0.2,0.5-0.4,0.7-0.6c0.2-0.2,0.5-0.3,0.8-0.5c0.1,0,0.2-0.1,0.2-0.1
			c0.1,0,0.2,0,0.2-0.1c0,0,0.1,0,0.1,0c0,0,0.1,0,0.1,0h0.1c0,0,0.1,0,0.1,0c0,0,0.1,0.1,0.1,0.1c0,0,0,0.1,0,0.1
			c0,0.1,0,0.1,0,0.2c0,0,0,0.1,0,0.1c0,0.1,0,0.1,0,0.1c0,0,0,0.1,0,0.1c0,0.1,0,0.2-0.1,0.3c0,0.1-0.1,0.2-0.1,0.3
			c-0.1,0.3-0.3,0.7-0.4,1c-0.2,0.4-0.3,0.8-0.5,1.2c-0.2,0.4-0.4,0.9-0.7,1.3c-0.2,0.5-0.5,1-0.8,1.5c-0.4,0.7-0.7,1.4-1.1,2
			c-0.3,0.6-0.6,1.2-0.9,1.7c-0.3,0.5-0.5,1-0.8,1.4c-0.2,0.4-0.5,0.8-0.7,1.2s-0.4,0.8-0.6,1.1c-0.2,0.4-0.4,0.7-0.6,1.1
			c-0.2,0.4-0.4,0.7-0.6,1.1s-0.4,0.8-0.7,1.2c0,0-0.1,0.1-0.1,0.1c0,0,0,0.1-0.1,0.1l0,0c0.1,0,0.2,0,0.3,0c0.1,0,0.2,0,0.2,0
			c0.2,0,0.4,0,0.5,0c0.2,0,0.3,0,0.5,0c0.3,0,0.6,0,1,0s0.6,0,0.9,0c0.6,0,1.1-0.1,1.6-0.1c0.5-0.1,1-0.1,1.4-0.2
			c0.8-0.1,1.5-0.3,2.1-0.5c0.6-0.2,1.1-0.3,1.5-0.5c0.4-0.1,0.7-0.3,1-0.4c0.3-0.1,0.5-0.2,0.7-0.3c0.2-0.1,0.4-0.2,0.5-0.2
			c0.2-0.1,0.3-0.2,0.5-0.3c0.2-0.1,0.4-0.2,0.6-0.2c0.2,0,0.3,0,0.3,0c0,0.1,0,0.2-0.2,0.3c-0.1,0.1-0.3,0.3-0.6,0.4
			c-0.1,0-0.1,0.1-0.2,0.1c-0.1,0-0.1,0.1-0.2,0.1c-0.1,0-0.3,0.1-0.5,0.2c-0.2,0.1-0.5,0.2-0.9,0.3c-0.4,0.1-0.9,0.3-1.5,0.5
			c-0.6,0.2-1.4,0.4-2.3,0.6c-0.5,0.1-1,0.2-1.6,0.2c-0.6,0.1-1.2,0.1-1.9,0.1c-0.3,0-0.7,0-1,0c-0.4,0-0.7,0-1.1,0
			c-0.4,0-0.8-0.1-1.2-0.1c-0.1,0-0.2,0-0.3,0c-0.1,0-0.2,0-0.3-0.1c0-0.1-0.1-0.1-0.1-0.1s0,0,0,0s0,0,0,0c0,0,0,0,0,0l0,0l0,0l0,0
			l0-0.1l0.1-0.1c0,0,0.1-0.1,0.1-0.1c0,0,0.1-0.1,0.1-0.1c0.5-0.8,1-1.7,1.5-2.7c0.5-1,1.1-2,1.7-3.1c0.6-1.1,1.2-2.3,1.8-3.5
			c0.6-1.2,1.3-2.6,2-4c0.2-0.5,0.4-0.9,0.6-1.3c0.2-0.4,0.3-0.8,0.4-1.1c0-0.1,0.1-0.2,0.1-0.3c0-0.1,0-0.2,0.1-0.2
			c0,0,0-0.1,0-0.1c-0.3,0-0.5,0.1-0.7,0.2c-0.3,0.1-0.5,0.3-0.7,0.4c-0.2,0.2-0.4,0.3-0.6,0.5c-0.4,0.4-0.7,0.7-1,1.2
			c-0.3,0.4-0.7,1-1,1.5c-0.3,0.6-0.7,1.3-1.1,2.1c-0.2,0.4-0.4,0.9-0.6,1.4c-0.2,0.5-0.4,1-0.7,1.6c-0.2,0.6-0.5,1.2-0.7,1.9
			c-0.2,0.7-0.5,1.4-0.7,2.2c-0.5,1.6-1,3.1-1.3,4.5c-0.4,1.4-0.7,2.6-1,3.7c-0.3,1.1-0.5,2.1-0.7,3c-0.2,0.9-0.4,1.7-0.5,2.4
			c-0.2,0.8-0.3,1.5-0.4,2.1c-0.1,0.5-0.2,1-0.3,1.3L310.7,289.6z"/>
		<path class="st0" d="M326.3,289.6C326.3,289.6,326.3,289.6,326.3,289.6c0,0.1,0,0.1,0,0.1c-0.1,0.3-0.1,0.5-0.2,0.6
			c-0.1,0.2-0.2,0.3-0.2,0.2c-0.1,0-0.1-0.1-0.2-0.3c0-0.2,0-0.4,0.1-0.7c0-0.1,0-0.2,0.1-0.2c0-0.1,0.1-0.2,0.1-0.4
			c0-0.2,0.1-0.4,0.1-0.6c0.1-0.3,0.1-0.6,0.2-1c0.1-0.5,0.2-1.1,0.3-1.9c0.1-0.8,0.2-1.7,0.3-2.9c0.1-1.2,0.2-2.2,0.3-3.1
			c0.1-0.9,0.2-1.7,0.2-2.3c0.1-0.7,0.1-1.2,0.1-1.6c0-0.4,0.1-0.8,0.1-1.1c0-0.3,0-0.5,0-0.6c0-0.1,0-0.2,0-0.2
			c0-0.1,0-0.1,0.1-0.2c0.1,0,0.1-0.1,0.2,0s0.1,0,0.2,0.1c0.1,0,0.1,0.1,0.1,0.2c0,0,0,0.1,0,0.2c0,0.1,0,0.2-0.1,0.4
			c0,0.2-0.1,0.5-0.1,0.8c-0.1,0.4-0.1,0.9-0.2,1.5c-0.1,0.6-0.2,1.5-0.3,2.4c-0.1,1-0.3,2.2-0.4,3.6c-0.1,0.6-0.1,1.2-0.2,1.7
			c-0.1,0.5-0.1,0.9-0.1,1.4c0.1-0.5,0.3-1.2,0.5-1.9c0.2-0.7,0.4-1.5,0.6-2.4c0.2-0.6,0.3-1.2,0.5-1.9c0.2-0.7,0.4-1.4,0.6-2.2
			c0.2-0.8,0.5-1.6,0.7-2.5c0.3-0.9,0.6-1.8,0.9-2.8c0.3-0.9,0.6-1.8,0.9-2.5c0.3-0.8,0.6-1.5,0.8-2.2c0.3-0.7,0.5-1.3,0.8-1.8
			c0.2-0.6,0.5-1.1,0.7-1.5c0.5-0.9,0.9-1.7,1.3-2.4c0.4-0.6,0.9-1.2,1.3-1.7c0.2-0.2,0.5-0.4,0.7-0.6c0.2-0.2,0.5-0.3,0.8-0.5
			c0.1,0,0.2-0.1,0.2-0.1c0.1,0,0.2,0,0.2-0.1c0,0,0.1,0,0.1,0c0,0,0.1,0,0.1,0h0.1c0,0,0.1,0,0.1,0c0,0,0.1,0.1,0.1,0.1
			c0,0,0,0.1,0,0.1c0,0.1,0,0.1,0,0.2c0,0,0,0.1,0,0.1c0,0.1,0,0.1,0,0.1c0,0,0,0.1,0,0.1c0,0.1,0,0.2-0.1,0.3
			c0,0.1-0.1,0.2-0.1,0.3c-0.1,0.3-0.3,0.7-0.4,1s-0.3,0.8-0.5,1.2c-0.2,0.4-0.4,0.9-0.7,1.3c-0.2,0.5-0.5,1-0.8,1.5
			c-0.4,0.7-0.7,1.4-1.1,2c-0.3,0.6-0.6,1.2-0.9,1.7c-0.3,0.5-0.5,1-0.8,1.4c-0.2,0.4-0.5,0.8-0.7,1.2s-0.4,0.8-0.6,1.1
			c-0.2,0.4-0.4,0.7-0.6,1.1c-0.2,0.4-0.4,0.7-0.6,1.1s-0.4,0.8-0.7,1.2c0,0-0.1,0.1-0.1,0.1c0,0,0,0.1-0.1,0.1l0,0
			c0.1,0,0.2,0,0.3,0c0.1,0,0.2,0,0.2,0c0.2,0,0.4,0,0.5,0c0.2,0,0.3,0,0.5,0c0.3,0,0.6,0,1,0c0.3,0,0.6,0,0.9,0
			c0.6,0,1.1-0.1,1.6-0.1c0.5-0.1,1-0.1,1.4-0.2c0.8-0.1,1.5-0.3,2.1-0.5c0.6-0.2,1.1-0.3,1.5-0.5c0.4-0.1,0.7-0.3,1-0.4
			c0.3-0.1,0.5-0.2,0.7-0.3c0.2-0.1,0.4-0.2,0.5-0.2c0.2-0.1,0.3-0.2,0.5-0.3c0.2-0.1,0.4-0.2,0.6-0.2c0.2,0,0.3,0,0.3,0
			c0,0.1,0,0.2-0.2,0.3c-0.1,0.1-0.3,0.3-0.6,0.4c-0.1,0-0.1,0.1-0.2,0.1c-0.1,0-0.1,0.1-0.2,0.1c-0.1,0-0.3,0.1-0.5,0.2
			c-0.2,0.1-0.5,0.2-0.9,0.3c-0.4,0.1-0.9,0.3-1.5,0.5c-0.6,0.2-1.4,0.4-2.3,0.6c-0.5,0.1-1,0.2-1.6,0.2c-0.6,0.1-1.2,0.1-1.9,0.1
			c-0.3,0-0.7,0-1,0c-0.4,0-0.7,0-1.1,0c-0.4,0-0.8-0.1-1.2-0.1c-0.1,0-0.2,0-0.3,0c-0.1,0-0.2,0-0.3-0.1c0-0.1-0.1-0.1-0.1-0.1
			c0,0,0,0,0,0s0,0,0,0c0,0,0,0,0,0l0,0l0,0l0,0l0-0.1l0.1-0.1c0,0,0.1-0.1,0.1-0.1c0,0,0.1-0.1,0.1-0.1c0.5-0.8,1-1.7,1.5-2.7
			c0.5-1,1.1-2,1.7-3.1c0.6-1.1,1.2-2.3,1.8-3.5c0.6-1.2,1.3-2.6,2-4c0.2-0.5,0.4-0.9,0.6-1.3c0.2-0.4,0.3-0.8,0.4-1.1
			c0-0.1,0.1-0.2,0.1-0.3c0-0.1,0-0.2,0.1-0.2c0,0,0-0.1,0-0.1c-0.3,0-0.5,0.1-0.7,0.2c-0.3,0.1-0.5,0.3-0.7,0.4
			c-0.2,0.2-0.4,0.3-0.6,0.5c-0.4,0.4-0.7,0.7-1,1.2c-0.3,0.4-0.7,1-1,1.5c-0.3,0.6-0.7,1.3-1.1,2.1c-0.2,0.4-0.4,0.9-0.6,1.4
			c-0.2,0.5-0.4,1-0.7,1.6c-0.2,0.6-0.5,1.2-0.7,1.9c-0.2,0.7-0.5,1.4-0.7,2.2c-0.5,1.6-1,3.1-1.3,4.5c-0.4,1.4-0.7,2.6-1,3.7
			c-0.3,1.1-0.5,2.1-0.7,3c-0.2,0.9-0.4,1.7-0.5,2.4c-0.2,0.8-0.3,1.5-0.4,2.1c-0.1,0.5-0.2,1-0.3,1.3L326.3,289.6z"/>
		<path class="st0" d="M62.7,273.8c0-0.1-0.1-0.1-0.3-0.1c-0.1,0-0.3,0.1-0.5,0.2c-0.1,0.1-0.3,0.2-0.4,0.2
			c-0.1,0.1-0.2,0.1-0.4,0.2c-0.1,0.1-0.3,0.2-0.5,0.3c-0.2,0.1-0.4,0.2-0.7,0.4c-0.3,0.2-0.6,0.3-1,0.6c-0.4,0.2-0.9,0.5-1.4,0.8
			c-0.3,0.1-0.6,0.3-0.9,0.5c-0.3,0.2-0.7,0.3-1.1,0.5c-0.4,0.2-0.8,0.4-1.2,0.5c-0.4,0.2-0.9,0.4-1.5,0.5c-0.3,0.1-0.6,0.2-0.9,0.2
			c-0.3,0-0.5,0-0.8,0c0.1,0.1,0.3,0.2,0.4,0.2c0,0,0.1,0,0.1,0c0.4,0,0.7-0.1,1.1-0.2c0.6-0.2,1.2-0.4,1.7-0.6
			c0.5-0.2,1-0.4,1.5-0.6c0.5-0.2,0.9-0.4,1.2-0.6c0.4-0.2,0.7-0.4,1-0.5c0.6-0.3,1.2-0.6,1.6-0.8c0.4-0.2,0.8-0.4,1-0.5
			c0.3-0.1,0.5-0.3,0.6-0.3c0.1-0.1,0.3-0.1,0.3-0.2c0.1,0,0.1-0.1,0.2-0.1c0,0,0.1,0,0.1-0.1c0.2-0.1,0.3-0.2,0.4-0.3
			C62.7,274,62.7,273.9,62.7,273.8z"/>
		<path class="st0" d="M62.2,273.2c0,0,0.3,0,0.5,0c0.2,0,0.3,0.2,0.3,0.3c0,0.1-0.1,0.4-0.5,0.7c-0.4,0.3-0.3-0.4-0.3-0.4l0.3-0.6
			h-0.2L62.2,273.2z"/>
	</g>
	<path class="st1" d="M114.4,196.6h9.4v7.7c3-6.2,8.5-9.1,15.6-9.2v10h-0.7c-9.4,0-14.3,5.2-14.3,15.6V249h-10V196.6z"/>
	<path class="st1" d="M147.3,196.6h9.4v8.1c2.5-5.4,8.4-9.7,17.7-9.6c16.8,0.2,21.2,12.3,21.2,23.2V249h-10.1v-28.4
		c0-9.4-3.7-16.2-13.9-16.1c-9.8,0.1-14.3,6.3-14.3,15.3V249h-10V196.6z"/>
	<path class="st1" d="M258.2,230.6c-3.2,11.4-13.5,19.9-26.6,19.9c-17.1,0-28-13.2-28-27.7c0-15.5,11.8-27.7,27.5-27.7
		c12.5,0,23.8,7.7,27.1,20.3h-10.3c-2.7-7-9.2-11-16.4-11c-5.3-0.1-9.1,1.6-12.8,5.1c-3.1,3.1-5.1,8-5.1,13.3
		c0,10.8,7.9,18.4,17.9,18.4c8.8-0.1,14.3-5.4,16.4-10.6H258.2z"/>
	<path class="st1" d="M321.3,249h-10v-9.1c-3.7,7-11.2,10.7-19.5,10.7c-16.9,0-26.9-13.1-26.9-27.7c0-16,11.7-27.7,26.9-27.7
		c10.4,0,17,5.8,19.5,10.8v-9.2h10V249z M275,223c0.1,7.8,5.6,18.2,18.3,18.2c8,0,13.7-4.4,16.3-10.4c1.2-2.4,1.7-5.1,1.8-7.8
		c0.1-2.7-0.4-5.4-1.5-7.8c-2.5-6.1-8.4-10.8-16.8-10.8C282.1,204.4,275,213.1,275,223L275,223z"/>
	<path class="st1" d="M338.3,204.4h-9.4v-7.8h9.4v-18.9h10v18.9h10.1v7.8h-10.1V249h-10V204.4z"/>
	<path class="st0" d="M102.5,209.2l-7.9,7.9c2,6.3,0.6,12.8-4.7,18.1c-6,6-17,8.9-25.4,1.2l33.9-33.9c-5.3-6.4-12.2-10.5-20.2-11.4
		l-10.6-13L62.5,194c-2.9,1.4-5.7,3.4-8.1,5.8c-3.7,3.7-6.1,8-7.5,12.5L32,220l14.7,8.2c1.3,5,4,9.7,7.8,13.5
		c10.5,10.5,28.9,12.9,41.9-0.1c4-4,6.9-9,7.9-14.6C105.5,221.5,105,215.5,102.5,209.2z M60.8,206.3c7.4-7.7,18.5-7,24.1-2.1
		l-26.2,26.2C53.7,224.6,53.1,214,60.8,206.3z"/>
</g>
<rect x="-627.8" y="90.6" style="fill:none;" width="408.9" height="469.5"/>
<text transform="matrix(1 0 0 1 -627.8436 100.9681)"><tspan x="0" y="0" style="font-family:'ITCAvantGardeStd-Md'; font-size:14px;">Erin Moncrieff</tspan><tspan x="0" y="16.8" style="font-family:'ITCAvantGardeStd-Md'; font-size:14px;">Wordmark</tspan><tspan x="0" y="33.6" style="font-family:'ITCAvantGardeStd-Md'; font-size:14px;">Graphic Design 5</tspan><tspan x="0" y="50.4" style="font-family:'ITCAvantGardeStd-Md'; font-size:14px;">Robert Smith</tspan><tspan x="0" y="67.2" style="font-family:'ITCAvantGardeStd-Md'; font-size:14px;">Oct 18 2015</tspan></text>
<g>
	<rect x="-29.9" y="517.5" class="st3" width="72.4" height="72.4"/>
	<rect x="99.1" y="517.5" class="st4" width="72.4" height="72.4"/>
	<rect x="228.1" y="517.5" class="st0" width="72.4" height="72.4"/>
	<rect x="357.1" y="517.5" width="72.4" height="72.4"/>
	<text transform="matrix(1 0 0 1 -29.881 627.1882)"><tspan x="0" y="0" class="st5" style="font-family:'ITCAvantGardeStd-Md'; font-size:8px;">Pantone 163 C</tspan><tspan x="0" y="9.6" class="st5" style="font-family:'ITCAvantGardeStd-Md'; font-size:8px;">C 0% M 48% Y 58% K 0%</tspan><tspan x="0" y="19.2" class="st5" style="font-family:'ITCAvantGardeStd-Md'; font-size:8px;">R 225 G 157 B 108</tspan></text>
	<text transform="matrix(1 0 0 1 99.0458 627.1882)"><tspan x="0" y="0" class="st5" style="font-family:'ITCAvantGardeStd-Md'; font-size:8px;">Pantone Warm Gray 4 C</tspan><tspan x="0" y="9.6" class="st5" style="font-family:'ITCAvantGardeStd-Md'; font-size:8px;">C 30% M 28% Y 32% K 0%</tspan><tspan x="0" y="19.2" class="st5" style="font-family:'ITCAvantGardeStd-Md'; font-size:8px;">R 183 G 173 B 165</tspan></text>
	<text transform="matrix(1 0 0 1 227.9727 627.1882)"><tspan x="0" y="0" class="st5" style="font-family:'ITCAvantGardeStd-Md'; font-size:8px;">Pantone Warm Gray 11 C</tspan><tspan x="0" y="9.6" class="st5" style="font-family:'ITCAvantGardeStd-Md'; font-size:8px;">C 52% M 53% Y 59% K 24%</tspan><tspan x="0" y="19.2" class="st5" style="font-family:'ITCAvantGardeStd-Md'; font-size:8px;">R 112 G 98 B 89</tspan></text>
	<text transform="matrix(1 0 0 1 357.6663 627.7361)"><tspan x="0" y="0" style="font-family:'ITCAvantGardeStd-Md'; font-size:8px;">Black</tspan><tspan x="0" y="9.6" style="font-family:'ITCAvantGardeStd-Md'; font-size:8px;">K 100%</tspan><tspan x="0" y="19.2" style="font-family:'ITCAvantGardeStd-Md'; font-size:8px;">R 35 G 31 B 32</tspan></text>
</g>
</svg>
