<?xml version="1.0" encoding="utf-8"?>
<!-- Generator: Adobe Illustrator 19.1.0, SVG Export Plug-In . SVG Version: 6.00 Build 0)  -->
<svg version="1.1" id="Layer_1" xmlns="http://www.w3.org/2000/svg" xmlns:xlink="http://www.w3.org/1999/xlink" x="0px" y="0px"
	 viewBox="0 0 382.7 134.3" style="enable-background:new 0 0 382.7 134.3;" xml:space="preserve">
<style type="text/css">
	.st0{fill:#555759;}
	.st1{fill:#FF9D6C;}
</style>
<g>
	<path class="st0" d="M285.8,107c0.1,0,0.3,0.1,0.5,0.1c0.2,0,0.6,0,1-0.1c0.3,0,0.6-0.1,1-0.1c0-0.1,0-0.3,0-0.4
		c-0.3,0-0.6,0-0.9,0c-0.4,0-0.7,0-0.9,0c-0.2,0-0.4,0-0.5,0c-0.1,0-0.2,0-0.2,0c0,0-0.1,0-0.1,0c0,0-0.1,0-0.1,0.1
		c0,0.1,0,0.1,0,0.2C285.7,106.9,285.7,107,285.8,107z"/>
	<g>
		<path class="st0" d="M77.2,107c0.1,0,0.3,0.1,0.5,0.1c0.2,0,0.6,0,1-0.1c0.2,0,0.4,0,0.7-0.1c0-0.1,0-0.1,0-0.2c0-0.1,0-0.2,0-0.2
			c-0.2,0-0.4,0-0.6,0c-0.4,0-0.7,0-0.9,0c-0.2,0-0.4,0-0.5,0c-0.1,0-0.2,0-0.2,0c0,0-0.1,0-0.1,0c0,0-0.1,0-0.1,0.1
			c0,0.1,0,0.1,0,0.2C77,106.9,77.1,107,77.2,107z"/>
		<g>
			<path class="st0" d="M30.2,113.6c0.1,0,0.2,0,0.3,0c0.1,0.1,0.1,0.1,0.2,0.2c0,0.1,0,0.2-0.1,0.3c-0.1,0.1-0.2,0.1-0.3,0.2
				c0,0-0.1,0-0.1,0c0,0-0.1,0-0.1,0c-0.1,0-0.1,0-0.2,0c-0.1,0-0.2,0-0.4,0.1c-0.2,0-0.4,0.1-0.6,0.2c-0.3,0.1-0.6,0.2-0.9,0.5
				c-0.2,0.1-0.3,0.2-0.5,0.4c-0.2,0.2-0.3,0.4-0.4,0.6c-0.1,0.2-0.1,0.5-0.1,0.9c0,0.3,0.2,0.7,0.3,1c0.1,0.2,0.2,0.3,0.3,0.5
				c0.1,0.2,0.3,0.3,0.5,0.4c0.2,0.1,0.4,0.2,0.6,0.4c0.2,0.1,0.5,0.2,0.7,0.3c0.5,0.2,1.1,0.3,1.6,0.4c0.6,0.1,1.2,0.1,1.9,0.1
				c0.4,0,0.8,0,1.1,0c0.3,0,0.6,0,0.8-0.1c0.2,0,0.5,0,0.7-0.1c0.2,0,0.4-0.1,0.7-0.1c0.2,0,0.5-0.1,0.8-0.1c0.3-0.1,0.6-0.1,1-0.2
				c0.4-0.1,0.8-0.3,1.3-0.4c0.5-0.2,1.1-0.4,1.7-0.7c0.7-0.3,1.3-0.6,1.8-0.9c0.5-0.3,1-0.6,1.4-0.9c0.4-0.3,0.8-0.5,1.1-0.7
				c0.3-0.2,0.6-0.4,0.8-0.6c0.5-0.4,0.8-0.6,1-0.8c0.2-0.2,0.3-0.3,0.4-0.3c0.1-0.1,0.2-0.1,0.3-0.1c0.1,0,0.2,0,0.2,0.1
				s0.1,0.2,0.1,0.3c0,0.1-0.1,0.2-0.2,0.3c0,0-0.1,0.1-0.1,0.1c0,0-0.1,0.1-0.2,0.1c-0.1,0.1-0.2,0.1-0.3,0.2
				c-0.1,0.1-0.3,0.2-0.5,0.4c-0.2,0.1-0.5,0.3-0.8,0.5c-0.3,0.2-0.7,0.5-1.2,0.7c-0.5,0.3-1,0.6-1.6,0.9c-0.6,0.3-1.3,0.7-2.2,1.1
				c-0.8,0.3-1.4,0.6-2,0.8c-0.6,0.2-1.1,0.4-1.5,0.5c-0.4,0.1-0.8,0.2-1.1,0.3c-0.3,0.1-0.6,0.1-0.9,0.2c-0.3,0.1-0.5,0.1-0.8,0.1
				c-0.3,0-0.5,0.1-0.8,0.1c-0.3,0-0.7,0-1.1,0c-0.4,0-0.9,0-1.4-0.1c-0.7-0.1-1.3-0.3-1.8-0.4c-0.5-0.2-0.9-0.3-1.2-0.5
				c-0.2-0.1-0.3-0.2-0.5-0.3c-0.2-0.1-0.3-0.2-0.4-0.3c-0.1-0.1-0.3-0.2-0.4-0.4c-0.1-0.1-0.2-0.3-0.3-0.5
				c-0.2-0.3-0.3-0.6-0.3-0.9c-0.1-0.3-0.1-0.6,0-0.9c0.1-0.3,0.2-0.5,0.3-0.7c0.1-0.2,0.3-0.4,0.4-0.5c0.3-0.3,0.6-0.5,0.8-0.6
				c0.2-0.1,0.5-0.2,0.6-0.3c0.2-0.1,0.3-0.1,0.4-0.2c0.1,0,0.2-0.1,0.3-0.1c0.1,0,0.2-0.1,0.2-0.1C30,113.7,30.1,113.6,30.2,113.6z
				"/>
			<path class="st0" d="M75.4,113.7c0.1-0.1,0.3-0.1,0.4-0.1c0.1,0,0.2,0.1,0.2,0.2c0,0.1,0,0.2,0,0.3c-0.1,0.1-0.2,0.2-0.3,0.2
				c0,0-0.1,0-0.1,0c0,0-0.1,0-0.1,0.1c-0.1,0-0.2,0.1-0.3,0.1c-0.1,0-0.3,0.1-0.5,0.2c-0.2,0.1-0.5,0.2-0.8,0.3
				c-0.3,0.1-0.7,0.3-1.2,0.5c-0.5,0.2-1.1,0.5-1.8,0.8c-0.7,0.3-1.5,0.7-2.4,1c-0.5,0.2-1,0.5-1.6,0.7c-0.6,0.3-1.2,0.5-1.8,0.8
				c-0.3,0.1-0.7,0.3-1,0.4c-0.3,0.1-0.7,0.3-1.1,0.4c-0.4,0.1-0.8,0.3-1.2,0.4c-0.4,0.1-0.9,0.2-1.3,0.2c-0.2,0-0.3,0-0.5,0
				c-0.2,0-0.3,0-0.5-0.1c-0.1,0-0.1-0.1-0.2-0.1c-0.1,0-0.1-0.1-0.2-0.2c-0.1-0.1-0.2-0.3-0.2-0.4c-0.1-0.1-0.1-0.3-0.1-0.4
				c0-0.1,0-0.2,0-0.3c0-0.1,0-0.2,0.1-0.3c0-0.1,0-0.2,0.1-0.3c0.1-0.3,0.2-0.6,0.3-0.9c0.1-0.3,0.3-0.5,0.4-0.8
				c0.1-0.3,0.3-0.6,0.5-0.9c0.2-0.3,0.4-0.7,0.6-1.2c0.1-0.1,0.1-0.2,0.2-0.4c0.1-0.1,0.1-0.2,0.2-0.4l0.1-0.1l0,0c0,0,0,0,0,0
				s0,0,0,0c0,0,0,0,0,0s0.1,0.1,0.2,0.2l0,0l-0.1,0c0,0-0.1,0-0.1,0c0,0-0.1,0-0.1,0c-0.1,0-0.2,0-0.2,0.1c-0.1,0-0.2,0-0.2,0.1
				c-0.4,0.1-0.7,0.2-1.1,0.3c-0.4,0.1-0.8,0.2-1.3,0.3c-0.9,0.2-1.8,0.3-2.6,0.3c-0.8,0.1-1.5,0.1-2.2,0.1c-0.7,0-1.2,0-1.8-0.1
				c-0.5,0-1-0.1-1.4-0.2c-0.4-0.1-0.7-0.1-1-0.2s-0.5-0.1-0.7-0.2c-0.2-0.1-0.3-0.1-0.4-0.1s-0.2-0.1-0.2-0.1
				c-0.1-0.1-0.3-0.1-0.3-0.2c-0.1-0.1-0.1-0.2-0.1-0.3c0-0.1,0.1-0.1,0.2-0.2c0.1,0,0.2,0,0.4,0c0,0,0.1,0,0.1,0.1
				c0.1,0,0.1,0.1,0.3,0.1c0.1,0,0.3,0.1,0.5,0.2c0.2,0.1,0.5,0.1,0.8,0.2c0.3,0.1,0.7,0.2,1.2,0.3c0.5,0.1,1,0.2,1.7,0.2
				c0.7,0.1,1.5,0.1,2.4,0.1c0.9,0,1.9-0.1,3.1-0.3c0.5-0.1,1-0.2,1.5-0.3c0.4-0.1,0.9-0.2,1.3-0.3c0,0,0.1,0,0.1,0
				c0.1,0,0.1,0,0.1,0l0.1,0l0,0h0c0,0,0,0,0,0c0,0,0,0,0,0v0l0,0.1c0,0.1-0.1,0.2-0.1,0.2c0,0.1-0.1,0.2-0.1,0.2
				c-0.1,0.2-0.2,0.3-0.2,0.4c-0.1,0.1-0.1,0.3-0.2,0.4c-0.3,0.5-0.5,1-0.7,1.4c-0.2,0.4-0.3,0.8-0.4,1.1c-0.1,0.3-0.2,0.7-0.3,1
				c0,0.2,0,0.3,0,0.5c0,0.2,0,0.3,0.1,0.5c0.1,0.1,0.2,0.2,0.4,0.3c0.2,0.1,0.4,0.1,0.6,0.1c0.2,0,0.5,0,0.8-0.1
				c0.3-0.1,0.6-0.1,0.9-0.2c0.4-0.1,0.8-0.2,1.2-0.4c0.4-0.1,0.7-0.2,1-0.3c0.3-0.1,0.6-0.2,0.8-0.3c0.3-0.1,0.5-0.2,0.7-0.3
				c0.2-0.1,0.4-0.2,0.7-0.3c0.2-0.1,0.4-0.2,0.6-0.3c0.2-0.1,0.4-0.2,0.6-0.3c0.2-0.1,0.4-0.2,0.7-0.3c0.8-0.4,1.5-0.7,2-1
				c0.6-0.3,1.1-0.5,1.5-0.7c0.4-0.2,0.8-0.4,1.1-0.6c0.3-0.2,0.6-0.3,0.8-0.4c0.2-0.1,0.4-0.2,0.5-0.3c0.1-0.1,0.3-0.1,0.4-0.2
				s0.2-0.1,0.3-0.2C75.2,113.8,75.3,113.8,75.4,113.7z"/>
			<path class="st0" d="M99.6,113.7c0-0.1-0.1-0.1-0.2-0.2c-0.1,0-0.2,0-0.3,0c-0.1,0.1-0.2,0.1-0.3,0.1c-0.1,0-0.2,0.1-0.3,0.2
				c-0.1,0.1-0.3,0.2-0.5,0.3c-0.2,0.1-0.5,0.2-0.9,0.4c-0.4,0.2-0.8,0.4-1.4,0.6c-0.6,0.2-1.2,0.5-2.1,0.8
				c-0.8,0.3-1.8,0.7-2.9,1.1c-1.1,0.4-2.4,0.9-4,1.3c-1,0.3-1.9,0.6-2.8,0.8c-0.9,0.2-1.7,0.4-2.5,0.5c-0.8,0.1-1.5,0.2-2.2,0.2
				c-0.7,0-1.3,0-1.9-0.1c-0.6-0.1-1.1-0.2-1.5-0.4c-0.2-0.1-0.4-0.2-0.6-0.4c-0.2-0.1-0.3-0.3-0.4-0.5c-0.1-0.2-0.2-0.3-0.2-0.5
				c0-0.2-0.1-0.3-0.1-0.5c0-0.3,0-0.6,0.1-0.9c0.1-0.3,0.1-0.5,0.2-0.7s0.1-0.4,0.2-0.5c0.1-0.3,0.3-0.5,0.4-0.7
				c0.1-0.2,0.2-0.3,0.2-0.3c0-0.1,0.1-0.1,0.1-0.2c0.1-0.1,0.1-0.2,0.1-0.3c0-0.1-0.1-0.2-0.1-0.2c-0.1-0.1-0.2-0.1-0.3,0
				c-0.1,0-0.2,0.1-0.3,0.2c0,0-0.1,0.1-0.1,0.3c-0.1,0.1-0.2,0.4-0.3,0.6c-0.1,0.1-0.1,0.3-0.2,0.5c-0.1,0.2-0.1,0.4-0.2,0.6
				c-0.1,0.2-0.1,0.5-0.2,0.8c0,0.3-0.1,0.6,0,1c0,0.2,0.1,0.3,0.1,0.5c0.1,0.2,0.1,0.4,0.2,0.5c0.2,0.4,0.5,0.7,0.9,0.9
				c0.4,0.2,0.9,0.4,1.4,0.5c0.5,0.1,1,0.1,1.6,0.1c1.1,0,2.4-0.2,3.8-0.5c1.4-0.3,2.9-0.7,4.5-1.2c1.6-0.5,3.1-1,4.3-1.4
				c1.2-0.4,2.2-0.8,3.1-1.1c0.9-0.3,1.6-0.6,2.2-0.8c0.6-0.2,1.1-0.4,1.4-0.5c0.4-0.1,0.6-0.2,0.8-0.3c0.2-0.1,0.3-0.1,0.4-0.1
				c0.1,0,0.2,0,0.2-0.1c0,0,0.1,0,0.1,0c0.1-0.1,0.2-0.1,0.2-0.2C99.7,113.9,99.7,113.8,99.6,113.7z"/>
			<path class="st0" d="M129.8,114c0.1-0.1,0.3-0.2,0.4-0.2c0.1,0,0.2,0,0.3,0.1c0.1,0.1,0.1,0.2,0,0.3c-0.1,0.1-0.2,0.2-0.3,0.4
				c0,0-0.1,0.1-0.1,0.1c0,0-0.1,0-0.2,0.1c-0.1,0-0.2,0.1-0.3,0.2c-0.1,0.1-0.3,0.2-0.5,0.4c-0.2,0.2-0.5,0.4-0.9,0.6
				c-0.4,0.2-0.8,0.5-1.4,0.9c-0.3,0.2-0.6,0.4-0.9,0.5c-0.3,0.2-0.7,0.4-1.1,0.6c-0.4,0.2-0.9,0.4-1.3,0.6c-0.5,0.2-1,0.4-1.6,0.6
				c-0.6,0.2-1.3,0.4-2,0.6c-0.7,0.2-1.5,0.3-2.4,0.3c-0.4,0-0.9,0-1.3-0.1c-0.5-0.1-0.9-0.2-1.4-0.3c-0.5-0.2-0.9-0.4-1.4-0.6
				c-0.5-0.3-0.9-0.6-1.3-1c-0.5-0.5-0.9-0.9-1.2-1.4c-0.3-0.4-0.6-0.8-0.8-1.2c-0.1-0.2-0.2-0.4-0.3-0.5c-0.1-0.2-0.2-0.3-0.2-0.5
				c0,0,0-0.1-0.1-0.1c0,0,0-0.1-0.1-0.1l-0.1-0.1l0-0.1v0c0.2,0.1,0.3,0.1,0.3,0.1c0,0,0.1,0,0.1,0c0,0,0,0-0.1,0c0,0,0,0,0,0h0
				l0,0c-0.1,0-0.2,0.1-0.2,0.1c-0.1,0-0.2,0.1-0.2,0.1c-0.4,0.2-0.7,0.3-1.1,0.5c-0.4,0.2-0.9,0.5-1.4,0.8
				c-0.5,0.3-1.2,0.7-1.9,1.2c-0.7,0.5-1.5,1-2.5,1.6c-0.5,0.3-1,0.6-1.4,0.8c-0.5,0.3-0.9,0.5-1.4,0.7c-0.2,0.1-0.5,0.2-0.7,0.3
				c-0.2,0.1-0.5,0.1-0.7,0.2c-0.2,0-0.4,0.1-0.7,0.1c-0.2,0-0.5,0-0.7-0.1c0,0-0.1,0-0.1,0c0,0-0.1,0-0.1,0l0,0l-0.1,0
				c0,0-0.1-0.1-0.1-0.1c0-0.1-0.1-0.2-0.1-0.2c0-0.1,0-0.1,0-0.2c0-0.1,0-0.2,0.1-0.3c0-0.1,0.1-0.2,0.1-0.3
				c0.1-0.2,0.1-0.3,0.2-0.5c0.1-0.2,0.1-0.3,0.2-0.4c0.1-0.3,0.3-0.5,0.4-0.8c0.1-0.2,0.3-0.5,0.4-0.7c0.2-0.4,0.4-0.8,0.6-1.1
				c0.2-0.3,0.3-0.5,0.4-0.7c0.1-0.2,0.2-0.4,0.3-0.5c0.1-0.1,0.1-0.2,0.1-0.2c0.1-0.2,0.2-0.3,0.3-0.3c0.1-0.1,0.2-0.1,0.3,0
				c0.1,0.1,0.1,0.1,0.1,0.3c0,0.1-0.1,0.3-0.2,0.4c0,0.1-0.1,0.1-0.1,0.2c0,0.1-0.1,0.2-0.2,0.3c-0.1,0.1-0.2,0.3-0.4,0.5
				c-0.1,0.2-0.3,0.5-0.6,0.8c-0.1,0.2-0.2,0.4-0.4,0.6c-0.1,0.2-0.3,0.4-0.4,0.7c-0.1,0.1-0.2,0.3-0.2,0.4
				c-0.1,0.1-0.2,0.3-0.2,0.4c-0.1,0.2-0.2,0.3-0.2,0.5s-0.1,0.3-0.2,0.5c0,0,0,0.1,0,0.1c0,0,0,0.1,0,0.1c0,0,0,0.1,0,0.1
				c0,0,0,0.1,0,0c0,0,0,0,0,0c0,0,0,0,0,0c0,0,0,0,0,0c0,0,0,0,0,0c0,0,0.1,0,0.1,0c0,0,0.1,0,0.1,0c0.1,0,0.1,0,0.2,0
				c0.1,0,0.1,0,0.2,0c0.2,0,0.5,0,0.7,0c0.2,0,0.5-0.1,0.8-0.2c0.5-0.2,1-0.4,1.6-0.7c0.6-0.3,1.1-0.6,1.7-1c0.6-0.3,1.1-0.7,1.6-1
				c0.5-0.3,0.9-0.6,1.3-0.8c0.4-0.3,0.8-0.5,1.1-0.7c0.4-0.2,0.7-0.4,1-0.6c0.3-0.2,0.6-0.3,0.9-0.5c0.3-0.1,0.5-0.3,0.8-0.4
				l0.7-0.3l0.1-0.1l0,0l0,0h0h0c0,0,0,0,0,0c0,0,0.1,0,0.1,0c0,0,0,0,0.1,0c0,0,0,0,0,0c0,0.1,0.1,0.1,0.1,0.1
				c0,0.1,0.1,0.1,0.1,0.2c0,0.1,0.1,0.1,0.1,0.1c0.2,0.4,0.4,0.7,0.6,1.1c0.2,0.3,0.5,0.7,0.8,1c0.1,0.2,0.3,0.4,0.5,0.6
				c0.2,0.2,0.4,0.4,0.6,0.6c0.2,0.2,0.5,0.4,0.8,0.6c0.3,0.2,0.6,0.4,1,0.6c0.5,0.3,1,0.4,1.4,0.6c0.4,0.1,0.9,0.2,1.2,0.2
				c0.4,0.1,0.7,0.1,1.1,0.1c0.3,0,0.6,0,0.9,0c0.3,0,0.6-0.1,0.8-0.1c0.3,0,0.5-0.1,0.8-0.2c0.3-0.1,0.5-0.1,0.8-0.2
				c0.3-0.1,0.6-0.2,0.9-0.3c1-0.4,1.8-0.7,2.5-1.1c0.7-0.4,1.3-0.7,1.8-1c0.5-0.3,0.9-0.6,1.2-0.8c0.3-0.2,0.6-0.4,0.8-0.6
				c0.2-0.2,0.4-0.3,0.6-0.4c0.1-0.1,0.3-0.2,0.4-0.3c0.1-0.1,0.2-0.2,0.3-0.2C129.5,114.1,129.6,114.1,129.8,114z"/>
			<path class="st0" d="M192.1,113.8c0,0.1,0,0.2-0.1,0.3c-0.1,0.1-0.3,0.3-0.4,0.4c-0.1,0-0.1,0.1-0.2,0.1c0,0-0.1,0.1-0.2,0.1
				c-0.1,0-0.2,0.1-0.4,0.2c-0.2,0.1-0.4,0.2-0.7,0.4c-0.3,0.2-0.7,0.4-1.2,0.6c-0.5,0.3-1.1,0.6-1.9,1c-0.4,0.2-0.8,0.4-1.2,0.6
				c-0.4,0.2-0.9,0.4-1.5,0.7c-0.5,0.2-1.1,0.5-1.7,0.7c-0.6,0.3-1.3,0.5-2,0.7c-0.4,0.1-0.9,0.2-1.3,0.2c-0.2,0-0.5,0-0.7-0.1
				c-0.2,0-0.5-0.1-0.7-0.2c-0.5-0.2-0.9-0.5-1.3-0.9c-0.4-0.4-0.7-0.8-1-1.3c-0.3-0.5-0.5-1-0.7-1.6c0-0.1-0.1-0.2-0.1-0.2
				c0-0.1,0-0.2-0.1-0.2c-0.1,0-0.1,0.1-0.2,0.1c-0.1,0-0.1,0.1-0.2,0.1c-0.5,0.4-1,0.8-1.5,1.2c-0.5,0.4-1.1,0.8-1.7,1.2
				c-0.8,0.5-1.4,0.9-2,1.2c-0.6,0.3-1.1,0.5-1.6,0.7c-0.2,0.1-0.5,0.2-0.7,0.2c-0.2,0.1-0.5,0.1-0.7,0.1c-0.2,0-0.5,0-0.7,0
				c-0.3,0-0.5-0.1-0.8-0.2c-0.3-0.1-0.5-0.2-0.7-0.4s-0.4-0.4-0.6-0.7c-0.3-0.5-0.5-1.2-0.7-2c-0.1-0.4-0.1-0.8-0.1-1.3
				c0-0.4,0-0.9,0-1.4l-0.2,0.2c-0.1,0.1-0.3,0.2-0.4,0.2c-0.1,0.1-0.3,0.2-0.4,0.2c-0.3,0.2-0.6,0.3-0.8,0.5
				c-0.3,0.2-0.6,0.4-0.9,0.6c-1.3,0.8-2.4,1.5-3.5,2.1c-1.1,0.6-2,1.1-3,1.6c-0.2,0.1-0.4,0.2-0.7,0.3c-0.2,0.1-0.5,0.2-0.7,0.2
				c-0.1,0-0.2,0.1-0.3,0.1c-0.1,0-0.2,0-0.4,0c-0.1,0-0.2,0-0.2-0.1c0,0-0.1,0-0.1-0.1c0,0-0.1-0.1-0.1-0.1c0,0,0-0.1,0-0.1
				c0,0,0-0.1,0-0.1c0-0.1,0-0.2,0-0.2c0-0.1,0-0.1,0-0.2c0.1-0.2,0.1-0.4,0.2-0.6c0.1-0.2,0.1-0.3,0.2-0.5c0.1-0.2,0.2-0.3,0.2-0.5
				c0.1-0.1,0.1-0.3,0.2-0.4c0.3-0.5,0.5-1,0.7-1.4c0.2-0.4,0.4-0.7,0.5-1c0.2-0.3,0.3-0.5,0.4-0.6c0.1-0.1,0.1-0.2,0.2-0.3
				c0.1-0.2,0.2-0.3,0.4-0.4c0.1-0.1,0.3-0.1,0.3-0.1c0.1,0.1,0.1,0.2,0.1,0.3c0,0.2-0.1,0.4-0.2,0.6c0,0.1-0.1,0.1-0.1,0.2
				c-0.1,0.1-0.1,0.2-0.2,0.4c-0.1,0.2-0.2,0.4-0.4,0.7c-0.2,0.3-0.4,0.6-0.7,1.1c-0.1,0.2-0.3,0.5-0.4,0.7
				c-0.2,0.3-0.3,0.6-0.5,0.9c-0.1,0.2-0.2,0.4-0.2,0.5c-0.1,0.2-0.2,0.4-0.2,0.6c0,0.1,0,0.1,0,0.1c0.1,0,0.1,0,0.2,0
				c0.1,0,0.2,0,0.3-0.1c0.1,0,0.2-0.1,0.4-0.1c0.5-0.2,1-0.4,1.6-0.7c0.5-0.3,1.1-0.6,1.8-0.9c0.6-0.3,1.3-0.7,2-1.1
				c0.7-0.4,1.4-0.8,2.2-1.3c0.4-0.2,0.7-0.4,1-0.6c0.3-0.2,0.6-0.4,0.9-0.6c0.2-0.1,0.3-0.2,0.4-0.3s0.3-0.2,0.4-0.3l0,0v-0.1
				c0,0,0,0,0,0c0,0,0,0,0,0c0,0,0,0,0,0c0,0,0,0,0.1,0.1h0l0.1,0l0,0h0c0,0,0,0,0,0c0,0,0,0,0.1,0v0v0.1c0,0,0,0,0.1,0l0,0l0,0l0,0
				v0.1c0,0.1,0,0.2,0,0.2c0,0.1,0,0.2,0,0.2c0,0.6,0,1.2,0.1,1.7c0.1,0.5,0.2,1,0.3,1.4c0.1,0.4,0.3,0.8,0.5,1.1
				c0.2,0.3,0.5,0.6,0.7,0.7c0.3,0.2,0.6,0.3,0.9,0.3c0.3,0,0.6,0,0.8-0.1c0.3-0.1,0.5-0.1,0.8-0.2c0.2-0.1,0.5-0.2,0.7-0.3
				s0.5-0.2,0.7-0.3c0.2-0.1,0.5-0.3,0.8-0.4c0.5-0.3,1.1-0.7,1.8-1.1c0.6-0.4,1.4-0.9,2.3-1.6c0.5-0.4,1-0.8,1.4-1.1v0h0
				c0,0,0,0,0.1,0c0,0,0,0,0.1,0l0,0l0,0h0v0c0.1,0,0.2,0.1,0.2,0.1c0,0,0,0,0,0c0,0,0,0,0,0c0,0,0,0,0,0v0c0,0,0,0,0,0.1
				c0,0,0,0,0,0.1c0,0,0,0,0,0.1c0,0,0,0,0,0.1c0.1,0,0.1,0,0.1,0c0,0,0,0-0.1,0h0c0,0,0,0,0,0.1c0,0.1,0,0.1,0.1,0.2s0,0.1,0.1,0.2
				c0,0.1,0.1,0.3,0.1,0.4c0,0.1,0.1,0.2,0.1,0.4c0.3,0.9,0.8,1.7,1.3,2.2c0.5,0.6,1.1,0.9,1.8,1.1c0.3,0.1,0.7,0.1,1,0.1
				c0.4,0,0.7-0.1,1.1-0.2c0.6-0.2,1.2-0.4,1.7-0.6c0.5-0.2,1-0.4,1.5-0.7c0.5-0.2,0.9-0.4,1.3-0.6c0.4-0.2,0.7-0.4,1.1-0.6
				c0.7-0.4,1.2-0.7,1.7-0.9c0.5-0.3,0.8-0.5,1.2-0.7c0.3-0.2,0.6-0.3,0.8-0.5s0.4-0.2,0.5-0.3c0.2-0.1,0.3-0.2,0.4-0.3
				c0.1-0.1,0.3-0.2,0.4-0.3c0.2-0.1,0.4-0.2,0.6-0.2S192,113.7,192.1,113.8z"/>
			<path class="st0" d="M208.7,113.7c0.1,0,0.2-0.1,0.3,0c0.1,0,0.2,0.1,0.2,0.2c0,0.1,0,0.2,0,0.3c0,0.1-0.1,0.2-0.2,0.2
				c0,0-0.1,0-0.1,0c0,0-0.1,0-0.1,0c-0.1,0-0.1,0-0.2,0.1c-0.1,0-0.2,0.1-0.4,0.1c-0.2,0.1-0.4,0.1-0.7,0.2c-0.3,0.1-0.6,0.2-1,0.4
				c-0.4,0.1-0.9,0.3-1.4,0.5c-0.6,0.2-1.2,0.4-2,0.6c-0.4,0.1-0.9,0.2-1.3,0.3c-0.5,0.1-1,0.2-1.5,0.3c-0.6,0.1-1.1,0.2-1.8,0.3
				c-0.6,0.1-1.3,0.1-2,0.1c-0.5,0-0.9,0-1.2,0c-0.3,0-0.6,0-0.9-0.1c-0.3,0-0.5,0-0.6-0.1c-0.1,0.1-0.1,0.1-0.1,0.1
				c0,0.1-0.1,0.1-0.1,0.1c0,0-0.1,0.1-0.1,0.1c-0.2,0.2-0.4,0.4-0.6,0.6c-0.2,0.2-0.4,0.5-0.8,0.8c-0.1,0.1-0.3,0.3-0.5,0.4
				c-0.2,0.2-0.4,0.3-0.7,0.4c-0.1,0.1-0.3,0.1-0.4,0.2c-0.1,0.1-0.3,0.1-0.5,0.2c-0.1,0-0.2,0-0.3,0.1c-0.1,0-0.2,0-0.3,0
				c0,0-0.1,0-0.2,0c0,0-0.1,0-0.1,0h0h0h0h0h0c-0.1,0-0.2,0-0.3-0.1c-0.2-0.1-0.4-0.2-0.5-0.4c-0.1-0.2-0.2-0.4-0.2-0.5
				c-0.1-0.2-0.1-0.4-0.1-0.5c0-0.2,0-0.3,0-0.5c0-0.2,0-0.3,0-0.5c0-0.2,0-0.3,0-0.4c0-0.1,0-0.3,0.1-0.4s0.1-0.3,0.1-0.4
				c0.1-0.3,0.2-0.5,0.3-0.7c0.1-0.2,0.2-0.4,0.4-0.6c0.1-0.2,0.3-0.3,0.4-0.5c0.1-0.1,0.3-0.2,0.4-0.3c0.3-0.2,0.5-0.3,0.7-0.4
				c0.2-0.1,0.4-0.2,0.6-0.2c0.2,0,0.3-0.1,0.4-0.1c0.1,0,0.1,0,0.2,0c0.1,0,0.2,0,0.3,0.1c0.1,0.1,0.1,0.1,0.1,0.2
				c0,0.1,0,0.2-0.1,0.2c-0.1,0.1-0.2,0.1-0.3,0.1c0,0-0.1,0-0.1,0c0,0-0.1,0-0.2,0c-0.1,0-0.2,0-0.4,0.1c-0.2,0-0.3,0.1-0.6,0.2
				c-0.1,0.1-0.2,0.1-0.4,0.2c-0.1,0.1-0.3,0.2-0.4,0.3c-0.1,0.1-0.3,0.3-0.4,0.4c-0.1,0.2-0.3,0.4-0.4,0.6
				c-0.1,0.2-0.2,0.5-0.3,0.8c-0.1,0.3-0.1,0.6-0.2,1c0,0.2,0,0.4,0,0.5c0,0.2,0,0.4,0,0.6c0,0.2,0.1,0.4,0.2,0.6
				c0.1,0.2,0.2,0.3,0.4,0.4c0.2,0.1,0.4,0.1,0.6,0.1c0.2,0,0.4-0.1,0.6-0.1c0.2-0.1,0.3-0.1,0.5-0.2c0.1-0.1,0.3-0.2,0.4-0.3
				c0.3-0.2,0.5-0.3,0.7-0.5c0.2-0.2,0.4-0.4,0.5-0.5c0.2-0.2,0.3-0.3,0.4-0.5c0.1-0.2,0.2-0.3,0.3-0.4c0.1-0.1,0.1-0.1,0.1-0.2
				c0-0.1,0.1-0.1,0.1-0.2c0,0,0-0.1,0.1-0.1c0,0,0-0.1,0.1-0.1l0.1-0.1l0,0l0,0c0,0,0,0,0,0c0,0,0,0,0.1-0.1h0.1c0.3,0,0.6,0,0.8,0
				c0.3,0,0.6,0,0.9,0c0.3,0,0.7,0,1.1,0c0.4,0,0.9,0,1.4,0c0.7,0,1.3,0,1.8-0.1c0.5-0.1,0.9-0.1,1.3-0.2c0.4-0.1,0.7-0.1,1.1-0.2
				c0.3-0.1,0.7-0.2,1.1-0.3c0.6-0.2,1.2-0.4,1.7-0.5s0.9-0.3,1.3-0.5c0.4-0.1,0.7-0.3,0.9-0.4c0.2-0.1,0.4-0.2,0.6-0.3
				c0.2-0.1,0.3-0.2,0.4-0.2c0.1-0.1,0.2-0.1,0.3-0.2c0.1,0,0.2-0.1,0.2-0.1C208.6,113.8,208.6,113.8,208.7,113.7z"/>
			<path class="st0" d="M239.5,114c0.1-0.1,0.3-0.2,0.4-0.2c0.1,0,0.2,0,0.3,0.1c0.1,0.1,0.1,0.2,0,0.3c-0.1,0.1-0.2,0.2-0.3,0.4
				c0,0-0.1,0.1-0.1,0.1c0,0-0.1,0-0.2,0.1c-0.1,0-0.2,0.1-0.3,0.2c-0.1,0.1-0.3,0.2-0.5,0.4c-0.2,0.2-0.5,0.4-0.9,0.6
				c-0.4,0.2-0.8,0.5-1.4,0.9c-0.3,0.2-0.6,0.4-0.9,0.5c-0.3,0.2-0.7,0.4-1.1,0.6c-0.4,0.2-0.9,0.4-1.3,0.6c-0.5,0.2-1,0.4-1.6,0.6
				c-0.6,0.2-1.3,0.4-2,0.6c-0.7,0.2-1.5,0.3-2.4,0.3c-0.4,0-0.9,0-1.3-0.1c-0.5-0.1-0.9-0.2-1.4-0.3c-0.5-0.2-0.9-0.4-1.4-0.6
				s-0.9-0.6-1.3-1c-0.5-0.5-0.9-0.9-1.2-1.4c-0.3-0.4-0.6-0.8-0.8-1.2c-0.1-0.2-0.2-0.4-0.3-0.5c-0.1-0.2-0.2-0.3-0.2-0.5
				c0,0,0-0.1-0.1-0.1c0,0,0-0.1-0.1-0.1l-0.1-0.1l0-0.1v0c0.2,0.1,0.3,0.1,0.3,0.1c0,0,0.1,0,0.1,0c0,0,0,0-0.1,0c0,0,0,0,0,0h0
				l0,0c-0.1,0-0.2,0.1-0.2,0.1c-0.1,0-0.2,0.1-0.2,0.1c-0.4,0.2-0.7,0.3-1.1,0.5c-0.4,0.2-0.9,0.5-1.4,0.8
				c-0.5,0.3-1.2,0.7-1.9,1.2c-0.7,0.5-1.5,1-2.5,1.6c-0.5,0.3-1,0.6-1.4,0.8c-0.5,0.3-0.9,0.5-1.4,0.7c-0.2,0.1-0.5,0.2-0.7,0.3
				c-0.2,0.1-0.5,0.1-0.7,0.2c-0.2,0-0.4,0.1-0.7,0.1c-0.2,0-0.5,0-0.7-0.1c0,0-0.1,0-0.1,0c0,0-0.1,0-0.1,0l0,0l-0.1,0
				c0,0-0.1-0.1-0.1-0.1c0-0.1-0.1-0.2-0.1-0.2c0-0.1,0-0.1,0-0.2c0-0.1,0-0.2,0.1-0.3c0-0.1,0.1-0.2,0.1-0.3
				c0.1-0.2,0.1-0.3,0.2-0.5c0.1-0.2,0.1-0.3,0.2-0.4c0.1-0.3,0.3-0.5,0.4-0.8c0.1-0.2,0.3-0.5,0.4-0.7c0.2-0.4,0.4-0.8,0.6-1.1
				c0.2-0.3,0.3-0.5,0.4-0.7c0.1-0.2,0.2-0.4,0.3-0.5c0.1-0.1,0.1-0.2,0.1-0.2c0.1-0.2,0.2-0.3,0.3-0.3c0.1-0.1,0.2-0.1,0.3,0
				c0.1,0.1,0.1,0.1,0.1,0.3c0,0.1-0.1,0.3-0.2,0.4c0,0.1-0.1,0.1-0.1,0.2c0,0.1-0.1,0.2-0.2,0.3c-0.1,0.1-0.2,0.3-0.4,0.5
				c-0.1,0.2-0.3,0.5-0.6,0.8c-0.1,0.2-0.2,0.4-0.4,0.6c-0.1,0.2-0.3,0.4-0.4,0.7c-0.1,0.1-0.2,0.3-0.2,0.4
				c-0.1,0.1-0.2,0.3-0.2,0.4c-0.1,0.2-0.2,0.3-0.2,0.5s-0.1,0.3-0.2,0.5c0,0,0,0.1,0,0.1c0,0,0,0.1,0,0.1c0,0,0,0.1,0,0.1
				c0,0,0,0.1,0,0c0,0,0,0,0,0s0,0,0,0c0,0,0,0,0,0c0,0,0,0,0,0c0,0,0.1,0,0.1,0c0,0,0.1,0,0.1,0c0.1,0,0.1,0,0.2,0
				c0.1,0,0.1,0,0.2,0c0.2,0,0.5,0,0.7,0c0.2,0,0.5-0.1,0.8-0.2c0.5-0.2,1-0.4,1.6-0.7c0.6-0.3,1.1-0.6,1.7-1c0.6-0.3,1.1-0.7,1.6-1
				c0.5-0.3,0.9-0.6,1.3-0.8c0.4-0.3,0.8-0.5,1.1-0.7c0.4-0.2,0.7-0.4,1-0.6c0.3-0.2,0.6-0.3,0.9-0.5c0.3-0.1,0.5-0.3,0.8-0.4
				l0.7-0.3l0.1-0.1l0,0l0,0h0h0c0,0,0,0,0,0c0,0,0.1,0,0.1,0c0,0,0,0,0.1,0c0,0,0,0,0,0c0,0.1,0.1,0.1,0.1,0.1
				c0,0.1,0.1,0.1,0.1,0.2c0,0.1,0.1,0.1,0.1,0.1c0.2,0.4,0.4,0.7,0.6,1.1c0.2,0.3,0.5,0.7,0.8,1c0.1,0.2,0.3,0.4,0.5,0.6
				c0.2,0.2,0.4,0.4,0.6,0.6c0.2,0.2,0.5,0.4,0.8,0.6c0.3,0.2,0.6,0.4,1,0.6c0.5,0.3,1,0.4,1.4,0.6c0.4,0.1,0.9,0.2,1.2,0.2
				c0.4,0.1,0.7,0.1,1.1,0.1c0.3,0,0.6,0,0.9,0c0.3,0,0.6-0.1,0.8-0.1c0.3,0,0.5-0.1,0.8-0.2c0.3-0.1,0.5-0.1,0.8-0.2
				c0.3-0.1,0.6-0.2,0.9-0.3c1-0.4,1.8-0.7,2.5-1.1c0.7-0.4,1.3-0.7,1.8-1c0.5-0.3,0.9-0.6,1.2-0.8c0.3-0.2,0.6-0.4,0.8-0.6
				c0.2-0.2,0.4-0.3,0.6-0.4c0.1-0.1,0.3-0.2,0.4-0.3c0.1-0.1,0.2-0.2,0.3-0.2C239.3,114.1,239.4,114.1,239.5,114z"/>
			<path class="st0" d="M258.7,113.8c0.1-0.1,0.2-0.1,0.3-0.1c0.1,0,0.2,0,0.2,0.1c0.1,0.1,0.1,0.2,0.1,0.3c0,0.1-0.1,0.2-0.2,0.3
				c0,0-0.1,0-0.1,0.1c0,0-0.1,0.1-0.2,0.1c-0.1,0.1-0.2,0.1-0.4,0.2c-0.2,0.1-0.4,0.3-0.7,0.5c-0.3,0.2-0.7,0.5-1.2,0.8
				c-0.5,0.3-1.1,0.7-1.9,1.1c-0.4,0.2-0.8,0.4-1.3,0.7c-0.5,0.2-1,0.5-1.6,0.7c-0.6,0.2-1.2,0.5-1.9,0.7c-0.7,0.2-1.4,0.4-2.2,0.6
				c-1.6,0.4-3,0.5-4.4,0.6c-0.7,0-1.3,0-1.9-0.1c-0.6-0.1-1.2-0.2-1.7-0.4c-0.3-0.1-0.5-0.2-0.7-0.4c-0.2-0.1-0.4-0.3-0.6-0.5
				c-0.1-0.1-0.1-0.2-0.2-0.3c-0.1-0.1-0.1-0.2-0.1-0.3c0-0.1-0.1-0.2-0.1-0.4c0-0.1,0-0.2,0-0.3c0-0.4,0.1-0.8,0.2-1.2
				c0.1-0.4,0.2-0.7,0.4-1c0.1-0.3,0.3-0.5,0.5-0.8c0.2-0.2,0.3-0.4,0.5-0.6c0.2-0.2,0.3-0.3,0.5-0.4c0.2-0.1,0.3-0.2,0.4-0.3
				c0.2-0.1,0.4-0.2,0.6-0.3c0.1-0.1,0.2-0.1,0.3-0.1c0.1,0,0.2,0,0.3,0c0.1,0,0.2,0.1,0.2,0.2c0,0.1,0,0.2-0.1,0.3
				c-0.1,0.1-0.1,0.1-0.2,0.2c0,0-0.1,0-0.2,0.1c-0.1,0-0.2,0.1-0.3,0.1c-0.1,0-0.2,0.1-0.3,0.1c-0.1,0-0.2,0.1-0.4,0.2
				c-0.1,0.1-0.3,0.2-0.4,0.3c-0.2,0.1-0.3,0.3-0.5,0.5c-0.2,0.2-0.3,0.4-0.5,0.7c-0.2,0.3-0.3,0.6-0.4,1c-0.1,0.2-0.1,0.4-0.1,0.6
				c0,0.2-0.1,0.4-0.1,0.7c0,0.2,0,0.4,0.1,0.7c0.1,0.2,0.3,0.4,0.5,0.6c0.2,0.2,0.4,0.3,0.7,0.5c0.3,0.1,0.6,0.2,0.9,0.3
				c0.6,0.2,1.3,0.3,2,0.3c0.8,0,1.6,0,2.4-0.1c0.8-0.1,1.8-0.2,2.7-0.5c0.7-0.2,1.4-0.4,2-0.6s1.2-0.4,1.7-0.6
				c0.5-0.2,1-0.4,1.5-0.7c0.4-0.2,0.8-0.4,1.2-0.6c0.7-0.4,1.3-0.8,1.8-1.1c0.5-0.3,0.9-0.6,1.2-0.8c0.3-0.2,0.5-0.4,0.7-0.6
				c0.2-0.1,0.3-0.3,0.4-0.4c0.1-0.1,0.2-0.2,0.3-0.2C258.5,113.9,258.6,113.9,258.7,113.8z"/>
			<path class="st0" d="M286.2,113.7c0.1-0.1,0.3-0.1,0.4-0.1c0.1,0,0.2,0.1,0.2,0.2c0,0.1,0,0.2,0,0.3c-0.1,0.1-0.2,0.2-0.3,0.2
				c0,0-0.1,0-0.1,0c0,0-0.1,0-0.1,0.1c-0.1,0-0.2,0.1-0.3,0.1c-0.1,0-0.3,0.1-0.5,0.2c-0.2,0.1-0.5,0.2-0.8,0.3
				c-0.3,0.1-0.7,0.3-1.2,0.5c-0.5,0.2-1.1,0.5-1.8,0.8c-0.7,0.3-1.5,0.7-2.4,1c-0.5,0.2-1,0.5-1.6,0.7c-0.6,0.3-1.2,0.5-1.8,0.8
				c-0.3,0.1-0.7,0.3-1,0.4c-0.3,0.1-0.7,0.3-1.1,0.4c-0.4,0.1-0.8,0.3-1.2,0.4s-0.9,0.2-1.3,0.2c-0.2,0-0.3,0-0.5,0
				c-0.2,0-0.3,0-0.5-0.1c-0.1,0-0.1-0.1-0.2-0.1c-0.1,0-0.1-0.1-0.2-0.2c-0.1-0.1-0.2-0.3-0.2-0.4c-0.1-0.1-0.1-0.3-0.1-0.4
				c0-0.1,0-0.2,0-0.3c0-0.1,0-0.2,0.1-0.3c0-0.1,0-0.2,0.1-0.3c0.1-0.3,0.2-0.6,0.3-0.9c0.1-0.3,0.3-0.5,0.4-0.8
				c0.1-0.3,0.3-0.6,0.5-0.9c0.2-0.3,0.4-0.7,0.6-1.2c0.1-0.1,0.1-0.2,0.2-0.4c0.1-0.1,0.1-0.2,0.2-0.4l0.1-0.1l0,0c0,0,0,0,0,0
				c0,0,0,0,0,0c0,0,0,0,0,0c0,0,0.1,0.1,0.2,0.2l0,0l-0.1,0c0,0-0.1,0-0.1,0c0,0-0.1,0-0.1,0c-0.1,0-0.2,0-0.2,0.1
				c-0.1,0-0.2,0-0.2,0.1c-0.4,0.1-0.7,0.2-1.1,0.3c-0.4,0.1-0.8,0.2-1.3,0.3c-0.9,0.2-1.8,0.3-2.6,0.3c-0.8,0.1-1.5,0.1-2.2,0.1
				c-0.7,0-1.2,0-1.8-0.1c-0.5,0-1-0.1-1.4-0.2c-0.4-0.1-0.7-0.1-1-0.2s-0.5-0.1-0.7-0.2c-0.2-0.1-0.3-0.1-0.4-0.1
				c-0.1,0-0.2-0.1-0.2-0.1c-0.1-0.1-0.3-0.1-0.3-0.2c-0.1-0.1-0.1-0.2-0.1-0.3c0-0.1,0.1-0.1,0.2-0.2c0.1,0,0.2,0,0.4,0
				c0,0,0.1,0,0.1,0.1c0.1,0,0.1,0.1,0.3,0.1c0.1,0,0.3,0.1,0.5,0.2c0.2,0.1,0.5,0.1,0.8,0.2c0.3,0.1,0.7,0.2,1.2,0.3
				c0.5,0.1,1,0.2,1.7,0.2c0.7,0.1,1.5,0.1,2.4,0.1c0.9,0,1.9-0.1,3.1-0.3c0.5-0.1,1-0.2,1.5-0.3c0.4-0.1,0.9-0.2,1.3-0.3
				c0,0,0.1,0,0.1,0c0.1,0,0.1,0,0.1,0l0.1,0l0,0h0c0,0,0,0,0,0c0,0,0,0,0,0v0l0,0.1c0,0.1-0.1,0.2-0.1,0.2c0,0.1-0.1,0.2-0.1,0.2
				c-0.1,0.2-0.2,0.3-0.2,0.4c-0.1,0.1-0.1,0.3-0.2,0.4c-0.3,0.5-0.5,1-0.7,1.4c-0.2,0.4-0.3,0.8-0.4,1.1c-0.1,0.3-0.2,0.7-0.3,1
				c0,0.2,0,0.3,0,0.5c0,0.2,0,0.3,0.1,0.5c0.1,0.1,0.2,0.2,0.4,0.3c0.2,0.1,0.4,0.1,0.6,0.1c0.2,0,0.5,0,0.8-0.1
				c0.3-0.1,0.6-0.1,0.9-0.2c0.4-0.1,0.8-0.2,1.2-0.4c0.4-0.1,0.7-0.2,1-0.3c0.3-0.1,0.6-0.2,0.8-0.3c0.3-0.1,0.5-0.2,0.7-0.3
				c0.2-0.1,0.4-0.2,0.7-0.3c0.2-0.1,0.4-0.2,0.6-0.3c0.2-0.1,0.4-0.2,0.6-0.3c0.2-0.1,0.4-0.2,0.7-0.3c0.8-0.4,1.5-0.7,2-1
				c0.6-0.3,1.1-0.5,1.5-0.7c0.4-0.2,0.8-0.4,1.1-0.6c0.3-0.2,0.6-0.3,0.8-0.4c0.2-0.1,0.4-0.2,0.5-0.3c0.1-0.1,0.3-0.1,0.4-0.2
				c0.1-0.1,0.2-0.1,0.3-0.2C286,113.8,286.1,113.8,286.2,113.7z"/>
			<path class="st0" d="M310.5,113.7c0-0.1-0.1-0.1-0.2-0.2c-0.1,0-0.2,0-0.3,0c-0.1,0.1-0.2,0.1-0.3,0.1c-0.1,0-0.2,0.1-0.3,0.2
				c-0.1,0.1-0.3,0.2-0.5,0.3c-0.2,0.1-0.5,0.2-0.9,0.4c-0.4,0.2-0.8,0.4-1.4,0.6c-0.6,0.2-1.2,0.5-2.1,0.8
				c-0.8,0.3-1.8,0.7-2.9,1.1c-1.1,0.4-2.4,0.9-4,1.3c-1,0.3-1.9,0.6-2.8,0.8s-1.7,0.4-2.5,0.5c-0.8,0.1-1.5,0.2-2.2,0.2
				c-0.7,0-1.3,0-1.9-0.1c-0.6-0.1-1.1-0.2-1.5-0.4c-0.2-0.1-0.4-0.2-0.6-0.4c-0.2-0.1-0.3-0.3-0.4-0.5c-0.1-0.2-0.2-0.3-0.2-0.5
				c0-0.2-0.1-0.3-0.1-0.5c0-0.3,0-0.6,0.1-0.9c0.1-0.3,0.1-0.5,0.2-0.7c0.1-0.2,0.1-0.4,0.2-0.5c0.1-0.3,0.3-0.5,0.4-0.7
				c0.1-0.2,0.2-0.3,0.2-0.3c0-0.1,0.1-0.1,0.1-0.2c0.1-0.1,0.1-0.2,0.1-0.3c0-0.1-0.1-0.2-0.1-0.2c-0.1-0.1-0.2-0.1-0.3,0
				c-0.1,0-0.2,0.1-0.3,0.2c0,0-0.1,0.1-0.1,0.3c-0.1,0.1-0.2,0.4-0.3,0.6c-0.1,0.1-0.1,0.3-0.2,0.5c-0.1,0.2-0.1,0.4-0.2,0.6
				c-0.1,0.2-0.1,0.5-0.2,0.8c0,0.3-0.1,0.6,0,1c0,0.2,0.1,0.3,0.1,0.5c0.1,0.2,0.1,0.4,0.2,0.5c0.2,0.4,0.5,0.7,0.9,0.9
				c0.4,0.2,0.9,0.4,1.4,0.5c0.5,0.1,1,0.1,1.6,0.1c1.1,0,2.4-0.2,3.8-0.5c1.4-0.3,2.9-0.7,4.5-1.2c1.6-0.5,3.1-1,4.3-1.4
				s2.2-0.8,3.1-1.1c0.9-0.3,1.6-0.6,2.2-0.8c0.6-0.2,1.1-0.4,1.4-0.5c0.4-0.1,0.6-0.2,0.8-0.3c0.2-0.1,0.3-0.1,0.4-0.1
				c0.1,0,0.2,0,0.2-0.1c0,0,0.1,0,0.1,0c0.1-0.1,0.2-0.1,0.2-0.2C310.5,113.9,310.5,113.8,310.5,113.7z"/>
			<path class="st0" d="M309.9,113.6c0.1,0,0.2,0,0.3,0c0.1,0.1,0.1,0.1,0.2,0.2c0,0.1,0,0.2-0.1,0.3c-0.1,0.1-0.2,0.1-0.3,0.2
				c0,0-0.1,0-0.1,0c0,0-0.1,0-0.1,0c-0.1,0-0.1,0-0.2,0s-0.2,0-0.4,0.1c-0.2,0-0.4,0.1-0.6,0.2c-0.3,0.1-0.6,0.2-0.9,0.5
				c-0.2,0.1-0.3,0.2-0.5,0.4c-0.2,0.2-0.3,0.4-0.4,0.6c-0.1,0.2-0.1,0.5-0.1,0.9c0,0.3,0.2,0.7,0.3,1c0.1,0.2,0.2,0.3,0.3,0.5
				c0.1,0.2,0.3,0.3,0.5,0.4c0.2,0.1,0.4,0.2,0.6,0.4c0.2,0.1,0.5,0.2,0.7,0.3c0.5,0.2,1.1,0.3,1.6,0.4c0.6,0.1,1.2,0.1,1.9,0.1
				c0.4,0,0.8,0,1.1,0c0.3,0,0.6,0,0.8-0.1c0.2,0,0.5,0,0.7-0.1c0.2,0,0.4-0.1,0.7-0.1c0.2,0,0.5-0.1,0.8-0.1c0.3-0.1,0.6-0.1,1-0.2
				c0.4-0.1,0.8-0.3,1.3-0.4c0.5-0.2,1.1-0.4,1.7-0.7c0.7-0.3,1.3-0.6,1.8-0.9c0.5-0.3,1-0.6,1.4-0.9c0.4-0.3,0.8-0.5,1.1-0.7
				c0.3-0.2,0.6-0.4,0.8-0.6c0.5-0.4,0.8-0.6,1-0.8c0.2-0.2,0.3-0.3,0.4-0.3c0.1-0.1,0.2-0.1,0.3-0.1c0.1,0,0.2,0,0.2,0.1
				c0.1,0.1,0.1,0.2,0.1,0.3c0,0.1-0.1,0.2-0.2,0.3c0,0-0.1,0.1-0.1,0.1c0,0-0.1,0.1-0.2,0.1c-0.1,0.1-0.2,0.1-0.3,0.2
				c-0.1,0.1-0.3,0.2-0.5,0.4c-0.2,0.1-0.5,0.3-0.8,0.5c-0.3,0.2-0.7,0.5-1.2,0.7c-0.5,0.3-1,0.6-1.6,0.9c-0.6,0.3-1.3,0.7-2.2,1.1
				c-0.8,0.3-1.4,0.6-2,0.8c-0.6,0.2-1.1,0.4-1.5,0.5c-0.4,0.1-0.8,0.2-1.1,0.3c-0.3,0.1-0.6,0.1-0.9,0.2c-0.3,0.1-0.5,0.1-0.8,0.1
				c-0.3,0-0.5,0.1-0.8,0.1c-0.3,0-0.7,0-1.1,0c-0.4,0-0.9,0-1.4-0.1c-0.7-0.1-1.3-0.3-1.8-0.4c-0.5-0.2-0.9-0.3-1.2-0.5
				c-0.2-0.1-0.3-0.2-0.5-0.3c-0.2-0.1-0.3-0.2-0.4-0.3c-0.1-0.1-0.3-0.2-0.4-0.4c-0.1-0.1-0.2-0.3-0.3-0.5
				c-0.2-0.3-0.3-0.6-0.3-0.9c-0.1-0.3-0.1-0.6,0-0.9c0.1-0.3,0.2-0.5,0.3-0.7c0.1-0.2,0.3-0.4,0.4-0.5c0.3-0.3,0.6-0.5,0.8-0.6
				c0.2-0.1,0.5-0.2,0.6-0.3c0.2-0.1,0.3-0.1,0.4-0.2c0.1,0,0.2-0.1,0.3-0.1s0.2-0.1,0.2-0.1C309.7,113.7,309.8,113.6,309.9,113.6z"
				/>
			<path class="st0" d="M325.9,133.1C325.9,133.1,325.9,133.1,325.9,133.1c0,0.1,0,0.1,0,0.2c-0.1,0.3-0.2,0.6-0.3,0.8
				c-0.1,0.2-0.2,0.3-0.3,0.3c-0.1,0-0.2-0.1-0.2-0.4c0-0.2,0-0.5,0.1-0.8c0-0.1,0-0.2,0.1-0.3c0-0.1,0.1-0.3,0.1-0.4
				c0-0.2,0.1-0.4,0.2-0.7c0.1-0.3,0.2-0.7,0.3-1.2c0.1-0.6,0.2-1.3,0.3-2.3c0.1-0.9,0.3-2.1,0.4-3.5s0.3-2.6,0.4-3.7
				c0.1-1.1,0.2-2,0.3-2.7c0.1-0.8,0.1-1.4,0.2-1.9s0.1-0.9,0.1-1.3c0-0.3,0-0.6,0-0.7c0-0.2,0-0.3,0-0.3c0-0.1,0.1-0.1,0.1-0.2
				c0.1,0,0.1-0.1,0.2,0c0.1,0,0.2,0.1,0.2,0.1c0.1,0.1,0.1,0.1,0.1,0.2c0,0,0,0.1,0,0.2c0,0.1,0,0.2-0.1,0.5c0,0.2-0.1,0.6-0.2,1
				c-0.1,0.4-0.2,1.1-0.3,1.8c-0.1,0.8-0.2,1.7-0.4,2.9c-0.1,1.2-0.3,2.6-0.5,4.2c-0.1,0.8-0.2,1.4-0.2,2c-0.1,0.6-0.1,1.1-0.2,1.6
				c0.2-0.6,0.3-1.4,0.5-2.2c0.2-0.8,0.5-1.8,0.7-2.9c0.2-0.7,0.4-1.5,0.6-2.3c0.2-0.8,0.5-1.7,0.7-2.6c0.3-0.9,0.6-1.9,0.9-3
				c0.3-1,0.7-2.2,1.1-3.3c0.4-1.1,0.7-2.1,1-3s0.7-1.8,1-2.6c0.3-0.8,0.6-1.5,0.9-2.2c0.3-0.7,0.6-1.3,0.9-1.8
				c0.6-1.1,1.1-2,1.6-2.8c0.5-0.8,1-1.4,1.5-2c0.3-0.3,0.6-0.5,0.9-0.7c0.3-0.2,0.6-0.4,1-0.6c0.1,0,0.2-0.1,0.3-0.1
				c0.1,0,0.2,0,0.3-0.1c0,0,0.1,0,0.1,0c0.1,0,0.1,0,0.2,0h0.1c0,0,0.1,0,0.1,0c0.1,0,0.1,0.1,0.1,0.1c0,0,0,0.1,0.1,0.1
				c0,0.1,0,0.1,0,0.2c0,0.1,0,0.1,0,0.2c0,0.1,0,0.1,0,0.2c0,0.1,0,0.1,0,0.2c0,0.1-0.1,0.2-0.1,0.3c0,0.1-0.1,0.2-0.1,0.3
				c-0.1,0.4-0.3,0.8-0.5,1.2c-0.2,0.4-0.4,0.9-0.6,1.4c-0.2,0.5-0.5,1-0.8,1.6c-0.3,0.6-0.6,1.2-0.9,1.8c-0.5,0.9-0.9,1.7-1.3,2.4
				c-0.4,0.7-0.7,1.4-1.1,2c-0.3,0.6-0.6,1.2-0.9,1.7c-0.3,0.5-0.6,1-0.8,1.5c-0.3,0.5-0.5,0.9-0.7,1.3c-0.2,0.4-0.5,0.8-0.7,1.3
				c-0.2,0.4-0.5,0.9-0.7,1.3s-0.5,0.9-0.8,1.4c0,0-0.1,0.1-0.1,0.1s-0.1,0.1-0.1,0.1l0,0c0.1,0,0.2,0,0.3,0c0.1,0,0.2,0,0.3,0
				c0.2,0,0.4,0,0.6,0.1c0.2,0,0.4,0,0.6,0c0.4,0,0.8,0,1.1,0c0.4,0,0.7,0,1.1,0c0.7,0,1.3-0.1,1.9-0.1c0.6-0.1,1.1-0.1,1.6-0.2
				c1-0.2,1.8-0.4,2.5-0.6c0.7-0.2,1.3-0.4,1.7-0.6c0.5-0.2,0.9-0.3,1.2-0.5s0.6-0.3,0.8-0.4c0.2-0.1,0.4-0.2,0.6-0.3
				c0.2-0.1,0.4-0.2,0.6-0.3c0.3-0.1,0.5-0.2,0.7-0.3c0.2,0,0.4,0,0.4,0.1c0,0.1,0,0.2-0.2,0.4c-0.2,0.2-0.4,0.3-0.7,0.5
				c-0.1,0-0.2,0.1-0.2,0.1c-0.1,0-0.2,0.1-0.3,0.1c-0.1,0.1-0.3,0.1-0.6,0.2s-0.6,0.2-1.1,0.4c-0.5,0.2-1.1,0.4-1.8,0.6
				c-0.7,0.2-1.7,0.5-2.8,0.7c-0.6,0.1-1.2,0.2-1.9,0.3c-0.7,0.1-1.4,0.1-2.2,0.2c-0.4,0-0.8,0-1.2,0c-0.4,0-0.9,0-1.3,0
				c-0.5,0-0.9-0.1-1.4-0.1c-0.1,0-0.2,0-0.4-0.1c-0.1,0-0.3,0-0.4-0.1c0-0.1-0.1-0.1-0.1-0.2c0,0,0,0,0,0c0,0,0,0,0,0c0,0,0,0,0,0
				l0,0l0,0l0,0l0-0.1l0.1-0.2c0-0.1,0.1-0.1,0.1-0.2c0-0.1,0.1-0.1,0.1-0.2c0.6-1,1.2-2.1,1.8-3.2c0.6-1.1,1.3-2.4,2-3.7
				c0.7-1.3,1.4-2.7,2.2-4.2c0.8-1.5,1.6-3.1,2.4-4.8c0.3-0.5,0.5-1.1,0.7-1.5c0.2-0.5,0.4-0.9,0.5-1.3c0-0.1,0.1-0.2,0.1-0.3
				c0-0.1,0-0.2,0.1-0.3c0,0,0-0.1,0-0.1c-0.3,0-0.6,0.1-0.8,0.2c-0.3,0.1-0.6,0.3-0.8,0.5c-0.2,0.2-0.5,0.4-0.7,0.6
				c-0.4,0.4-0.8,0.9-1.2,1.4c-0.4,0.5-0.8,1.1-1.2,1.8c-0.4,0.7-0.8,1.5-1.3,2.5c-0.2,0.5-0.5,1-0.7,1.6c-0.3,0.6-0.5,1.2-0.8,1.9
				c-0.3,0.7-0.5,1.4-0.8,2.2c-0.3,0.8-0.6,1.7-0.9,2.6c-0.6,1.9-1.1,3.7-1.6,5.3c-0.4,1.6-0.8,3.1-1.2,4.4
				c-0.3,1.3-0.6,2.5-0.8,3.6c-0.2,1-0.4,2-0.6,2.8c-0.2,1-0.4,1.8-0.5,2.5c-0.1,0.7-0.2,1.2-0.3,1.6L325.9,133.1z"/>
			<path class="st0" d="M344.4,133.1C344.4,133.1,344.4,133.1,344.4,133.1c0,0.1,0,0.1,0,0.2c-0.1,0.3-0.2,0.6-0.3,0.8
				c-0.1,0.2-0.2,0.3-0.3,0.3c-0.1,0-0.2-0.1-0.2-0.4c0-0.2,0-0.5,0.1-0.8c0-0.1,0-0.2,0.1-0.3c0-0.1,0.1-0.3,0.1-0.4
				c0-0.2,0.1-0.4,0.2-0.7c0.1-0.3,0.2-0.7,0.3-1.2c0.1-0.6,0.2-1.3,0.3-2.3c0.1-0.9,0.3-2.1,0.4-3.5s0.3-2.6,0.4-3.7
				c0.1-1.1,0.2-2,0.3-2.7c0.1-0.8,0.1-1.4,0.2-1.9s0.1-0.9,0.1-1.3c0-0.3,0-0.6,0-0.7c0-0.2,0-0.3,0-0.3c0-0.1,0.1-0.1,0.1-0.2
				c0.1,0,0.1-0.1,0.2,0c0.1,0,0.2,0.1,0.2,0.1c0.1,0.1,0.1,0.1,0.1,0.2c0,0,0,0.1,0,0.2c0,0.1,0,0.2-0.1,0.5c0,0.2-0.1,0.6-0.2,1
				c-0.1,0.4-0.2,1.1-0.3,1.8c-0.1,0.8-0.2,1.7-0.4,2.9c-0.1,1.2-0.3,2.6-0.5,4.2c-0.1,0.8-0.2,1.4-0.2,2c-0.1,0.6-0.1,1.1-0.2,1.6
				c0.2-0.6,0.3-1.4,0.5-2.2c0.2-0.8,0.5-1.8,0.7-2.9c0.2-0.7,0.4-1.5,0.6-2.3c0.2-0.8,0.5-1.7,0.7-2.6c0.3-0.9,0.6-1.9,0.9-3
				c0.3-1,0.7-2.2,1.1-3.3c0.4-1.1,0.7-2.1,1-3s0.7-1.8,1-2.6c0.3-0.8,0.6-1.5,0.9-2.2c0.3-0.7,0.6-1.3,0.9-1.8
				c0.6-1.1,1.1-2,1.6-2.8c0.5-0.8,1-1.4,1.5-2c0.3-0.3,0.6-0.5,0.9-0.7c0.3-0.2,0.6-0.4,1-0.6c0.1,0,0.2-0.1,0.3-0.1
				c0.1,0,0.2,0,0.3-0.1c0,0,0.1,0,0.1,0c0.1,0,0.1,0,0.2,0h0.1c0,0,0.1,0,0.1,0c0.1,0,0.1,0.1,0.1,0.1c0,0,0,0.1,0.1,0.1
				c0,0.1,0,0.1,0,0.2c0,0.1,0,0.1,0,0.2c0,0.1,0,0.1,0,0.2c0,0.1,0,0.1,0,0.2c0,0.1-0.1,0.2-0.1,0.3c0,0.1-0.1,0.2-0.1,0.3
				c-0.1,0.4-0.3,0.8-0.5,1.2c-0.2,0.4-0.4,0.9-0.6,1.4c-0.2,0.5-0.5,1-0.8,1.6c-0.3,0.6-0.6,1.2-0.9,1.8c-0.5,0.9-0.9,1.7-1.3,2.4
				c-0.4,0.7-0.7,1.4-1.1,2c-0.3,0.6-0.6,1.2-0.9,1.7c-0.3,0.5-0.6,1-0.8,1.5c-0.3,0.5-0.5,0.9-0.7,1.3c-0.2,0.4-0.5,0.8-0.7,1.3
				c-0.2,0.4-0.5,0.9-0.7,1.3s-0.5,0.9-0.8,1.4c0,0-0.1,0.1-0.1,0.1c0,0.1-0.1,0.1-0.1,0.1l0,0c0.1,0,0.2,0,0.3,0c0.1,0,0.2,0,0.3,0
				c0.2,0,0.4,0,0.6,0.1c0.2,0,0.4,0,0.6,0c0.4,0,0.8,0,1.1,0s0.7,0,1.1,0c0.7,0,1.3-0.1,1.9-0.1c0.6-0.1,1.1-0.1,1.6-0.2
				c1-0.2,1.8-0.4,2.5-0.6c0.7-0.2,1.3-0.4,1.7-0.6c0.5-0.2,0.9-0.3,1.2-0.5s0.6-0.3,0.8-0.4c0.2-0.1,0.4-0.2,0.6-0.3
				c0.2-0.1,0.4-0.2,0.6-0.3c0.3-0.1,0.5-0.2,0.7-0.3c0.2,0,0.4,0,0.4,0.1c0,0.1,0,0.2-0.2,0.4c-0.2,0.2-0.4,0.3-0.7,0.5
				c-0.1,0-0.2,0.1-0.2,0.1c-0.1,0-0.2,0.1-0.3,0.1c-0.1,0.1-0.3,0.1-0.6,0.2c-0.2,0.1-0.6,0.2-1.1,0.4c-0.5,0.2-1.1,0.4-1.8,0.6
				c-0.7,0.2-1.7,0.5-2.8,0.7c-0.6,0.1-1.2,0.2-1.9,0.3c-0.7,0.1-1.4,0.1-2.2,0.2c-0.4,0-0.8,0-1.2,0c-0.4,0-0.9,0-1.3,0
				c-0.5,0-0.9-0.1-1.4-0.1c-0.1,0-0.2,0-0.4-0.1c-0.1,0-0.3,0-0.4-0.1c0-0.1-0.1-0.1-0.1-0.2c0,0,0,0,0,0c0,0,0,0,0,0c0,0,0,0,0,0
				l0,0l0,0l0,0l0-0.1l0.1-0.2c0-0.1,0.1-0.1,0.1-0.2c0-0.1,0.1-0.1,0.1-0.2c0.6-1,1.2-2.1,1.8-3.2c0.6-1.1,1.3-2.4,2-3.7
				c0.7-1.3,1.4-2.7,2.2-4.2c0.8-1.5,1.6-3.1,2.4-4.8c0.3-0.5,0.5-1.1,0.7-1.5c0.2-0.5,0.4-0.9,0.5-1.3c0-0.1,0.1-0.2,0.1-0.3
				c0-0.1,0-0.2,0.1-0.3c0,0,0-0.1,0-0.1c-0.3,0-0.6,0.1-0.8,0.2c-0.3,0.1-0.6,0.3-0.8,0.5c-0.2,0.2-0.5,0.4-0.7,0.6
				c-0.4,0.4-0.8,0.9-1.2,1.4c-0.4,0.5-0.8,1.1-1.2,1.8c-0.4,0.7-0.8,1.5-1.3,2.5c-0.2,0.5-0.5,1-0.7,1.6c-0.3,0.6-0.5,1.2-0.8,1.9
				c-0.3,0.7-0.5,1.4-0.8,2.2c-0.3,0.8-0.6,1.7-0.9,2.6c-0.6,1.9-1.1,3.7-1.6,5.3c-0.4,1.6-0.8,3.1-1.2,4.4
				c-0.3,1.3-0.6,2.5-0.8,3.6c-0.2,1-0.4,2-0.6,2.8c-0.2,1-0.4,1.8-0.5,2.5c-0.1,0.7-0.2,1.2-0.3,1.6L344.4,133.1z"/>
			<path class="st0" d="M30.9,114.3c-0.1-0.1-0.2-0.1-0.3-0.1c-0.2,0-0.4,0.1-0.6,0.2c-0.2,0.1-0.3,0.2-0.4,0.3
				c-0.1,0.1-0.3,0.2-0.4,0.3c-0.2,0.1-0.3,0.2-0.5,0.3c-0.2,0.1-0.5,0.3-0.8,0.5c-0.3,0.2-0.7,0.4-1.2,0.7c-0.5,0.3-1,0.6-1.7,0.9
				c-0.3,0.2-0.7,0.4-1.1,0.6c-0.4,0.2-0.8,0.4-1.3,0.6c-0.5,0.2-1,0.4-1.5,0.7c-0.5,0.2-1.1,0.4-1.7,0.6c-0.4,0.1-0.8,0.2-1.1,0.2
				c-0.3,0-0.6,0-0.9-0.1c0.2,0.1,0.3,0.2,0.5,0.3c0,0,0.1,0,0.1,0c0.4,0,0.9-0.1,1.3-0.2c0.8-0.2,1.4-0.5,2-0.7
				c0.6-0.3,1.2-0.5,1.7-0.7c0.5-0.2,1-0.5,1.5-0.7c0.4-0.2,0.8-0.4,1.2-0.6c0.8-0.4,1.4-0.7,1.9-1c0.5-0.3,0.9-0.5,1.2-0.6
				c0.3-0.2,0.6-0.3,0.7-0.4c0.2-0.1,0.3-0.2,0.4-0.2c0.1,0,0.2-0.1,0.2-0.1c0,0,0.1-0.1,0.2-0.1c0.2-0.1,0.3-0.2,0.4-0.4
				C30.9,114.5,30.9,114.4,30.9,114.3z"/>
			<path class="st0" d="M30.2,113.6c0,0,0.3,0,0.5,0c0.2,0,0.4,0.3,0.4,0.4c0,0.1-0.1,0.5-0.6,0.9c-0.4,0.4-0.3-0.4-0.3-0.4l0.4-0.7
				h-0.2L30.2,113.6z"/>
		</g>
	</g>
</g>
<g>
	<path class="st0" d="M92.3,22.5h11.2v9.2c3.6-7.3,10.1-10.9,18.6-11v11.9h-0.8c-11.2,0-17.1,6.2-17.1,18.6v33.7H92.3V22.5z"/>
	<path class="st0" d="M131.5,22.5h11.2v9.6c3-6.4,10-11.6,21.1-11.5c19.9,0.2,25.2,14.7,25.2,27.6v36.6h-12V51
		c0-11.2-4.4-19.3-16.5-19.1c-11.7,0.1-17.1,7.4-17.1,18.2v34.7h-11.9V22.5z"/>
	<path class="st0" d="M263.5,62.9c-3.8,13.5-16,23.7-31.6,23.7c-20.4,0-33.3-15.7-33.3-33c0-18.4,14.1-33,32.8-33
		c14.9,0,28.3,9.2,32.2,24.2h-12.3c-3.2-8.4-11-13.1-19.5-13.1c-6.3-0.1-10.9,1.9-15.2,6.1c-3.7,3.7-6.1,9.5-6.1,15.8
		c0,12.8,9.4,21.9,21.3,21.9c10.4-0.1,17-6.4,19.5-12.6H263.5z"/>
	<path class="st0" d="M338.6,84.8h-11.9V73.9c-4.4,8.4-13.3,12.7-23.1,12.7c-20.1,0-32-15.6-32-33c0-19,13.9-33,32-33
		c12.4,0,20.3,6.9,23.1,12.8v-11h11.9V84.8z M283.4,53.9c0.1,9.3,6.6,21.7,21.8,21.7c9.5,0,16.3-5.3,19.4-12.4
		c1.4-2.9,2.1-6.1,2.2-9.3c0.1-3.2-0.5-6.4-1.8-9.3c-3-7.2-10-12.8-19.9-12.8c-13.1,0-21.5,10.3-21.5,22V53.9z"/>
	<path class="st0" d="M358.7,31.7h-11.2v-9.3h11.2V0h11.9v22.5h12v9.3h-12v53.1h-11.9V31.7z"/>
</g>
<path class="st1" d="M78.4,40.6l-8.7,8.8c2.2,7,0.7,14.3-5.3,20.2c-6.6,6.6-19,9.9-28.3,1.4l37.7-37.7c-5.9-7.1-13.6-11.6-22.5-12.7
	L39.5,6.1l-5.6,17.6c-3.3,1.6-6.3,3.8-9,6.5c-4.1,4.1-6.8,8.8-8.3,13.9L0,52.7l16.3,9.1c1.5,5.5,4.4,10.7,8.7,15
	c11.7,11.7,32.2,14.3,46.6-0.1c4.5-4.5,7.6-10,8.8-16.3C81.7,54.3,81.2,47.6,78.4,40.6z M32.1,37.4c8.2-8.5,20.6-7.8,26.8-2.4
	L29.7,64.2C24.1,57.8,23.5,46,32.1,37.4z"/>
</svg>
