<?xml version="1.0" encoding="utf-8"?>
<!-- Generator: Adobe Illustrator 19.1.0, SVG Export Plug-In . SVG Version: 6.00 Build 0)  -->
<svg version="1.1" id="Layer_1" xmlns="http://www.w3.org/2000/svg" xmlns:xlink="http://www.w3.org/1999/xlink" x="0px" y="0px"
	 viewBox="-581 367 66.1 66.2" style="enable-background:new -581 367 66.1 66.2;" xml:space="preserve">
<style type="text/css">
	.st0{fill:#3A3A3A;}
</style>
<path class="st0" d="M-524.8,401.5c-0.1-3.5-0.9-6.2-2.4-8.1l-7.8,7.8c0.4,1.3,0.5,2.5,0.4,3.6c-0.2,2-1.2,3.8-2.9,5.6
	c-1.6,1.6-3.4,2.7-5.3,3.1c-3.1,0.7-6.2-0.3-9.2-3.1l21.2-21.2c-2.5-2.6-4.5-4.4-6-5.5c-1.5-1.1-3-1.9-4.5-2.6l-5.7-10.4l-5,9.3
	c-0.9,0.2-1.7,0.4-2.5,0.7c-2.9,1.1-5.7,2.9-8.2,5.5c-2.3,2.3-3.9,4.7-5,7.3l-9.6,5l8.4,4.7c0,0,0,0,0,0c0.7,4.5,3.1,8.9,7.4,13.1
	c5.4,5.4,10.8,7.8,16.1,7.2c5.4-0.6,10-2.8,13.9-6.7C-526.9,412-524.6,406.9-524.8,401.5z M-559.3,398.5c0-2.2,0.9-4.3,2.9-6.2
	c1.8-1.8,3.8-2.8,6.1-2.9c2.3-0.2,4.5,0.7,6.6,2.6l-13.1,13.1C-558.5,402.9-559.3,400.7-559.3,398.5z"/>
</svg>
