<?xml version="1.0" encoding="utf-8"?>
<!-- Generator: Adobe Illustrator 19.2.1, SVG Export Plug-In . SVG Version: 6.00 Build 0)  -->
<svg version="1.1" id="Layer_1" xmlns="http://www.w3.org/2000/svg" xmlns:xlink="http://www.w3.org/1999/xlink" x="0px" y="0px"
	 viewBox="0 0 393.3 157.5" style="enable-background:new 0 0 393.3 157.5;" xml:space="preserve">
<style type="text/css">
	.st0{fill:none;}
	.st1{enable-background:new    ;}
	.st2{fill:#FF9D6C;}
	.st3{fill:#B7ADA5;}
	.st4{fill:#706259;}
	.st5{fill:#565759;}
	.st6{fill:#2D2D2D;}
</style>
<rect x="-627.8" y="90.6" class="st0" width="408.9" height="469.5"/>
<text transform="matrix(1 0 0 1 -627.8436 100.9681)" style="font-family:'ITCAvantGardeStd-Md'; font-size:14px;">Erin Moncrieff</text>
<text transform="matrix(1 0 0 1 -627.8436 117.7681)" style="font-family:'ITCAvantGardeStd-Md'; font-size:14px;">Wordmark</text>
<text transform="matrix(1 0 0 1 -627.8436 134.5681)" style="font-family:'ITCAvantGardeStd-Md'; font-size:14px;">Graphic Design 5</text>
<text transform="matrix(1 0 0 1 -627.8436 151.3681)" style="font-family:'ITCAvantGardeStd-Md'; font-size:14px;">Robert Smith</text>
<text transform="matrix(1 0 0 1 -627.8436 168.1681)" style="font-family:'ITCAvantGardeStd-Md'; font-size:14px;">Oct 18 2015</text>
<g>
	<rect x="-29.9" y="517.5" class="st2" width="72.4" height="72.4"/>
	<rect x="99.1" y="517.5" class="st3" width="72.4" height="72.4"/>
	<rect x="228.1" y="517.5" class="st4" width="72.4" height="72.4"/>
	<rect x="357.1" y="517.5" width="72.4" height="72.4"/>
	<text transform="matrix(1 0 0 1 -29.881 627.1882)" class="st5" style="font-family:'ITCAvantGardeStd-Md'; font-size:8px;">Pantone 163 C</text>
	<text transform="matrix(1 0 0 1 -29.881 636.7882)" class="st5" style="font-family:'ITCAvantGardeStd-Md'; font-size:8px;">C 0% M 48% Y 58% K 0%</text>
	<text transform="matrix(1 0 0 1 -29.881 646.3882)" class="st5" style="font-family:'ITCAvantGardeStd-Md'; font-size:8px;">R 225 G 157 B 108</text>
	<text transform="matrix(1 0 0 1 99.0458 627.1882)" class="st5" style="font-family:'ITCAvantGardeStd-Md'; font-size:8px;">Pantone Warm Gray 4 C</text>
	<text transform="matrix(1 0 0 1 99.0458 636.7882)" class="st5" style="font-family:'ITCAvantGardeStd-Md'; font-size:8px;">C 30% M 28% Y 32% K 0%</text>
	<text transform="matrix(1 0 0 1 99.0458 646.3882)" class="st5" style="font-family:'ITCAvantGardeStd-Md'; font-size:8px;">R 183 G 173 B 165</text>
	<text transform="matrix(1 0 0 1 227.9727 627.1882)" class="st5" style="font-family:'ITCAvantGardeStd-Md'; font-size:8px;">Pantone Warm Gray 11 C</text>
	<text transform="matrix(1 0 0 1 227.9727 636.7882)" class="st5" style="font-family:'ITCAvantGardeStd-Md'; font-size:8px;">C 52% M 53% Y 59% K 24%</text>
	<text transform="matrix(1 0 0 1 227.9727 646.3882)" class="st5" style="font-family:'ITCAvantGardeStd-Md'; font-size:8px;">R 112 G 98 B 89</text>
	<text transform="matrix(1 0 0 1 357.6663 627.7361)" style="font-family:'ITCAvantGardeStd-Md'; font-size:8px;">Black</text>
	<text transform="matrix(1 0 0 1 357.6663 637.3361)" style="font-family:'ITCAvantGardeStd-Md'; font-size:8px;">K 100%</text>
	<text transform="matrix(1 0 0 1 357.6663 646.9361)" style="font-family:'ITCAvantGardeStd-Md'; font-size:8px;">R 35 G 31 B 32</text>
</g>
<path class="st6" d="M347.2,72.7c-0.6-0.2-1-0.1-1.4,0.3c-0.3,0.4-0.5,0.8-0.7,1.1c-0.2,0.4-0.4,0.8-0.6,1.1c-0.5,1.3-1,2.4-1.7,3.1
	c-0.3,0.5-0.6,0.9-0.9,1.3c-0.3,0.4-0.6,0.9-0.9,1.3c-0.1,0.1-0.1,0.2-0.1,0.3c0,0.1,0,0.2-0.1,0.4c-0.8,1.1-1.5,2.3-2.3,3.4
	c-0.8,1.1-1.6,2.3-2.3,3.5c-0.5,0.6-0.9,1.1-1.3,1.7c-0.4,0.6-0.8,1.1-1.1,1.7c-0.5,0.8-1,1.5-1.5,2.3c-0.5,0.8-1,1.5-1.5,2.3
	c-0.5,0.8-0.9,1.5-1.4,2.2c-0.5,0.7-0.9,1.4-1.4,2.2c-0.2,0.1-0.4,0.4-0.6,1c-1.3,2-2.7,4-4,6c-1.4,2-2.8,4.1-4.3,6.2
	c-0.5,0.6-0.9,1.2-1.3,1.8c-0.4,0.6-0.9,1.2-1.3,1.8c-0.4,0.4-0.7,0.7-0.9,0.9c-0.2,0.2-0.5,0.4-0.8,0.7c-0.5,0.3-0.9,0.4-1.4,0.3
	c-0.6-0.2-1-0.5-1.3-1.1c-0.3-0.5-0.3-1.1-0.1-1.6c0-0.4,0-0.7,0.1-1.1c0-0.3,0-0.6-0.1-0.9v-0.6c0-0.3,0-0.6,0.1-0.9
	c0-0.3,0-0.6-0.1-0.9v-1.4c0-4.3,0.1-8.5,0.4-12.7c0.2-4.2,0.4-8.4,0.6-12.6c0.2-4.2,0.3-8.4,0.4-12.6c0-4.2-0.1-8.4-0.4-12.6
	c-0.2-0.8-0.1-1.4,0.1-2v-0.7v-1.7c0.1-1,0.1-2.1,0.1-3.1c0-1,0-2,0.1-2.9c0-0.5,0-1-0.1-1.6c0-0.6,0-1.1,0.1-1.6h1.1h0.9
	c0.5,0.1,0.9,0.1,1.4,0.1c0.5,0,0.9,0,1.4,0c0.5,0.1,1,0.1,1.5,0.1c0.5,0,1-0.2,1.5-0.4L321,47c0.6,0,1-0.1,1.3-0.4
	c0.3-0.2,0.5-0.3,0.8-0.4c0.2-0.1,0.4-0.2,0.6-0.3c0.5,0.3,0.8,0.4,0.9,0.4c0.1,0,0.3-0.2,0.5-0.6c0.1,0,0.1-0.1,0.1-0.3
	c0.2-0.5,0.6-0.7,1.1-0.7c0.2,0,0.4,0,0.5-0.1c0.1-0.1,0.3-0.2,0.5-0.3c0.2-0.2,0.4-0.3,0.6-0.4c0.2-0.1,0.4-0.2,0.6-0.3
	c0.2-0.1,0.3-0.1,0.4-0.1c0.1,0,0.2,0,0.4-0.1c0.4-0.3,0.7-0.5,1.1-0.6c0.3-0.1,0.7-0.2,1.2-0.4h0.4c0.5-0.3,1-0.5,1.6-0.8
	c0.6-0.2,1.1-0.4,1.6-0.6c0.4-0.2,0.6-0.3,0.7-0.4c0.4-0.3,0.8-0.6,1.1-0.9c0.4-0.3,0.8-0.7,1.1-1.1c-0.2-0.4-0.2-0.7,0-1
	c0.2-0.3,0.2-0.7,0.1-1.1c-0.9-0.6-1.7-0.7-2.6-0.3c-0.3,0.2-0.6,0.3-1,0.4c-0.4,0-0.7,0.2-1,0.4c-1.3,0.5-2.7,1-4,1.5
	c-1.3,0.5-2.6,1-4,1.5c-1.8,0.7-3.8,0.9-6.1,0.7c-0.3,0-0.6-0.1-1-0.3c-0.8-0.3-1.6-0.5-2.5-0.8c-0.9-0.2-1.7-0.5-2.5-0.9
	c-0.9-0.4-1.4-1-1.4-2c0.1-0.2,0.1-0.4,0.1-0.6c0-0.2-0.1-0.4-0.1-0.6v-0.7c-0.2-0.7-0.3-1.3-0.4-2c0-0.7-0.1-1.3-0.2-2
	c0-0.2,0-0.4,0-0.8c0-0.3,0-0.6,0.1-0.8c0.4-0.8,0.3-1.6-0.1-2.6c-0.1-0.2-0.2-0.4-0.3-0.6c-0.1-0.2-0.2-0.5-0.4-0.8
	c-0.5-0.7-1.3-1-2.4-1l-0.1,0.3c-0.7,1.4-1,2.7-1.1,4c-0.2,1.1-0.4,2.3-0.6,3.4c-0.2,1.1-0.4,2.3-0.6,3.4c0,0.2,0,0.4-0.1,0.6
	c0,0.2-0.2,0.5-0.4,0.6c-0.4,0.1-0.9,0-1.6-0.1c-1.6-0.1-3.2-0.1-4.7,0c-0.9,0.2-1.9,0.1-3-0.1c-0.3-0.1-0.6-0.1-0.9-0.1
	c-0.3,0-0.7,0-1.1-0.1c-0.7-0.1-1.3-0.2-1.9-0.2c-0.6,0-1.3-0.1-1.9-0.1c-0.9-0.1-1.7-0.2-2.6-0.2c-0.9,0-1.8-0.1-2.6-0.1
	c-0.9,0.1-1.7,0.2-2.5,0.3c-0.8,0.1-1.6,0.4-2.5,0.9c-0.5,0.2-0.9,0.4-1.4,0.7c-0.5,0.3-0.9,0.5-1.4,0.7c0,0.1-0.1,0.2-0.3,0.4
	c-0.4,0.2-0.3,0.4,0.1,0.6c0.3,0,0.6,0,0.9,0.1c0.3,0,0.6,0.1,0.9,0.1c0.4,0,0.8,0,1.2-0.1c0.4,0,0.9-0.1,1.3-0.1
	c0.8-0.2,1.4-0.2,2-0.1c0.6,0.1,1.2,0.2,2,0.4c0.4,0.2,0.8,0.4,1.2,0.5c0.4,0.1,0.8,0.3,1.2,0.4c1.9,0.1,3.8,0.5,5.8,1.3
	c0.5,0.2,0.9,0.4,1.4,0.7c0.5,0.2,1,0.3,1.6,0.4c0.6,0.1,1.1,0.2,1.6,0.4c0.7,0.2,1.3,0.4,2.1,0.6c0.7,0.2,1.4,0.5,2.2,0.6
	c0.3,0.2,0.6,0.4,0.9,0.5c0.3,0.1,0.6,0.3,1,0.4c-0.1,0.5-0.1,0.9-0.1,1.1c0,0.3,0,0.6-0.1,1c-0.1,0.8-0.2,1.5-0.2,2.3
	c0,0.8-0.2,1.6-0.4,2.3c-0.4,1.6-0.6,3.3-0.8,5c-0.1,1.7-0.4,3.4-0.6,5c-0.1,1-0.2,2.1-0.2,3.1c0,1-0.1,2-0.2,2.9
	c-0.3,1.4-0.5,2.9-0.7,4.3c-0.2,1.5-0.3,3-0.4,4.5c0,0.2,0,0.4,0,0.5c-1,2.1-2.1,4.5-3.3,7.2c-1.5,3.3-2.8,6.1-3.9,8.4
	c-0.6,1.2-1.4,2.6-2.4,4.2c-1,1.6-1.9,2.9-2.7,3.9c-0.4,0.5-1.2,1.3-2.3,2.3c-1.2,1.1-2.1,1.8-2.6,2.1c-1,0.5-1.8,0.5-2.2,0.1
	c-0.4-0.4-0.7-1-0.7-1.8c0-0.8,0-1.6,0.1-2.4c0.1-0.8,0.1-1.3,0.1-1.6c0-0.5,0-0.9,0.1-1.3c0-0.4,0.1-0.9,0.2-1.3
	c0.2-1.1,0.3-2.2,0.4-3.3c0.1-1.1,0.2-2.2,0.4-3.2c0.1-0.6,0.2-1.1,0.3-1.6c0.1-0.5,0.2-1.1,0.4-1.6c0.3-1.7,0.5-3.2,0.6-4.5
	c0.1-1.3,0.3-2.8,0.6-4.5c0.3-1.5,0.6-3.2,1.1-5s0.6-3.5,0.6-5c0-0.4,0-0.7,0.1-1.1c0-0.3,0-0.7-0.1-1.1c-0.4-0.8-0.4-1.4,0-2.1
	c0.4-0.6,0.5-1.3,0.3-2.1l-0.4-0.9c-0.3-1-1-1.5-2.1-1.4c-0.5,0.1-0.9,0.2-1.3,0.2c-0.4,0-0.9,0.2-1.3,0.4c-1.1,0.1-1.9,0.9-2.4,2.4
	c-0.2,0.9-0.5,1.8-0.8,2.7c-0.3,0.9-0.6,1.8-0.9,2.7c-0.3,0.9-0.6,1.7-0.9,2.6c-0.3,0.9-0.6,1.7-0.8,2.6c-0.2,0.5-0.3,1-0.4,1.6
	c-0.1,0.6-0.2,1.2-0.4,1.8c-0.2,0.6-0.3,1.1-0.4,1.7c-0.1,0.6-0.2,1.1-0.4,1.6c-0.9,1.5-2,3.3-3.3,5.4c-1.4,2.1-2.9,3.5-4.5,4.3
	c-1.2,0.6-2.6,0.4-4.1-0.4c-1.5-0.9-2.4-1.9-2.7-3.3c-0.6-2.4-0.6-4.6-0.2-6.8c0.4-2.2,1-4.4,1.8-6.7c0.4-0.9,0.7-1.9,1-2.8
	c0.3-0.9,0.6-1.9,1-2.8c0.8-1.9,1.5-3.9,2.1-5.9c0.7-2,1.5-3.9,2.6-5.7c0.8-1.2,1.7-2.1,2.8-2.7c1.1-0.6,2.4-1,3.7-1.3
	c1.5-0.4,3.1-0.3,4.8,0.3l0.4,0.4c0.8,0.9,1.5,1.7,2.1,2.5c0.7,0.8,1.1,1.8,1.3,2.9c0.2,0.6,0.5,0.8,0.9,0.7c0.7,0,1.1-0.1,1.4-0.4
	c1.2-1.1,1.4-2.5,0.6-4.1c-0.2-0.5-0.5-0.9-0.8-1.3c-0.3-0.4-0.6-0.9-0.9-1.3c-0.5-0.6-1-1.1-1.5-1.5c-0.5-0.4-1.1-0.7-1.8-0.8
	c-0.9-0.2-1.7-0.3-2.5-0.4c-0.8,0-1.6,0.1-2.5,0.4c-0.3,0.1-0.7,0.1-1.3,0.1c-1,0.2-2.1,0.3-3.1,0.4c-1,0-2,0.3-3.1,0.6l-3.4,1.3
	c-0.9,0.3-1.7,0.7-2.5,1.1c-0.8,0.5-1.5,1.1-2.1,1.8c-0.8,1-1.5,1.9-2.3,2.7c-2.4,2.7-4,5.8-5,9.2c-0.2,0.9-0.4,1.7-0.8,2.6
	c-0.3,0.9-0.6,1.7-0.9,2.6l-1.3,4.3c-0.2,0.8-0.3,1.5-0.4,2.1c0,0.7-0.2,1.4-0.4,2.1c-0.4,1.9-0.5,3.8-0.3,5.7
	c-0.6,0.8-1.3,1.6-2.1,2.3c-0.1,0.1-0.1,0.2-0.1,0.2c0,0,0,0.1-0.1,0.2c-0.9,1.3-1.9,2.6-3,3.7c-1,1.1-2.1,2.3-3.1,3.4
	c-0.8,0.8-1.5,1.5-2.3,2.3c-0.8,0.8-1.5,1.6-2.3,2.3c-0.6,0.6-1.1,1.1-1.7,1.7c-0.6,0.6-1.1,1.2-1.7,1.8c-0.4,0.5-0.8,0.9-1.1,1.3
	c-0.4,0.4-0.8,0.7-1.3,1c-1.1,0.7-2.3,1.2-3.4,1.7c-1.1,0.5-2.3,0.8-3.5,1c-0.3,0-0.7,0.1-1.3,0.3c-0.9,0.4-1.8,0.2-2.7-0.6
	c-0.6-0.6-1-1.2-1.3-1.8c-0.2-0.5-0.3-0.9-0.4-1.3c-0.1-0.4-0.2-0.8-0.3-1.1c-0.2-0.4-0.3-0.7-0.4-1.1c0-0.3-0.2-0.6-0.4-0.9
	c-0.4-0.9-0.5-1.8-0.3-3v-1.6c0-0.6-0.1-1.1-0.2-1.7c-0.1-0.6-0.1-1.1,0.1-1.7v-0.7c-0.2-0.8-0.2-1.4-0.1-1.8c0-0.9,0-1.9,0.1-2.8
	c0-0.9,0.1-1.9,0.2-3c0-0.3,0-0.5,0.1-0.6c0.2-0.8,0.4-1.5,0.5-2.2c0.1-0.7,0.3-1.4,0.4-2.2c0.2-1.4,0.5-2.8,1-4.1
	c0.1-0.2,0.2-0.4,0.3-0.7c0.1-0.3,0.1-0.5,0.1-0.7c0.1-0.7,0.2-1.3,0.4-1.9c0.2-0.6,0.4-1.2,0.6-1.8c0.3-0.9,0.5-1.9,0.8-2.8
	c0.2-0.9,0.4-1.8,0.6-2.8c0-0.3,0.1-0.6,0.3-1c0.2-0.8,0.4-1.4,0.7-2.1c0.3-0.6,0.5-1.3,0.7-2.1c0.4-1.4,1-2.6,2-3.7
	c1.1-1.3,2-2.8,2.6-4.4c0.2-0.4,0.5-0.7,0.9-1c0.4-0.3,0.7-0.5,1.1-0.8c0.3-0.2,0.7-0.5,1.1-0.8c0.4-0.3,0.9-0.3,1.4,0
	c0.5,0.2,0.9,0.4,1.2,0.6c0.3,0.2,0.7,0.4,1.2,0.6c0.5,0.2,0.9,0.4,1.1,0.6c0.3,0.2,0.6,0.5,0.9,0.6c0.5,0.5,0.7,0.9,0.7,1.4
	c0.1,0.6,0.2,1.1,0.3,1.6c0.1,0.5,0,1.1-0.1,1.6c-0.2,0.5-0.3,0.9-0.3,1.4s0,0.9-0.1,1.4c-0.1,0.3,0,0.5,0.4,0.7
	c0.5,0.2,1.1,0.2,1.9-0.1c0.8-0.2,1.4-0.6,1.8-1.2c0.3-0.6,0.5-1.2,0.8-1.8c0.2-0.6,0.4-1.3,0.4-2.1c-0.2-0.3-0.2-0.5,0-0.7
	c0.1-0.6,0.1-1.1-0.1-1.6c-0.1-0.5-0.3-0.9-0.5-1.4c-0.1-0.3-0.2-0.6-0.3-0.9c-0.1-0.3-0.2-0.6-0.3-0.9c0-0.6-0.2-1-0.7-1.3
	c-0.2-0.2-0.4-0.4-0.6-0.5c-0.2-0.1-0.5-0.3-0.6-0.4c-1.3-0.7-2.7-1.2-4-1.6c-1.3-0.4-2.7-0.5-4.3-0.3c-0.8,0-1.3,0-1.7,0.1
	c-0.5,0.1-1,0.2-1.6,0.2c-0.6,0-1.1,0.1-1.6,0.2c-0.6,0.2-1.1,0.3-1.6,0.4c-0.5,0.1-1,0.2-1.5,0.4c-0.9,0.4-1.8,0.8-2.7,1.1
	c-0.9,0.4-1.8,0.8-2.7,1.3c-0.8,0.5-1.4,1-2,1.5c-0.6,0.5-1.1,1.2-1.6,1.9c0,0.1-0.1,0.3-0.3,0.7c-0.4,0.7-0.7,1.3-1.1,1.8
	c-0.3,0.6-0.7,1.2-1.1,2c-0.4,0.8-0.8,1.6-1.1,2.4c-0.4,0.9-0.8,1.7-1.1,2.6c-0.4,0.8-0.7,1.6-0.9,2.4c-0.2,0.9-0.5,1.7-0.6,2.4
	c-0.1,0.2-0.1,0.3-0.1,0.4c0,0,0,0.2-0.1,0.4c-0.2,1.7-0.5,3.4-1,5c-0.5,1.6-0.8,3.3-1,5c-0.3,1.6-0.4,3.1-0.4,4.5
	c-0.1,0.2-0.2,0.3-0.3,0.5c-0.5,0.8-0.9,1.5-1.2,2.2c-0.3,0.7-0.7,1.4-1.2,2.2c-0.5,0.9-0.9,1.7-1.4,2.6c-0.5,0.9-1,1.7-1.6,2.5
	c-1.1,1.5-2.1,3-2.8,4.5c-0.9,1.9-1.9,3.7-2.8,5.5c-0.9,1.8-1.9,3.6-3,5.5c-0.8,1.3-1.6,2.6-2.4,4c-0.9,1.3-1.7,2.7-2.6,4
	c-0.2,0.2-0.3,0.3-0.4,0.4c0,0.1-0.2,0.2-0.4,0.4l-0.4,0.4c-0.3-0.4-0.5-0.6-0.5-0.8c0-0.1-0.1-0.4-0.1-0.6c0.2-0.4,0.3-0.7,0.3-1
	c-0.1-0.7-0.1-1.3-0.1-1.8c0-0.6,0.1-1.2,0.2-1.8c0.2-3.3,0.4-6.7,0.6-10.1c0.2-3.4,0.7-6.8,1.3-10.1c0.7-3.3,1.4-6.6,2.2-9.7
	c0.8-3.2,1.6-6.4,2.3-9.6c0.2-0.7,0.3-1.3,0.4-2c0.1-0.7,0.2-1.3,0.3-2c0.2-1.6,0.3-3.5,0.2-5.5c0-2.1-0.3-3.8-0.8-5.3
	c-0.2-0.5-0.3-0.9-0.4-1.2c-0.1-0.3-0.1-0.7,0-1.2c0.1-0.4-0.1-0.9-0.7-1.7c-0.5-0.5-0.9-0.9-1.3-1.3c-0.4-0.4-0.9-0.9-1.3-1.3
	c-0.9-0.8-1.9-1.1-3-1h-3.4c-2.9-0.2-5.4,0.6-7.4,2.4c-0.9,0.9-2,2-3.1,3.4c-0.5,0.8-1,1.5-1.5,2.2c-0.5,0.7-1,1.4-1.5,2.2
	c-0.5,0.8-0.9,1.5-1.3,2.2c-0.4,0.7-0.9,1.4-1.3,2.2l-4.7,8.5c-0.4,0.8-0.7,1.3-1,1.7c-0.3,0.5-0.5,1-0.8,1.6
	c-0.2,0.6-0.5,1.1-0.6,1.6c-0.4,0.9-0.7,1.6-0.9,2c-0.2,0.4-0.4,0.7-0.5,1c-0.1,0.3-0.3,0.6-0.5,1c-0.6,1-1.1,2.1-1.6,3.2
	c-0.5,1.1-1.1,2.2-1.6,3.2c-0.1,0.2-0.2,0.4-0.2,0.5c0,0.1-0.2,0.2-0.5,0.2c-0.1-0.6-0.1-1.1-0.1-1.6c0-0.5,0-1.1,0-1.6
	c0.1-1.2,0.1-2.5,0-3.8c-0.1-0.5-0.1-1,0-1.5c0.1-0.5,0.1-1,0.1-1.5c0-0.5-0.1-0.9-0.2-1.3c-0.1-0.4-0.2-0.8-0.2-1.3
	c-0.1-1.1-0.1-2.2,0.1-3.3c0.1-1.1,0.3-2.2,0.5-3.3c0.2-0.9,0.3-1.9,0.4-2.8c0-0.9,0.1-1.9,0.2-2.9c0.2-0.8,0.1-1.5-0.1-2.2
	c-0.3-0.7-0.5-1.4-0.7-2.2c-0.3-0.9-0.4-1.7-0.4-2.6c0-0.9,0.1-1.8,0.1-2.6c-0.2-1.4-0.9-2.4-2-3l-0.3-0.3c-0.1-0.3-0.2-0.6-0.3-0.9
	c-0.1-0.3-0.2-0.6-0.3-0.9c-0.3-0.2-0.6-0.4-0.9-0.6c-0.3-0.2-0.6-0.5-0.8-0.9c0-0.2-0.1-0.3-0.3-0.3c-1.5-0.8-3.2-1-5.1-0.7
	c-0.9,0.2-1.3,0.6-1.4,1.3c-0.2,0.5-0.3,1-0.4,1.5c-0.1,0.5-0.2,1-0.3,1.5c-0.2,1.1-0.3,2.3-0.4,3.5c-0.1,1.2-0.2,2.3-0.3,3.5
	c-0.2,2-0.3,4-0.4,6c-0.1,2-0.2,3.9-0.4,5.8v1c0.1,0.5,0.1,0.9,0.1,1.2c0,0.3,0,0.7,0,1.2c0,1.2,0,2.4,0,3.5c0,1.1,0,2.3,0.1,3.5
	v3.4c0,0.9,0,1.7,0,2.6c0,0.9,0,1.7,0.1,2.4c0.1,0.3,0.1,0.7,0.1,1.3c0,1.2,0,2.4,0,3.6c0,0.1,0,0.1,0,0.2c0,0.1-0.1,0.3-0.1,0.4
	c-0.1,0.9-0.3,1.7-0.5,2.4c-0.4,1-0.7,2-1.1,3c-0.3,0.9-0.6,1.9-0.9,3c-0.2,0.6-0.4,1.1-0.6,1.6c-0.2,0.5-0.4,1-0.6,1.6
	c-0.2,0.9-0.5,1.6-0.8,2.2c-0.3,0.6-0.6,1.3-0.8,2.1c-0.5,1-0.9,2.1-1.3,3.1c-0.4,1-0.8,2-1.1,3.1c-0.1,0.2-0.1,0.4-0.1,0.5
	c0,0.1,0,0.3-0.1,0.5c-0.5,1-1,2.1-1.5,3.3c-0.5,1.1-1.1,2.2-1.6,3.3c-0.2,0.4-0.3,0.7-0.3,0.9c-0.5,0.7-0.9,1.3-1.3,2
	c-0.4,0.7-0.8,1.3-1.1,2c-0.2,0.5-0.4,0.8-0.6,1c-0.4,0.4-0.7,0.7-1,1.1c-0.3,0.3-0.7,0.6-1.1,0.9c-1,0.5-2,0.3-2.8-0.6
	c-0.9-0.9-1.5-1.8-2-2.7c-0.5-0.9-0.8-1.7-0.9-2.5c-0.1-0.8-0.2-1.7-0.4-2.8c-0.2-0.6-0.4-1.1-0.5-1.6c-0.1-0.5-0.3-1.1-0.4-1.8
	c0-0.6,0-1.1,0.1-1.7c0-0.6,0.1-1.1,0.1-1.7c0.1-1.2,0.2-2.5,0.2-3.8c0-1.3,0.3-2.5,0.6-3.8c0.2-1,0.4-2.1,0.6-3.2
	c0.2-1.1,0.4-2.2,0.6-3.3c0.2-0.5,0.3-1,0.4-1.5c0.1-0.5,0.2-1,0.3-1.5c0.2-0.5,0.4-0.9,0.6-1.4c0.2-0.5,0.4-0.9,0.5-1.3
	c0-0.7,0.2-1.3,0.5-1.8c0.3-0.6,0.4-1.2,0.2-1.8v-0.1c0.2-0.8,0.3-1.5,0.3-2.2c0-0.7-0.1-1.4-0.3-2.1c0-0.2,0-0.3-0.1-0.4
	c-0.1-0.1,0-0.2,0.1-0.3c0.1-0.5,0-0.9-0.2-1.4c-0.2-0.5-0.5-0.9-0.8-1.4c-0.3-0.6-0.7-1-1.1-1.4c-0.5-0.4-0.9-0.8-1.4-1.1
	c-1.6-1.1-3.1-1.9-4.4-2.4c-0.9-0.5-1.7-0.9-2.5-1.2c-0.8-0.3-1.7-0.7-2.6-1.2c-1.2-0.6-2.3-1.3-3.1-2.3c-0.9-1-1.7-2.1-2.4-3.2
	c-0.3-0.4-0.2-0.8,0.1-1.1l1-1c1.6-1.1,2.9-2.6,4-4.5c0.4-0.5,0.7-0.9,1-1.4c0.3-0.5,0.5-0.9,0.7-1.4c0.2-0.5,0.4-0.9,0.6-1.3
	c0.2-0.4,0.4-0.9,0.6-1.3c0.4-0.9,0.6-1.6,0.6-2c0-0.3,0-0.5,0.1-0.8c0-0.2,0.1-0.5,0.2-0.9c0.1-0.3,0.2-0.6,0.3-0.9
	c0.1-0.3,0.1-0.6,0-0.9c-0.1-0.4-0.1-0.9-0.1-1.6c0.1-0.5,0-1.1-0.3-1.8c-0.3-0.6-0.8-1.1-1.4-1.6c-0.2-0.2-0.4-0.4-0.6-0.6
	c-0.2-0.2-0.5-0.4-0.6-0.7c-0.7-0.6-1.3-0.9-1.8-1c-0.7-0.2-1.3-0.4-1.9-0.5c-0.6-0.1-1.3-0.3-2.1-0.4c-0.8-0.2-1.5-0.3-2.3-0.3
	c-0.8,0-1.6,0.1-2.3,0.3c-0.7,0.3-1.3,0.8-2,1.4c-0.1,0.3-0.4,0.7-0.9,1.1c-0.4,0.5-0.8,0.9-1.1,1.3c-0.4,0.4-0.7,0.9-0.9,1.4
	c-0.1,0.4-0.3,0.9-0.7,1.7c-0.2,0.3-0.3,0.6-0.4,0.9c-0.1,0.3-0.2,0.6-0.4,0.9c-0.4,0.8-0.7,1.5-1.1,2.3c-0.3,0.8-0.6,1.6-0.8,2.3
	c-0.6,2.8-0.7,5.7-0.4,8.5c0.1,0.4,0.2,0.8,0.2,1.2c0,0.4,0.1,0.9,0.2,1.3c0.5,1.8,1.3,3.4,2.3,4.7c1,1.3,2.2,2.4,3.6,3.4
	c-0.1,0.2-0.3,0.4-0.4,0.7c-0.6,1-1.2,2.1-1.6,3.2c-0.1,0.3-0.3,0.7-0.7,1.3c-0.9,1.4-1.8,2.9-2.7,4.4c-0.9,1.5-1.8,2.9-3,4.3
	c-0.2,0.2-0.4,0.4-0.5,0.6c-0.1,0.2-0.3,0.5-0.5,0.8c-0.7,1.3-1.4,2.5-2.2,3.6c-0.8,1.1-1.6,2.2-2.5,3.3c-0.6,0.7-1.2,1.3-1.8,1.8
	c-0.8,0.6-1.5,1.1-2.3,1.7c-0.8,0.6-1.6,1.1-2.5,1.7c-0.9,0.8-2.2,1.4-3.7,1.8c-0.9,0.2-1.5,0.1-1.8-0.1c-1.2-0.5-2.2-1.2-2.8-2.1
	c-1.1-1.5-1.8-3.3-1.9-5.5c-0.1-2.1-0.1-4.3,0.1-6.6c0.2-2.3,0.5-4.5,0.9-6.8c0.3-2.3,0.5-4.3,0.5-6.1c0-0.3,0-0.6,0.1-0.9
	c0-0.3,0.1-0.6,0.2-1c0.3-1,0.5-1.7,0.7-1.8c0.2-0.2,0.9-0.4,2.3-0.6c0.8-0.2,1.5-0.4,2.3-0.7c0.8-0.3,1.6-0.6,2.5-0.9
	c0.5-0.2,0.9-0.4,1.2-0.6c0.3-0.2,0.7-0.4,1.1-0.6c0.3,0,0.5-0.1,0.7-0.4c0.3-0.4,0.6-0.7,1-0.9c0.4-0.2,0.8-0.4,1.1-0.6
	c1.2-0.9,2.3-2.5,3.3-4.8c1-2.2,1.6-4.5,1.8-6.9c0.2-2.4,0-4.4-0.9-6.2c-0.8-1.7-2.2-2.6-4.2-2.8c0-1.3-0.7-2.5-1.3-3.7
	c-1.2-2.3-2.8-4.4-4.6-6.2c-1-1-2.7-0.2-2.7,1.1C68.1,44,67.5,47,66.5,50c-0.5,0.2-1.1,0.3-1.6,0.5c-1.2,0.5-2.5,1-3.7,1.7
	c-0.4,0.2-0.7,0.4-1,0.7c-0.8,0.8-1.5,1.5-2.1,2.3c-0.4,0.5-0.7,1-0.9,1.5c-1.9-0.1-3.8-0.2-5.8-0.3c-1.4-0.1-3.3-0.5-4.1,1
	c-0.8,1.4,0.3,2.8,1.1,3.9c1.1,1.6,2.4,3.2,3.7,4.7c0.2,0.2,0.4,0.3,0.6,0.4c0,0.1,0,0.1-0.1,0.2c-0.5,1.4-1,2.8-1.3,4.3
	c-0.2,1.2-0.4,2.4-0.6,3.5c-0.2,1.1-0.5,2.3-0.8,3.4c-0.1,0.3-0.2,0.5-0.2,0.8c0,0.2-0.1,0.5-0.1,0.8c-0.1,1.1-0.2,2.3-0.3,3.5
	c-0.1,1.2-0.2,2.3-0.4,3.5c-0.2,1.9-0.3,3.7-0.4,5.5c0,1.8,0,3.6,0.1,5.5c0.2,3.3,1.1,6.2,2.8,8.8c0.7,0.9,1.4,1.6,2.1,2.2
	c0.8,0.6,1.6,1.2,2.4,1.8l0.6,0.3c1,0.3,2.1,0.6,3.1,0.9c1,0.3,2.1,0.5,3.1,0.6c1.5,0.1,2.9-0.1,4.3-0.5c1.3-0.4,2.6-1,3.8-1.7
	c1.2-0.7,2.3-1.5,3.5-2.4c1.1-0.9,2.3-1.8,3.4-2.6c1.4-1,2.7-2.2,3.8-3.5c1.1-1.3,2.1-2.6,3-4c0.9-1.4,1.8-2.8,2.6-4.3
	c0.9-1.4,1.8-2.8,2.8-4.1c0.5-0.6,0.8-1.2,1.1-1.8c0.2-0.7,0.6-1.2,1.1-1.7c0.2-0.8,0.5-1.4,1-2.1c0.5-0.6,0.7-1.3,0.7-2.2
	c0-0.2,0.1-0.4,0.3-0.6c0.3-0.7,0.6-1.3,1-1.9c0.4,0.3,0.7,0.5,1.1,0.7c0.9,0.5,1.8,1.1,2.8,1.8c0.9,0.5,1.8,0.9,2.7,1.3
	c0.9,0.4,1.8,0.9,2.7,1.3c1.9,0.9,2.7,2.4,2.4,4.3c0,0.3,0,0.6-0.1,0.9c-0.2,0.8-0.4,1.5-0.5,2.2c-0.1,0.7-0.4,1.5-0.6,2.3
	c-0.4,1.3-0.8,2.7-1.2,4c-0.4,1.4-0.7,2.8-0.9,4.3c0,0.4,0,0.7-0.1,1.1c0,0.3-0.1,0.7-0.2,1.2c-0.2,1.1-0.3,2.2-0.4,3.3
	c-0.1,1.1-0.2,2.2-0.4,3.3c-0.2,0.9-0.3,1.8-0.3,2.7c0,0.9,0,1.8-0.1,2.7c0,0.8,0,1.4,0.1,2.1c0,0.6,0.1,1.3,0.2,2.1
	c0.2,0.9,0.3,1.9,0.4,3c0.1,1,0.2,2.1,0.4,3.1c0.9,3.5,2.8,6.2,6,7.9c0.5,0.2,1,0.4,1.5,0.6c0.5,0.2,1.1,0.4,1.6,0.4
	c0.7,0.3,1.4,0.4,2.1,0.4c1.2,0.5,2.3,0.2,3.1-0.7c0.2-0.2,0.3-0.3,0.4-0.3c0.1,0,0.2,0,0.4-0.1c0.6,0,1.1-0.2,1.6-0.7
	c0.9-0.3,1.6-0.6,2.1-0.9c0.2-0.2,0.4-0.3,0.6-0.4c0.2-0.1,0.4-0.2,0.7-0.4c0.5-0.4,0.9-0.8,1.2-1.2c0.3-0.4,0.7-0.8,1.2-1.2
	c0.3-0.4,0.6-0.7,0.9-1c0.3-0.3,0.6-0.7,0.9-1.1c0.2-0.2,0.3-0.4,0.4-0.6c0-0.2,0.1-0.4,0.2-0.6c0.2-0.3,0.3-0.5,0.4-0.8
	c0.1-0.2,0.2-0.5,0.3-0.8c0.5-0.9,0.9-1.9,1.3-2.8c0.4-0.9,0.8-1.8,1.3-2.6c0.6-0.8,0.9-1.4,1-2c0.3-0.7,0.5-1.3,0.8-2.1
	c0.2-0.7,0.5-1.4,0.9-2.2c0.5-1.1,1.1-2.7,1.8-4.7c0.8-2,1.5-4,2.3-6c0.1,0.3,0.1,0.6,0.1,0.8c0,0.3,0,0.6,0.1,0.9
	c0.4,0.9,0.8,1.3,1.3,1.4c0.8,0.2,1.5,0.3,2.1,0.4c0.7,0.1,1.4,0,2.1-0.4c0.5-0.2,0.9-0.4,1.3-0.6c0.4-0.2,0.9-0.3,1.5-0.2
	c0.1,0,0.3-0.1,0.6-0.4c0.6-0.4,1.1-0.5,1.7-0.3c0.6,0.1,1-0.1,1.3-0.6c0.3-0.6,0.6-1.1,0.9-1.6c0.3-0.5,0.5-1,0.7-1.5
	c0.2-0.4,0.3-0.7,0.3-0.9c-0.2-0.5-0.2-0.9,0-1.3c0.2-0.4,0.4-0.8,0.6-1.3c0.2-0.4,0.4-0.8,0.6-1.1c0.2-0.4,0.3-0.8,0.4-1.3
	c0.2-0.7,0.4-1.3,0.5-1.9c0.1-0.6,0.4-1.2,0.9-1.6c0.1,0,0.1,0,0.1-0.1c0.5-1.2,1-2.4,1.7-3.6c0.7-1.2,1.3-2.4,1.8-3.6
	c0.7-1.3,1.3-2.6,2-3.9c0.7-1.3,1.4-2.5,2.3-3.8c0.9-1.3,1.9-2.6,2.8-3.8c0.9-1.2,1.8-2.5,2.7-3.8c0.7-1,1.3-2.2,2-3.5
	c0.7-1.3,1.5-2.2,2.6-2.9c0.2-0.2,0.3-0.4,0.4-0.5c0-0.1,0.2-0.3,0.4-0.5c0.2-0.2,0.3-0.4,0.4-0.7c0.1-0.3,0.2-0.5,0.4-0.7
	c0.2-0.4,0.4-0.6,0.6-0.7c0.5-0.4,1.1-0.7,1.8-1v0.7c0,1.3-0.1,2.6-0.3,3.8c-0.2,1.2-0.4,2.4-0.6,3.8c-0.2,1-0.4,2.1-0.6,3.2
	c-0.2,1.1-0.4,2.2-0.6,3.2c-0.2,1.3-0.4,2.7-0.6,4.1c-0.2,1.4-0.4,2.8-0.6,4.1c-0.2,1-0.4,2.1-0.6,3.2c-0.2,1.1-0.4,2.2-0.6,3.2
	c-1.1,5.3-1.8,10.6-2.1,15.8v3.7c0,3.2,0.3,6.4,0.9,9.5c0.1,0.7,0.3,1.3,0.5,1.8c0.2,0.6,0.4,1.1,0.6,1.7c0.8,1.7,1.9,2.7,3.5,3.1
	c2.6,0.5,5.1,0,7.5-1.3c2.5-1.4,4.5-3,6.1-4.9c1.6-2,3-4.1,4-6.3c1.1-2.2,2.2-4.4,3.3-6.6c1-1.9,2-3.8,3-5.8c0.9-2,2-3.9,3.1-5.8
	c0.1-0.2,0.2-0.3,0.3-0.5c0,0.6,0,1.1,0,1.7c0,1.1,0,2.3,0.1,3.4c0,1.1,0.1,2.2,0.4,3.1c0.2,0.4,0.3,0.7,0.4,1c0,0.3,0.2,0.6,0.4,1
	c0.4,1.1,0.8,2.2,1.3,3.3c0.5,1,1.2,2,2.1,2.8c0.1,0.1,0.3,0.4,0.7,1c1.1,1.1,2.4,2,3.8,2.7c0.4,0.1,0.9,0.3,1.7,0.7
	c0.5,0.2,1.2,0.3,2.1,0.3c1.3-0.2,2.6-0.4,3.8-0.8c1.2-0.3,2.5-0.7,3.7-1.1c1.6-0.5,3.1-1.1,4.5-1.8c1.4-0.8,2.7-1.6,4-2.4
	c1.1-0.7,2.1-1.4,3-2.3c0.9-0.9,1.7-1.9,2.4-2.9l1.3-1.7c0.9-0.9,1.8-1.8,2.8-2.6c1-0.8,1.8-1.7,2.5-2.8l0.1-0.1
	c0.5-0.5,0.9-1,1.3-1.6c0.4-0.6,0.9-1,1.4-1.4c0.2-0.2,0.3-0.4,0.4-0.6c0.3-0.5,0.6-0.9,0.9-1.3c0.2-0.3,0.3-0.6,0.5-0.9
	c0.4,1.3,0.8,2.3,1.4,3c1,1.5,2.3,2.5,3.7,3c1.4,0.5,2.9,0.7,4.5,0.6c0.9-0.1,1.7-0.3,2.5-0.5c0.8-0.2,1.6-0.4,2.5-0.5
	c1.3-0.1,2.5-0.4,3.5-1.1c1-0.6,1.9-1.3,2.8-2.1c0.2-0.2,0.4-0.4,0.6-0.5c0.2-0.1,0.4-0.3,0.6-0.5V91c-0.2,1.3-0.3,2.7-0.4,4
	c-0.1,1.3-0.2,2.6-0.3,4c-0.1,1.7,0,3.4,0.1,5c0.2,1.7,0.8,3.2,1.7,4.8c0.3,0.7,0.7,1.2,1.3,1.6c0.9,0.9,2.3,1.4,4,1.6
	c1.7,0.2,3.1,0.1,4.3-0.3c2.4-0.9,4.5-2.2,6.3-4c1.8-1.8,3.5-3.8,5-6.1c1.5-2.3,2.8-4.6,3.9-7c1.1-2.4,2.2-4.7,3.1-6.9
	c0.1-0.3,0.3-0.8,0.5-1.3c0,0.4,0,0.8,0,1.2c0,0.6-0.1,1.1-0.1,1.7c0,0.5,0,0.9,0,1.1c0,0.3,0,0.7-0.1,1.1c0,0.8,0,1.5-0.1,2.3
	c0,0.8-0.1,1.5-0.1,2.3v4.1v2.1c0,0.7,0,1.3,0.1,1.9c0,0.6,0.1,1.3,0.2,1.9c0.1,0.4,0.1,0.9,0.1,1.4c0.1,0.5,0.2,0.9,0.2,1.3
	c0,0.4,0.1,0.9,0.2,1.3c0.1,1,0.2,2.1,0.4,3.1c0.1,1,0.5,2,0.9,3.1c1.1,3.3,3.3,5.3,6.5,5.8c1,0.3,2,0.4,3,0.5
	c0.9,0,1.9,0.1,2.8,0.1c0.6,0,1.2-0.2,1.8-0.6c0.1,0,0.2,0,0.2-0.1c0-0.1,0.2-0.1,0.4-0.1c0.9-0.3,1.8-0.9,2.6-2c1-1,2.2-2,3.3-2.8
	c1.2-0.9,2.2-1.9,3.1-3.3c0.9-1.3,1.6-2.6,2.3-4c0.7-1.3,1.4-2.6,2.1-4c1.3-2.9,2.8-5.7,4.5-8.3c1.7-2.6,3.5-5.2,5.4-7.9
	c1-1.6,2-3.3,2.8-5c0.9-1.7,1.7-3.4,2.7-5c0.2-0.5,0.4-0.9,0.6-1.2c0.2-0.3,0.4-0.7,0.6-1.1c0.2-0.4,0.4-0.9,0.6-1.4
	c0-0.1,0-0.2,0.1-0.3c0.1-0.1,0.2-0.2,0.3-0.4l0.3-0.3C348.8,73.8,348.5,73.1,347.2,72.7z M64.6,70.6c0.1-0.3,0.2-0.7,0.4-1.2
	c0.2-0.6,0.3-1.1,0.4-1.7c0.1-0.6,0.2-1.2,0.3-1.8c0.2-0.8,0.3-1.6,0.4-2.4c0.1-0.9,0.3-1.7,0.7-2.4c0.3-0.4,0.4-0.9,0.4-1.4
	c0.1-0.9,0.3-1.8,0.6-2.6c0.3-0.8,0.6-1.6,0.9-2.3c0.5-1.4,1.6-2.3,3.3-2.6c1-0.2,2-0.1,2.8,0.3c0.8,0.4,1.6,0.9,2.3,1.7
	c0.3,0.2,0.4,0.4,0.4,0.7c0.3,0.9,0.8,1.8,1.4,2.6c-0.1,0.2-0.2,0.4-0.2,0.7c0,0.3-0.1,0.5-0.2,0.7c-0.3,0.8-0.4,1.4-0.3,2
	c0.2,0.3,0.1,0.7-0.1,1.1c-0.6,0.9-1.1,1.8-1.6,2.7c-0.5,0.9-1.1,1.7-1.8,2.6c-0.8,1.1-1.9,2.1-3.4,2.8c-2,0.9-4.2,1.6-6.7,1.8
	C64.6,71.4,64.5,71,64.6,70.6z M51.2,59.8c-0.1-0.1-0.1-0.2-0.2-0.2c0.1,0,0.3,0,0.4,0C51.3,59.7,51.2,59.8,51.2,59.8z M98.5,65.3
	c-0.1-0.7-0.1-1.3-0.1-1.8c0.1-0.6,0.1-1.1,0.1-1.6c0-0.5,0-1,0-1.5v-1.4c0-0.2,0-0.3-0.1-0.4c0-0.1,0-0.2,0.1-0.4
	c0.1-0.9,0.3-1.9,0.5-2.9c0.2-1,0.6-1.9,1.1-2.6c0.3-0.4,0.4-0.8,0.4-1.1c0-0.6,0.2-1.2,0.7-1.8c0.1-0.2,0.3-0.4,0.5-0.6
	c0.2-0.2,0.4-0.5,0.4-0.8c0-0.2,0.1-0.3,0.4-0.3h0.4c1.3,0.7,2.3,1.6,3,2.7c0.1,0.3,0.1,0.6,0.1,1c-0.2,1-0.4,2.1-0.5,3.1
	c-0.1,1-0.3,2-0.4,2.9c0,0.7-0.2,1.3-0.6,2c-0.3,0.6-0.5,1.1-0.8,1.6c-0.2,0.5-0.5,1-0.9,1.5c-0.3,0.2-0.5,0.5-0.7,0.9
	c-0.2,0.4-0.4,0.8-0.6,1.1c-0.3,0.5-0.7,1-1.2,1.5c-0.5,0.5-1,0.9-1.5,1.2C98.8,66.6,98.6,66,98.5,65.3z"/>
</svg>
