<?xml version="1.0" encoding="utf-8"?>
<!-- Generator: Adobe Illustrator 19.2.1, SVG Export Plug-In . SVG Version: 6.00 Build 0)  -->
<svg version="1.1" id="Layer_1" xmlns="http://www.w3.org/2000/svg" xmlns:xlink="http://www.w3.org/1999/xlink" x="0px" y="0px"
	 viewBox="0 0 393.3 157.5" style="enable-background:new 0 0 393.3 157.5;" xml:space="preserve">
<style type="text/css">
	.st0{fill:none;}
	.st1{enable-background:new    ;}
	.st2{fill:#FF9D6C;}
	.st3{fill:#B7ADA5;}
	.st4{fill:#706259;}
	.st5{fill:#565759;}
	.st6{fill:#4C4C4C;}
</style>
<rect x="-627.8" y="90.6" class="st0" width="408.9" height="469.5"/>
<text transform="matrix(1 0 0 1 -627.8436 100.9681)" style="font-family:'ITCAvantGardeStd-Md'; font-size:14px;">Erin Moncrieff</text>
<text transform="matrix(1 0 0 1 -627.8436 117.7681)" style="font-family:'ITCAvantGardeStd-Md'; font-size:14px;">Wordmark</text>
<text transform="matrix(1 0 0 1 -627.8436 134.5681)" style="font-family:'ITCAvantGardeStd-Md'; font-size:14px;">Graphic Design 5</text>
<text transform="matrix(1 0 0 1 -627.8436 151.3681)" style="font-family:'ITCAvantGardeStd-Md'; font-size:14px;">Robert Smith</text>
<text transform="matrix(1 0 0 1 -627.8436 168.1681)" style="font-family:'ITCAvantGardeStd-Md'; font-size:14px;">Oct 18 2015</text>
<g>
	<rect x="-29.9" y="517.5" class="st2" width="72.4" height="72.4"/>
	<rect x="99.1" y="517.5" class="st3" width="72.4" height="72.4"/>
	<rect x="228.1" y="517.5" class="st4" width="72.4" height="72.4"/>
	<rect x="357.1" y="517.5" width="72.4" height="72.4"/>
	<text transform="matrix(1 0 0 1 -29.881 627.1882)" class="st5" style="font-family:'ITCAvantGardeStd-Md'; font-size:8px;">Pantone 163 C</text>
	<text transform="matrix(1 0 0 1 -29.881 636.7882)" class="st5" style="font-family:'ITCAvantGardeStd-Md'; font-size:8px;">C 0% M 48% Y 58% K 0%</text>
	<text transform="matrix(1 0 0 1 -29.881 646.3882)" class="st5" style="font-family:'ITCAvantGardeStd-Md'; font-size:8px;">R 225 G 157 B 108</text>
	<text transform="matrix(1 0 0 1 99.0458 627.1882)" class="st5" style="font-family:'ITCAvantGardeStd-Md'; font-size:8px;">Pantone Warm Gray 4 C</text>
	<text transform="matrix(1 0 0 1 99.0458 636.7882)" class="st5" style="font-family:'ITCAvantGardeStd-Md'; font-size:8px;">C 30% M 28% Y 32% K 0%</text>
	<text transform="matrix(1 0 0 1 99.0458 646.3882)" class="st5" style="font-family:'ITCAvantGardeStd-Md'; font-size:8px;">R 183 G 173 B 165</text>
	<text transform="matrix(1 0 0 1 227.9727 627.1882)" class="st5" style="font-family:'ITCAvantGardeStd-Md'; font-size:8px;">Pantone Warm Gray 11 C</text>
	<text transform="matrix(1 0 0 1 227.9727 636.7882)" class="st5" style="font-family:'ITCAvantGardeStd-Md'; font-size:8px;">C 52% M 53% Y 59% K 24%</text>
	<text transform="matrix(1 0 0 1 227.9727 646.3882)" class="st5" style="font-family:'ITCAvantGardeStd-Md'; font-size:8px;">R 112 G 98 B 89</text>
	<text transform="matrix(1 0 0 1 357.6663 627.7361)" style="font-family:'ITCAvantGardeStd-Md'; font-size:8px;">Black</text>
	<text transform="matrix(1 0 0 1 357.6663 637.3361)" style="font-family:'ITCAvantGardeStd-Md'; font-size:8px;">K 100%</text>
	<text transform="matrix(1 0 0 1 357.6663 646.9361)" style="font-family:'ITCAvantGardeStd-Md'; font-size:8px;">R 35 G 31 B 32</text>
</g>
<path class="st6" d="M347.2,72.8c-0.2,0-0.4,0-0.6,0.1c-0.8,0.3-1.2,1.1-1.7,1.8c-9,14.4-18.4,28.6-28.1,42.6c-1,1.4-3,3-4.2,1.7
	c-0.5-0.6-0.6-1.4-0.5-2.2c0.5-23.2,1-46.4,1.5-69.6c8.5-0.1,17-3.1,23.8-8.2c0.4-0.3,0.8-0.6,0.9-1c0.5-1.6-2.1-2.1-3.7-1.6
	c-4.2,1.4-8.2,3.8-12.6,4.3c-4.4,0.5-9.6-1.7-10.4-6.1c-0.4-2.1,0.3-4.2,0.2-6.2c-0.1-2.1-1.6-4.4-3.6-4.2
	c-0.9,4.1-1.7,8.3-2.6,12.4c-5.8-0.3-11.6-0.5-17.5-0.8c-4-0.2-8.6-0.1-11.1,3.1c8.8,0.4,17.5,2.4,25.7,5.8c0.5,0.2,1.1,0.5,1.3,1
	c0.2,0.4,0.2,0.9,0.1,1.4c-0.3,2.6-0.5,5.3-0.8,7.9c-0.9,9-1.8,18.1-4.6,26.7c-2.8,8.3-7.3,16-13.3,22.4c-1,1-2.4,2.1-3.7,1.5
	c-1.4-0.6-1.4-2.6-1.2-4.1c1.8-12.3,3.6-24.6,5.5-37c0.2-1.1,0.3-2.3-0.2-3.3c-0.9-1.8-3.7-2-5.4-0.9c-1.7,1.2-2.6,3.2-3.2,5.1
	c-2.6,7.8-3.4,16.9-9.4,22.4c-1.2,1.1-2.6,2-4.1,2c-2.2,0-4.1-1.8-4.9-3.9c-0.7-2.1-0.5-4.4-0.1-6.6c1-5.9,3.1-11.6,5.3-17.3
	c1.4-3.6,3-7.5,6.2-9.7c3.2-2.3,8.4-2.1,10.3,1.3c0.9,1.6,1.4,3.9,3.1,3.9c1.7,0,2.4-2.3,1.9-3.9c-0.8-2.5-3-4.2-5.5-5
	s-5.1-0.6-7.6-0.2c-3.8,0.6-7.5,1.7-10.7,3.8c-5,3.4-7.9,9-9.9,14.7c-1.7,4.7-2.8,9.6-3.3,14.6c-0.1,1.3-0.3,2.6-0.7,3.8
	c-0.5,1.4-1.5,2.5-2.5,3.6c-3.3,3.7-6.6,7.3-10,10.9c-3.8,4-8.3,8.1-13.8,8.5c-0.8,0-1.7,0-2.4-0.4c-1.2-0.6-1.7-1.9-2.1-3.2
	c-2.5-7.6-1.8-15.9-0.3-23.8c1.5-7.9,3.8-15.7,6.9-23.1c0.8-2,1.8-4.1,3.3-5.7c1.5-1.6,3.8-2.6,6-2.2c2.5,0.5,4.3,3.2,3.8,5.7
	c-0.2,1.3-1,2.8-0.1,3.9c1.1,1.5,3.5,0,4.3-1.7c1.4-3,0.9-6.8-1.2-9.3c-2.6-3.1-7.3-3.9-11.2-3.1c-0.5,0.1-1,0.2-1.6,0.2
	s-1.1,0.1-1.6,0.2c-0.6,0.2-1.1,0.3-1.6,0.4c-3.8,0.8-7.2,2.5-9.7,5.4c-2.1,2.4-3.5,5.4-4.7,8.4c-2.2,5.7-3.3,11.5-4.5,17.5
	c-0.3,1.6-0.4,3.1-0.4,4.5c-0.1,0.2-0.2,0.3-0.3,0.5c-0.5,0.8-0.9,1.5-1.2,2.2s-0.7,1.4-1.2,2.2c-0.5,0.9-0.9,1.7-1.4,2.6
	s-1,1.7-1.6,2.5c-1.1,1.5-2.1,3-2.8,4.5c-0.9,1.9-1.9,3.7-2.8,5.5c-0.9,1.8-1.9,3.6-3,5.5c-0.8,1.3-1.6,2.6-2.4,4
	c-0.9,1.3-1.7,2.7-2.6,4c-0.2,0.2-0.3,0.3-0.4,0.4c0,0.1-0.2,0.2-0.4,0.4l-0.4,0.4c-0.3-0.4-0.5-0.6-0.5-0.8c0-0.1-0.1-0.4-0.1-0.6
	c0.2-0.4,0.3-0.7,0.3-1c-0.1-0.7-0.1-1.3-0.1-1.8c0-0.6,0.1-1.2,0.2-1.8c0.2-3.3,0.4-6.7,0.6-10.1c0.2-3.4,0.7-6.8,1.3-10.1
	c0.7-3.3,1.4-6.6,2.2-9.7c0.8-3.2,1.6-6.4,2.3-9.6c0.2-0.7,0.3-1.3,0.4-2c0.1-0.7,0.2-1.3,0.3-2c0.2-1.6,0.3-3.5,0.2-5.5
	c0-2.1-0.3-3.8-0.8-5.3c-0.2-0.5-0.3-0.9-0.4-1.2c-0.1-0.3-0.1-0.7,0-1.2c0.4-1.8-3.2-4.4-4.6-4.9c-1.2-0.5-2.6-0.5-3.9-0.5
	c-2.2,0-4.4,0-6.3,0.9c-1.9,0.9-3.4,2.6-4.7,4.3c-4.3,5.6-7.8,11.7-11,18c-0.4,0.8-0.7,1.3-1,1.7c-0.3,0.5-0.5,1-0.8,1.6
	c-0.2,0.6-0.5,1.1-0.6,1.6c-0.4,0.9-0.7,1.6-0.9,2s-0.4,0.7-0.5,1s-0.3,0.6-0.5,1c-0.6,1-1.1,2.1-1.6,3.2s-1.1,2.2-1.6,3.2
	c-0.1,0.2-0.2,0.4-0.2,0.5c0,0.1-0.2,0.2-0.5,0.2c-1.1,0,0.6-21.9,0.6-23.8c0-2.8-0.4-5.7-0.8-8.5c-0.2-1.3-0.4-2.7-0.9-3.9
	c-1.3-3.1-10.2-9.9-11.1-3c-0.9,7-1.4,14-1.6,21.1c-0.1,5.1-1.5,13,0.2,17.9c0.1,0.3,0.1,0.7,0.1,1.3c0,1.2,0,2.4,0,3.6
	c0,0.1,0,0.1,0,0.2s-0.1,0.3-0.1,0.4c-0.1,0.9-0.3,1.7-0.5,2.4c-0.4,1-0.7,2-1.1,3c-0.3,0.9-0.6,1.9-0.9,3c-0.2,0.6-0.4,1.1-0.6,1.6
	c-0.2,0.5-0.4,1-0.6,1.6c-0.2,0.9-0.5,1.6-0.8,2.2s-0.6,1.3-0.8,2.1c-0.5,1-0.9,2.1-1.3,3.1c-0.4,1-0.8,2-1.1,3.1
	c-0.1,0.2-0.1,0.4-0.1,0.5s0,0.3-0.1,0.5c-0.5,1-1,2.1-1.5,3.3c-0.5,1.1-1.1,2.2-1.6,3.3c-0.2,0.4-0.3,0.7-0.3,0.9
	c-0.5,0.7-0.9,1.3-1.3,2s-0.8,1.3-1.1,2c-0.2,0.5-0.4,0.8-0.6,1c-0.4,0.4-0.7,0.7-1,1.1c-0.3,0.3-0.7,0.6-1.1,0.9
	c-1,0.5-2,0.3-2.8-0.6c-0.9-0.9-1.5-1.8-2-2.7c-0.5-0.9-0.8-1.7-0.9-2.5s-0.2-1.7-0.4-2.8c-0.2-0.6-0.4-1.1-0.5-1.6
	s-0.3-1.1-0.4-1.8c0-0.6,0-1.1,0.1-1.7c0-0.6,0.1-1.1,0.1-1.7c0.1-1.2,0.2-2.5,0.2-3.8s0.3-2.5,0.6-3.8c0.2-1,0.4-2.1,0.6-3.2
	s0.4-2.2,0.6-3.3c0.2-0.5,0.3-1,0.4-1.5s0.2-1,0.3-1.5c0.2-0.5,0.4-0.9,0.6-1.4s0.4-0.9,0.5-1.3c0-4.7,2.7-8.4-1.3-12.6
	c-2.2-2.3-5.3-3.6-8.3-5s-5.9-3-7.7-5.7c-0.3-0.4-0.5-0.9-0.5-1.3c0-0.6,0.4-1,0.8-1.4c2.9-3.2,6-6.5,7.4-10.6s0.8-9.3-2.6-11.9
	c-3.7-2.9-9.5-1.8-13,1.5c-3.4,3.3-4.9,8.1-5.4,12.9c-0.7,6.2,0.5,13.7,6,16.6c-5.1,9.7-10.5,19.7-19.1,26.6
	c-2.1,1.7-4.7,3.2-7.3,2.4c-3.6-1.1-4.4-5.8-4.4-9.6c0.1-6.4,0.7-12.8,1.9-19.1c0.1-0.6,0.3-1.3,0.7-1.8c0.6-0.7,1.7-0.8,2.6-1
	c8.1-1.3,14.7-9,14.7-17.3c0-2.6-0.8-5.5-2.9-7c-0.7-0.5-1.4-0.8-2-1.4c-0.6-0.6-0.9-1.5-1.3-2.3c-1-2.2-2.3-4.3-3.8-6.1
	c-0.4-0.5-0.8-0.9-1.4-1.1c-1.6-0.5-3,1.4-3.1,3.1c-0.1,1.7,0.3,3.5-0.4,5c-1.2,2.3-4.3,2.5-6.4,4c-1.9,1.3-3.1,3.8-5.3,4.4
	c-1.6,0.4-3.3-0.3-5-0.5s-3.8,0.7-3.8,2.4c0,0.8,0.5,1.4,1,2.1c1.4,1.9,2.9,3.8,4.3,5.7c-2.4,8.8-3.6,17.9-3.7,27.1
	c0,4.3,0.2,8.9,2.7,12.5c3.9,5.8,12.5,6.9,18.9,4.2c6.5-2.7,11.2-8.4,15.1-14.1c3.7-5.4,7-11.2,9.8-17.1c2.9,1.6,5.9,3.1,8.8,4.7
	c0.8,0.4,1.7,0.9,2.3,1.7c0.8,1.2,0.6,2.8,0.4,4.2c-1.5,9.3-4.4,18.4-4.6,27.9c-0.1,6.3,1.5,13.3,6.8,16.7
	c6.7,4.2,17.2-1.2,19.5-8.3c0.1-0.2,0.2-0.5,0.3-0.8c0.5-0.9,0.9-1.9,1.3-2.8c0.4-0.9,0.8-1.8,1.3-2.6c0.6-0.8,0.9-1.4,1-2
	c0.3-0.7,0.5-1.3,0.8-2.1c0.2-0.7,0.5-1.4,0.9-2.2c0.5-1.1,1.1-2.7,1.8-4.7c0.8-2,1.5-4,2.3-6c0.1,0.3,0.1,0.6,0.1,0.8
	c0,0.3,0,0.6,0.1,0.9c0.4,0.9,0.8,1.3,1.3,1.4c13.2,3.3,14.6-13.8,19.1-22c4-7.2,8.6-15.8,14.4-21.6c0.2-0.2,0.3-0.4,0.4-0.5
	c0-0.1,0.2-0.3,0.4-0.5s0.3-0.4,0.4-0.7c0.1-0.3,0.2-0.5,0.4-0.7c0.2-0.4,0.4-0.6,0.6-0.7c0.5-0.4,1.1-0.7,1.8-1v0.7
	c0,1.3-0.1,2.6-0.3,3.8s-0.4,2.4-0.6,3.8c-3.1,15.7-7,32.4-5.1,48.5c0.2,1.9,0.5,3.7,1.5,5.4c2.3,4,7.4,3.4,10.9,1.5
	c2.5-1.4,4.5-3,6.1-4.9c1.6-2,3-4.1,4-6.3c1.1-2.2,2.2-4.4,3.3-6.6c1-1.9,2-3.8,3-5.8c1-1.9,1.8-4.1,3.2-5.7c0.3,3.8,0.4,7.4,1.9,11
	c1.2,3,3.2,5.9,6.1,7.6c4.8,2.7,11,1.4,15.8-1.2c9-4.8,15.6-13,21.9-21.1c1.1,4.2,5.9,6.7,10.3,6.4c4.4-0.3,8.4-2.6,12-5.1
	c-0.7,4-0.9,8.2-0.7,12.3c0.2,3,0.7,6.3,2.9,8.3c3.7,3.3,9.7,1.4,13.5-1.8c6.7-5.6,10.3-13.9,13.6-22c-0.6,7.7-0.5,15.5,0.3,23.1
	c0.4,4,1.3,8.2,4.3,10.8c2.7,2.3,6.8,2.7,10.2,1.6s6.3-3.6,8.6-6.3c2.7-3.1,4.7-6.7,6.8-10.3c5.8-10.1,11.7-20.2,17.5-30.4
	c0.3-0.5,0.5-1,0.4-1.5C348.4,73.1,347.8,72.8,347.2,72.8z M64.6,70.6c0.1-0.3,0.2-0.7,0.4-1.2c0.2-0.6,0.3-1.1,0.4-1.7
	s0.2-1.2,0.3-1.8c0.2-0.8,0.3-1.6,0.4-2.4c0.1-0.9,0.3-1.7,0.7-2.4c0.3-0.4,0.4-0.9,0.4-1.4c0.1-0.9,0.3-1.8,0.6-2.6
	c0.3-0.8,0.6-1.6,0.9-2.3c0.5-1.4,1.6-2.3,3.3-2.6c1-0.2,2-0.1,2.8,0.3c0.8,0.4,1.6,0.9,2.3,1.7c0.3,0.2,0.4,0.4,0.4,0.7
	c0.3,0.9,0.8,1.8,1.4,2.6c-0.1,0.2-0.2,0.4-0.2,0.7s-0.1,0.5-0.2,0.7c-0.3,0.8-0.4,1.4-0.3,2c0.2,0.3,0.1,0.7-0.1,1.1
	c-0.6,0.9-1.1,1.8-1.6,2.7c-0.5,0.9-1.1,1.7-1.8,2.6c-0.8,1.1-1.9,2.1-3.4,2.8c-2,0.9-4.2,1.6-6.7,1.8C64.6,71.4,64.5,71,64.6,70.6z
	 M51.2,59.8c-0.1-0.1-0.1-0.2-0.2-0.2c0.1,0,0.3,0,0.4,0C51.3,59.7,51.2,59.8,51.2,59.8z M98.5,65.3c-0.1-0.7-0.1-1.3-0.1-1.8
	c0.1-0.6,0.1-1.1,0.1-1.6s0-1,0-1.5V59c0-0.2,0-0.3-0.1-0.4c0-0.1,0-0.2,0.1-0.4c0.1-0.9,0.3-1.9,0.5-2.9s0.6-1.9,1.1-2.6
	c0.3-0.4,0.4-0.8,0.4-1.1c0-0.6,0.2-1.2,0.7-1.8c0.1-0.2,0.3-0.4,0.5-0.6c0.2-0.2,0.4-0.5,0.4-0.8c0-0.2,0.1-0.3,0.4-0.3h0.4
	c1.3,0.7,2.3,1.6,3,2.7c0.1,0.3,0.1,0.6,0.1,1c-0.2,1-0.4,2.1-0.5,3.1s-0.3,2-0.4,2.9c0,0.7-0.2,1.3-0.6,2c-0.3,0.6-0.5,1.1-0.8,1.6
	c-0.2,0.5-0.5,1-0.9,1.5c-0.3,0.2-0.5,0.5-0.7,0.9c-0.2,0.4-0.4,0.8-0.6,1.1c-0.3,0.5-0.7,1-1.2,1.5s-1,0.9-1.5,1.2
	C98.8,66.6,98.6,66,98.5,65.3z"/>
</svg>
