<?xml version="1.0" encoding="utf-8"?>
<!-- Generator: Adobe Illustrator 19.1.0, SVG Export Plug-In . SVG Version: 6.00 Build 0)  -->
<svg version="1.1" id="Layer_1" xmlns="http://www.w3.org/2000/svg" xmlns:xlink="http://www.w3.org/1999/xlink" x="0px" y="0px"
	 viewBox="0 0 1000 1000" style="enable-background:new 0 0 1000 1000;" xml:space="preserve">
<style type="text/css">
	.st0{fill:#FFF8F0;}
	.st1{fill:#E6E7E8;}
	.st2{fill:#F9B28F;}
	.st3{fill:#345E5F;}
	.st4{fill:#FFEDD7;}
	.st5{fill:#C08265;}
	.st6{fill:#F1F1F2;}
	.st7{fill:#93A77E;}
	.st8{fill:#D0D2D3;}
	.st9{fill:#FFFFFF;}
	.st10{fill:#BBBDBF;}
	.st11{fill:#6F7D53;}
</style>
<g id="XMLID_29_">
	<g id="XMLID_30_">
		<g>
			<rect x="0" y="0" class="st0" width="1000" height="1000"/>
		</g>
		<g>
		</g>
	</g>
</g>
<g>
	<path d="M980.3,535.7c-1.8-0.2-2.5-0.3-3.3-0.5c-3.7-1.1-7.3-2.2-11-3.2c-4.4-1.2-7.9-3.8-9.9-7.9c-4.3-8.8-12.2-14.5-18.2-21.7
		c-0.4-0.5-1-0.8-1.8-1.5c-1,4.3-1.9,8.2-2.8,12.1c-0.6,0-1.1,0.1-1.2,0c-3.1-4.1-6.4-8.1-9.2-12.4c-1.8-2.8-1.6-6,0.2-9
		c2.3-3.9,2.4-4.2-0.8-7.1c-2.7-2.5-5.9-4.2-8.7-6.5c-5.5-4.4-11.5-5.4-18.2-3.4c-1.5,0.5-3.2,0.4-4.9,0.6
		c2.9,5.3,5.7,10.3,8.4,15.2c-0.5,0.4-0.8,0.9-0.9,0.8c-3.4-1.7-7-2.6-10.8-2.5c-3.3,0-5.7-1.8-7-4.8c-0.9-2.1-1.7-4.3-2.6-6.8
		c-2.5,0.4-5.1,0.5-7.3,1.3c-6.5,2.5-12.9,5.3-19.4,7.9c-2.8,1.2-4.6,3.1-5.6,6c-2.8,7.9-7.3,14.9-11.2,22.3
		c-4.3,8-10.1,14.8-15.9,21.6c-1.1,1.2-2.1,2.5-3.8,4.5c7.4-0.8,13.3-3.6,19.4-5.3c-2.3-8.7-1-11,7.4-13.7c2.2-0.7,4.3-1.7,6.5-2.4
		c0.9-0.3,2,0,2.7,0c-1.8,4.9-3.4,9.3-5.2,14.1c5.7,0,10.6,0,15.8,0c0-0.9,0.1-1.7,0-2.4c-0.5-5.7,1.8-9.2,7.4-9.9
		c4-0.5,7.3-1.7,10.2-4.6c0.6-0.6,1.9-0.6,3.8-1c-3.5,6.4-6.5,11.9-9.8,17.8c4.5,1,8.5,2,12.9,3c4.4-5.1,9.9-5.8,16.2-3.8
		c2.3,0.8,4.9,0.6,7.4,1c0.9,0.1,1.8,0.4,3.8,0.8c-3.2,1.6-5.4,2.5-7.4,3.7c-2.1,1.3-4,2.9-6.3,4.6c3.3,2.2,6.8,4.5,10.6,6.9
		c4.1-2.6,8.2-1.8,12.3,0c1.1,0.5,2.2,0.9,3,1.7c3.8,3.4,7.5,6.9,11.5,10.7c-0.9,0.2-1.8,0.5-2.6,0.4c-4.6-0.7-9.1-1.7-13.7-2.3
		c-3.4-0.4-6.4-1.4-8.8-4.2c-6-6.9-14-10.9-23.3-15.2c2.3,6,4.2,11,6.2,16.3c-1.5,1.3-2.8,0.3-4.3-0.9c-2.8-2.3-5.7-4.7-8.7-6.7
		c-4.5-3-8.4-6.2-6.7-12.9c-8.9,0-17.3,0-26.1,0c3.5,5.5,6.8,10.8,10,16c0.1,0.1-0.3,0.6-0.5,1.1c-0.5-0.2-1.2-0.3-1.6-0.7
		c-3.3-2.4-6.9-3.8-10.9-4.5c-5.8-0.9-11.3-2.5-12.1-10.1c-4.2,1.3-7.9,2.5-12.1,3.9c2,2.2,3.7,3.9,5.2,5.9c1.4,1.8,4.7,1.8,5.1,5.2
		c-4.8,0.5-9.4,1.4-13.9,1.2c-4.1-0.2-7.7-2.3-8.6-7.1c-3.8,0.1-5.5,2.7-7.1,5.4c2.9,4.4,5.8,8.8,9.1,13.8c0.8,0.1,2.5,0.3,4.1,0.3
		c17.6,0.6,34.6,4,51.3,9.6c13,4.4,25.7,9.1,38.2,14.7c5.9,2.6,11.5,6,17.1,9.2c2,1.1,3.7,2.9,5.3,4.6c2.7,3,3.4,6.3,1.5,10.1
		c-2.3,4.4-5,8.3-8.8,11.4c-14.8,11.9-28.7,24.9-44.7,35.3c-5.2,3.4-6.2,5-2.5,11.7c5,9.2,10.7,18,15.9,27.2
		c7.7,13.6,16.2,26.8,21.8,41.5c1.8,4.8,3.7,9.7,2.1,15c-1.4,4.8-2.4,5.1-7.2,6.2c-6.1,1.4-11.2-1.1-16.3-3.4
		c-10.3-4.6-20.3-9.9-30.6-14.5c-17.1-7.8-34.4-15.3-52.9-19.4c-6-1.4-11.9-3.2-17.9-4.6c-9.4-2.2-19-3.2-28.6-4
		c-3.5-0.3-7-0.8-10.4-1.4c-6.3-1.1-10.3-5.5-10.9-11.9c-0.3-3.6-0.4-7.3-0.5-11c-0.1-3.7-0.6-4.3-4.2-4.9
		c-5.3-0.9-10.5-1.9-15.7-2.8c-10-1.7-20-3.4-30-5c-5.9-1-11.8-2-17.7-2.9c-3.9-0.6-7.9-0.9-11.9-1.2c-13.2-1.3-26.5-2.8-39.7-4
		c-14.4-1.3-28.8-2.9-43.3-3.6c-16.8-0.9-33.7-1.1-50.5-1.5c-18.2-0.4-36.3-0.8-54.5-1c-13.4-0.2-26.9-0.1-40.3-0.2
		c-3.2,0-6.3-0.4-9.5-0.3c-3.5,0-7,0.3-10.4,0.5c-12,0.5-24,1-36,1.3c-13.7,0.4-27.3,0.6-41,1.1c-12.6,0.5-25.3,1.3-37.9,1.9
		c-9.7,0.4-19.3,0.7-29,1.1c-1,0-1.9,0.2-3.2,0.4c0,2.6,0,5.1,0,7.6c0,2.8,0.1,5.7-0.1,8.5c-0.2,3.5-1.2,4.7-4.6,5.5
		c-13.1,3-24.9,9.2-36.8,15.3c-8.4,4.3-17.2,8.1-25.7,12.2c-12.8,6.1-24.9,13.4-36.6,21.4c-2.5,1.7-5.3,2.8-8,4.1
		c-4.5,2.3-8.8,4.7-13.4,6.7c-5.6,2.5-9.1,0.3-9.2-5.8c-0.1-4.8,0.3-9.6,0.8-14.4c0.8-7.3,1.2-14.6,2.9-21.7
		c2.7-11.8,6.2-23.5,9.3-35.2c1.5-5.5,2.8-11,4.2-16.4c0.8-2.9,0.3-5.1-2.1-7.1c-5.2-4.4-10.1-9.2-15.3-13.6
		c-11.3-9.3-22.7-18.5-34.1-27.7c-2.8-2.3-5.6-4.7-8.3-7.2c-3.8-3.5-3.9-4.5-0.9-8.9c2.8-4.2,7-6.7,11.2-9
		c9.5-5.1,19.4-9.5,29.1-14.3c4.1-2,8-4.1,12.1-5.9c7.8-3.3,15.7-6.5,23.6-9.6c12.5-5,25.1-9.7,38.3-12.8c0.8-0.2,1.5-0.6,2.2-0.8
		c1.4-10.6,3.9-13.6,14.6-17.2c-4.7-3.6-9.7-6.6-13.8-10.6c-4.3-4.3-9.3-4.3-15-4.6c1.2,6.4-1.9,10.8-6.1,14.6
		c-2.1,1.9-4.1,3.8-6.5,5.9c-2.4-7.4-1.5-11.8,4-20.6c-2.9-0.2-5.7-0.3-8.5-0.2l0-2c7.6-0.1,15.2-0.3,23-0.4
		c-13.2-11.1-23.9-23.9-32.8-38.5c-1.9,2.2-3.3,4.6-5.5,6c-2.3,1.5-5.2,1.9-8.5,3.1c1.1-5.9,2.9-10.8,8.6-14.4
		c-5.8-2.2-11.1-4.2-17.1-6.5l0.8-2.1c5.1,1.8,10.3,3.7,16.2,5.8c-0.2-1-0.2-1.7-0.5-2.1c-5.9-9.8-9.6-20.5-12.7-31.4
		c-0.5-1.8-1.3-3.5-1.6-5.3c-1.4-8-6-13-13.4-16.1c-5.6-2.4-11-5.3-16.3-8c-2.5,2.9-4.2,6.1-6.9,7.7c-3.8,2.2-8.2,3.4-12.5,4.7
		c-1.8,0.6-3.1-1.5-1.9-3.3c3.1-4.5,5-9.8,10.3-13.3c-7.8-3.7-16.1-4.2-24.2-6.4c-3.3,7.1-9.1,10.3-17.3,12.1
		c2.5-5.1,4.7-9.3,6.9-13.8c-6.8-1.7-13.6-3.4-20.8-5.2l0.3-1.4c9,1.8,17.7,3.5,26.8,5.3c0.7-3.6,1.3-6.9,1.9-10.7
		c4.3-0.5,7.1,2.7,10,4.7c2.8,1.9,4.5,4.9,4.2,9c17.6,3.6,32.8,13,49.2,21.2c-2.8-10.3-5.5-20.2-8.3-30.5c-2.3,0.9-4.8,2-7.2,0.1
		c-2.6-1.9-3.9-4.6-4.4-7.6c-0.4-2.5-0.5-5.1-0.9-8.3c3.9,1.1,7,2,10.6,3c0-3.2-0.1-6.4,0-9.5c0.1-2.2,0.6-4.3,1-6.4
		c0.4-2,0.8-3.7-0.8-5.6c-0.9-1.1-1.1-3.7-0.4-5c2.5-5.3,5.4-10.3,8.1-15.4c0.2-0.4,0.8-0.5,1.5-1c0.6,1,1.5,1.9,1.6,2.9
		c0.3,5,0.5,10,0.3,15c-0.2,4.6-1.8,5.8-6.5,6.5c-2.5,5.9-3,12.6-1.8,22.6c2.2-2.2,4.3-4.1,6.8-6.5c0.6,1.9,1.2,3.1,1.3,4.3
		c0.3,2.8,0.3,5.7,0.4,8.5c0.2,4.1-0.6,7.7-4.8,9.4c1.5,5.9,3,11.5,4.7,17.6c4.3-2.9,8.3-5.6,12.3-8.2c0.3,0.4,0.5,0.5,0.5,0.6
		c-1.5,5-2.7,10.2-4.6,15.1c-0.7,1.8-3.1,2.9-5,4.6c3.9,12.2,6.2,25.3,13.9,36.7c0.6-6.5,1.1-13,1.7-19.7c-7-4-6.6-8.2-1.2-17.6
		c1.7,1.6,3.3,3.1,5.3,5c2.2-4.8,4.2-9.5,6.5-14c2-4,4.1-8.1,8.5-10.1c4.4-2,9-3.2,14.7-2.1c-1.2,1.9-2,3.5-3,4.9
		c-1.2,1.6-2.6,3.1-3.8,4.6c-3.6,4.5-5.7,5.1-11.3,3.4c-0.6-0.2-1.3-0.3-2.5-0.7c-2.6,6-5.2,12.1-8.1,18.7c5-0.8,9.5-1.6,13.8-0.7
		c0.9,2.4-0.9,2.6-1.9,3.1c-3,1.6-5.6,3.3-6.9,6.8c-1.2,3.3-3.6,5.6-7.9,5c-0.3,2-0.7,3.6-0.7,5.2c-0.1,3.8,0.3,7.7-0.1,11.5
		c-0.3,3.2,0.4,5.9,2.1,8.5c5.5,7.9,10.6,16.1,16.6,23.7c5.6,7,11.8,13.5,19.1,19c5.3,4,10.1,8.5,15.2,12.7c1.2,1,2.7,1.8,5.1,3.4
		c-2.1-10-4.5-19-2-28.1c-0.5-0.4-0.7-0.7-1-0.8c-7.3-0.8-9.7-3.5-9.4-10.7c0.2-4.3,1-8.6-1.2-12.8c-0.2-0.4,0.5-1.3,1.1-2.6
		c2.2,2.9,4,5.4,6.1,7.7c2.2,2.3,4.6,4.2,7.6,6.9c2.4-6.3,4.7-12.3,7-18.2c-5.8-2.5-7.1-4.7-6.6-10.9c0.6-5.8,0.9-11.6-1.8-17
		c1.7-1.6,2.7-0.9,3.5,0.3c2.4,3.2,4.8,6.3,7.1,9.5c1.4,2,2.5,4.3,4,6.7c5.8-4.7,13.1-5.6,20.4-7.2c-3.7,4-7.2,8.2-11,12.1
		c-2.9,3-6.6,3.6-11,2.6c-4.9,9.3-7.7,19.3-10.9,29.7c4.4-0.8,8-1.2,11.5-2.1c3.3-0.8,6.4-2.2,10.5-3.7c-1.8,2.2-3.1,3.7-4.4,5.3
		c-1.7,2.2-3.8,4.3-5.1,6.8c-2.9,5.4-6.9,8.5-14,7.2c-0.1,1.8-0.6,3.4-0.3,4.9c0.8,4.3,1.6,8.5,2.8,12.7c0.9,3.4,1.7,3.8,5,3.4
		c14.3-2,28.7-4.2,43-6.1c7.1-0.9,14.2-1.7,21.3-2.1c14.8-0.8,29.6-1.5,44.4-2c15-0.5,30-0.7,44.9-1.1c4.8-0.1,9.7-0.7,14.5-0.6
		c14.7,0.5,29.3,1.2,44,1.7c5,0.2,10,0.2,15,0.2c18.5,0,36.9-0.2,55.4,0.1c15.3,0.3,30.7,0.8,45.9,2c20.2,1.5,40.4,3.9,60.6,5.8
		c7.6,0.7,15.3,0.9,22.9,1.8c10.4,1.3,20.7,3,31.1,4.6c18.6,2.8,37.2,5.5,55.8,8.5c11.2,1.8,22.4,3.6,33.5,5.8
		c12.7,2.5,25.4,5.3,38.1,8c0.9,0.2,1.9,0.3,3.4,0.5c1.4-5.5,2.9-11,4.3-16.3l2.5,0.3c-0.4,3.3-1.1,6.6-2.1,9.9
		c-0.2,0.6-0.1,1.3-0.1,2c4.1-1,8.8-5.8,20.5-20.2c6.2-7.7,11.4-16,15.7-24.9c4.2-8.7,7.3-17.8,8.7-27.5c1.4-9.7,3.5-19.3,1.2-29.5
		c-11.8,2.2-20.4-2.9-27.6-11.4c14.7-1.5,16.6-3.6,27.4,6.1c0.6-5.2,0-10.1-1-15.4c-10.9,0.9-16.4-7.7-23.7-13.5
		c7.4-2.1,13.8,0.7,20.5,3.3c1.3-2.2-0.1-4.1-0.7-5.7c-1.4-3.5-3.3-6.9-5-10.3c-1-2-2.4-3.5-4.6-4.3c-4.3-1.5-7-4.8-8-9
		c-1.2-5-2.9-9.5-6.6-13.1c-0.3-0.3-0.3-0.9-0.5-1.6c3.4-0.9,5.8,1.4,8.2,2.7c2.5,1.3,4.6,3.2,7,4.8c4,2.7,5.6,6.7,5.6,11.2
		c0,4.4,1.8,8.1,3.7,11.8c1.3,2.7,2.7,5.3,3.6,7.1c2.4-2,5.3-4.1,7.7-6.6c2.4-2.5,4.2-5.4,6.6-8.6c0.6,1.1,1.4,1.9,1.4,2.6
		c-0.4,4.8-0.9,9.5-1.5,14.3c-0.8,5.9-4.1,10-10,12.5c0.5,10.2,1,20.4,1.5,30.6c0.3,0.1,0.6,0.2,1,0.3c6.2-8.2,12.9-16.1,20.4-23.2
		l1.6,1.7c-3.4,3.2-6.4,6.6-9.3,10.3c5.7,1.4,11,2.6,16.4,3.9c0,0.4,0.1,0.7,0.2,1.1c-2.2,0.9-4.4,1.8-6.7,2.6
		c-3.4,1.2-6.1,3.1-8.4,6c-4,5-8.3,6.1-15,4c-1.4,8.6-2.7,17.2-4.2,26.6c3.1-1.6,5.6-2.8,8-4c0.1-0.4,0.3-0.8,0.2-1
		c-2-4.9-1.7-6.6,2.8-9.5c3.3-2.1,7-3.6,10.8-5.5c2.2,4.5-2,7.3-2.1,11.2c3.4-0.7,6.8-1.4,10.4-2.2c-0.3-5.4,1.1-10.2,6-12.8
		c4.2-2.2,8.8-3.5,14.2-5.5c-0.3,2-0.1,3.5-0.6,3.8c-3.2,2-4.4,5.3-5.7,8.5c-0.6,1.3-1.7,2.4-2.8,4c10.1-0.8,19.8-1.5,29.8-2.2
		c0.2-4.5,1.8-8.6,6.2-11c1.1-0.6,2.4-1,3.6-1.5c2.5-0.9,4.9-1.9,7.4-2.8c0.9-0.3,2-0.2,3.9-0.4c-3.9,5.9-7.3,10.9-10.7,16.1
		c0.9,0.7,2,0.8,3.1,0.8v2.3c-6.4,0-12.7,0-19.2,0c4.1,3.2,8.3,6.1,12,9.4c3.7,3.3,6.9,7.1,10.5,10.8c4.6-3.3,8.9-1.9,13.2,0.2
		c4,2,8,3.9,12.9,6.3c-5.4,2.2-9,6.6-14.9,5.5c2,4.9,8.3,10.1,12.7,10.5c4.5,0.5,8.3,2.1,11.5,5.4
		C974.4,525.6,976.9,530.3,980.3,535.7z M957.1,519.6c2.6,8.1,9.2,10.4,16.8,11.6C971,524,962.8,517.2,957.1,519.6z M937.3,496.4
		c5.8,8.1,11.7,9.2,16.7,3.4C945.8,494.4,941.8,493.5,937.3,496.4z M931.3,506.3c3.1-6.3,1.9-11.5-3.8-16.1
		C922.4,494.6,923.9,500.1,931.3,506.3z M922.4,468.9c5.1-1,7.9-4.1,9.1-9.1C924.9,460.1,921.4,463.6,922.4,468.9z M912.7,552.2
		c3.4,5.1,8,5.4,13.3,5.2C921.9,552.3,917.2,550.5,912.7,552.2z M922.8,616c3.2-4.4,2.6-8.2-1.8-11.2c-4.8-3.2-9.7-6.5-15-8.9
		c-12.5-5.9-25.2-11.2-38.5-15.3c-15.5-4.8-31.1-8.6-47.3-10c-3.1-0.3-6.2,0-9.7,0c0.5,8.8,1,16.9,1.5,25c0.2,2.7,0.6,5.3,0.3,8
		c-0.8,10.3-1.3,20.6-2.9,30.7c-2.8,17.2-6.2,34.4-9.7,51.5c-0.9,4.3-2.5,8.5-6,11.8c-5.2,4.9-11.7,6.9-18,9.2
		c-5.2,2-10.6,3.6-15.9,5.4c0,0.3,0,0.6,0,0.9c0.8,0.1,1.6,0.2,2.4,0.3c7.7,1.1,15.5,1.8,23.2,3.3c15.7,3,30.9,7.9,46.1,12.8
		c3,1,6,1.9,8.9,3.2c15.1,6.9,30.2,13.9,45.3,20.9c3.9,1.8,7.9,3.6,12,4.9c6.6,2.1,11.2-0.6,9.6-8.6c-1.4-7-4.3-13.4-7.6-19.5
		c-9.8-17.8-20.2-35.2-30.3-52.8c-1.4-2.4-2.3-5.2-3.4-7.8c-2.3-5.3,0.3-7.8,3.5-10.2c6.7-5,13.5-9.8,20-14.9
		c8.2-6.3,16.3-12.7,24.2-19.4C917.2,622.6,920.3,619.4,922.8,616z M888.8,537c5.9,3.8,10.1,3.4,14.5-1.8
		C894.2,532.8,892.9,532.9,888.8,537z M882.2,476.4c-1.5,7.2,2.3,10.8,10.1,9.6C890.3,478.8,887.9,476.6,882.2,476.4z M880.5,471.8
		c6.2-0.6,8.5-3.2,9.6-10.5C883.6,462.9,881.1,465.6,880.5,471.8z M888,549.3c-1.5-7.5-4.1-10.4-10.4-11.6
		C876.6,543,881.4,548.1,888,549.3z M874.8,522.7c-3.8,0-7,0.5-9.8,2.4c-1.8,1.2-1.9,2.9-1.5,4.9c0.4,2,1.8,2.6,3.5,3.1
		c1.9,0.5,2.7-0.9,3.5-2.2C871.9,528.3,873.2,525.7,874.8,522.7z M863.6,453.7c2.7-3.5,5.7-6.4,10.3-7.7c-8.9-4.7-17,0.7-20.1,10.6
		C857.6,456.9,861.1,457,863.6,453.7z M858.2,479.4c4.8-1.8,6.3-3.8,6.9-9.1C858.3,472.2,856.2,474.8,858.2,479.4z M855.5,412.6
		c2.5-3.2,1-6.6,1-10c-7.4,4.2-9.6,8.7-7.5,15.2C852.7,417.6,853.8,414.8,855.5,412.6z M852.2,547.1c-1.4-2.3-2.6-4.7-4.1-6.8
		c-1.6-2.3-4.1-3.2-6.9-3.5c-2.3-0.2-3.7,0.9-4.7,2.6c0.7,4.3,3.7,5.5,7.2,6.1C846.3,546,849.1,546.5,852.2,547.1z M829.6,412.3
		c4.5,5.3,9.1,8.4,16.3,7.8C841.5,414.6,835.8,413.8,829.6,412.3z M837.3,534.6c6.6-0.5,6-6.1,7.7-10.8
		C835,526.2,833.6,528.3,837.3,534.6z M827.2,436c6.5,5.2,10.1,6.3,17.2,4.9C838.9,434.4,833.2,432.9,827.2,436z M835.3,390.5
		c0.7-7.4-3.5-11.5-9.5-14.5C826,384.2,828.8,388.4,835.3,390.5z M824.6,550.3c-4.4-6.4-5.9-6.9-12.7-4
		C812.7,551.9,815.1,552.7,824.6,550.3z M807.4,611.7c0.6-6.4,1.1-12.9,0.2-19.4c-0.9-6.5-0.2-13.3-0.7-19.9
		c-0.4-5.5-1.4-11.3-6.5-14.5c-3.7-2.4-8-4.2-12.3-5.2c-10.8-2.6-21.8-4.7-32.7-6.8c-12.2-2.3-24.5-4.5-36.8-6.4
		c-20.9-3.2-41.8-5.9-62.7-9.4c-12.2-2-24.3-4.3-36.6-4.6c-2.7-0.1-5.3-0.5-8-0.7c-7.8-0.8-15.5-1.7-23.3-2.4
		c-9.6-0.8-19.3-0.9-28.8-2.2c-16.9-2.4-33.9-2-50.9-2.7c-15.3-0.6-30.7-0.1-46.1-0.1c-7.6,0-15.3,0.1-22.9-0.1
		c-9.1-0.3-18.3-1.2-27.4-1.3c-18.2-0.3-36.4-0.2-54.5-0.2c-5.8,0-11.7,0.4-17.5,0.6c-13.8,0.6-27.6,1.2-41.4,2
		c-9,0.5-18,1.1-26.9,2.1c-9.7,1.1-19.4,2.9-29.1,4.1c-10.5,1.3-21,2.6-30.9,6.9c-4,1.7-6.7,4.2-6.7,9c0.1,8.8,0,17.7,0,26.5h0
		c0,1.7-0.1,3.3,0,5c0.6,13.6,1.2,27.3,2,40.9c0.3,5.5,1.5,10.9,1.9,16.4c0.8,11.9,3.3,23.4,6.9,34.7c1.1,3.3,3,5.9,6.4,6.2
		c4.8,0.4,9.6,0.6,14.4,0.2c8-0.7,15.7-3.6,24.1-2.9c14.8,1.2,29.6-1.1,44.4-1.6c4.6-0.2,9.3,0,14-0.3c7.5-0.4,14.9-1.1,22.4-1.4
		c10-0.4,20-0.2,30-0.6c15-0.5,30-1.7,44.9-1.8c20-0.1,40,0.6,60,0.8c16,0.2,32,0.2,48,0.4c9.2,0.2,18.3,0.7,27.5,1
		c3.1,0.1,6.3-0.1,9.4,0.1c13.1,0.8,26.1,1.8,39.2,2.7c6.3,0.4,12.6,0.8,18.9,1.4c11.4,1.1,22.8,2.8,34.3,3.6
		c13.2,0.8,26,3.3,39,5.3c13.6,2.1,27.2,4.6,40.8,7.1c6.4,1.2,12.8,2.5,19.1,4c9.5,2.3,19,5.1,28.6,7.1c11.1,2.3,11.6-0.1,13.8-8.6
		c3.4-13.4,6.2-26.9,8.5-40.5C805.3,634.6,806.3,623.1,807.4,611.7z M778,701.3c0.5,0.1,1.2-0.6,2.4-1.3c-1.6-0.6-2.6-0.9-3.5-1.3
		c-0.3,0.4-0.6,0.8-0.9,1.2C776.6,700.4,777.2,701.2,778,701.3z M770.6,703.4c2-1.9,1.6-3.6,1.2-5.3c-0.1-0.5-1.2-0.7-2.8-1.4
		C769.6,699.4,770,701.2,770.6,703.4z M763.1,706.3c2.1-0.9,3.6-0.8,3.1-2.9c-0.4-1.6-0.7-3.2-1-4.8c-0.3-1.8-0.4-3.7-3.4-3.1
		C762.2,698.9,762.6,702.2,763.1,706.3z M759.2,707.3c-0.4-1.9-0.8-3.7-1.1-5.5s-0.6-3.6-0.7-5.4c-0.1-2.2-1-3.4-3.6-3.1
		c-0.6,4.6,0.7,9.1,1.8,13.5C756.2,709.1,757.9,708.4,759.2,707.3z M751.9,710.9c-0.9-7.1-1.7-13-2.5-18.9c0-0.3-1-0.5-2.4-1.2
		c0.9,6.6,1.7,12.4,2.5,18.3C749.6,709.4,750.5,709.7,751.9,710.9z M744.6,708.4c-1.4-5.8,0.3-12.2-3.5-17.5
		C740.8,697.1,740.4,703.2,744.6,708.4z M257,686.4c2.2-4.7,1.2-12-2-14.3C253.7,677.9,254.3,682.3,257,686.4z M250.9,685.1
		c1.2-6.6,0.4-11.1-2.5-12.6C249.3,677.2,250.1,681.2,250.9,685.1z M250.2,690c-1.2-0.6-1.9-1-2.6-1.3c-6-2.3-12.2-4.4-18.1-7
		c-7.6-3.4-14.3-8.1-17.6-16c-1.8-4.4-2.9-9.2-3.8-13.9c-1.6-8.8-2.9-17.7-4-26.6c-1.2-9.9-2.5-19.8-2.9-29.8
		c-0.5-12.6-0.2-25.2-0.2-37.9c0-3.3,0-6.6,0-10.8c-5.9,1.5-11.2,2.5-16.1,4.3c-14.4,5.3-28.8,10.4-42.8,16.5
		c-14.6,6.4-28.9,13.6-43.1,20.8c-4.7,2.4-9,5.6-12.7,10.8c1.2,1,2.2,1.7,3.1,2.5c5.8,4.8,11.5,9.6,17.3,14.3c7.3,6,14.7,12,22,18
		c5.9,4.9,11.8,9.6,17.5,14.7c2.7,2.4,4,5.7,3,9.5c-2.4,9.7-4.9,19.4-7.2,29.1c-1.4,5.8-2.3,11.8-4.2,17.5
		c-3.7,11-4.7,22.5-5.9,33.9c-0.4,3.4-0.5,7,1.6,10.4c1.3-0.4,2.7-0.5,3.8-1.1c7.5-4,15-7.9,22.4-12.1c10.8-6.2,21.2-13.3,32.4-18.6
		C211.2,708.1,229.7,697.6,250.2,690z M246.6,682.6c-0.8-3-1.5-5.9-2.3-8.9c-0.5,0.1-0.9,0.2-1.4,0.3
		C242.8,677.3,242.7,680.5,246.6,682.6z M240.4,680.6c-2-1.8-0.2-5.2-4.2-5.9C237.2,679.9,237.2,679.9,240.4,680.6z M241.5,449
		c-4.9,0.4-8.5,2.6-11.7,6.8C234.5,457.3,238.9,454.5,241.5,449z M232.8,678.2c-0.9-3.5-2.5-3.4-4.8-2
		C229.5,676.9,230.9,677.4,232.8,678.2z M223.4,459.2c1.2-0.3,3-1.7,3-2.6c-0.1-5-0.4-10.1-6.1-12.8c-0.4,2.6-1.1,4.9-1.1,7.2
		c0,2.3,0.3,4.6,1,6.8C220.5,458.5,222.5,459.4,223.4,459.2z M229.7,489.5c-2.7,0.4-5.4,0.5-7.9,1.2c-4.7,1.1-5.9,3.1-5.5,8.3
		C222.1,501.2,225.8,498.6,229.7,489.5z M214,488.4c1.4-1.9,1.4-4.2-0.3-6c-2.1-2.3-4.5-4.3-6.8-6.5c-0.4,0.2-0.7,0.3-1.1,0.5
		c0,3.2-0.2,6.5,0.1,9.7c0.2,2.7,2.7,3.2,4.8,3.6C211.8,490,213.4,489.3,214,488.4z M176.6,523.6c5.9-3.9,7.6-7.3,6.1-12.6
		C177.2,514.7,175.3,518.6,176.6,523.6z M184,395.2c-7,0.3-9,1.4-13.2,6.9C176.7,405.9,179.5,403.9,184,395.2z M159.5,435.2
		c5-1.4,4.2-7.2,8.4-9.6C160.7,425.8,158.2,428.8,159.5,435.2z M156.4,427.7c2.5-4.7,2.4-5.7-1.2-9.9
		C151.6,424.3,151.9,426,156.4,427.7z M148.9,473.5c4.9-0.7,6.2-2,7-7.5C152,467.6,149.7,469.7,148.9,473.5z M139.9,411
		c5-2.4,3.6-6.9,4.9-10.6C138.8,403.4,138.3,404.5,139.9,411z M132,382.5c3.5-4.7,2.3-9.7,2.4-15.6
		C128.8,373.3,128.3,376.5,132,382.5z M132.6,343.7c3.7-4.9,1.8-10.1,1.1-15.2c-1.9,3.3-3.8,6.6-5.6,9.9c-1.4,2.6-1.1,3.5,1.6,4.6
		C130.6,343.3,131.6,343.5,132.6,343.7z M125,375.5c0.5-0.2,0.8-2.1,0.5-3c-1.2-3.4-3-6.3-8-6.2c0.2,1.3,0.1,2.3,0.5,3.2
		c1,2,1.9,4.2,3.4,5.9C122,375.9,124,375.9,125,375.5z M105.2,396.6c-6.9-1.1-9.5,1-14,11.1C102.1,404.9,104.6,402.9,105.2,396.6z
		 M83.6,386.1c0.1-6-5.5-6.6-8.6-10.1c-2.1,7.6-1.2,9,6,10.1C81.8,386.2,82.6,386.1,83.6,386.1z M70.8,387.6
		c-5.4-0.3-8.2,2.5-7.5,7.4C66.6,393.5,69.4,391.7,70.8,387.6z"/>
	<path d="M973,462.3c-1,3.7-4.5,3.2-6.3,4.8c-1.8,1.7-3.9,3.2-6.1,4.3c-2.3,1.2-5,1.7-7.9,2.6c2,5.2,4,10.5,6.3,16.3
		c-5.8-1-10.1-3.6-14.1-6.9c-3.3-2.7-2.5-6.2-1.9-10.1c-3.8,0-7.6,0-11.4,0v-2.3c1.8,0,3.8-0.5,5.7-0.2c0.6,0.1,1.3-0.3,2-0.3
		c4.2,0.3,7.6-0.6,9.8-4.9c0.8-1.5,3-3,4.8-3.2C960.1,461.6,966.4,461.9,973,462.3z M965.1,464.2c-6,0.5-12.1-1.3-15.4,5.4
		C953.9,472.4,959,470.7,965.1,464.2z M952.5,484.3c0-5.2-1.2-7.5-5.5-10.5C944.5,479.7,945.9,482.3,952.5,484.3z"/>
	<path d="M944,391.4l0.7,1.7c-0.5,0.2-1,0.5-1.6,0.7c-5.4,2.3-10.7,4.7-16,7c-1.5,0.7-3.1,1.2-4.9,2c1.5,2,2.9,4,4.4,5.9
		c1.4,1.7,2.9,3.4,4.6,5.3c-0.9,0.2-1.9,0.4-2.9,0.5c-1.3,0.1-2.8-0.3-4,0c-6.7,2.1-11.2-0.9-15.2-6.8c-4.5,2.3-9,4.6-13.7,6.9
		l-0.9-1.8c2.4-1.2,3.1-3.5,3-7.8c-0.2-7.2-0.4-14.3-3.5-21c-0.7-1.5-0.6-3.3-0.9-5c-1.6,0.3-3.2,1.1-4.7,0.8
		c-2.4-0.4-4.3-1.8-4.8-4.5c-0.9-4.2-1.9-8.4-2.8-12.6c0-0.2,0.3-0.5,0.8-1.3c2.9,2,5.8,3.9,9.4,6.3c0.5-5,1-9.4,1.4-13.7
		c0.6-7.7,5.2-13.5,8.7-19.9c0.4-0.7,2-0.8,3.5-1.4c0,4.4-0.1,8,0,11.6c0.2,4.7-1.5,8.8-5.5,11c-4.7,2.6-5,6.7-4.8,11
		c0.2,3.1,1,6.2,1.6,9.9c3.9-2.7,7.5-5.2,11.9-8.2c0,2,0.2,2.9,0,3.7c-0.7,2.6-2.1,5-2.4,7.6c-0.5,4.3-2.5,7.1-6.4,8.2
		c0.5,7.1,1,14,1.6,21.5c2.1-1.1,3.8-2,5.6-2.9c-1-5.7,0.8-10.1,5.5-13.5c3.4-2.4,6.1-5.6,9.3-8.3c0.7-0.6,1.7-0.9,3-1.5
		c-0.9,6.1-1.8,11.4-2.7,17.2c4.8-1.8,9.4-3.5,13.9-5.3C938,393.7,941,392.6,944,391.4z M912.8,406.8c3.1,5.6,4.6,6.3,11.4,4.7
		C921.9,405.3,918.8,404.1,912.8,406.8z M909.4,403.9c6.5,0.2,10.4-5.1,9.5-12.7C910.9,394.9,908.1,398.7,909.4,403.9z M897.9,385.2
		c4.4-1.4,5.9-4.5,5.3-10.4C898.5,378,898,378.9,897.9,385.2z M895.2,354.3c6.8-3,7.4-5.8,5-13.4C898.6,345.2,897,349.4,895.2,354.3
		z M892.6,376.2c-0.7-4.8-3.2-7.5-8.1-8.8c0.4,2.2,0.6,4,1,5.7C886.7,377.2,887.8,377.7,892.6,376.2z"/>
	<path class="st1" d="M927.4,490.2c5.7,4.6,6.9,9.8,3.8,16.1C923.9,500.1,922.4,494.6,927.4,490.2z"/>
	<path class="st2" d="M931.5,459.8c-1.2,5-4,8.1-9.1,9.1C921.4,463.6,924.9,460.1,931.5,459.8z"/>
	<path class="st3" d="M925.9,557.3c-5.2,0.2-9.9-0.1-13.3-5.2C917.2,550.5,921.9,552.3,925.9,557.3z"/>
	<path class="st4" d="M921,604.8c4.4,3,5.1,6.8,1.8,11.2c-2.5,3.5-5.6,6.7-8.9,9.4c-7.9,6.6-16,13-24.2,19.4
		c-6.6,5.1-13.4,9.9-20,14.9c-3.2,2.4-5.8,4.9-3.5,10.2c1.1,2.6,2,5.3,3.4,7.8c10.1,17.6,20.5,35,30.3,52.8c3.3,6,6.2,12.5,7.6,19.5
		c1.6,8.1-3.1,10.8-9.6,8.6c-4.1-1.3-8.1-3.1-12-4.9c-15.1-6.9-30.2-14-45.3-20.9c-2.9-1.3-5.9-2.2-8.9-3.2
		c-15.2-4.9-30.4-9.8-46.1-12.8c-7.7-1.5-15.5-2.2-23.2-3.3c-0.8-0.1-1.6-0.2-2.4-0.3c0-0.3,0-0.6,0-0.9c5.3-1.8,10.7-3.4,15.9-5.4
		c6.3-2.4,12.8-4.3,18-9.2c3.5-3.3,5.1-7.4,6-11.8c3.4-17.1,6.9-34.3,9.7-51.5c1.6-10.1,2.1-20.5,2.9-30.7c0.2-2.6-0.2-5.3-0.3-8
		c-0.5-8.1-0.9-16.2-1.5-25c3.5,0,6.6-0.2,9.7,0c16.2,1.4,31.8,5.2,47.3,10c13.2,4.1,26,9.4,38.5,15.3
		C911.2,598.3,916.1,601.5,921,604.8z"/>
	<path class="st3" d="M924.2,411.5c-6.8,1.6-8.3,0.9-11.4-4.7C918.8,404.1,921.9,405.3,924.2,411.5z"/>
	<path class="st5" d="M918.8,391.2c0.9,7.6-3,12.9-9.5,12.7C908.1,398.7,910.9,394.9,918.8,391.2z"/>
	<path d="M912.2,426.3c-1.3,0.1-2,0.3-2.6,0.2c-5.5-0.5-10.9-0.4-16.3,1.5c-4.5,1.6-9.2,2.4-12.5-2.9c-2.3,1.7-4.5,3.5-6.5,5.4
		l-1.6-1.7c2.5-2.3,5-4.6,7.7-6.8c-0.8-0.6-1.2-1-1.8-1.2c-4.5-1.7-6.3-7-2.4-11.6c2.9-3.6,4.7-7.5,6.1-11.8c0.3-1,1-1.9,2.2-3.9
		c1.4,4.2,2.6,7.4,3.5,10.6c1,3.2,1.7,6.6,2.6,9.9c1.7-0.3,3-0.6,4-1.1l0.9,1.8c-0.5,0.3-1,0.5-1.6,0.8
		C900.1,419.2,905.8,422.5,912.2,426.3z M884.3,425c5.8,3.6,10.7-1.8,17-1C893.8,417.4,889.7,417.8,884.3,425z M886.1,416.2
		c1.4-6.7,1.3-6.8-1.8-13.5c-1.6,2-3,3.7-4.4,5.6c-1,1.3-2.4,2.7-2.6,4.1c-0.2,1.6,0.4,3.6,1.4,4.9c0.7,0.8,2.7,0.9,4.1,0.7
		C884,417.9,885.1,416.8,886.1,416.2z"/>
	<path class="st2" d="M903.2,374.8c0.6,6-0.9,9-5.3,10.4C898,378.9,898.5,378,903.2,374.8z"/>
	<path class="st6" d="M901.2,424c-6.3-0.8-11.2,4.6-17,1C889.7,417.8,893.8,417.4,901.2,424z"/>
	<path class="st3" d="M900.2,340.9c2.4,7.6,1.7,10.4-5,13.4C897,349.4,898.6,345.2,900.2,340.9z"/>
	<path class="st6" d="M903.3,535.2c-4.4,5.2-8.6,5.6-14.5,1.8C892.9,532.9,894.2,532.8,903.3,535.2z"/>
	<path class="st7" d="M884.5,367.4c4.8,1.3,7.3,4,8.1,8.8c-4.7,1.5-5.9,1-7-3.1C885.1,371.4,884.9,369.6,884.5,367.4z"/>
	<path class="st2" d="M892.3,485.9c-7.8,1.3-11.7-2.4-10.1-9.6C887.9,476.6,890.3,478.8,892.3,485.9z"/>
	<path class="st7" d="M890.1,461.3c-1.1,7.3-3.4,9.9-9.6,10.5C881.1,465.6,883.6,462.9,890.1,461.3z"/>
	<path class="st8" d="M884.3,402.7c3.2,6.7,3.2,6.8,1.8,13.5c-1.1,0.6-2.1,1.7-3.4,1.9c-1.3,0.2-3.4,0.1-4.1-0.7
		c-1-1.2-1.6-3.3-1.4-4.9c0.2-1.5,1.6-2.8,2.6-4.1C881.3,406.5,882.7,404.7,884.3,402.7z"/>
	<path class="st7" d="M877.6,537.7c6.3,1.2,8.9,4.1,10.4,11.6C881.4,548.1,876.6,543,877.6,537.7z"/>
	<path class="st2" d="M865,525.1c2.9-1.9,6.1-2.4,9.8-2.4c-1.6,2.9-2.9,5.5-4.4,8.1c-0.7,1.3-1.6,2.7-3.5,2.2
		c-1.6-0.4-3.1-1-3.5-3.1C863.1,528,863.2,526.3,865,525.1z"/>
	<path class="st5" d="M873.9,445.9c-4.6,1.3-7.6,4.3-10.3,7.7c-2.5,3.3-6,3.2-9.9,2.8C856.9,446.7,864.9,441.2,873.9,445.9z"/>
	<path class="st3" d="M865,470.4c-0.6,5.2-2,7.2-6.9,9.1C856.2,474.8,858.3,472.2,865,470.4z"/>
	<path class="st3" d="M856.5,402.6c0,3.4,1.5,6.8-1,10c-1.7,2.2-2.8,5-6.6,5.1C846.9,411.2,849.1,406.8,856.5,402.6z"/>
	<path class="st9" d="M848,540.3c1.5,2.2,2.8,4.5,4.1,6.8c-3.1-0.6-5.9-1.1-8.6-1.6c-3.5-0.6-6.5-1.8-7.2-6.1c1-1.6,2.4-2.8,4.7-2.6
		C843.9,537.1,846.4,538,848,540.3z"/>
	<path class="st5" d="M845.8,420.1c-7.1,0.6-11.8-2.5-16.3-7.8C835.8,413.8,841.5,414.6,845.8,420.1z"/>
	<path class="st5" d="M844.9,523.7c-1.7,4.8-1.1,10.3-7.7,10.8C833.6,528.3,835,526.2,844.9,523.7z"/>
	<path class="st8" d="M844.3,441c-7.1,1.3-10.7,0.2-17.2-4.9C833.2,432.9,838.9,434.4,844.3,441z"/>
	<path class="st3" d="M836.3,326.8c0.8,2.5-0.7,5.5-3.5,7.1c-7.3,3.9-15.1,4.5-22.6,0.9c-12-5.7-18.3-15.5-18.7-28.9
		c-0.1-3.5-0.3-7-2.3-10.1c-2.7,0.2-4.3,1.7-5.5,3.8c-3.3,5.9-6.6,11.9-10,17.8c-4.3,7.4-9.2,14-17.8,17.2c-6.6,2.5-12,1-17.4-2.6
		c-0.7-0.5-1.2-1.1-2.2-1.9c-0.8,0.9-1.5,1.7-2.2,2.6c-5.1,6.5-13.2,9.1-20.8,2.2c-4.1-3.7-6.7-8.2-8.3-13.9c-1,1.1-1.9,2-2.7,2.9
		c-1.2,1.4-2.4,2.8-3.7,4c-7.8,7.4-17,4.8-19.7-5.7c-0.4-1.6-0.7-3.2-1.2-5.5c-1.1,1-1.9,1.7-2.5,2.5c-2.3,3.2-4.4,6.7-6.8,9.8
		c-5.8,7.6-13.5,7.7-19.6,1.6c-0.7-0.7-1.3-1.5-2-2.4c-2.5,2.4-4.7,4.5-6.9,6.7c-2.5,2.4-5.3,2.6-8.3,1.1c-2.8-1.4-5.5-3-8.3-4.6
		c-1.2,1.1-2.7,2.5-4.2,3.8c-7,6.2-17.3,4.9-21.7-3.3c-2-3.7-3.4-8-4.2-12.1c-0.9-4.3-0.7-8.9-1-13.4c-0.1-1.8-0.2-3.6-0.3-5.2
		c-2.1-0.5-3.4-0.3-3.9,1.6c-0.4,1.4-0.9,2.8-1.3,4.3c-1.9,7.4-3.5,14.9-5.6,22.3c-0.8,3-2.2,5.9-3.7,8.7
		c-4.4,8.1-11.8,9.2-18.5,3.1c-0.5-0.4-0.9-0.9-1.5-1.4c-3.1,4.7-5.7,9.5-10.7,12.4c-11.2,6.5-19.6,1.3-21.6-8.4
		c-1.2-6.1-1.4-12.6-0.9-18.9c0.6-8.8,2.4-17.5,5.8-25.7c1.9-4.7,4.5-8.9,8.1-12.4c3.4-3.3,7.3-3.8,11.5-2.4c2.5,0.8,4.9,2,7.3,3
		c0.7-9.3,1.2-18.6,2.3-27.8c0.8-6.9,0.9-14,5.6-19.9c1.7-2.1,3.3-3.8,6.2-3.2c2.9,0.6,4,2.9,4.2,5.5c0.3,4.9,0.8,10,0.3,14.9
		c-1.6,14.6-2.7,29.2-2.6,43.9c0,2-0.2,3.9-0.3,5.9c0,0.3,0.4,0.5,0.8,1.1c3.4-3.2,4.8-7.3,6.3-11.5c1.1-3.3,2-6.7,3-10
		c0.5-1.8,1.6-2.6,3.6-2.7c5.8-0.2,11.6-0.6,17.4-0.7c1.7,0,3.4,0.9,4.8,1.3c-1.1,6.8-2.3,12.9-2.9,19.1c-0.5,4.6-1.1,9.3,0.9,13.8
		c0.8,1.8,1.4,4.1,3.8,4c2.7-0.1,5.3-1,6.5-3.8c0.9-2,1.6-4,2.4-6c2.5-6,4.9-12,9.3-17c4.8-5.4,10.8-8.1,17.9-8.8
		c5.7-0.6,9.3,0.9,10.5,9c0.8,5.6,1,11.3,1.5,16.9c0.2,2.1,0.6,4.2,1.1,6.8c3.1-1.7,4.5-4.2,5.8-6.5c4.3-7.7,8.5-15.5,12.8-23.1
		c1.9-3.3,4-6.6,6.3-9.6c2.1-2.7,4.7-3.3,7-2.2c2.5,1.2,2.8,3.5,2.7,6c-0.3,5.3-0.8,10.6-0.9,15.9c-0.1,3.5,0.5,6.9,2.7,10.9
		c1.4-2.1,2.6-3.6,3.4-5.3c2.1-4.5,3.9-9.2,6-13.7c1-2.1,2.2-4.2,3.8-5.8c2.4-2.5,5.7-1.9,6.9,1.3c1.1,2.9,1.8,6.1,1.9,9.2
		c0.1,4.5-0.7,9-0.6,13.5c0.1,3.6,0.8,7.2,1.6,10.8c0.4,2,1.5,3.7,4.2,4c2.9-2.4,3.7-5.9,4.4-9.5c2-10.3,3.9-20.6,6.1-30.8
		c0.8-3.8,3-6.6,7-7.7c4.4-1.2,8,1.1,8,5.6c0,4.5-0.5,9-1.4,13.3c-1,5-2.7,9.9-4.2,14.8c-0.9,2.7-0.1,5.2,1.4,7
		c1.4,1.6,3,4.2,5.7,3.2c2.5-1,5.2-1.7,6.2-5.1c2.5-8.2,4.3-16.4,4.3-24.9c0-3.7,0.9-7.3,3.8-10c3.7-3.7,7.3-3.7,10.8,0.1
		c1.2,1.3,2.3,2.8,3.6,4.5c1.3-1.1,2.4-2.1,3.5-3c1.9-1.4,3.7-2.9,5.8-3.8c5.9-2.7,11-0.9,13.3,5.2c1.2,3.2,1.6,6.7,2,10.2
		c0.5,4.3,0.6,8.6,1.1,12.9c0.8,7,4.9,12,10.4,15.8c1.6,1.1,4.1,1.3,6.2,1.5c3.1,0.2,6.3-0.2,9.5,0C833,323.2,835.4,324,836.3,326.8
		z M645.2,304.1c0.1-1.2-0.6-2.4-1-4c-7.6,2.2-11.3,7.5-11,14.6c0.2,3.2,2.4,4.5,5,2.5C642.5,314,644.6,309.4,645.2,304.1z
		 M551.5,310c0.1-1.2-0.7-3.2-1.7-3.7c-1.6-0.8-3.6-0.6-4.9,1.1c-3.9,5.1-7,10.5-7.4,17.3c0.7,2.5,1.2,5.1,2.2,7.5
		c0.7,1.8,2.2,2,3.6,0.8c0.8-0.6,1.6-1.3,2-2.2C548.8,324.3,550.7,317.3,551.5,310z"/>
	<path class="st2" d="M825.7,375.9c6.1,3,10.3,7.1,9.5,14.5C828.8,388.4,826,384.2,825.7,375.9z"/>
	<path d="M819.5,493.9c1.7-0.6,2.5-0.1,3.1,2c-3.9,3.3-7.5,7.2-12,9.9c-5.8,3.5-7.3,8.7-6.8,14.5c0.5,4.8,0.4,9.5-0.3,14.2l-2.5-0.3
		c-0.5-0.3-0.8-0.7-1-0.6c-5.9,0.5-9.3-2.4-11.1-7.9c-0.6-2-2-3.8-2.9-5.8c-0.4-0.9-0.4-2-0.7-3.8c5.5,2.3,10.2,4.2,15.4,6.4
		c-0.1-1.7-0.4-3.1-0.3-4.4c0.3-5-0.9-8.7-6.6-10c-1.9-0.4-3.8-2.4-4.8-4.1c-1.8-3.1-3-6.6-4.7-10.6c1.8,0.2,3,0,3.8,0.6
		c2.6,1.7,5.1,3.6,7.5,5.6c1.8,1.4,3.5,3,5.2,4.5c3.3-8.4,3.3-8.3,12.8-8.7C815.6,495.2,817.6,494.6,819.5,493.9z M805.2,506.1
		c3.4-2.4,6.6-4.6,9.8-6.8C806,497.4,803.7,499.1,805.2,506.1z M790.5,520.8c2.4,8.4,3.6,9.3,10.1,8.1
		C800.3,522.8,794.7,523.4,790.5,520.8z M798.4,506.6c-1.4-3.5-4.1-5.4-7.5-6.7C791.7,504.5,793.3,505.9,798.4,506.6z"/>
	<path class="st3" d="M811.9,546.2c6.9-2.9,8.4-2.4,12.7,4C815.1,552.7,812.7,551.9,811.9,546.2z"/>
	<path class="st7" d="M815,499.3c-3.2,2.2-6.4,4.4-9.8,6.8C803.7,499.1,806,497.4,815,499.3z"/>
	<path class="st4" d="M807.6,592.3c0.9,6.6,0.4,13-0.2,19.4c-1.1,11.4-2.1,22.9-4,34.2c-2.3,13.6-5.1,27.2-8.5,40.5
		c-2.2,8.5-2.7,10.9-13.8,8.6c-9.6-2-19-4.8-28.6-7.1c-6.3-1.5-12.7-2.8-19.1-4c-13.6-2.5-27.2-4.9-40.8-7.1c-13-2-25.8-4.5-39-5.3
		c-11.4-0.7-22.8-2.4-34.3-3.6c-6.3-0.6-12.6-0.9-18.9-1.4c-13.1-0.9-26.1-1.9-39.2-2.7c-3.1-0.2-6.2,0-9.4-0.1
		c-9.2-0.3-18.3-0.8-27.5-1c-16-0.3-32-0.2-48-0.4c-20-0.3-40-1-60-0.8c-15,0.1-30,1.3-44.9,1.8c-10,0.4-20,0.2-30,0.6
		c-7.5,0.3-14.9,1-22.4,1.4c-4.6,0.2-9.3,0.1-14,0.3c-14.8,0.6-29.6,2.9-44.4,1.6c-8.4-0.7-16.1,2.2-24.1,2.9
		c-4.8,0.4-9.6,0.2-14.4-0.2c-3.5-0.3-5.4-3-6.4-6.2c-3.6-11.3-6.1-22.8-6.9-34.7c-0.4-5.5-1.5-10.9-1.9-16.4
		c-0.8-13.6-1.4-27.3-2-40.9c-0.1-1.7,0-3.3,0-5h0c0-8.8,0.1-17.7,0-26.5c0-4.8,2.7-7.2,6.7-9c9.9-4.3,20.4-5.6,30.9-6.9
		c9.7-1.2,19.4-3,29.1-4.1c8.9-1,17.9-1.5,26.9-2.1c13.8-0.8,27.6-1.4,41.4-2c5.8-0.3,11.7-0.6,17.5-0.6c18.2,0,36.4-0.1,54.5,0.2
		c9.2,0.1,18.3,1,27.4,1.3c7.6,0.2,15.3,0.1,22.9,0.1c15.4,0,30.7-0.5,46.1,0.1c17,0.7,34,0.3,50.9,2.7c9.5,1.3,19.2,1.4,28.8,2.2
		c7.8,0.7,15.6,1.6,23.3,2.4c2.6,0.3,5.3,0.7,8,0.7c12.4,0.4,24.4,2.6,36.6,4.6c20.8,3.5,41.8,6.1,62.7,9.4
		c12.3,1.9,24.6,4.1,36.8,6.4c10.9,2.1,21.9,4.2,32.7,6.8c4.3,1,8.6,2.9,12.3,5.2c5.1,3.2,6.1,8.9,6.5,14.5
		C807.4,579,806.8,585.8,807.6,592.3z M750.1,600.8c5.1-17.5-8.1-34.3-20.1-39.5c-3.2-1.4-6.9-1.6-10.5-0.8
		c-0.7,5.6-1.5,10.6-2.1,15.8c-0.6,5.8-1,11.6-1.4,17.4c-0.5,8.3-0.8,16.6-1.5,24.9c-0.9,10.9-2.2,21.8-3.2,32.7
		c-0.3,2.7,1,4.5,2.9,4.3c2.4-0.3,1.8-2.3,1.9-3.9c0.7-7.4,1.4-14.8,2.2-21.9c3-0.6,5.4-0.9,7.7-1.7
		C739.1,623.5,746.4,613.5,750.1,600.8z M691.2,581c-0.2-2.8-0.4-6-0.8-9.1c-0.6-4.8-3.3-8.3-6.4-11.5c-1.4-1.4-2.9-2.8-4.4-4.2
		c-7.6-7.2-17.5-4.7-20.7,5.3c-0.3,0.9-0.5,1.9-0.7,2.9c-1.7,9.7-3.3,19.3-4.9,28.9c-1.9,10.7-1.7,21.5-1.4,32.3
		c0.2,6.3,2.2,12.1,5.5,17.4c3.3,5.3,11.4,9.3,17.8,2.6c0.7-0.8,1.4-1.5,2-2.4c1.1-1.4,2-2.9,2.8-4.4c1-2,1.5-4.4,2.2-6.6
		c0.1-0.3,0.2-0.6,0.3-0.9C688.8,615.2,690,598.3,691.2,581z M625.6,560.1c0.3-3.6-0.2-7.3-0.3-10.9c-0.1-1.8-1-3-2.8-2.7
		c-1.8,0.3-2,1.7-1.8,3.4c0.3,2.8,0.5,5.7,0.4,8.5c-0.2,5-0.9,10-1.1,14.9c-0.2,5.5-0.7,10.9-2.7,16.4c-3.6,0-7.1,0.1-10.6,0
		c-1.1,0-2.3,0-3.5,0.1c-2.3,0.1-4.6,0.2-6.9-0.8c1.9-13.3,0.7-26.5,0.6-39.6c0-2.9-1.7-4.8-3.6-4.2c-2.3,0.7-1.3,2.6-1.2,4.2
		c0.3,9.3,1,18.7,0.5,28c-0.7,15.4-2.4,30.8-3.1,46.2c-0.2,4.6-0.5,9.6,2.1,14c3.4-1.4,3.4-1.4,3.5-3.5c0-1.5-0.2-3-0.4-4.5
		c-1.5-11.7,0.4-23.2,1.6-34.9c2.4-0.5,4.7-0.8,7-0.8c4.6-0.1,9.1,0.5,13.6,1.4c-0.6,7.8-1.5,15.2-1.5,22.7c0,7.5-0.5,15.1,1.4,22.9
		c1.8-0.6,2.9-1,4.2-1.4c0-2.4,0.3-4.6-0.1-6.7c-1.7-10.8-0.1-21.6,0.6-32.4C622.4,586.8,624.3,573.5,625.6,560.1z M557.2,630
		c8.7-8.5,10.4-19.2,7.5-30.4c-2.9-11.4-8.7-21.6-15-31.4c-3-4.6-6.5-8.8-9.6-13.3c-0.8-1.1-1.4-2.9-1.1-4c1.7-5.5,12.3-8,16.5-4.1
		c1,1,2.1,2,3.1,2.9c0.4-0.2,0.8-0.3,1.2-0.5c0.1-0.9,0.6-2,0.3-2.6c-1.6-2.5-3.5-4.8-6.6-5.8c-6-1.8-14.2,1-17.8,6.1
		c-2.5,3.6-2.6,5.8-0.1,9.5c4.2,6.2,8.6,12.2,12.6,18.6c5,7.9,9.3,16.1,11.7,25.2c1.8,6.8,1.4,13.5-1.4,20
		c-2.5,5.7-7.3,8.3-12.5,10.7c-1.9,0.9-3.6,1.3-5.2,1.3c-3.2,0-5.6-1.8-7.5-5.6c-0.2-0.5-0.2-1.1-0.6-1.4c-0.7-0.5-1.7-1.3-2.4-1.2
		c-0.6,0.2-1.3,1.4-1.4,2.2c-0.2,1.1,0,2.4,0.5,3.4c2.3,4.2,5.8,6.8,10.7,7c0.2,0,0.4,0,0.6,0C547.1,636.8,552.7,634.3,557.2,630z
		 M504,632.8c1.5-1.3,0.9-2.6-0.2-3.9c-2.5-2.9-4.9-5.8-7.5-8.6c-3.3-3.5-6.8-6.9-10.1-10.4c-6.2-6.4-9.2-14.6-12.5-22.6
		c-1.1-2.7,0-5.1,1.3-7.5c2.2-3.9,4.3-7.8,6.5-11.7c1.5-2.8,3-5.6,4.5-8.4c2-3.9,3.8-8,5.6-12c-3.8-1.8-4.2-1.8-5.4,0.8
		c-0.9,2-1.6,4-2.5,6c-0.5,1.1-1,2.3-1.5,3.4c-1.3,2.8-2.7,5.6-4.2,8.4c-2.7,5-5.8,10-9.5,15.2c-0.4-6.4-0.4-11.7-1-16.8
		c-0.7-6.4-1.8-12.8-2.8-19.2c-0.2-0.9-1.4-1.7-2.3-2.9c-2.8,2.7-2,5.5-1.4,8c1.7,7.3,2.4,14.8,2.5,22.3c0,3.7,0.2,7.3,0.5,11
		c0.9,10.9,1.9,21.9,2.9,32.8c0.5,4.8,1,9.6,1.8,14.4c0.1,0.8,1.7,2.1,2.3,2c1-0.3,1.9-1.4,2.6-2.4c0.3-0.4-0.1-1.3-0.2-1.9
		c-0.8-5.9-1.9-11.8-2.5-17.8c-0.6-5.9-0.8-11.8-1.1-17.7c1.4,1,2.2,2.1,2.8,3.4c2.9,6.7,5.8,13.4,11.9,18.1c1,0.8,1.8,1.9,2.7,2.9
		c4.2,4.9,8.5,9.8,12.7,14.8C500.9,633.5,502.4,634.2,504,632.8z M432.7,634.7c2.4-3.1,2.5-3.2,0.4-5c-2.2-2-4.7-3.7-6.9-5.7
		c-6.2-5.8-11.1-12.6-15.7-19.7c-1.4-2.2-1.6-4.2,0.2-6.3c0.9-1,1.5-2.2,2.3-3.3c5.2-6.6,9.1-13.9,10.9-22.2
		c1.4-6.3,1.7-12.5-1.6-18.4c-3.6-6.6-9.5-10.1-16.3-12.4c-1.5-0.5-3.3-0.5-4.9-0.2c-2.9,0.5-3.8,1.8-3.7,4.8c0.1,2.5,0.1,5,0.3,7.5
		c0.8,8.9,1.8,17.9,2.4,26.9c0.9,13.9,1.5,27.9,2.5,41.8c0.2,3.6,1.2,7.2,2,10.8c0.2,0.9,1.2,1.7,2.2,3.1c3.5-5.2,0.5-10,0.5-14.5
		c0-4.9-0.8-9.8-1.4-15.9C413.7,617.6,421.3,628.1,432.7,634.7z M369.1,591c0.7-9.6,1.4-19.2,0.2-28.8c-0.9-6.9-3.1-13.2-7.6-18.6
		c-3-3.6-6.9-4-11.2-2c-5.5,2.7-7.4,7.5-8.1,12.9c-0.8,5.9-1,11.9-1.5,17.9c-0.7,8.6-1.5,17.2-2,24.2c0.6,7.1,0.6,12.7,1.7,18
		c1.2,6.1,3.2,12.2,5.4,18.1c2.3,6.1,10.7,9,15.8,2.9c2.4-2.9,3.6-5.9,4-9.4C366.8,614.4,368.3,602.7,369.1,591z M310.8,608.5
		c1-12,0.2-24-0.4-35.9c-0.4-7.3-1.2-14.6-2-21.9c-0.4-3.3-1.2-6.5-2-9.7c-0.2-0.6-1.4-1.5-2.1-1.5c-1.4,0-1.9,1-1.6,2.5
		c0.3,2,0.5,4,0.7,6c1.2,12.4,3.1,24.8,3.5,37.2c0.5,16.5-0.2,33-0.5,49.5c0,1.5-0.4,3-0.8,4.4c-0.6,2.6-2.3,3.8-5.1,3.8
		c-4.7,0.1-8.4-2.1-10-6.3c-2.4-6.3-4.3-12.9-6-19.4c-2.4-9.1-0.6-18.5-0.8-27.7c-0.2-12.1,0.3-24.3,0.5-36.5c0-1.1-0.3-2.2-0.5-3.2
		c-4.1,0.4-4,0.4-4.1,3.3c-0.2,8-0.5,15.9-0.8,23.9c-0.2,5.3-1,10.7-0.6,16c0.5,7.7,0.5,15.3-0.1,23c-0.6,7.8-1.3,15.6-2,23.4
		c-0.2,2-0.5,4-3.2,4.6c-3.7-3-6-7-7.5-11.4c-5.7-16.2-9.1-33-11.4-50.1c-1.4-10.7-2.1-21.5-3.1-32.3c-0.2-1.7-0.1-3.3-0.5-4.9
		c-0.1-0.6-1.2-1.3-1.8-1.3c-0.6,0-1.5,0.8-1.7,1.4c-0.3,0.9-0.2,2-0.1,3c0.3,4.5,0.8,9,1,13.5c0.5,12.2,2.5,24.2,4.7,36.1
		c1.1,5.5,1.7,11.2,3.1,16.7c1.5,6.1,3.6,12.1,5.6,18.2c1.6,4.8,3.7,9.3,7.2,13c3.9,4.3,7.1,3.9,10.2-1.1c0.6-1,1.1-2.1,1.2-3.2
		c0.6-4.8,1-9.6,1.5-14.4c0.3-0.1,0.5-0.2,0.8-0.3c0.7,2.2,1.3,4.4,2,6.5c2.4,7,6.2,12.5,14,14.1c3.6,0.7,6.5-0.3,8.9-3
		c2.4-2.7,2.9-5.9,3-9.3C310.4,626.1,310.1,617.2,310.8,608.5z"/>
	<path class="st5" d="M800.5,529c-6.4,1.2-7.7,0.2-10.1-8.1C794.7,523.4,800.3,522.8,800.5,529z"/>
	<path class="st3" d="M790.8,499.9c3.4,1.2,6.1,3.1,7.5,6.7C793.3,505.9,791.7,504.5,790.8,499.9z"/>
	<path class="st3" d="M788,429.9c4.5,2.4,5.2,7.7,2,12c-0.6,0.8-2.3,1.2-3.5,1.3c-4.9,0.5-9.9,0.9-14.9,1.2
		c-6.9,0.5-12.9,3.1-18.2,7.4c-2.8,2.3-5.5,4.7-7.6,6.6c-1.8,9-3.8,17.3-5.1,25.6c-1.8,12-8.2,21.3-16.4,29.6
		c-3.5,3.6-8,5.5-12.9,5.8c-6.1,0.3-10.3-3.4-13.4-8.1c-3.4-5.1-4.1-10.8-2.3-16.8c3.8-12.2,10.6-22.5,20.1-31.1
		c3.8-3.4,7.6-6.9,11.4-10.4c1.2-1.1,2.5-2.4,0.6-4.4c-5.4,6.1-9.3,14.1-19.9,10.9c-1.9,1.8-4.2,3.7-6.2,5.8
		c-7.1,7.6-21.9,8.8-29.6,0.6c-5.4-5.8-9.1-11.7-8.5-19.9c0.2-2.2-0.5-4.6-1-7.9c-1,2.5-2,4.1-2.3,5.8c-0.9,5.2-1.8,10.5-2.4,15.7
		c-0.3,3.3-1.1,6.3-3.7,8.4c-4.6,3.8-9.8,2.5-11.4-3.2c-1.2-4.3-1.4-8.8-1.4-13.3c0-3.9,0.9-7.7,0.6-11.9c-2.4,3.5-4.7,7-7.1,10.6
		c-1.5,2.2-2.7,4.6-4.5,6.6c-4.7,5.2-10.9,4.4-14.4-1.8c-0.3-0.5-0.6-1.1-1-2c-2.1,2.7-3.9,5.3-5.9,7.6c-6.1,7-16.7,8.8-24,4
		c-3-1.9-5.3-4.4-6.6-7.9c-2-5.4-3.4-10.8-2.7-16.6c0.2-2,0-4-0.6-6c-0.5,2.8-0.9,5.6-1.5,8.3c-2.1,10-4.8,19.8-10.5,28.4
		c-7.2,10.7-20.8,16.4-34.2,11c-4.5-1.8-7.3-5.6-10.4-9.4c-0.8,0.1-1.6,0-2.4,0.2c-10,1.9-18.3-1.5-25.6-8.1
		c-5.6-5.2-11.4-10.2-14.4-18.3c-12.1,10.4-24.5,11.7-37.6,2.2c-4.6,11.2-12.6,18.7-23.8,22.4c-11.6,3.8-21.5-0.5-31.2-6.9
		c-3.4,2.9-6.8,6.1-10.3,9c-4.8,3.9-10.5,6.4-16.4,6.9c-8.3,0.7-15.6-2.8-21.7-8.5c-0.5-0.5-0.9-1-1.3-1.5c-0.4-0.5-0.7-1.1-1.2-1.8
		c-4.6,3-5.5,9.8-11.9,9.8c-1-0.6-2.2-1.2-3.3-1.9c-3.8-2.2-4.9-5.2-2.7-9.1c1.9-3.3,4.2-6.4,6.6-9.4c3.5-4.2,4.8-8.6,4.7-14.2
		c-0.2-9.4,1.1-18.9,1.7-28.4c0.6-9.4,2.9-18.4,5.1-27.4c2.4-9.8,6.6-18.9,13.9-26.1c1.8-1.8,4.4-3.2,6.9-3.6c5-0.8,9.1,2.4,10.3,8
		c1.3,5.7,2.1,11.4,3.1,17.2c0.2,1.1,0.2,2.3,0,3.5c-1,6.1-1.6,12.3-3.2,18.2c-2.5,9.2-5.2,18.3-8.5,27.1
		c-3.4,8.8-7.6,17.3-11.6,26.2c2.9,3.7,7.4,5.3,12.3,3.6c8.1-2.9,15.3-7.2,21-13.8c-0.6-3.1-1.4-6-1.6-8.9
		c-0.7-10,2.9-18.7,9.7-25.9c4.5-4.8,10.5-6.3,16.9-4.8c6.7,1.7,10.5,8.7,8.9,15.6c-2,9-6.9,16.1-13.7,22.2c-0.5,0.4-1,0.9-1.5,1.3
		c-0.1,0.1-0.2,0.3-0.2,0.4c1.9,5.5,7.5,8.1,13.1,6.5c8.8-2.6,14.3-8.6,18.3-16.5c4.5-8.7,6.9-18,7.2-27.8c0-0.4-0.3-0.9-0.8-1.9
		c-2,0.2-4.1,0.4-6.1,0.7c-6.7,0.9-10.4-4.2-8.4-10.6c1.8-5.8,6.4-6,10.9-6.9c1.3-0.3,2.6,0,4.3,0c0.9-4.4,1.8-8.6,2.7-12.8
		c0.9-4.3,3.8-7,7.8-8.3c4.7-1.5,8,0.7,8.2,5.6c0.1,2.8-0.7,5.6-1.2,8.3c-0.3,1.8-0.9,3.5-1.5,6c2.8,0,5,0.1,7.2,0.1
		c4.6,0.1,6.8,1.3,7.5,4.3c1.2,4.8-0.4,8.6-4.5,10.5c-2.7,1.2-5.4,2.3-8.6,1.9c-4.1-0.4-5.2,0.6-5.1,4.7c0.1,5.5-0.1,11.1,1.1,16.4
		c1.9,8.4,11.5,11.4,18.7,6.6c5.7-3.8,8.9-9.4,11.5-15.4c1.8-4.2,3-8.7,4.7-13.5c-2-0.1-3.4-0.2-4.9-0.3c-4.6-0.3-6.7-2.3-6.9-6.8
		c-0.2-3.6,2.8-7,6.7-7.3c3.1-0.3,6.3-0.1,9.8-0.1c0.4-3,1-5.6,1-8.2c0.1-4.3,2.2-7.6,5.1-10.5c1.9-2,6.3-3.1,7.8-2
		c2.5,1.8,3.2,4.6,3.1,7.5c-0.1,2-0.9,3.9-1.3,5.8c-0.3,1.8-0.3,3.6-0.6,6c2.7,0,4.8-0.2,6.9,0c3.3,0.3,4.4,1.5,4.5,4.8
		c0.1,1.5-0.1,3-0.3,4.5c-0.8,4.7-3,7.4-7.6,6.9c-6.8-0.7-9.2,2.6-11,8.4c-2.5,7.8-5.2,15.4-3.2,23.8c1.7,7.2,5.5,12.7,11.1,17.3
		c2.4,1.9,5.2,2.1,8.1,1.8c2.9-0.3,4.4-2.1,4.4-5.6c-0.1-6.1,0.8-11.9,2.2-17.8c0.9-3.7,2.8-6.4,6-8c3-1.5,6-2.9,9.2-3.7
		c4.7-1.2,8.3,0.7,11.2,4.5c2.5,3.3,3.9,6.8,3.7,11c-0.4,7.7-2.1,14.8-8.2,20.2c-1.2,1.1-2.3,2.4-3.4,3.6c5.1,6,11.4,6.6,15,1.2
		c1.8-2.7,2.8-6.1,3.5-9.3c2.5-11.1,3.8-22.3,3.4-33.7c-0.2-4.5,0.4-4.8,4.8-4.9c9.3,0,18.7,0,28,0c1.3,0,2.6,0.3,4.5,0.6
		c-1.1,3.6-2.3,6.6-3,9.8c-1,4.9-1.9,9.8-2.5,14.7c-0.4,3.5,1,6.5,3.9,8.7c3,2.3,6.1,2.1,8.2-1.1c1.8-2.8,3.4-5.8,4.6-8.9
		c2.9-7.3,4.6-14.9,5.4-22.7c0.5-4.9,5.9-7.9,10.4-5.8c2.5,1.2,2.8,3.6,2.8,6c-0.1,4.1-0.5,8.2-0.8,12.3c-0.1,2.3,0.2,4.3,2.8,5.5
		c3.6-0.9,5-3.9,6.2-7c2.7-7.2,7.7-12.8,11.8-19.1c1.6-2.4,4.7-2.1,6.6,0.7c1.1,1.6,1.6,3.6,2.2,5.5c0.5,1.7,0.6,3.6,1.1,6.1
		c1.1-1.3,1.8-2.1,2.5-2.9c3.7-4.7,8.1-8.4,13.7-10.5c4.6-1.7,8.8,0,10.7,4.5c1.8,4.3,1.7,8.7,0.9,13.2c-1,5.9-1.7,11.9-2.4,17.8
		c-0.1,1.1,0,2.3,0.2,3.5c0.5,3.7,2.2,6.7,5.7,8.2c4.1,1.8,7.8,0.8,11.1-1.9c2.6-2.2,4.2-4.2,3.1-8.4c-2.6-9.5-0.5-18.9,4-27.5
		c3.2-6.2,8-11.5,15-13.1c5.8-1.4,12-0.9,17.4,2.2c4.8,2.7,7.3,7.4,7.6,12.8c0.3,6.5-0.2,13-0.3,19.5c0,0.6-0.1,1.3-0.1,2.4
		c2.5-1.1,4.6-1.9,6.7-3c10-5.3,20.7-8,31.9-8.6C784.2,428.3,786.3,429,788,429.9z M726,478.9c0.5-1.5,0.1-3.3,0.1-5
		c-4.4,5.8-8.1,11.8-11.3,18.1c-1.6,3-2.6,6.5-0.9,10.4c3-0.1,4.8-1.4,5.6-3.7C721.7,492.1,724,485.5,726,478.9z M716.8,438.8
		c7.4-4.9,6.7-12.3,6.3-20.3C716.5,424.6,713.7,433.8,716.8,438.8z M529.4,449.9c3.8-4.5,6.4-8.7,5.1-14.4
		C529.5,437.5,527.9,442,529.4,449.9z M391.9,432.5c2.7-2.2,4.6-4.8,4.2-9.4C392.5,426,392,429.2,391.9,432.5z M351.9,392.1
		c0.4-3.4,1.3-7.3-1.5-10.9c-4,2.3-4.8,6.1-5.6,9.5c-2.7,11.5-3.8,23.2-3.4,35.2C347.2,415.3,350.6,404,351.9,392.1z"/>
	<path d="M729.9,561.3c12,5.1,25.2,22,20.1,39.5c-3.7,12.7-10.9,22.7-24.1,27.2c-2.3,0.8-4.8,1.1-7.7,1.7
		c-0.7,7.1-1.4,14.5-2.2,21.9c-0.2,1.6,0.5,3.6-1.9,3.9c-1.9,0.3-3.2-1.6-2.9-4.3c1.1-10.9,2.3-21.8,3.2-32.7
		c0.7-8.3,0.9-16.6,1.5-24.9c0.4-5.8,0.8-11.6,1.4-17.4c0.5-5.1,1.3-10.2,2.1-15.8C723,559.7,726.7,559.9,729.9,561.3z M746.3,594.7
		c0.7-12.2-5.8-20.8-14.6-28c-2.2-1.8-5.3-2.6-8.8-1.7c-2.3,19.7-2.8,39.4-4.2,59.8c1.4,0,2.2,0.1,3,0c5.4-1.1,10-3.6,13.7-7.6
		C741.4,610.8,745.8,603.6,746.3,594.7z"/>
	<path class="st4" d="M731.7,566.7c8.8,7.2,15.3,15.9,14.6,28c-0.5,8.9-5,16.1-10.9,22.4c-3.7,4-8.4,6.5-13.7,7.6
		c-0.8,0.2-1.6,0-3,0c1.4-20.4,1.9-40.1,4.2-59.8C726.4,564,729.5,564.8,731.7,566.7z"/>
	<path class="st0" d="M726.1,473.9c0,1.7,0.4,3.5-0.1,5c-2.1,6.6-4.3,13.2-6.6,19.7c-0.8,2.4-2.6,3.7-5.6,3.7
		c-1.7-3.9-0.6-7.4,0.9-10.4C718,485.7,721.7,479.7,726.1,473.9z"/>
	<path class="st0" d="M723.1,418.6c0.3,8,1.1,15.4-6.3,20.3C713.7,433.8,716.5,424.6,723.1,418.6z"/>
	<path d="M690.4,571.9c0.4,3.1,0.6,6.3,0.8,9.1c-1.2,17.3-2.4,34.2-8.8,50.3c-0.1,0.3-0.2,0.6-0.3,0.9l-4-1.1
		c5.9-15.7,7.1-32.2,8.1-48.8c0-1-0.1-2,0-3c0.5-6.9-1.6-12.4-5.8-17l3.6-1.9C687.1,563.6,689.8,567.1,690.4,571.9z"/>
	<path class="st4" d="M680.4,562.3c4.2,4.6,6.3,10.2,5.8,17c-0.1,1,0,2,0,3c-1,16.6-2.2,33.1-8.1,48.8c-0.6,1.6-1.3,3.2-2,4.8
		c-0.7,1.5-1.3,3.1-2.3,4.4c-0.2,0.3-0.4,0.6-0.7,0.8c-3.7,4.1-9.5,3.5-12.4-1.5c-3.9-6.5-4.3-13.8-4.5-21.2
		c-0.3-10,1.2-19.8,2.4-29.8c1.1-8.3,2.1-16.5,4.3-24.5c0.2-0.8,0.5-1.6,0.7-2.4c2.1-5.7,7.3-7,12.3-3.4
		C677.7,559.6,679.1,560.9,680.4,562.3z"/>
	<path d="M684,560.4l-3.6,1.9c-1.3-1.4-2.8-2.7-4.4-3.9c-5-3.6-10.2-2.3-12.3,3.4c-0.3,0.8-0.5,1.6-0.7,2.4
		c-2.2,8-3.2,16.3-4.3,24.5c-1.2,9.9-2.7,19.7-2.4,29.8c0.2,7.4,0.6,14.7,4.5,21.2c3,5,8.8,5.6,12.4,1.5l3.9,2
		c-0.6,0.8-1.3,1.6-2,2.4c-6.4,6.8-14.5,2.7-17.8-2.6c-3.3-5.3-5.3-11.1-5.5-17.4c-0.3-10.8-0.5-21.6,1.4-32.3
		c1.7-9.6,3.3-19.3,4.9-28.9c0.2-1,0.4-2,0.7-2.9c3.2-10,13.2-12.5,20.7-5.3C681.1,557.6,682.6,559,684,560.4z"/>
	<path class="st0" d="M644.2,300.2c0.4,1.5,1.1,2.8,1,4c-0.6,5.2-2.7,9.9-7,13.2c-2.6,2-4.8,0.7-5-2.5
		C632.9,307.6,636.6,302.3,644.2,300.2z"/>
	<path class="st3" d="M620.3,384.8c6.3,0.3,9.7,3.4,9.6,8.6c-0.1,5.4-5.4,10.1-10.7,9.7c-4.4-0.4-8.5-5.2-8.2-9.8
		C611.2,388.6,615.6,384.6,620.3,384.8z"/>
	<path d="M625.2,549.2c0.2,3.7,0.7,7.3,0.3,10.9c-1.3,13.4-3.2,26.7-4.1,40.2c-0.8,10.8-2.4,21.5-0.6,32.4c0.3,2.1,0.1,4.3,0.1,6.7
		c-1.2,0.4-2.4,0.8-4.2,1.4c-1.9-7.8-1.4-15.4-1.4-22.9c0.1-7.4,1-14.9,1.5-22.7c-4.6-0.8-9.1-1.5-13.6-1.4l-0.2-4.1
		c1.2-0.1,2.3-0.1,3.5-0.1c3.5,0.2,7,0,10.6,0c2-5.5,2.5-10.9,2.7-16.4c0.2-5,0.9-10,1.1-14.9c0.1-2.8-0.1-5.7-0.4-8.5
		c-0.2-1.7,0-3.1,1.8-3.4C624.2,546.2,625.1,547.4,625.2,549.2z"/>
	<path d="M603.1,589.8l0.2,4.1c-2.3,0-4.6,0.3-7,0.8c-1.2,11.7-3.1,23.2-1.6,34.9c0.2,1.5,0.4,3,0.4,4.5c0,2.1-0.1,2.1-3.5,3.5
		c-2.6-4.4-2.3-9.4-2.1-14c0.7-15.4,2.4-30.8,3.1-46.2c0.4-9.3-0.3-18.7-0.5-28c0-1.6-1-3.5,1.2-4.2c1.9-0.6,3.6,1.3,3.6,4.2
		c0.1,13.1,1.4,26.3-0.6,39.6C598.5,589.9,600.8,589.9,603.1,589.8z"/>
	<path d="M564.7,599.6c2.8,11.2,1.2,21.9-7.5,30.4c-4.5,4.4-10.1,6.8-16.5,6.7l0.1-4.4c1.5,0,3.3-0.4,5.2-1.3
		c5.3-2.3,10.1-4.9,12.5-10.7c2.8-6.6,3.2-13.3,1.4-20c-2.4-9-6.8-17.3-11.7-25.2c-4-6.3-8.4-12.4-12.6-18.6
		c-2.5-3.8-2.4-5.9,0.1-9.5c3.6-5.1,11.8-7.9,17.8-6.1c3.1,0.9,5,3.2,6.6,5.8c0.4,0.6-0.2,1.7-0.3,2.6c-0.4,0.2-0.8,0.3-1.2,0.5
		c-1.1-1-2.1-2-3.1-2.9c-4.2-3.9-14.8-1.4-16.5,4.1c-0.3,1.2,0.3,2.9,1.1,4c3.1,4.5,6.6,8.7,9.6,13.3
		C556,578,561.8,588.2,564.7,599.6z"/>
	<path class="st0" d="M549.8,306.2c1,0.5,1.8,2.5,1.7,3.7c-0.7,7.3-2.7,14.3-6.2,20.9c-0.5,0.8-1.2,1.6-2,2.2
		c-1.5,1.1-3,0.9-3.6-0.8c-0.9-2.5-1.4-5-2.2-7.5c0.4-6.8,3.5-12.2,7.4-17.3C546.2,305.6,548.2,305.4,549.8,306.2z"/>
	<path class="st0" d="M534.5,435.5c1.3,5.7-1.2,9.9-5.1,14.4C527.9,442,529.5,437.5,534.5,435.5z"/>
	<path d="M503.7,628.9c1.1,1.3,1.7,2.6,0.2,3.9c-1.6,1.4-3.1,0.7-4.3-0.7c-4.2-4.9-8.5-9.8-12.7-14.8c-0.9-1-1.6-2.2-2.7-2.9
		c-6.1-4.6-9-11.4-11.9-18.1c-0.6-1.3-1.4-2.5-2.8-3.4c0.3,5.9,0.5,11.8,1.1,17.7c0.6,6,1.6,11.9,2.5,17.8c0.1,0.7,0.4,1.5,0.2,1.9
		c-0.7,0.9-1.6,2.1-2.6,2.4c-0.6,0.2-2.1-1.2-2.3-2c-0.8-4.8-1.3-9.6-1.8-14.4c-1-10.9-2-21.8-2.9-32.8c-0.3-3.7-0.4-7.3-0.5-11
		c-0.1-7.5-0.8-14.9-2.5-22.3c-0.6-2.5-1.4-5.2,1.4-8c1,1.2,2.2,2,2.3,2.9c1.1,6.4,2.1,12.8,2.8,19.2c0.6,5.2,0.6,10.4,1,16.8
		c3.7-5.1,6.8-10.2,9.5-15.2l3.5,1.9c-2.1,3.9-4.3,7.8-6.5,11.7c-1.3,2.4-2.5,4.8-1.3,7.5c3.3,8,6.3,16.2,12.5,22.6
		c3.4,3.5,6.8,6.9,10.1,10.4C498.8,623.1,501.2,626,503.7,628.9z"/>
	<path d="M486.1,548.4c1.2-2.5,1.5-2.6,5.4-0.8c-1.8,4-3.6,8.1-5.6,12l-3.8-1.9c0.5-1.1,1-2.3,1.5-3.4
		C484.5,552.4,485.2,550.4,486.1,548.4z"/>
	<path d="M482.1,557.8l3.8,1.9c-1.5,2.8-3,5.6-4.5,8.4l-3.5-1.9C479.4,563.4,480.8,560.6,482.1,557.8z"/>
	<path class="st3" d="M460.2,323.7c3.4,0.9,4,2.3,2.4,5.4c-2.9,5.8-11,9.3-17.5,7.2c-3.2-1.1-6.3-2.8-9.8-4.4
		c-2.5,5-7.1,7.7-12.8,8.5c-5.8,0.8-10.8-1.2-14.4-5.7c-2.7,0.9-5.1,1.6-7.4,2.6c-4.4,1.8-8.8,1.5-13.1-0.1
		c-8.8-3.2-15.2-8.6-17.2-18.4c-1.4-6.6-2.4-8-5.5-11.6c-1,1-2.2,1.9-2.8,3.1c-3.2,5.8-6.2,11.8-9.3,17.6c-0.5,1-1.2,2-1.7,3.1
		c-2,4.2-5.8,3.5-9.1,3c-3-0.4-4-3.2-4.6-5.8c-0.3-1.4-0.4-2.9-0.6-4.3c-14.1,4-19.4,4.2-27.5-5.4c-1.1,1.2-2.1,2.4-3.1,3.6
		c-2.4,2.5-4.7,5.1-7.3,7.5c-6.5,6.2-16,2.5-19.9-3.3c-3-4.4-2.8-9.1-1.6-13.9c0.3-1.2,0.8-2.5,1.3-4.4c-1.5,0.4-2.6,0.5-3.5,0.9
		c-1.7,0.7-3.3,1.5-5,2.3c-8.6,4.4-8.5,4.3-7.1,14.1c1,7.6,1.5,15.2,2.2,22.8c0.5,5.3,0.8,10.6,1.1,16c0.1,2.3,0.1,4.7-0.3,6.9
		c-0.6,3.5-4.9,7.5-8,7.4c-3.6-0.2-6-2.6-7.5-5.7c-2.8-5.6-3.1-11.9-4.1-18c-1.2-6.9-2.1-13.8-3.3-20.7c-0.3-1.7-1.3-3.3-2.1-5.2
		c-5.1,1.2-9.5,3.2-13.5,5.8c-2.8,1.8-3.6,4.5-3.1,7.8c1.6,10.2,3.3,20.4,4.5,30.6c0.4,3.2-0.1,6.7-1,9.8c-1.3,4.2-5.3,5.4-9.4,3.7
		c-3.5-1.5-6.1-3.7-6.7-7.9c-1.5-9.5-3.3-19-4.9-28.5c-0.2-0.8-0.1-1.7-0.2-2.5c-1-6.3-1.1-6.4-7.3-4.9c-2.5,0.6-4.2-0.4-5.5-2.3
		c-1.7-2.5-1.8-6.3,0.1-8.4c2.3-2.6,5.1-4.8,8.3-7.8c-0.9-7.9-2-16.2-2.8-24.5c-0.9-9.3-1.6-18.6-2.2-27.9c-0.1-1.9,0.4-4,0.9-5.8
		c0.8-2.8,2.1-5.6,5.4-5.8c3.3-0.3,6.6,1.1,8,4.1c1.7,3.7,2.9,7.8,3.5,11.8c1.6,11.5,2.7,23.1,4.1,34.6c0.3,2.1,1,4.2,1.6,6.8
		c1.8-0.6,3.4-0.9,4.8-1.7c3.9-2.2,7.8-4.5,11.7-6.8c2.2-1.3,3.4-3,3.1-5.7c-0.5-6.1-0.9-12.2-1.3-18.4c-0.4-7.7,0.3-15.3,1.8-22.9
		c0.6-2.9,2.4-4.3,4.8-5.1c2.4-0.9,4.3,0.7,5.5,2.5c1.9,2.9,3.7,5.9,5,9.1c3.5,8.8,3.3,18.2,4.1,27.5c0.1,0.6,0.1,1.3,0.2,2.4
		c1.4-0.8,2.5-1.4,3.6-2.1c8.6-5.9,17.2-12,27.2-15.6c5.9-2.1,12.1-3.7,18.3-4.9c5.8-1.1,10.9,3,12.4,8.8c1.3,5.2,0.2,10.3,0.1,15.4
		c0,0.8-0.2,1.7-0.2,2.5c0.3,3.8,2.8,7.8,5.2,8.4c5.2,1.1,9-0.5,11.5-4.8c3.5-6.2,7.1-12.4,10.8-18.5c1.1-1.7,2.8-3.3,4.6-4.4
		c2.7-1.7,4.9-0.5,5.4,2.6c0.3,1.8,0.2,3.7,0.3,6.1c2.9-1.9,5.4-3.8,8.2-5.2c2.5-1.3,5.2-2.3,7.9-2.9c3-0.6,4.7,0.6,5.8,3.4
		c0.7,1.8,1.9,3.8,1.8,5.6c-0.4,5.2,1.7,9.8,2.9,14.6c1.1,4.6,2.9,8.9,7.2,11.5c3.7,2.3,8.6,2,11.6-1c0.8-0.8,1.2-2.3,1.3-3.5
		c0.3-2.8,0.3-5.6,0.5-8.5c0.5-7.2,4.2-12.9,8.9-18c2.9-3.1,8.5-3.3,12.6-0.9c1.7,1,3.3,2.1,5.1,3.3c2-3.8,0.8-7.5,1.1-11.1
		c0.7-10.3,0.9-20.6,1.5-31c0.1-2.3,0.9-4.6,1.8-6.7c1.3-3.2,4.4-5,6.9-4.5c4.8,1,7.2,3.3,7.1,7.5c-0.2,5.8-0.6,11.6-1.2,17.4
		c-1.5,14.7-3.3,29.4-4.7,44.1c-0.3,3.7-0.2,7.6,1.8,11.2c1.6,2.9,3.7,4.6,6.9,5C456.3,322.9,458.3,323.2,460.2,323.7z M425.8,322.1
		c2.8-3.9,5-8.2,4-13.3c-0.5-2.6-1.3-5.2-4.8-5.9c-4.2,3.4-6.8,13.4-4.9,18.2C421,323.3,424.3,324.1,425.8,322.1z M307.1,298.8
		c-0.2-1.4-0.3-2.4-0.4-3.4c-0.1-0.7-0.2-1.3-0.5-1.9c-0.8-2-2.5-2.6-3.8-1.1c-4.1,4.7-7,10.1-8.2,16.2c-0.2,1.1,0.5,2.7,1.3,3.4
		c0.6,0.5,2.4,0.3,3.2-0.2C303.4,308.7,306.4,304.3,307.1,298.8z"/>
	<path d="M433.2,629.7c2,1.8,2,1.9-0.4,5c-11.5-6.7-19-17.2-26.9-28.8c0.6,6.1,1.4,11,1.4,15.9c0,4.5,3.1,9.2-0.5,14.5
		c-1-1.4-2-2.2-2.2-3.1c-0.8-3.6-1.7-7.1-2-10.8c-0.9-13.9-1.5-27.9-2.5-41.8c-0.6-9-1.6-17.9-2.4-26.9c-0.2-2.5-0.2-5-0.3-7.5
		c-0.1-3,0.8-4.3,3.7-4.8c1.6-0.3,3.4-0.3,4.9,0.2c6.8,2.3,12.6,5.8,16.3,12.4c3.3,6,3,12.2,1.6,18.4c-1.8,8.3-5.6,15.6-10.9,22.2
		c-0.8,1.1-1.4,2.3-2.3,3.3c-1.8,2.1-1.6,4.1-0.2,6.3c4.6,7.1,9.5,14,15.7,19.7C428.4,626,430.9,627.7,433.2,629.7z M420,569.2
		c2.2-11.8-4.7-19.3-14-22.8c-1.1-0.4-2.5-0.4-4.3-0.6c1.3,17.1,2.5,33.7,3.8,50.8C412.9,589.4,418.4,578.2,420,569.2z"/>
	<path class="st0" d="M429.8,308.8c1.1,5.1-1.1,9.4-4,13.3c-1.5,2-4.8,1.2-5.7-1c-1.9-4.8,0.7-14.8,4.9-18.2
		C428.5,303.6,429.2,306.2,429.8,308.8z"/>
	<path class="st4" d="M406,546.4c9.3,3.5,16.2,11,14,22.8c-1.7,9.1-7.1,20.2-14.5,27.4c-1.3-17.1-2.5-33.7-3.8-50.8
		C403.6,546,404.9,546,406,546.4z"/>
	<path class="st0" d="M396.1,423.2c0.4,4.6-1.5,7.1-4.2,9.4C392,429.2,392.5,426,396.1,423.2z"/>
	<path d="M369.3,562.2c1.2,9.6,0.5,19.2-0.2,28.8c-0.9,11.7-2.3,23.4-3.5,35.1c-0.4,3.5-1.6,6.6-4,9.4c-5.1,6.2-13.5,3.2-15.8-2.9
		c-2.2-5.9-4.1-11.9-5.4-18.1c-1.1-5.3-1.1-10.9-1.7-18c0.6-7,1.3-15.6,2-24.2c0.5-6,0.8-12,1.5-17.9c0.7-5.4,2.7-10.2,8.1-12.9
		c4.2-2.1,8.2-1.7,11.2,2C366.2,548.9,368.4,555.2,369.3,562.2z M365.6,576.5c0.8-10.2-1.2-19.8-5.3-29.1c-1.3-2.9-4.6-4.2-7.4-2.8
		c-3.4,1.7-5.3,4.5-6,8.1c-0.6,3.3-1.4,6.6-1.5,9.9c-0.3,13.3-2.5,26.5-1.9,39.9c0.4,9,2.7,17.4,5.1,25.8c0.3,1.1,0.9,2.2,1.5,3.1
		c2.6,4.2,6.3,4.5,9.3,0.6c1.1-1.4,1.9-3.2,2.1-4.9c1.5-12.9,2.9-25.8,4.1-37.3C365.6,584.4,365.3,580.4,365.6,576.5z"/>
	<path class="st4" d="M360.3,547.4c4.1,9.3,6.2,18.9,5.3,29.1c-0.3,4-0.1,8-0.1,13.4c-1.3,11.6-2.6,24.5-4.1,37.3
		c-0.2,1.7-1,3.5-2.1,4.9c-3,3.9-6.6,3.6-9.3-0.6c-0.6-1-1.2-2-1.5-3.1c-2.5-8.5-4.8-16.8-5.1-25.8c-0.5-13.4,1.6-26.6,1.9-39.9
		c0.1-3.3,0.9-6.6,1.5-9.9c0.7-3.6,2.7-6.5,6-8.1C355.7,543.2,359,544.5,360.3,547.4z"/>
	<path class="st0" d="M350.4,381.2c2.8,3.7,1.9,7.5,1.5,10.9c-1.3,11.9-4.8,23.1-10.6,33.7c-0.4-11.9,0.7-23.7,3.4-35.2
		C345.6,387.3,346.5,383.5,350.4,381.2z"/>
	<path d="M310.4,572.6c0.6,12,1.4,23.9,0.4,35.9c-0.7,8.8-0.4,17.6-0.7,26.4c-0.1,3.4-0.6,6.6-3,9.3c-2.5,2.7-5.4,3.7-8.9,3
		c-7.8-1.5-11.7-7.1-14-14.1c-0.7-2.2-1.3-4.3-2-6.5c-0.3,0.1-0.5,0.2-0.8,0.3c-0.5,4.8-0.9,9.6-1.5,14.4c-0.1,1.1-0.6,2.3-1.2,3.2
		c-3,5-6.3,5.4-10.2,1.1c-3.4-3.7-5.6-8.2-7.2-13c-2-6-4-12-5.6-18.2c-1.4-5.5-2-11.1-3.1-16.7c-2.3-12-4.2-24-4.7-36.1
		c-0.2-4.5-0.7-9-1-13.5c-0.1-1-0.2-2.1,0.1-3c0.2-0.6,1.1-1.4,1.7-1.4c0.6,0,1.6,0.7,1.8,1.3c0.4,1.6,0.3,3.3,0.5,4.9
		c1,10.8,1.6,21.6,3.1,32.3c2.3,17,5.7,33.8,11.4,50.1c1.6,4.4,3.8,8.4,7.5,11.4c2.7-0.5,3-2.6,3.2-4.6c0.7-7.8,1.4-15.6,2-23.4
		c0.6-7.7,0.6-15.3,0.1-23c-0.4-5.3,0.5-10.6,0.6-16c0.3-8,0.6-15.9,0.8-23.9c0.1-2.9-0.1-2.9,4.1-3.3c0.2,1.1,0.5,2.1,0.5,3.2
		c-0.2,12.2-0.7,24.3-0.5,36.5c0.1,9.2-1.6,18.6,0.8,27.7c1.7,6.6,3.5,13.1,6,19.4c1.6,4.1,5.2,6.3,10,6.3c2.7,0,4.4-1.2,5.1-3.8
		c0.4-1.5,0.8-2.9,0.8-4.4c0.3-16.5,1-33,0.5-49.5c-0.4-12.4-2.2-24.8-3.5-37.2c-0.2-2-0.4-4-0.7-6c-0.3-1.5,0.3-2.5,1.6-2.5
		c0.7,0,1.9,0.8,2.1,1.5c0.8,3.2,1.6,6.4,2,9.7C309.2,558,310,565.2,310.4,572.6z"/>
	<path class="st0" d="M306.6,295.5c0.2,1,0.3,2,0.4,3.4c-0.7,5.4-3.7,9.8-8.4,13c-0.8,0.5-2.6,0.7-3.2,0.2c-0.8-0.7-1.5-2.3-1.3-3.4
		c1.1-6.2,4.1-11.5,8.2-16.2c1.3-1.5,3-0.9,3.8,1.1C306.4,294.2,306.5,294.8,306.6,295.5z"/>
	<path class="st4" d="M247.6,688.8c0.7,0.3,1.4,0.7,2.6,1.3c-20.6,7.5-39,18.1-58.1,27.2c-11.2,5.3-21.6,12.5-32.4,18.6
		c-7.4,4.2-14.9,8.1-22.4,12.1c-1.1,0.6-2.5,0.7-3.8,1.1c-2.1-3.4-1.9-7-1.6-10.4c1.2-11.4,2.2-22.8,5.9-33.9
		c1.9-5.7,2.8-11.7,4.2-17.5c2.4-9.7,4.8-19.4,7.2-29.1c1-3.8-0.3-7.1-3-9.5c-5.7-5.1-11.6-9.8-17.5-14.7c-7.3-6-14.7-12-22-18
		c-5.8-4.8-11.5-9.6-17.3-14.3c-0.9-0.7-1.8-1.5-3.1-2.5c3.6-5.2,8-8.4,12.7-10.8c14.2-7.2,28.5-14.5,43.1-20.8
		c14-6.1,28.5-11.2,42.8-16.5c4.9-1.8,10.2-2.7,16.1-4.3c0,4.2,0,7.5,0,10.8c0,12.6-0.3,25.3,0.2,37.9c0.4,10,1.7,19.9,2.9,29.8
		c1.1,8.9,2.4,17.8,4,26.6c0.8,4.7,2,9.5,3.8,13.9c3.3,8,10,12.7,17.6,16C235.4,684.4,241.6,686.4,247.6,688.8z"/>
	<path class="st1" d="M229.8,455.8c3.2-4.2,6.8-6.4,11.7-6.8C238.9,454.5,234.5,457.3,229.8,455.8z"/>
	<path class="st3" d="M226.4,456.5c0,0.9-1.8,2.3-3,2.6c-0.9,0.2-2.9-0.7-3.2-1.5c-0.7-2.1-1.1-4.5-1-6.8c0-2.3,0.6-4.6,1.1-7.2
		C226,446.5,226.4,451.5,226.4,456.5z"/>
	<path class="st2" d="M221.8,490.7c2.5-0.6,5.2-0.8,7.9-1.2c-3.8,9.1-7.6,11.7-13.4,9.4C215.9,493.8,217.1,491.8,221.8,490.7z"/>
	<path class="st10" d="M213.7,482.4c1.7,1.8,1.7,4.1,0.3,6c-0.6,0.8-2.3,1.5-3.3,1.4c-2.1-0.3-4.6-0.9-4.8-3.6
		c-0.2-3.2-0.1-6.5-0.1-9.7c0.4-0.2,0.7-0.3,1.1-0.5C209.2,478.1,211.6,480.2,213.7,482.4z"/>
	<path class="st3" d="M182.7,510.9c1.5,5.4-0.2,8.7-6.1,12.6C175.3,518.6,177.2,514.7,182.7,510.9z"/>
	<path class="st10" d="M170.8,402.1c4.2-5.6,6.2-6.6,13.2-6.9C179.5,403.9,176.7,405.9,170.8,402.1z"/>
	<path d="M169.4,507.4l0,2c-4.5,0.1-9,0.6-13.7,1.7c2.8,7.3-1.2,12.3-5.1,17.4c-1.6,2-2.7,4.3-4.7,7.5c-2.2-8.3-3.3-15.4,1.1-23.1
		c-3.2,0.8-5.6,1.2-8,1.9c-2.1,0.6-4.1,1.4-6.2,2c-5.7,1.7-10.1,4.3-10.7,11.2c-0.4,3.9-3.1,6.9-6.9,8.6c-1.9,0.9-3.6,2.1-5.9,3.5
		c-1.2-4.7-0.6-8.7-0.3-13.2c-2.8,2.2-5.7,4.3-8.5,6.4c-1.1,0.8-1.9,1.9-3,2.6c-3.2,2.1-5.2,4.7-6.1,8.5c-0.6,2.6-2.6,4.9-4.1,7.4
		c-1.4,2.4-2.9,4.8-4.6,7.8c-0.7-0.4-2-0.9-2.6-1.7c-3.6-5.4-1.6-13.2,4.9-16.7c6.2-3.4,11.6-7.7,16.9-12.4
		c2.8-2.5,6.2-4.4,10.3-7.2c-6.4-2.2-11.9-4.1-17.5-6c0-0.2-0.1-0.6,0.1-0.8c5.3-5.1,13.8-6.4,20.2-3.1c2.4,1.2,5,2,7.2,3.4
		c2.9,1.9,5.5,1.1,8.4,0c4-1.6,8.1-2.8,12.4-4.3c-4.8-3-7.2-7.2-7.6-13.1c8,1.2,16.1,0.8,18.6,9.8
		C159.3,507.6,164.3,507.5,169.4,507.4z M147.4,528.4c7.3-9.6,7.8-11.4,4.6-15.9C146.9,516.5,146.9,521.9,147.4,528.4z M139.9,501.8
		c1.6,6,4.2,7.5,10.9,6.4C149.3,502.7,146.7,501.2,139.9,501.8z M112.1,535.2c6-2.5,7.3-4.5,8.1-12.6
		C114.3,523.5,111.4,528.1,112.1,535.2z M102.4,515c5.7,1.4,9.8,6.7,15.5,2C113.2,514.5,109,509.9,102.4,515z M82.2,555.5
		c1.1-4.6,5.9-7.4,6.4-12.9C82.3,546.5,80.5,550,82.2,555.5z"/>
	<path class="st2" d="M167.8,425.6c-4.2,2.3-3.4,8.2-8.4,9.6C158.2,428.8,160.7,425.8,167.8,425.6z"/>
	<path class="st11" d="M155.2,417.7c3.6,4.2,3.7,5.2,1.2,9.9C151.9,426,151.6,424.3,155.2,417.7z"/>
	<path class="st11" d="M155.9,466c-0.8,5.5-2.1,6.7-7,7.5C149.7,469.7,152,467.6,155.9,466z"/>
	<path class="st1" d="M152,512.5c3.2,4.5,2.7,6.3-4.6,15.9C146.9,521.9,146.9,516.5,152,512.5z"/>
	<path class="st11" d="M150.8,508.2c-6.7,1.1-9.3-0.4-10.9-6.4C146.7,501.2,149.3,502.7,150.8,508.2z"/>
	<path class="st2" d="M144.8,400.4c-1.3,3.8,0.1,8.3-4.9,10.6C138.3,404.5,138.8,403.4,144.8,400.4z"/>
	<path d="M137.9,454.6l-0.8,2.1c-0.1,0-0.2-0.1-0.4-0.1c0,2.6,0,4.4,0,6.1c0,4.7-1.8,8.4-6.1,10.7c-2.7,1.5-5.5,2.9-9.1,4.8
		c1.1-8.3,0.3-16.4,8.2-22.1c-4.4-0.9-8.6-1.5-12.8-1.5v-1.8c2.3,0,4.6,0,6.9,0c-1-2.1-2.5-4.1-2.7-6.2c-0.3-2.9,0.3-5.9,0.6-10
		c2.6,3,4.4,5.1,6.3,7c2,2,4.4,3.5,6.3,5.6C135.7,450.7,136.6,452.7,137.9,454.6z M133.2,454.1c0.3-0.3,0.6-0.6,0.9-0.9
		c-2.6-3.7-5.7-6.6-10.5-8.8c0.3,1.6,0.1,3.2,0.7,3.7C127.1,450.2,130.2,452.1,133.2,454.1z M125.3,472.7c7.5-2.2,9.9-7,7.2-14.5
		C126.2,461.1,126,466.9,125.3,472.7z"/>
	<path class="st1" d="M134.4,366.9c-0.1,5.9,1.1,10.9-2.4,15.6C128.3,376.5,128.8,373.3,134.4,366.9z"/>
	<path class="st1" d="M134.1,453.1c-0.3,0.3-0.6,0.6-0.9,0.9c-3-2-6-3.8-8.9-6c-0.6-0.5-0.4-2.1-0.7-3.7
		C128.4,446.5,131.5,449.5,134.1,453.1z"/>
	<path class="st7" d="M133.7,328.5c0.7,5.1,2.6,10.3-1.1,15.2c-1-0.2-2-0.3-2.9-0.7c-2.7-1.1-3-1.9-1.6-4.6
		C129.9,335.1,131.8,331.8,133.7,328.5z"/>
	<path class="st7" d="M132.5,458.1c2.6,7.6,0.2,12.3-7.2,14.5C126,466.9,126.2,461.1,132.5,458.1z"/>
	<path class="st11" d="M125.5,372.5c0.3,0.9,0,2.8-0.5,3c-1,0.4-3,0.5-3.5-0.2c-1.4-1.7-2.4-3.8-3.4-5.9c-0.4-0.8-0.3-1.9-0.5-3.2
		C122.5,366.1,124.4,369,125.5,372.5z"/>
	<path class="st2" d="M120.2,522.6c-0.8,8.1-2.1,10.1-8.1,12.6C111.4,528.1,114.3,523.5,120.2,522.6z"/>
	<path d="M116.9,452.7v1.8c-3.2,0-6.3,0.3-9.6,1.1c1.9,5.8,0.2,10.5-4.3,14.8c-3.7,3.5-6.7,7.7-10,11.5c-0.3,0.4-1.2,0.2-2.5,0.4
		c1.8-8.8,0-18.1,7.2-25.2c-8.9-0.4-21.6,3.9-29.3,9.7c1.9,4.6,0,8.5-3,11.8c-3.1,3.3-4.9,7-5.3,11.7c-3.9-4.5-4.1-10-4.6-16.2
		c-4.5,3.8-10.2,5.2-11.2,12c-0.4,2.9-2.3,6-4.3,8.2c-3.2,3.5-6.3,6.8-5.8,12.3c-2.6,0-3.6-1.6-4.4-3.1c-2.3-3.8-1.1-12.1,2.3-14.9
		c4.5-3.7,9.1-7.4,13.7-10.8c5.7-4.2,11.4-8.5,17.5-12.1c4.4-2.6,9.3-4.3,14.1-6.4c2.1-0.9,4.2-1.7,6.7-2.6
		c-13-6.2-26.9-8.2-39-15.6c-0.4,0.7-0.8,1.4-1.2,2c-2.5,4.3-5.7,6.1-10.4,4.9c-4.5-1.1-8.2-0.2-11.4,3c-0.2,0.2-0.6,0-1.7-0.2
		c2.9-5.7,4.2-12.1,10.7-14.7c2.3-0.9,5.3-1,7.7-0.3c3.3,0.9,6.4,2.8,9.5,4.4c1.9,0.9,3.7,2,5.9,3.2c0.6-4,1.1-7.5,1.7-11.1
		c0.1-0.7,0.9-1.9,1.2-1.8c0.8,0.1,1.8,0.6,2.3,1.3c1.4,1.6,2.4,3.7,4,5c3.7,3.1,6.6,6.6,6.4,11.9c3.6,1.3,7,2.5,10.4,3.7
		c3.3,1.1,6.6,2.5,10.3,1.3c-0.2-0.4-0.2-1.1-0.5-1.3c-4.2-2.7-5.4-5.9-2.7-10.6c1-1.7,0.5-4.1,0.8-7.1c3.6,3,6.5,5.8,9.7,8.2
		c3.5,2.6,5.6,6,6.9,9.8C108.9,452.7,112.9,452.7,116.9,452.7z M103.4,466.5c3.5-3.8,3.1-7-0.7-9.9c-7.7,4.2-8,11.8-8.7,18
		C96.9,472.1,100.5,469.6,103.4,466.5z M101.7,452.4c-1.8-6.2-7.3-7.6-10.9-11.6c-2.9,6.4-1.8,9.3,3.5,10.9
		C96.5,452.3,98.8,452.2,101.7,452.4z M59.3,482.2c2.8-3.9,8.4-6.6,6.1-13.1C58.4,471.6,57.9,472.5,59.3,482.2z M67.1,447.4
		c-1-5.4-5.2-7.4-8-11c-2.5,3.9-2.5,5.8-0.1,7.2C61.4,445,64,446,67.1,447.4z M31.8,500.1c9.7-10.4,10.2-11.4,9.7-16
		C36.3,488.2,29.7,491.1,31.8,500.1z M33.9,446.1c4.6,0.6,6.9-1.2,7.7-6.3c-7.3-4.4-12.8-2.4-15.3,5.3
		C28.8,445.5,31.4,445.8,33.9,446.1z"/>
	<path class="st10" d="M117.9,517c-5.7,4.8-9.8-0.6-15.5-2C109,509.9,113.2,514.5,117.9,517z"/>
	<path class="st3" d="M102.7,456.5c3.8,2.9,4.2,6.1,0.7,9.9c-2.9,3.1-6.5,5.6-9.4,8.1C94.7,468.4,95.1,460.8,102.7,456.5z"/>
	<path class="st3" d="M91.2,407.7c4.5-10.1,7.2-12.2,14-11.1C104.6,402.9,102.1,404.9,91.2,407.7z"/>
	<path class="st2" d="M90.8,440.8c3.6,4,9.1,5.4,10.9,11.6c-2.9-0.3-5.2-0.2-7.4-0.8C89,450.2,87.9,447.2,90.8,440.8z"/>
	<path class="st11" d="M88.6,542.6c-0.5,5.5-5.3,8.3-6.4,12.9C80.5,550,82.3,546.5,88.6,542.6z"/>
	<path class="st11" d="M75.1,376c3.1,3.5,8.6,4.1,8.6,10.1c-1,0-1.8,0.1-2.6,0C73.9,385,73,383.6,75.1,376z"/>
	<path class="st2" d="M63.3,394.9c-0.6-4.8,2.1-7.7,7.5-7.4C69.4,391.7,66.6,393.5,63.3,394.9z"/>
	<path class="st2" d="M65.3,469c2.3,6.5-3.2,9.2-6.1,13.1C57.9,472.5,58.4,471.6,65.3,469z"/>
	<path class="st11" d="M59.2,436.5c2.8,3.6,6.9,5.6,8,11c-3.1-1.4-5.7-2.4-8-3.8C56.7,442.3,56.7,440.4,59.2,436.5z"/>
	<path d="M43.6,378.7l-0.3,1.4c0,0,0,0,0,0c-5.1,8.6-13.3,9.8-23.5,8.9c4-4.3,7.3-7.8,10.9-11.7c-4.6-4-4.7-9.6-4-15.9
		c5.1-0.6,7.8,3.5,10.9,5.9C40.9,370,43.3,373.8,43.6,378.7z M29.2,364.2c-0.6,9.6,3.7,14.3,11.6,12.8
		C39.3,370.5,33.8,368.1,29.2,364.2z M39.5,380.8c-8.2-1.2-10.1-0.3-14.1,6.3C31.1,387.6,35.8,386.1,39.5,380.8z"/>
	<path class="st7" d="M41.5,484.1c0.6,4.6,0,5.5-9.7,16C29.7,491.1,36.3,488.2,41.5,484.1z"/>
	<path class="st7" d="M40.7,377c-7.9,1.5-12.2-3.2-11.6-12.8C33.8,368.1,39.3,370.5,40.7,377z"/>
	<path class="st10" d="M41.6,439.9c-0.7,5.1-3.1,6.9-7.7,6.3c-2.6-0.4-5.1-0.7-7.7-1C28.8,437.5,34.3,435.5,41.6,439.9z"/>
	<path class="st10" d="M25.4,387.1c3.9-6.6,5.9-7.6,14.1-6.3C35.8,386.1,31.1,387.6,25.4,387.1z"/>
</g>
</svg>
