<?xml version="1.0" encoding="utf-8"?>
<!-- Generator: Adobe Illustrator 19.1.0, SVG Export Plug-In . SVG Version: 6.00 Build 0)  -->
<svg version="1.1" id="Layer_1" xmlns="http://www.w3.org/2000/svg" xmlns:xlink="http://www.w3.org/1999/xlink" x="0px" y="0px"
	 viewBox="0 0 1000 1000" style="enable-background:new 0 0 1000 1000;" xml:space="preserve">
<style type="text/css">
	.st0{fill:#BE1E2D;}
	.st1{fill:#E2F2F5;}
	.st2{fill:#FFFFFF;}
	.st3{fill:#231F20;}
	.st4{opacity:0.9;fill:#BE1E2D;}
	.st5{opacity:0.25;fill:#FFFFFF;}
	.st6{fill:#171413;}
	.st7{fill:#DBAE4D;}
	.st8{fill:#F1C28A;}
	.st9{opacity:0.38;fill:#D34642;}
	.st10{fill:#DFA973;}
	.st11{opacity:0.38;fill:#EE6B6C;}
	.st12{fill:#300D41;}
	.st13{fill:#66401F;}
	.st14{fill:#D29C66;}
	.st15{opacity:0.38;fill:#F38481;}
	.st16{fill:#2B2521;}
	.st17{fill:#986239;}
	.st18{fill:#422915;}
	.st19{fill:#F9CDB2;}
	.st20{opacity:0.38;fill:#D84445;}
	.st21{fill:#C06C32;}
	.st22{fill:#77111C;}
	.st23{fill:#5A0C17;}
</style>
<g>
	<rect x="111.4" y="0" class="st0" width="777.2" height="265.9"/>
	<rect x="111.4" y="779.9" class="st0" width="777.2" height="220.1"/>
	<rect x="111.4" y="239.1" class="st1" width="777.2" height="562.6"/>
	<g>
		<g>
			<path class="st2" d="M188.1,124.7h-8.3l15.3-37.9h6.7l15,37.9h-8.3l-2.8-7.4h-14.9L188.1,124.7z M198.2,95.8l-5.4,15.3h10.9
				L198.2,95.8z"/>
			<path class="st2" d="M220.5,96.6h6.3v3.7c1.2-2.5,3.5-4.5,7.8-4.6v6.8h-0.3c-4.7,0-7.1,2.2-7.1,7.1v15.1h-6.7V96.6z"/>
			<path class="st2" d="M242.1,112.8c0.3,4.5,4.3,7,8.1,7c3.3,0,5.5-1.5,6.8-3.8h6.9c-1.3,3.1-3.3,5.5-5.7,7.1
				c-2.4,1.6-5.1,2.5-8,2.5c-8.6,0-14.8-7-14.8-14.8c0-8,6.2-15,14.7-15c4.2,0,7.9,1.6,10.5,4.3c3.4,3.5,4.7,7.9,4.1,12.8H242.1z
				 M258.1,107.7c-0.3-2.7-3.1-6.4-8-6.3c-5,0-7.7,3.6-7.9,6.3H258.1z"/>
			<path class="st2" d="M292.7,123.6l-10.6-27h7.2l6.9,18.7l6.8-18.7h7.2l-14.8,37.9h-7.2L292.7,123.6z"/>
			<path class="st2" d="M310.6,110.5c0-7.2,5.3-14.8,15-14.8s15,7.6,15,14.8c0,7.3-5.3,14.9-15,14.9S310.6,117.9,310.6,110.5
				L310.6,110.5z M317.3,110.6c0,4.9,3.7,8.5,8.3,8.5s8.3-3.6,8.3-8.6s-3.7-8.6-8.3-8.6S317.3,105.6,317.3,110.6L317.3,110.6z"/>
			<path class="st2" d="M371.7,124.7h-6.3v-3.7c-1.2,2.2-3.7,4.7-8.7,4.6c-9.2-0.1-10.9-7.1-10.9-12v-17h6.7v15.3
				c0,4.1,1.4,7.4,6.1,7.4c4.8,0,6.4-3.2,6.4-7.2V96.6h6.7V124.7z"/>
			<path class="st2" d="M393.8,86.8h6.7v9.9v3.4c2.8-3.4,6.8-4.3,9.4-4.3c6.7,0,14,4.9,14,14.8c0,9.5-6.7,15-14.3,15
				c-4.4,0-7.8-2.1-9.3-4.9v4h-6.4V86.8z M417.2,110.5c0-4.6-3.5-8.6-8.4-8.6c-5.2,0-8.5,4.1-8.5,8.6c0,4.7,3.3,8.7,8.3,8.7
				C414,119.3,417.2,114.9,417.2,110.5L417.2,110.5z"/>
			<path class="st2" d="M433.9,112.8c0.3,4.5,4.3,7,8.1,7c3.3,0,5.5-1.5,6.8-3.8h6.9c-1.3,3.1-3.3,5.5-5.7,7.1
				c-2.4,1.6-5.1,2.5-8,2.5c-8.6,0-14.8-7-14.8-14.8c0-8,6.2-15,14.7-15c4.2,0,7.9,1.6,10.5,4.3c3.4,3.5,4.7,7.9,4.1,12.8H433.9z
				 M450,107.7c-0.3-2.7-3.1-6.4-8-6.3c-5,0-7.7,3.6-7.9,6.3H450z"/>
			<path class="st2" d="M463.5,101.7h-4.7v-5.2h4.7v-9.8h6.7v9.8h4.8v5.2h-4.8v22.9h-6.7V101.7z"/>
			<path class="st2" d="M476,96.6h7l5.6,19.5l5.4-18.6h5.7l5.5,18.6l5.5-19.5h7l-9,28.1h-6.3l-5.5-19l-5.4,19H485L476,96.6z"/>
			<path class="st2" d="M525.2,112.8c0.3,4.5,4.3,7,8.1,7c3.3,0,5.5-1.5,6.8-3.8h6.9c-1.3,3.1-3.3,5.5-5.7,7.1
				c-2.4,1.6-5.1,2.5-8,2.5c-8.6,0-14.8-7-14.8-14.8c0-8,6.2-15,14.7-15c4.2,0,7.9,1.6,10.5,4.3c3.4,3.5,4.7,7.9,4.1,12.8H525.2z
				 M541.2,107.7c-0.3-2.7-3.1-6.4-8-6.3c-5,0-7.7,3.6-7.9,6.3H541.2z"/>
			<path class="st2" d="M557.9,112.8c0.3,4.5,4.3,7,8.1,7c3.3,0,5.5-1.5,6.8-3.8h6.9c-1.3,3.1-3.3,5.5-5.7,7.1
				c-2.4,1.6-5.1,2.5-8,2.5c-8.6,0-14.8-7-14.8-14.8c0-8,6.2-15,14.7-15c4.2,0,7.9,1.6,10.5,4.3c3.4,3.5,4.7,7.9,4.1,12.8H557.9z
				 M573.9,107.7c-0.3-2.7-3.1-6.4-8-6.3c-5,0-7.7,3.6-7.9,6.3H573.9z"/>
			<path class="st2" d="M585.7,96.6h6.3c0,1.2,0,2.4-0.1,3.7c1.2-2.2,3.7-4.7,8.7-4.6c9.2,0.1,10.9,7.1,10.9,12v16.9h-6.7v-15.2
				c0-4.2-1.4-7.4-6.1-7.4c-4.8,0.1-6.4,3.2-6.4,7.2v15.5h-6.7V96.6z"/>
			<path class="st2" d="M642.3,93.3h-6.8v-6.4H650v37.9h-7.6V93.3z"/>
			<path class="st2" d="M688.1,86.8v5.9l-14.2,32h-8.4l14.7-31.4h-15.6v-6.4H688.1z"/>
			<path class="st2" d="M743.2,102l-6.3,12l6.8,6.9l-4.6,4.5l-5.8-6c-1.6,2.9-4.6,6-10.7,6c-7.9,0-12.7-5-12.7-10.8s4.7-9,7.8-10.8
				c-2.6-2.7-4-5.3-4-8.3c0-5.2,4.3-9.4,9.8-9.4c5.6,0,9.6,4.1,9.6,9.1c0,5-3.7,7.4-6.1,8.7l5.5,5.6l3.7-7.5H743.2z M721.7,107.9
				c-2.9,1.6-4.6,3.5-4.6,6c0.1,3,2.5,5.1,5.7,5.1c3.2,0,4.8-1.6,6-3.9L721.7,107.9z M723.4,91.6c-1.8,0-3.3,1.5-3.3,3.5
				c0,2.3,1.7,3.8,2.9,5.1c2.3-1.4,3.8-2.7,3.8-5.1C726.8,93.3,725.5,91.6,723.4,91.6L723.4,91.6z"/>
			<path class="st2" d="M763.6,118.7c3.7-3.3,7.4-6.6,11-9.9c3.8-3.3,6.8-5.9,6.9-10.3c0-3.7-2.4-5.7-5.5-5.7
				c-3.7,0-5.2,3.3-5.3,7.2h-7.3c0.1-2.9,0.6-6,2.7-8.9c3-4.2,7.9-5.1,10.6-5.1c7.9,0,12.4,5.5,12.4,11.7c-0.1,4.4-1.6,7.5-6.1,11.8
				c-3,2.9-6,5.7-9,8.6h15.3v6.4h-25.7V118.7z"/>
			<path class="st2" d="M795,97.1c0.2-8.2,7-11,11.9-11c6.7,0,11.1,4.5,11.1,10c0,4.7-3.1,6.9-5.1,7.9c6.9,2.4,7.3,7.8,7.3,9.5
				c0,6.8-6,11.9-13.4,11.9c-4.1,0-8.7-1.6-11.1-5.1c-1.7-2.3-2.1-5.1-2.2-6.9h7.7c0.2,2.4,2,5.2,5.8,5.2c3.7,0,5.6-2.6,5.6-5.7
				c0-3.7-3.5-5.4-6.5-5.4H803v-5.7h1.7c2.6,0,5.7-1.5,5.7-4.7c0-2.3-1.3-4.3-3.8-4.3c-3.2,0-4,2.6-4.1,4.3H795z"/>
		</g>
		<g>
			<path class="st2" d="M295,167.2l-0.1-19.9h5.6V176h-5.1L282,156.1l0.1,19.9h-5.6v-28.7h5.2L295,167.2z"/>
			<path class="st2" d="M309.5,167.1c0.2,3.4,3.3,5.3,6.2,5.3c2.5,0,4.2-1.1,5.1-2.9h5.2c-1,2.4-2.5,4.2-4.3,5.4
				c-1.8,1.2-3.9,1.9-6.1,1.9c-6.6,0-11.3-5.3-11.3-11.3c0-6.1,4.7-11.4,11.2-11.4c3.2,0,6,1.2,8,3.3c2.6,2.7,3.6,6,3.1,9.7H309.5z
				 M321.6,163.2c-0.2-2-2.3-4.9-6.1-4.8c-3.8,0-5.8,2.7-6,4.8H321.6z"/>
			<path class="st2" d="M340.3,176h-5l-7.9-21.3h5.3l5.1,14.9l5.1-14.9h5.3L340.3,176z"/>
			<path class="st2" d="M353.9,167.1c0.2,3.4,3.3,5.3,6.2,5.3c2.5,0,4.2-1.1,5.1-2.9h5.2c-1,2.4-2.5,4.2-4.3,5.4
				c-1.8,1.2-3.9,1.9-6.1,1.9c-6.6,0-11.3-5.3-11.3-11.3c0-6.1,4.7-11.4,11.2-11.4c3.2,0,6,1.2,8,3.3c2.6,2.7,3.6,6,3.1,9.7H353.9z
				 M366,163.2c-0.2-2-2.3-4.9-6.1-4.8c-3.8,0-5.8,2.7-6,4.8H366z"/>
			<path class="st2" d="M374.9,154.7h4.8v2.8c0.9-1.9,2.7-3.4,5.9-3.5v5.1h-0.2c-3.6,0-5.4,1.7-5.4,5.4V176h-5.1V154.7z"/>
			<path class="st2" d="M422,176h-4.9V173c-0.9,1.6-3,3.7-7.3,3.7c-6.6,0-10.8-5.1-10.8-11.3c0-6.9,4.9-11.3,10.7-11.3
				c4.1,0,6.4,2.2,7.1,3.4v-3.1v-7.1h5.1V176z M404.1,165.4c0,3.6,2.6,6.6,6.5,6.6c1.9,0,3.5-0.7,4.7-1.9c1.2-1.2,1.9-2.9,1.8-4.7
				c0-1.9-0.7-3.5-1.9-4.6c-1.2-1.2-2.8-1.9-4.6-1.9C406.5,158.8,404.1,162,404.1,165.4L404.1,165.4z"/>
			<path class="st2" d="M425.9,165.3c0-5.4,4-11.2,11.4-11.2c7.4,0,11.4,5.8,11.4,11.3c0,5.5-4,11.3-11.4,11.3
				C429.9,176.7,425.9,170.9,425.9,165.3L425.9,165.3z M431,165.4c0,3.7,2.8,6.5,6.3,6.5c3.5,0,6.3-2.8,6.3-6.5s-2.8-6.5-6.3-6.5
				C433.8,158.8,431,161.6,431,165.4L431,165.4z"/>
			<path class="st2" d="M452.7,154.7h4.8c0,0.9,0,1.8,0,2.8c0.9-1.7,2.8-3.5,6.6-3.5c7,0,8.3,5.4,8.3,9.1V176h-5.1v-11.6
				c0-3.2-1-5.6-4.6-5.6c-3.6,0-4.9,2.4-4.9,5.4V176h-5.1V154.7z"/>
			<path class="st2" d="M499.3,176h-5.1V173c-1.4,2.5-4.2,3.7-7.2,3.7c-6.8,0-10.8-5.3-10.8-11.3c0-6.7,4.9-11.3,10.8-11.3
				c3.9,0,6.3,2.1,7.2,3.8v-3.1h5.1V176z M481.3,165.5c0,2.6,1.9,6.5,6.5,6.5c2.8,0,4.7-1.5,5.7-3.4c0.5-0.9,0.7-1.9,0.8-3
				c0-1-0.2-2.1-0.6-3c-0.9-2-2.9-3.8-5.9-3.8C483.6,158.8,481.3,162.1,481.3,165.5L481.3,165.5z"/>
			<path class="st2" d="M505.8,158.6h-3.5v-3.9h3.5v-7.4h5.1v7.4h3.7v3.9h-3.7V176h-5.1V158.6z"/>
			<path class="st2" d="M520.3,167.1c0.2,3.4,3.3,5.3,6.2,5.3c2.5,0,4.2-1.1,5.1-2.9h5.2c-1,2.4-2.5,4.2-4.3,5.4
				c-1.8,1.2-3.9,1.9-6.1,1.9c-6.6,0-11.3-5.3-11.3-11.3c0-6.1,4.7-11.4,11.2-11.4c3.2,0,6,1.2,8,3.3c2.6,2.7,3.6,6,3.1,9.7H520.3z
				 M532.4,163.2c-0.2-2-2.3-4.9-6.1-4.8c-3.8,0-5.8,2.7-6,4.8H532.4z"/>
			<path class="st2" d="M563.2,176h-4.9V173c-0.9,1.6-3,3.7-7.3,3.7c-6.6,0-10.8-5.1-10.8-11.3c0-6.9,4.9-11.3,10.7-11.3
				c4.1,0,6.4,2.2,7.1,3.4v-3.1v-7.1h5.1V176z M545.3,165.4c0,3.6,2.6,6.6,6.5,6.6c1.9,0,3.5-0.7,4.7-1.9c1.2-1.2,1.9-2.9,1.8-4.7
				c0-1.9-0.7-3.5-1.9-4.6c-1.2-1.2-2.8-1.9-4.6-1.9C547.7,158.8,545.3,162,545.3,165.4L545.3,165.4z"/>
			<path class="st2" d="M580,147.3h5.1v7.5v2.6c2.1-2.6,5.2-3.3,7.1-3.3c5,0,10.6,3.7,10.6,11.2c0,7.2-5,11.4-10.9,11.4
				c-3.3,0-5.9-1.6-7.1-3.7v3.1H580V147.3z M597.7,165.3c0-3.5-2.7-6.5-6.4-6.5c-4,0-6.4,3.1-6.4,6.6c0,3.6,2.5,6.6,6.3,6.6
				C595.3,172,597.7,168.7,597.7,165.3L597.7,165.3z"/>
			<path class="st2" d="M610.4,167.1c0.2,3.4,3.3,5.3,6.2,5.3c2.5,0,4.2-1.1,5.1-2.9h5.2c-1,2.4-2.5,4.2-4.3,5.4
				c-1.8,1.2-3.9,1.9-6.1,1.9c-6.6,0-11.3-5.3-11.3-11.3c0-6.1,4.7-11.4,11.2-11.4c3.2,0,6,1.2,8,3.3c2.6,2.7,3.6,6,3.1,9.7H610.4z
				 M622.6,163.2c-0.2-2-2.3-4.9-6.1-4.8c-3.8,0-5.8,2.7-6,4.8H622.6z"/>
			<path class="st2" d="M631.8,158.6h-2.6v-3.9h2.6v-1.2c0-6.3,4.8-6.7,8.5-6.8v3.9c-1.3,0-3.4,0-3.4,3v1h3.4v3.9h-3.4V176h-5.1
				V158.6z"/>
			<path class="st2" d="M641.2,165.3c0-5.4,4-11.2,11.4-11.2s11.4,5.8,11.4,11.3c0,5.5-4,11.3-11.4,11.3S641.2,170.9,641.2,165.3
				L641.2,165.3z M646.3,165.4c0,3.7,2.8,6.5,6.3,6.5s6.3-2.8,6.3-6.5s-2.8-6.5-6.3-6.5S646.3,161.6,646.3,165.4L646.3,165.4z"/>
			<path class="st2" d="M667.9,154.7h4.8v2.8c0.9-1.9,2.7-3.4,5.9-3.5v5.1h-0.2c-3.6,0-5.4,1.7-5.4,5.4V176h-5.1V154.7z"/>
			<path class="st2" d="M684.3,167.1c0.2,3.4,3.3,5.3,6.2,5.3c2.5,0,4.2-1.1,5.1-2.9h5.2c-1,2.4-2.5,4.2-4.3,5.4
				c-1.8,1.2-3.9,1.9-6.1,1.9c-6.6,0-11.3-5.3-11.3-11.3c0-6.1,4.7-11.4,11.2-11.4c3.2,0,6,1.2,8,3.3c2.6,2.7,3.6,6,3.1,9.7H684.3z
				 M696.5,163.2c-0.2-2-2.3-4.9-6.1-4.8c-3.8,0-5.8,2.7-6,4.8H696.5z"/>
			<path class="st2" d="M710.6,167.6c0-2.6,1.2-4.5,3.9-7.2c1.9-1.9,3-3.1,3-4.8c0-2-1.2-3.5-3.5-3.5c-2.3,0-3.5,1.6-3.8,3.6
				c0,0.3-0.1,0.6-0.1,0.9h-5.6c0-0.3,0-0.6,0-0.8c0.2-5.5,4.6-9,9.7-9c5.6,0,9,4.1,9,8.2c0,3.5-2.3,5.6-4.5,7.6
				c-2.6,2.5-2.9,3.7-3,5H710.6z M716,176h-5.4v-5.7h5.4V176z"/>
		</g>
	</g>
	<g>
		<g>
			<path class="st2" d="M417.6,843.5h6.8c2,0,3.6,0.4,4.7,1.2c1.4,0.9,2,2.5,2,4.2c0,1.9-1,3.4-2.6,4.3c3.5,1.2,3.6,4.1,3.6,5
				c0,1.9-0.8,3.7-2.3,4.7c-1.7,1.3-3,1.5-5.9,1.5h-6.4V843.5z M421.8,851.8h2.3c0.6,0,1.3-0.1,1.8-0.3c0.8-0.4,1.2-1.1,1.2-2.1
				c0-1.1-0.6-1.7-1.2-2c-0.5-0.2-1.1-0.3-1.9-0.3h-2.3V851.8z M421.8,860.6h3c0.5,0,1.3,0,1.9-0.3c0.8-0.4,1.5-1.1,1.5-2.4
				c0-1.2-0.6-1.9-1.5-2.3c-0.7-0.3-1.4-0.3-2.1-0.3h-2.8V860.6z"/>
			<path class="st2" d="M437.6,857.8c0.2,2.5,2.4,3.9,4.5,3.8c1.8,0,3-0.8,3.7-2.1h3.8c-0.7,1.7-1.8,3-3.1,3.9
				c-1.3,0.9-2.8,1.4-4.4,1.4c-4.8,0-8.2-3.9-8.2-8.2c0-4.4,3.4-8.3,8.1-8.3c2.3,0,4.3,0.9,5.8,2.4c1.9,1.9,2.6,4.4,2.3,7.1H437.6z
				 M446.4,855c-0.1-1.5-1.7-3.5-4.4-3.5c-2.7,0-4.2,2-4.4,3.5H446.4z"/>
			<path class="st2" d="M452.9,843.5h3.7v20.8h-3.7V843.5z"/>
			<path class="st2" d="M459.4,856.5c0-3.9,2.9-8.1,8.3-8.1s8.3,4.2,8.3,8.2c0,4-2.9,8.2-8.3,8.2S459.4,860.5,459.4,856.5
				L459.4,856.5z M463.1,856.6c0,2.7,2.1,4.7,4.6,4.7c2.5,0,4.6-2,4.6-4.7c0-2.7-2-4.7-4.6-4.7C465.1,851.8,463.1,853.8,463.1,856.6
				L463.1,856.6z"/>
			<path class="st2" d="M476.5,848.8h3.8l3.1,10.8l3-10.3h3.1l3,10.3l3-10.8h3.8l-5,15.5h-3.5l-3-10.5l-3,10.5h-3.5L476.5,848.8z"/>
			<path class="st2" d="M518,860.5h-9.6v-3.1l9.7-14h4v13.8h2.3v3.3H522v3.8h-4V860.5z M518.3,857.2v-8.7l-5.6,8.7H518.3z"/>
			<path class="st2" d="M527.9,843.5h3.2l-2.7,6.4h-2.8L527.9,843.5z"/>
			<path class="st2" d="M540.3,847h-3.7v-3.5h7.9v20.8h-4.2V847z"/>
			<path class="st2" d="M551.5,850.7c0-6,4.9-7.7,7.5-7.7c2.9,0,7.5,2,7.5,7.6v6.4c0,5.7-4.5,7.6-7.4,7.6c-2.9,0-7.6-1.9-7.6-7.6
				V850.7z M555.7,857.2c0,1.9,1,3.8,3.3,3.8c2.3,0,3.3-2.2,3.3-3.8v-6.6c0-1.2-0.5-3.8-3.3-3.8c-2.3,0-3.3,2-3.3,3.8V857.2z"/>
			<path class="st2" d="M573.2,858.2c0-1.9,0.8-3.3,2.8-5.2c1.4-1.4,2.1-2.3,2.2-3.5c0-1.4-0.9-2.6-2.5-2.6c-1.7,0-2.6,1.1-2.7,2.6
				c0,0.2-0.1,0.5-0.1,0.7h-4.1c0-0.3,0-0.4,0-0.6c0.2-4,3.3-6.5,7.1-6.5c4.1,0,6.6,3,6.6,6c0,2.5-1.7,4.1-3.2,5.5
				c-1.9,1.8-2.1,2.7-2.1,3.6H573.2z M577.1,864.3h-3.9v-4.2h3.9V864.3z"/>
		</g>
		<g>
			<g>
				<path class="st2" d="M419.3,882.4h2.8l2.3,10l2.4-10h2.1l2.4,10l2.3-10h2.8l-3.7,13.8h-2.5l-2.4-9.8l-2.4,9.8h-2.6L419.3,882.4z
					"/>
				<path class="st2" d="M437.8,882.4h2.4v3.3v1.5c0.6-1.1,1.8-1.5,3-1.5c1.6,0,2.6,0.5,3.2,1.4c0.6,0.9,0.8,2.1,0.8,3.5v5.6h-2.4
					v-5.5c0-0.8-0.1-1.5-0.5-1.9c-0.4-0.5-0.9-0.8-1.8-0.8c-1,0-1.5,0.4-1.9,0.9c-0.3,0.5-0.4,1.1-0.4,1.6v5.7h-2.4V882.4z"/>
				<path class="st2" d="M451.4,891.8c0.1,1.6,1.6,2.5,3,2.5c1.2,0,2-0.5,2.5-1.4h2.5c-0.5,1.1-1.2,2-2.1,2.6
					c-0.9,0.6-1.9,0.9-2.9,0.9c-3.1,0-5.4-2.5-5.4-5.4c0-2.9,2.3-5.4,5.4-5.4c1.5,0,2.9,0.6,3.8,1.6c1.2,1.3,1.7,2.9,1.5,4.7H451.4z
					 M457.2,890c-0.1-1-1.1-2.3-2.9-2.3c-1.8,0-2.8,1.3-2.9,2.3H457.2z"/>
				<path class="st2" d="M461.5,885.9h2.3c0,0.4,0,0.9,0,1.4c0.4-0.8,1.4-1.7,3.2-1.7c3.3,0,4,2.6,4,4.4v6.2h-2.4v-5.5
					c0-1.5-0.5-2.7-2.2-2.7c-1.7,0-2.3,1.2-2.3,2.6v5.6h-2.4V885.9z"/>
				<path class="st2" d="M481.6,895.7l-3.8-9.8h2.6l2.5,6.8l2.5-6.8h2.6l-5.4,13.8h-2.6L481.6,895.7z"/>
				<path class="st2" d="M488.1,891c0-2.6,1.9-5.4,5.5-5.4s5.5,2.8,5.5,5.4c0,2.6-1.9,5.4-5.5,5.4S488.1,893.7,488.1,891L488.1,891z
					 M490.5,891c0,1.8,1.4,3.1,3,3.1s3-1.3,3-3.1c0-1.8-1.3-3.1-3-3.1S490.5,889.2,490.5,891L490.5,891z"/>
				<path class="st2" d="M510.3,896.1H508v-1.4c-0.4,0.8-1.3,1.7-3.2,1.7c-3.3,0-4-2.6-4-4.3v-6.2h2.4v5.6c0,1.5,0.5,2.7,2.2,2.7
					c1.7,0,2.3-1.2,2.3-2.6v-5.6h2.4V896.1z"/>
				<path class="st2" d="M519,887.8h-1.7v-1.9h1.7v-3.6h2.4v3.6h1.7v1.9h-1.7v8.3H519V887.8z"/>
				<path class="st2" d="M534,896.1h-2.3v-1.4c-0.4,0.8-1.3,1.7-3.2,1.7c-3.3,0-4-2.6-4-4.3v-6.2h2.4v5.6c0,1.5,0.5,2.7,2.2,2.7
					c1.7,0,2.3-1.2,2.3-2.6v-5.6h2.4V896.1z"/>
				<path class="st2" d="M536.4,885.9h2.3v1.3c0.4-0.9,1.3-1.6,2.8-1.7v2.5h-0.1c-1.7,0-2.6,0.8-2.6,2.6v5.5h-2.4V885.9z"/>
				<path class="st2" d="M543,885.9h2.3c0,0.4,0,0.9,0,1.4c0.4-0.8,1.4-1.7,3.2-1.7c3.3,0,4,2.6,4,4.4v6.2H550v-5.5
					c0-1.5-0.5-2.7-2.2-2.7c-1.7,0-2.3,1.2-2.3,2.6v5.6H543V885.9z"/>
				<path class="st2" d="M560.2,894c1.3-1.2,2.7-2.4,4-3.6c1.4-1.2,2.5-2.2,2.5-3.7c0-1.4-0.9-2.1-2-2.1c-1.3,0-1.9,1.2-1.9,2.6
					h-2.7c0-1.1,0.2-2.2,1-3.2c1.1-1.5,2.9-1.8,3.8-1.8c2.9,0,4.5,2,4.5,4.3c0,1.6-0.6,2.7-2.2,4.3c-1.1,1-2.2,2.1-3.3,3.1h5.6v2.3
					h-9.4V894z"/>
				<path class="st2" d="M571.6,886.1c0.1-3,2.5-4,4.3-4c2.4,0,4,1.6,4,3.6c0,1.7-1.1,2.5-1.8,2.9c2.5,0.9,2.6,2.8,2.6,3.5
					c0,2.5-2.2,4.3-4.9,4.3c-1.5,0-3.2-0.6-4-1.8c-0.6-0.8-0.8-1.9-0.8-2.5h2.8c0.1,0.9,0.7,1.9,2.1,1.9c1.3,0,2-0.9,2-2.1
					c0-1.4-1.3-2-2.4-2h-1.1v-2.1h0.6c0.9,0,2.1-0.5,2.1-1.7c0-0.8-0.5-1.6-1.4-1.6c-1.2,0-1.5,0.9-1.5,1.6H571.6z"/>
			</g>
			<g>
				<path class="st2" d="M402,913.3c0-2.6,1.9-5.4,5.5-5.4s5.5,2.8,5.5,5.4c0,2.6-1.9,5.4-5.5,5.4S402,916,402,913.3L402,913.3z
					 M404.5,913.3c0,1.8,1.4,3.1,3,3.1s3-1.3,3-3.1c0-1.8-1.3-3.1-3-3.1S404.5,911.5,404.5,913.3L404.5,913.3z"/>
				<path class="st2" d="M414.8,908.2h2.3v1.3c0.4-0.9,1.3-1.6,2.8-1.7v2.5h-0.1c-1.7,0-2.6,0.8-2.6,2.6v5.5h-2.4V908.2z"/>
				<path class="st2" d="M426.9,908.2h2.3v1.3c0.2-0.5,1.2-1.6,3-1.6c0.8,0,1.8,0.2,2.5,1c0.2,0.2,0.5,0.7,0.6,0.9
					c0.2-0.3,0.4-0.7,0.7-1c0.6-0.6,1.5-1,2.6-1c0.9,0,1.9,0.2,2.7,1c0.9,1,1.1,1.8,1.1,3.9v5.6H440v-5.5c0-0.7-0.1-1.4-0.4-1.9
					c-0.3-0.5-0.7-0.8-1.6-0.8s-1.5,0.4-1.8,0.9c-0.3,0.6-0.4,1.1-0.4,1.7v5.6h-2.4v-5.6c0-0.6-0.1-1.2-0.3-1.7
					c-0.3-0.5-0.8-0.9-1.7-0.9c-0.9,0-1.5,0.4-1.7,0.9c-0.3,0.5-0.4,1.2-0.4,1.8v5.5h-2.4V908.2z"/>
				<path class="st2" d="M444.3,913.3c0-2.6,1.9-5.4,5.5-5.4s5.5,2.8,5.5,5.4c0,2.6-1.9,5.4-5.5,5.4S444.3,916,444.3,913.3
					L444.3,913.3z M446.7,913.3c0,1.8,1.4,3.1,3,3.1s3-1.3,3-3.1c0-1.8-1.3-3.1-3-3.1S446.7,911.5,446.7,913.3L446.7,913.3z"/>
				<path class="st2" d="M461.7,918.4h-2.4l-3.8-10.2h2.5l2.5,7.1l2.5-7.1h2.5L461.7,918.4z"/>
				<path class="st2" d="M468.2,914.1c0.1,1.6,1.6,2.5,3,2.5c1.2,0,2-0.5,2.5-1.4h2.5c-0.5,1.1-1.2,2-2.1,2.6
					c-0.9,0.6-1.9,0.9-2.9,0.9c-3.1,0-5.4-2.5-5.4-5.4c0-2.9,2.3-5.4,5.4-5.4c1.5,0,2.9,0.6,3.8,1.6c1.2,1.3,1.7,2.9,1.5,4.7H468.2z
					 M474.1,912.3c-0.1-1-1.1-2.3-2.9-2.3c-1.8,0-2.8,1.3-2.9,2.3H474.1z"/>
				<path class="st2" d="M493.3,918.4H491v-1.4c-0.4,0.8-1.3,1.7-3.2,1.7c-3.3,0-4-2.6-4-4.4v-6.2h2.4v5.6c0,1.5,0.5,2.7,2.2,2.7
					c1.7,0,2.3-1.2,2.3-2.6v-5.6h2.4V918.4z"/>
				<path class="st2" d="M495.7,908.2h2.3v1.5c0.7-1,1.9-1.8,3.6-1.8c3.6,0,5.1,3,5.1,5.5c0,2.9-2.1,5.3-5.1,5.3c-2,0-3.1-1-3.5-1.7
					v1.4v3.6h-2.4V908.2z M504.3,913.3c0-1.5-1.1-3.1-3.1-3.1c-0.9,0-1.7,0.4-2.2,0.9c-0.5,0.6-0.9,1.4-0.9,2.2
					c0,0.9,0.3,1.7,0.9,2.2c0.6,0.6,1.3,0.9,2.2,0.9C503,916.5,504.3,915,504.3,913.3L504.3,913.3z"/>
				<path class="st2" d="M514.9,910.1h-1.7v-1.9h1.7v-3.6h2.4v3.6h1.7v1.9h-1.7v8.3h-2.4V910.1z"/>
				<path class="st2" d="M520.5,904.7h2.4v3.3v1.5c0.6-1.1,1.8-1.5,3-1.5c1.6,0,2.6,0.5,3.2,1.4c0.6,0.9,0.8,2.1,0.8,3.5v5.6h-2.4
					v-5.5c0-0.8-0.1-1.5-0.5-1.9c-0.4-0.5-0.9-0.8-1.8-0.8c-1,0-1.5,0.4-1.9,0.9c-0.3,0.5-0.4,1.1-0.4,1.6v5.7h-2.4V904.7z"/>
				<path class="st2" d="M534.1,914.1c0.1,1.6,1.6,2.5,3,2.5c1.2,0,2-0.5,2.5-1.4h2.5c-0.5,1.1-1.2,2-2.1,2.6
					c-0.9,0.6-1.9,0.9-2.9,0.9c-3.1,0-5.4-2.5-5.4-5.4c0-2.9,2.3-5.4,5.4-5.4c1.5,0,2.9,0.6,3.8,1.6c1.2,1.3,1.7,2.9,1.5,4.7H534.1z
					 M539.9,912.3c-0.1-1-1.1-2.3-2.9-2.3c-1.8,0-2.8,1.3-2.9,2.3H539.9z"/>
				<path class="st2" d="M559.9,914.7c-0.6,2.3-2.6,4-5.2,4c-3.2,0-5.5-2.5-5.5-5.4c0-3,2.3-5.4,5.4-5.4c2.6,0,4.7,1.6,5.3,4.1h-2.5
					c-0.4-1.1-1.4-1.8-2.8-1.8c-0.9,0-1.6,0.3-2.2,0.9c-0.5,0.6-0.8,1.4-0.8,2.3c0,1.8,1.3,3.1,3,3.1c1.5,0,2.4-0.9,2.8-1.7H559.9z"
					/>
				<path class="st2" d="M561.5,904.7h2.4v3.3v1.5c0.6-1.1,1.8-1.5,3-1.5c1.6,0,2.6,0.5,3.2,1.4c0.6,0.9,0.8,2.1,0.8,3.5v5.6h-2.4
					v-5.5c0-0.8-0.1-1.5-0.5-1.9c-0.4-0.5-0.9-0.8-1.8-0.8c-1,0-1.5,0.4-1.9,0.9c-0.3,0.5-0.4,1.1-0.4,1.6v5.7h-2.4V904.7z"/>
				<path class="st2" d="M583.8,918.4h-2.4V917c-0.7,1.2-2,1.8-3.4,1.8c-3.3,0-5.2-2.5-5.2-5.4c0-3.2,2.3-5.4,5.2-5.4
					c1.9,0,3,1,3.4,1.8v-1.5h2.4V918.4z M575.2,913.4c0,1.3,0.9,3.1,3.1,3.1c1.4,0,2.2-0.7,2.7-1.6c0.2-0.4,0.4-0.9,0.4-1.4
					c0-0.5-0.1-1-0.3-1.4c-0.4-1-1.4-1.8-2.8-1.8C576.3,910.2,575.2,911.8,575.2,913.4L575.2,913.4z"/>
				<path class="st2" d="M586.2,908.2h2.3v1.3c0.4-0.9,1.3-1.6,2.8-1.7v2.5h-0.1c-1.7,0-2.6,0.8-2.6,2.6v5.5h-2.4V908.2z"/>
				<path class="st2" d="M593.8,910.1h-1.7v-1.9h1.7v-3.6h2.4v3.6h1.7v1.9h-1.7v8.3h-2.4V910.1z"/>
			</g>
			<g>
				<path class="st2" d="M379.7,937c-0.6,2.3-2.6,4-5.2,4c-3.2,0-5.5-2.5-5.5-5.4c0-3,2.3-5.4,5.4-5.4c2.6,0,4.7,1.6,5.3,4.1h-2.5
					c-0.4-1.1-1.4-1.8-2.8-1.8c-0.9,0-1.6,0.3-2.2,0.9c-0.5,0.6-0.8,1.4-0.8,2.3c0,1.8,1.3,3.1,3,3.1c1.5,0,2.4-0.9,2.8-1.7H379.7z"
					/>
				<path class="st2" d="M381,935.6c0-2.6,1.9-5.4,5.5-5.4s5.5,2.8,5.5,5.4c0,2.6-1.9,5.4-5.5,5.4S381,938.3,381,935.6L381,935.6z
					 M383.5,935.7c0,1.8,1.4,3.1,3,3.1s3-1.3,3-3.1c0-1.8-1.3-3.1-3-3.1S383.5,933.8,383.5,935.7L383.5,935.7z"/>
				<path class="st2" d="M393.8,930.5h2.3c0,0.4,0,0.9,0,1.4c0.4-0.8,1.4-1.7,3.2-1.7c3.3,0,4,2.6,4,4.4v6.2h-2.4v-5.5
					c0-1.5-0.5-2.7-2.2-2.7c-1.7,0-2.3,1.2-2.3,2.6v5.6h-2.4V930.5z"/>
				<path class="st2" d="M410.1,933.3c0-0.5-0.3-1.1-1.2-1.1c-0.8,0-1.2,0.5-1.2,1c0,0.7,0.8,1,1.7,1.3c1.6,0.4,3.4,0.9,3.4,3.1
					c0,2.1-1.7,3.4-3.9,3.4c-1.6,0-3.7-0.8-3.9-3.3h2.4c0.1,1.1,1,1.3,1.5,1.3c0.8,0,1.4-0.5,1.4-1.2c0-0.9-0.8-1.1-2.6-1.8
					c-1.4-0.4-2.5-1.2-2.5-2.7c0-2,1.7-3.3,3.7-3.3c1.4,0,3.4,0.6,3.6,3.1H410.1z"/>
				<path class="st2" d="M414.6,927h2.4v2.2h-2.4V927z M414.6,930.5h2.4v10.2h-2.4V930.5z"/>
				<path class="st2" d="M429.9,940.8h-2.3v-1.5c-0.4,0.8-1.4,1.8-3.5,1.8c-3.1,0-5.2-2.5-5.2-5.4c0-3.3,2.4-5.4,5.1-5.4
					c2,0,3,1,3.4,1.6v-1.5V927h2.4V940.8z M421.3,935.6c0,1.7,1.2,3.1,3.1,3.1c0.9,0,1.7-0.4,2.3-0.9c0.6-0.6,0.9-1.4,0.9-2.3
					c0-0.9-0.4-1.7-0.9-2.2c-0.6-0.6-1.3-0.9-2.2-0.9C422.5,932.5,421.3,934,421.3,935.6L421.3,935.6z"/>
				<path class="st2" d="M434.1,936.5c0.1,1.6,1.6,2.5,3,2.5c1.2,0,2-0.5,2.5-1.4h2.5c-0.5,1.1-1.2,2-2.1,2.6
					c-0.9,0.6-1.9,0.9-2.9,0.9c-3.1,0-5.4-2.5-5.4-5.4c0-2.9,2.3-5.4,5.4-5.4c1.5,0,2.9,0.6,3.8,1.6c1.2,1.3,1.7,2.9,1.5,4.7H434.1z
					 M439.9,934.6c-0.1-1-1.1-2.3-2.9-2.3c-1.8,0-2.8,1.3-2.9,2.3H439.9z"/>
				<path class="st2" d="M444.2,930.5h2.3v1.3c0.4-0.9,1.3-1.6,2.8-1.7v2.5h-0.1c-1.7,0-2.6,0.8-2.6,2.6v5.5h-2.4V930.5z"/>
				<path class="st2" d="M456.2,927h2.4v3.6v1.2c1-1.2,2.5-1.6,3.4-1.6c2.4,0,5.1,1.8,5.1,5.4c0,3.5-2.4,5.5-5.2,5.5
					c-1.6,0-2.8-0.8-3.4-1.8v1.5h-2.3V927z M464.7,935.6c0-1.7-1.3-3.1-3.1-3.1c-1.9,0-3.1,1.5-3.1,3.1c0,1.7,1.2,3.2,3,3.2
					C463.6,938.8,464.7,937.2,464.7,935.6L464.7,935.6z"/>
				<path class="st2" d="M470.8,936.5c0.1,1.6,1.6,2.5,3,2.5c1.2,0,2-0.5,2.5-1.4h2.5c-0.5,1.1-1.2,2-2.1,2.6
					c-0.9,0.6-1.9,0.9-2.9,0.9c-3.1,0-5.4-2.5-5.4-5.4c0-2.9,2.3-5.4,5.4-5.4c1.5,0,2.9,0.6,3.8,1.6c1.2,1.3,1.7,2.9,1.5,4.7H470.8z
					 M476.7,934.6c-0.1-1-1.1-2.3-2.9-2.3c-1.8,0-2.8,1.3-2.9,2.3H476.7z"/>
				<path class="st2" d="M491.1,937c-0.6,2.3-2.6,4-5.2,4c-3.2,0-5.5-2.5-5.5-5.4c0-3,2.3-5.4,5.4-5.4c2.6,0,4.7,1.6,5.3,4.1h-2.5
					c-0.4-1.1-1.4-1.8-2.8-1.8c-0.9,0-1.6,0.3-2.2,0.9c-0.5,0.6-0.8,1.4-0.8,2.3c0,1.8,1.3,3.1,3,3.1c1.5,0,2.4-0.9,2.8-1.7H491.1z"
					/>
				<path class="st2" d="M492.3,935.6c0-2.6,1.9-5.4,5.5-5.4s5.5,2.8,5.5,5.4c0,2.6-1.9,5.4-5.5,5.4S492.3,938.3,492.3,935.6
					L492.3,935.6z M494.8,935.7c0,1.8,1.4,3.1,3,3.1s3-1.3,3-3.1c0-1.8-1.3-3.1-3-3.1S494.8,933.8,494.8,935.7L494.8,935.7z"/>
				<path class="st2" d="M505.2,930.5h2.3v1.3c0.2-0.5,1.2-1.6,3-1.6c0.8,0,1.8,0.2,2.5,1c0.2,0.2,0.5,0.7,0.6,0.9
					c0.2-0.3,0.4-0.7,0.7-1c0.6-0.6,1.5-1,2.6-1c0.9,0,1.9,0.2,2.7,1c0.9,1,1.1,1.8,1.1,3.9v5.6h-2.4v-5.5c0-0.7-0.1-1.4-0.4-1.9
					c-0.3-0.5-0.7-0.8-1.6-0.8s-1.5,0.4-1.8,0.9c-0.3,0.6-0.4,1.1-0.4,1.7v5.6h-2.4v-5.6c0-0.6-0.1-1.2-0.3-1.7
					c-0.3-0.5-0.8-0.9-1.7-0.9c-0.9,0-1.5,0.4-1.7,0.9c-0.3,0.5-0.4,1.2-0.4,1.8v5.5h-2.4V930.5z"/>
				<path class="st2" d="M523.1,927h2.4v2.2h-2.4V927z M523.1,930.5h2.4v10.2h-2.4V930.5z"/>
				<path class="st2" d="M527.9,930.5h2.3c0,0.4,0,0.9,0,1.4c0.4-0.8,1.4-1.7,3.2-1.7c3.3,0,4,2.6,4,4.4v6.2h-2.4v-5.5
					c0-1.5-0.5-2.7-2.2-2.7c-1.7,0-2.3,1.2-2.3,2.6v5.6h-2.4V930.5z"/>
				<path class="st2" d="M550.1,939.5c0,1.7-0.3,2.8-0.9,3.6c-0.9,1.2-2.6,2.1-4.7,2.1c-3.2,0-4.7-1.9-5.1-3.5h2.8
					c0.2,0.5,0.6,0.8,1.1,1c0.5,0.3,1,0.4,1.3,0.4c1.5,0,3-1,3-3.1v-0.9c-0.5,0.9-1.6,1.8-3.3,1.8c-2.9,0-5.2-2.2-5.2-5.4
					c0-3.3,2.4-5.4,5.2-5.4c1.5,0,2.7,0.7,3.3,1.7v-1.4h2.5V939.5z M541.6,935.6c0,1.8,1.3,3.1,3,3.1c0.9,0,1.6-0.3,2.2-0.9
					c0.5-0.5,0.9-1.3,0.9-2.2c0-0.8-0.2-1.6-0.7-2.2c-0.5-0.6-1.2-1-2.3-1C543,932.5,541.6,933.8,541.6,935.6L541.6,935.6z"/>
				<path class="st2" d="M568.6,940.8h-2.4v-1.5c-0.7,1.2-2,1.8-3.4,1.8c-3.3,0-5.2-2.5-5.2-5.4c0-3.2,2.3-5.4,5.2-5.4
					c1.9,0,3,1,3.4,1.8v-1.5h2.4V940.8z M560,935.7c0,1.3,0.9,3.1,3.1,3.1c1.4,0,2.2-0.7,2.7-1.6c0.2-0.4,0.4-0.9,0.4-1.4
					c0-0.5-0.1-1-0.3-1.4c-0.4-1-1.4-1.8-2.8-1.8C561.1,932.5,560,934.1,560,935.7L560,935.7z"/>
				<path class="st2" d="M587.1,940.8h-2.3v-1.5c-0.4,0.8-1.4,1.8-3.5,1.8c-3.1,0-5.2-2.5-5.2-5.4c0-3.3,2.4-5.4,5.1-5.4
					c2,0,3,1,3.4,1.6v-1.5V927h2.4V940.8z M578.5,935.6c0,1.7,1.2,3.1,3.1,3.1c0.9,0,1.7-0.4,2.3-0.9c0.6-0.6,0.9-1.4,0.9-2.3
					c0-0.9-0.4-1.7-0.9-2.2c-0.6-0.6-1.3-0.9-2.2-0.9C579.7,932.5,578.5,934,578.5,935.6L578.5,935.6z"/>
				<path class="st2" d="M589,935.6c0-2.6,1.9-5.4,5.5-5.4c3.6,0,5.5,2.8,5.5,5.4c0,2.6-1.9,5.4-5.5,5.4
					C590.9,941.1,589,938.3,589,935.6L589,935.6z M591.4,935.7c0,1.8,1.4,3.1,3,3.1s3-1.3,3-3.1c0-1.8-1.3-3.1-3-3.1
					S591.4,933.8,591.4,935.7L591.4,935.7z"/>
				<path class="st2" d="M601.8,930.5h2.3c0,0.4,0,0.9,0,1.4c0.4-0.8,1.4-1.7,3.2-1.7c3.3,0,4,2.6,4,4.4v6.2h-2.4v-5.5
					c0-1.5-0.5-2.7-2.2-2.7c-1.7,0-2.3,1.2-2.3,2.6v5.6h-2.4V930.5z"/>
				<path class="st2" d="M613,935.6c0-2.6,1.9-5.4,5.5-5.4c3.6,0,5.5,2.8,5.5,5.4c0,2.6-1.9,5.4-5.5,5.4
					C615,941.1,613,938.3,613,935.6L613,935.6z M615.5,935.7c0,1.8,1.4,3.1,3,3.1s3-1.3,3-3.1c0-1.8-1.3-3.1-3-3.1
					S615.5,933.8,615.5,935.7L615.5,935.7z"/>
				<path class="st2" d="M625.8,930.5h2.3v1.3c0.4-0.9,1.3-1.6,2.8-1.7v2.5h-0.1c-1.7,0-2.6,0.8-2.6,2.6v5.5h-2.4V930.5z"/>
			</g>
		</g>
	</g>
	<rect x="282.1" y="508" class="st2" width="114.3" height="264.6"/>
	<rect x="645.4" y="508" class="st2" width="83.5" height="263.7"/>
	<g id="XMLID_4_">
		<g>
			<rect x="532.5" y="508" class="st0" width="139.7" height="29.4"/>
		</g>
		<g>
		</g>
	</g>
	<g>
		<path class="st3" d="M544.1,477.4h2.9v14.4h-2.9V477.4z"/>
		<path class="st3" d="M549.7,477.4h7.6v2.5h-4.7v3.4h4.6v2.5h-4.6v5.8h-2.9V477.4z"/>
		<path class="st3" d="M566.6,486.6l-4.4-9.2h3.1l2.7,6.5l2.7-6.5h3.1l-4.4,9.2v5.1h-2.9V486.6z"/>
		<path class="st3" d="M573.7,484.7c0-4.6,3.5-7.6,7.5-7.6c4.3,0,7.5,3.4,7.5,7.4c0,4.1-3.2,7.4-7.6,7.4
			C576.8,492,573.7,488.5,573.7,484.7L573.7,484.7z M576.6,484.6c0,2.6,1.9,4.9,4.7,4.9c2.9,0,4.6-2.5,4.6-4.9
			c0-2.4-1.7-4.9-4.6-4.9C578.3,479.7,576.6,482,576.6,484.6L576.6,484.6z"/>
		<path class="st3" d="M593.7,477.4v8.8c0,0.7,0,1.5,0.4,2.2c0.3,0.6,1,1.1,1.9,1.1c1,0,1.6-0.4,1.9-1c0.4-0.7,0.4-1.5,0.4-2.2v-8.8
			h2.9v8.8c0,2.1-0.4,3.4-1.5,4.4c-0.9,0.8-2.1,1.4-3.7,1.4c-1,0-2.7-0.3-3.7-1.4c-1.3-1.3-1.5-2.5-1.5-4.4v-8.8H593.7z"/>
		<path class="st3" d="M610.9,491.7h-3.1l5.8-14.4h2.5l5.7,14.4h-3.2l-1-2.8H612L610.9,491.7z M614.8,480.8l-2,5.8h4.1L614.8,480.8z
			"/>
		<path class="st3" d="M623.3,477.4h4.3c2.2,0,3.5,0.3,4.3,0.9c1.2,0.9,1.8,2.3,1.8,3.9c0,1-0.3,2-0.8,2.7c-0.6,0.9-1.4,1.3-2.4,1.6
			l3.2,5.3h-3l-3.9-6.7h0.6c1,0,2-0.1,2.6-0.5c0.6-0.5,0.9-1.2,0.9-2.1s-0.4-1.7-1.1-2.1c-0.5-0.3-1.2-0.4-2-0.4h-1.7v11.8h-2.9
			V477.4z"/>
		<path class="st3" d="M635.5,477.4h8v2.5h-5.2v3.3h5.1v2.5h-5.1v3.5h5.2v2.5h-8V477.4z"/>
		<path class="st3" d="M648.8,491.7h-2.7v-2.9h2.7V491.7z"/>
		<path class="st3" d="M654.7,491.7h-2.7v-2.9h2.7V491.7z"/>
		<path class="st3" d="M660.6,491.7H658v-2.9h2.7V491.7z"/>
	</g>
	<g>
		<path class="st3" d="M696.7,486.6l-4.4-9.2h3.1l2.7,6.5l2.7-6.5h3.1l-4.4,9.2v5.1h-2.9V486.6z"/>
		<path class="st3" d="M703.9,484.7c0-4.6,3.5-7.6,7.5-7.6c4.3,0,7.5,3.4,7.5,7.4c0,4.1-3.2,7.4-7.6,7.4
			C707,492,703.9,488.5,703.9,484.7L703.9,484.7z M706.8,484.6c0,2.6,1.9,4.9,4.7,4.9c2.9,0,4.6-2.5,4.6-4.9c0-2.4-1.7-4.9-4.6-4.9
			C708.5,479.7,706.8,482,706.8,484.6L706.8,484.6z"/>
		<path class="st3" d="M723.9,477.4v8.8c0,0.7,0,1.5,0.4,2.2c0.3,0.6,1,1.1,1.9,1.1c1,0,1.6-0.4,1.9-1c0.4-0.7,0.4-1.5,0.4-2.2v-8.8
			h2.9v8.8c0,2.1-0.4,3.4-1.5,4.4c-0.9,0.8-2.1,1.4-3.7,1.4c-1,0-2.7-0.3-3.7-1.4c-1.3-1.3-1.5-2.5-1.5-4.4v-8.8H723.9z"/>
		<path class="st3" d="M739.9,491.7v-14.4h3.9l3.7,10.3l3.6-10.3h3.9v14.4h-2.7l0.1-11.5l-4,11.5h-1.9l-4-11.5l0.1,11.5H739.9z"/>
		<path class="st3" d="M760.6,477.4v8.8c0,0.7,0,1.5,0.4,2.2c0.3,0.6,1,1.1,1.9,1.1c1,0,1.6-0.4,1.9-1c0.4-0.7,0.4-1.5,0.4-2.2v-8.8
			h2.9v8.8c0,2.1-0.4,3.4-1.5,4.4c-0.9,0.8-2.1,1.4-3.7,1.4c-1,0-2.7-0.3-3.7-1.4c-1.3-1.3-1.5-2.5-1.5-4.4v-8.8H760.6z"/>
		<path class="st3" d="M773,487.3c0.1,1.9,1.4,2.3,2,2.3c1.1,0,2-0.9,2-1.9c0-1.2-1-1.5-3-2.3c-1.1-0.4-3.6-1.3-3.6-4
			c0-2.8,2.4-4.2,4.8-4.2c1.9,0,4.4,1,4.5,4.2h-2.9c-0.1-0.7-0.4-1.8-1.8-1.8c-1,0-1.8,0.7-1.8,1.6c0,1.1,0.8,1.3,3.2,2.3
			c2.2,1,3.4,2,3.4,4c0,2.3-1.4,4.5-4.8,4.5c-3.3,0-4.9-2-4.9-4.7H773z"/>
		<path class="st3" d="M783.6,479.9h-3.1v-2.5h9.1v2.5h-3.1v11.8h-2.9V479.9z"/>
		<path class="st3" d="M797,477.4h4.7c1.4,0,2.5,0.3,3.2,0.9c1,0.6,1.4,1.7,1.4,2.9c0,1.3-0.7,2.3-1.8,2.9c2.4,0.8,2.5,2.8,2.5,3.5
			c0,1.3-0.5,2.5-1.6,3.2c-1.1,0.9-2.1,1-4.1,1H797V477.4z M799.8,483.1h1.6c0.4,0,0.9,0,1.2-0.2c0.6-0.3,0.8-0.8,0.8-1.4
			c0-0.7-0.4-1.2-0.8-1.4c-0.3-0.2-0.8-0.2-1.3-0.2h-1.6V483.1z M799.8,489.2h2c0.4,0,0.9,0,1.3-0.2c0.6-0.3,1-0.7,1-1.6
			c0-0.8-0.4-1.3-1-1.6c-0.5-0.2-1-0.2-1.5-0.2h-1.9V489.2z"/>
		<path class="st3" d="M809,477.4h8v2.5h-5.2v3.3h5.1v2.5h-5.1v3.5h5.2v2.5h-8V477.4z"/>
		<path class="st3" d="M822.2,491.7h-2.7v-2.9h2.7V491.7z"/>
		<path class="st3" d="M828.2,491.7h-2.7v-2.9h2.7V491.7z"/>
		<path class="st3" d="M834.1,491.7h-2.7v-2.9h2.7V491.7z"/>
	</g>
	<rect x="532.5" y="537.4" class="st0" width="139.7" height="29.4"/>
	<rect x="532.5" y="596.1" class="st0" width="139.7" height="29.4"/>
	<rect x="532.5" y="654.8" class="st0" width="139.7" height="29.4"/>
	<g>
		<path class="st2" d="M597.7,515.4v2.4h-5.3l-0.5,2.8c0.4-0.3,1-0.6,2.2-0.6c3.2,0,4.8,2.7,4.8,4.8c0,2.3-1.8,5.1-5.3,5.1
			c-2.8,0-4.9-1.7-5.3-4.2h2.9c0.3,1,1.3,1.7,2.3,1.7c1.4,0,2.5-1.1,2.5-2.5c0-1.3-1-2.5-2.5-2.5c-0.7,0-1.6,0.2-2.2,1.4l-2.3-0.6
			l1.3-7.8H597.7z"/>
		<path class="st2" d="M601.4,515.4h2.2l-1.9,4.4h-1.9L601.4,515.4z"/>
		<path class="st2" d="M614.2,515.4l-2.7,3.8c-0.2,0.3-0.4,0.6-0.6,0.9c0.2-0.1,0.7-0.2,1.1-0.2c2.2,0,4.6,1.7,4.6,4.8
			c0,3.1-2.4,5.3-5.4,5.3c-1.8,0-3.3-0.7-4.2-1.9c-0.9-1-1.2-2.4-1.2-3.5c0-1.5,0.6-2.7,1.3-3.8l3.8-5.5H614.2z M608.6,524.9
			c0,1.5,1.2,2.5,2.5,2.5c1.4,0,2.6-1.1,2.6-2.5c0-1.4-1.1-2.6-2.5-2.6C609.9,522.4,608.6,523.4,608.6,524.9L608.6,524.9z"/>
	</g>
	<rect x="532.5" y="566.8" class="st0" width="139.7" height="29.4"/>
	<rect x="532.5" y="625.5" class="st0" width="139.7" height="29.4"/>
	<rect x="532.5" y="684.2" class="st0" width="139.7" height="29.4"/>
	<rect x="532.5" y="713" class="st0" width="139.7" height="29.4"/>
	<rect x="532.5" y="742.4" class="st0" width="139.7" height="29.4"/>
	<rect x="693.1" y="508" class="st4" width="139.7" height="29.4"/>
	<rect x="693.1" y="537.4" class="st0" width="139.7" height="29.4"/>
	<rect x="693.1" y="596.1" class="st0" width="139.7" height="29.4"/>
	<rect x="693.1" y="654.8" class="st0" width="139.7" height="29.4"/>
	<rect x="693.1" y="566.8" class="st0" width="139.7" height="29.4"/>
	<rect x="693.1" y="625.5" class="st0" width="139.7" height="29.4"/>
	<rect x="693.1" y="684.2" class="st0" width="139.7" height="29.4"/>
	<rect x="693.1" y="713" class="st0" width="139.7" height="29.4"/>
	<rect x="693.1" y="742.4" class="st0" width="139.7" height="29.4"/>
	<g>
		<path class="st2" d="M597.7,544.8v2.4h-5.3l-0.5,2.8c0.4-0.3,1-0.6,2.2-0.6c3.2,0,4.8,2.7,4.8,4.8c0,2.3-1.8,5.1-5.3,5.1
			c-2.8,0-4.9-1.7-5.3-4.2h2.9c0.3,1,1.3,1.7,2.3,1.7c1.4,0,2.5-1.1,2.5-2.5c0-1.3-1-2.5-2.5-2.5c-0.7,0-1.6,0.2-2.2,1.4l-2.3-0.6
			l1.3-7.8H597.7z"/>
		<path class="st2" d="M601.5,544.8h2.2l-1.9,4.4h-1.9L601.5,544.8z"/>
		<path class="st2" d="M615.3,544.8v2.4H610l-0.5,2.8c0.4-0.3,1-0.6,2.2-0.6c3.2,0,4.8,2.7,4.8,4.8c0,2.3-1.8,5.1-5.3,5.1
			c-2.8,0-4.9-1.7-5.3-4.2h2.9c0.3,1,1.3,1.7,2.3,1.7c1.4,0,2.5-1.1,2.5-2.5c0-1.3-1-2.5-2.5-2.5c-0.7,0-1.6,0.2-2.2,1.4l-2.3-0.6
			l1.3-7.8H615.3z"/>
	</g>
	<g>
		<path class="st2" d="M597.7,574.1v2.4h-5.3l-0.5,2.8c0.4-0.3,1-0.6,2.2-0.6c3.2,0,4.8,2.7,4.8,4.8c0,2.3-1.8,5.1-5.3,5.1
			c-2.8,0-4.9-1.7-5.3-4.2h2.9c0.3,1,1.3,1.7,2.3,1.7c1.4,0,2.5-1.1,2.5-2.5c0-1.3-1-2.5-2.5-2.5c-0.7,0-1.6,0.2-2.2,1.4l-2.3-0.6
			l1.3-7.8H597.7z"/>
		<path class="st2" d="M601.4,574.1h2.2l-1.9,4.4h-1.9L601.4,574.1z"/>
		<path class="st2" d="M612.2,585.9h-6.6v-2.1l6.7-9.6h2.8v9.5h1.6v2.3H615v2.6h-2.8V585.9z M612.4,583.6v-6l-3.9,6H612.4z"/>
	</g>
	<g>
		<path class="st2" d="M597.9,603.6v2.4h-5.3l-0.5,2.8c0.4-0.3,1-0.6,2.2-0.6c3.2,0,4.8,2.7,4.8,4.8c0,2.3-1.8,5.1-5.3,5.1
			c-2.8,0-4.9-1.7-5.3-4.2h2.9c0.3,1,1.3,1.7,2.3,1.7c1.4,0,2.5-1.1,2.5-2.5c0-1.3-1-2.5-2.5-2.5c-0.7,0-1.6,0.2-2.2,1.4l-2.3-0.6
			l1.3-7.8H597.9z"/>
		<path class="st2" d="M601.6,603.6h2.2L602,608h-1.9L601.6,603.6z"/>
		<path class="st2" d="M606.8,607.5c0.1-3.1,2.7-4.2,4.5-4.2c2.5,0,4.2,1.7,4.2,3.8c0,1.8-1.2,2.6-1.9,3c2.6,0.9,2.8,3,2.8,3.6
			c0,2.6-2.3,4.5-5.1,4.5c-1.6,0-3.3-0.6-4.2-1.9c-0.6-0.9-0.8-1.9-0.8-2.6h2.9c0.1,0.9,0.8,2,2.2,2c1.4,0,2.1-1,2.1-2.2
			c0-1.4-1.3-2.1-2.5-2.1h-1.2v-2.2h0.6c1,0,2.2-0.6,2.2-1.8c0-0.9-0.5-1.6-1.4-1.6c-1.2,0-1.5,1-1.6,1.6H606.8z"/>
	</g>
	<g>
		<path class="st2" d="M597.9,633v2.4h-5.3l-0.5,2.8c0.4-0.3,1-0.6,2.2-0.6c3.2,0,4.8,2.7,4.8,4.8c0,2.3-1.8,5.1-5.3,5.1
			c-2.8,0-4.9-1.7-5.3-4.2h2.9c0.3,1,1.3,1.7,2.3,1.7c1.4,0,2.5-1.1,2.5-2.5c0-1.3-1-2.5-2.5-2.5c-0.7,0-1.6,0.2-2.2,1.4l-2.3-0.6
			l1.3-7.8H597.9z"/>
		<path class="st2" d="M601.6,633h2.2l-1.9,4.4h-1.9L601.6,633z"/>
		<path class="st2" d="M606.6,645.1c1.4-1.3,2.8-2.5,4.2-3.8c1.4-1.3,2.6-2.2,2.6-3.9c0-1.4-0.9-2.2-2.1-2.2c-1.4,0-2,1.3-2,2.7
			h-2.8c0-1.1,0.2-2.3,1-3.4c1.1-1.6,3-1.9,4-1.9c3,0,4.7,2.1,4.7,4.4c0,1.7-0.6,2.9-2.3,4.5c-1.1,1.1-2.3,2.2-3.4,3.3h5.8v2.4h-9.8
			V645.1z"/>
	</g>
	<g>
		<path class="st2" d="M599.5,662.2v2.4h-5.3l-0.5,2.8c0.4-0.3,1-0.6,2.2-0.6c3.2,0,4.8,2.7,4.8,4.8c0,2.3-1.8,5.1-5.3,5.1
			c-2.8,0-4.9-1.7-5.3-4.2h2.9c0.3,1,1.3,1.7,2.3,1.7c1.4,0,2.5-1.1,2.5-2.5c0-1.3-1-2.5-2.5-2.5c-0.7,0-1.6,0.2-2.2,1.4l-2.3-0.6
			l1.3-7.8H599.5z"/>
		<path class="st2" d="M603.3,662.2h2.2l-1.9,4.4h-1.9L603.3,662.2z"/>
		<path class="st2" d="M611.8,664.7h-2.6v-2.4h5.4v14.4h-2.9V664.7z"/>
	</g>
	<g>
		<path class="st2" d="M597.8,691.7v2.4h-5.3l-0.5,2.8c0.4-0.3,1-0.6,2.2-0.6c3.2,0,4.8,2.7,4.8,4.8c0,2.3-1.8,5.1-5.3,5.1
			c-2.8,0-4.9-1.7-5.3-4.2h2.9c0.3,1,1.3,1.7,2.3,1.7c1.4,0,2.5-1.1,2.5-2.5c0-1.3-1-2.5-2.5-2.5c-0.7,0-1.6,0.2-2.2,1.4l-2.3-0.6
			l1.3-7.8H597.8z"/>
		<path class="st2" d="M601.5,691.7h2.2l-1.9,4.4H600L601.5,691.7z"/>
		<path class="st2" d="M606.1,696.7c0-4.2,3.4-5.3,5.2-5.3c2,0,5.1,1.4,5.1,5.2v4.4c0,3.9-3.1,5.2-5.1,5.2c-2,0-5.2-1.3-5.2-5.2
			V696.7z M609,701.2c0,1.3,0.7,2.6,2.3,2.6c1.6,0,2.3-1.5,2.3-2.6v-4.6c0-0.8-0.3-2.6-2.3-2.6c-1.6,0-2.2,1.4-2.2,2.6V701.2z"/>
	</g>
	<g>
		<path class="st2" d="M590.7,732.3h-6.6v-2.1l6.7-9.6h2.8v9.5h1.6v2.3h-1.6v2.6h-2.8V732.3z M590.9,730v-6l-3.9,6H590.9z"/>
		<path class="st2" d="M597.6,720.5h2.2l-1.9,4.4H596L597.6,720.5z"/>
		<path class="st2" d="M606.1,723h-2.6v-2.4h5.4v14.4h-2.9V723z"/>
		<path class="st2" d="M617.8,723h-2.6v-2.4h5.4v14.4h-2.9V723z"/>
	</g>
	<g>
		<path class="st2" d="M589,761.6h-6.6v-2.1l6.7-9.6h2.8v9.5h1.6v2.3h-1.6v2.6H589V761.6z M589.2,759.4v-6l-3.9,6H589.2z"/>
		<path class="st2" d="M595.8,749.9h2.2l-1.9,4.4h-1.9L595.8,749.9z"/>
		<path class="st2" d="M604.3,752.3h-2.6v-2.4h5.4v14.4h-2.9V752.3z"/>
		<path class="st2" d="M612.1,754.9c0-4.2,3.4-5.3,5.2-5.3c2,0,5.1,1.4,5.1,5.2v4.4c0,3.9-3.1,5.2-5.1,5.2c-2,0-5.2-1.3-5.2-5.2
			V754.9z M615,759.4c0,1.3,0.7,2.6,2.3,2.6c1.6,0,2.3-1.5,2.3-2.6v-4.6c0-0.8-0.3-2.6-2.3-2.6c-1.6,0-2.2,1.4-2.2,2.6V759.4z"/>
	</g>
	<g>
		<path class="st2" d="M728.1,518h-2.6v-2.4h5.4v14.4h-2.9V518z"/>
		<path class="st2" d="M739.8,518h-2.6v-2.4h5.4v14.4h-2.9V518z"/>
		<path class="st2" d="M747.5,520.5c0-4.2,3.4-5.3,5.2-5.3c2,0,5.1,1.4,5.1,5.2v4.4c0,3.9-3.1,5.2-5.1,5.2c-2,0-5.2-1.3-5.2-5.2
			V520.5z M750.4,525c0,1.3,0.7,2.6,2.3,2.6c1.6,0,2.3-1.5,2.3-2.6v-4.6c0-0.8-0.3-2.6-2.3-2.6c-1.6,0-2.2,1.4-2.2,2.6V525z"/>
		<path class="st2" d="M765.7,515.5h2.9v11.8h4.7v2.5h-7.6V515.5z"/>
		<path class="st2" d="M774.8,515.5h4.7c1.4,0,2.5,0.3,3.2,0.9c1,0.6,1.4,1.7,1.4,2.9c0,1.3-0.7,2.3-1.8,2.9
			c2.4,0.8,2.5,2.8,2.5,3.5c0,1.3-0.5,2.5-1.6,3.2c-1.1,0.9-2.1,1-4.1,1h-4.4V515.5z M777.7,521.3h1.6c0.4,0,0.9,0,1.2-0.2
			c0.6-0.3,0.8-0.8,0.8-1.4c0-0.7-0.4-1.2-0.8-1.4c-0.3-0.2-0.8-0.2-1.3-0.2h-1.6V521.3z M777.7,527.3h2c0.4,0,0.9,0,1.3-0.2
			c0.6-0.3,1-0.7,1-1.6c0-0.8-0.4-1.3-1-1.6c-0.5-0.2-1-0.2-1.5-0.2h-1.9V527.3z"/>
		<path class="st2" d="M788.9,525.4c0.1,1.9,1.4,2.3,2,2.3c1.1,0,2-0.9,2-1.9c0-1.2-1-1.5-3-2.3c-1.1-0.4-3.6-1.3-3.6-4
			c0-2.8,2.4-4.2,4.8-4.2c1.9,0,4.4,1,4.5,4.2h-2.9c-0.1-0.7-0.4-1.8-1.8-1.8c-1,0-1.8,0.7-1.8,1.6c0,1.1,0.8,1.3,3.2,2.3
			c2.2,1,3.4,2,3.4,4c0,2.3-1.4,4.5-4.8,4.5c-3.3,0-4.9-2-4.9-4.7H788.9z"/>
		<path class="st2" d="M800.4,529.9h-2.7V527h2.7V529.9z"/>
	</g>
	<g>
		<path class="st2" d="M728.1,547.3h-2.6v-2.4h5.4v14.4h-2.9V547.3z"/>
		<path class="st2" d="M739.8,547.3h-2.6v-2.4h5.4v14.4h-2.9V547.3z"/>
		<path class="st2" d="M756.7,544.9v2.4h-5.3l-0.5,2.8c0.4-0.3,1-0.6,2.2-0.6c3.2,0,4.8,2.7,4.8,4.8c0,2.3-1.8,5.1-5.3,5.1
			c-2.8,0-4.9-1.7-5.3-4.2h2.9c0.3,1,1.3,1.7,2.3,1.7c1.4,0,2.5-1.1,2.5-2.5c0-1.3-1-2.5-2.5-2.5c-0.7,0-1.6,0.2-2.2,1.4l-2.3-0.6
			l1.3-7.8H756.7z"/>
		<path class="st2" d="M765.7,544.9h2.9v11.8h4.7v2.5h-7.6V544.9z"/>
		<path class="st2" d="M774.8,544.9h4.7c1.4,0,2.5,0.3,3.2,0.9c1,0.6,1.4,1.7,1.4,2.9c0,1.3-0.7,2.3-1.8,2.9
			c2.4,0.8,2.5,2.8,2.5,3.5c0,1.3-0.5,2.5-1.6,3.2c-1.1,0.9-2.1,1-4.1,1h-4.4V544.9z M777.7,550.6h1.6c0.4,0,0.9,0,1.2-0.2
			c0.6-0.3,0.8-0.8,0.8-1.4c0-0.7-0.4-1.2-0.8-1.4c-0.3-0.2-0.8-0.2-1.3-0.2h-1.6V550.6z M777.7,556.7h2c0.4,0,0.9,0,1.3-0.2
			c0.6-0.3,1-0.7,1-1.6c0-0.8-0.4-1.3-1-1.6c-0.5-0.2-1-0.2-1.5-0.2h-1.9V556.7z"/>
		<path class="st2" d="M788.9,554.8c0.1,1.9,1.4,2.3,2,2.3c1.1,0,2-0.9,2-1.9c0-1.2-1-1.5-3-2.3c-1.1-0.4-3.6-1.3-3.6-4
			c0-2.8,2.4-4.2,4.8-4.2c1.9,0,4.4,1,4.5,4.2h-2.9c-0.1-0.7-0.4-1.8-1.8-1.8c-1,0-1.8,0.7-1.8,1.6c0,1.1,0.8,1.3,3.2,2.3
			c2.2,1,3.4,2,3.4,4c0,2.3-1.4,4.5-4.8,4.5c-3.3,0-4.9-2-4.9-4.7H788.9z"/>
		<path class="st2" d="M800.4,559.3h-2.7v-2.9h2.7V559.3z"/>
	</g>
	<g>
		<path class="st2" d="M728.1,576.7h-2.6v-2.4h5.4v14.4h-2.9V576.7z"/>
		<path class="st2" d="M736.2,586.3c1.4-1.3,2.8-2.5,4.2-3.8c1.4-1.3,2.6-2.2,2.6-3.9c0-1.4-0.9-2.2-2.1-2.2c-1.4,0-2,1.3-2,2.7
			h-2.8c0-1.1,0.2-2.3,1-3.4c1.1-1.6,3-1.9,4-1.9c3,0,4.7,2.1,4.7,4.4c0,1.7-0.6,2.9-2.3,4.5c-1.1,1.1-2.3,2.2-3.4,3.3h5.8v2.4h-9.8
			V586.3z"/>
		<path class="st2" d="M747.5,579.3c0-4.2,3.4-5.3,5.2-5.3c2,0,5.1,1.4,5.1,5.2v4.4c0,3.9-3.1,5.2-5.1,5.2c-2,0-5.2-1.3-5.2-5.2
			V579.3z M750.4,583.7c0,1.3,0.7,2.6,2.3,2.6c1.6,0,2.3-1.5,2.3-2.6v-4.6c0-0.8-0.3-2.6-2.3-2.6c-1.6,0-2.2,1.4-2.2,2.6V583.7z"/>
		<path class="st2" d="M765.7,574.3h2.9v11.8h4.7v2.5h-7.6V574.3z"/>
		<path class="st2" d="M774.8,574.3h4.7c1.4,0,2.5,0.3,3.2,0.9c1,0.6,1.4,1.7,1.4,2.9c0,1.3-0.7,2.3-1.8,2.9
			c2.4,0.8,2.5,2.8,2.5,3.5c0,1.3-0.5,2.5-1.6,3.2c-1.1,0.9-2.1,1-4.1,1h-4.4V574.3z M777.7,580h1.6c0.4,0,0.9,0,1.2-0.2
			c0.6-0.3,0.8-0.8,0.8-1.4c0-0.7-0.4-1.2-0.8-1.4c-0.3-0.2-0.8-0.2-1.3-0.2h-1.6V580z M777.7,586.1h2c0.4,0,0.9,0,1.3-0.2
			c0.6-0.3,1-0.7,1-1.6c0-0.8-0.4-1.3-1-1.6c-0.5-0.2-1-0.2-1.5-0.2h-1.9V586.1z"/>
		<path class="st2" d="M788.9,584.2c0.1,1.9,1.4,2.3,2,2.3c1.1,0,2-0.9,2-1.9c0-1.2-1-1.5-3-2.3c-1.1-0.4-3.6-1.3-3.6-4
			c0-2.8,2.4-4.2,4.8-4.2c1.9,0,4.4,1,4.5,4.2h-2.9c-0.1-0.7-0.4-1.8-1.8-1.8c-1,0-1.8,0.7-1.8,1.6c0,1.1,0.8,1.3,3.2,2.3
			c2.2,1,3.4,2,3.4,4c0,2.3-1.4,4.5-4.8,4.5c-3.3,0-4.9-2-4.9-4.7H788.9z"/>
		<path class="st2" d="M800.4,588.6h-2.7v-2.9h2.7V588.6z"/>
	</g>
	<g>
		<path class="st2" d="M728.1,606.1h-2.6v-2.4h5.4V618h-2.9V606.1z"/>
		<path class="st2" d="M736.2,615.7c1.4-1.3,2.8-2.5,4.2-3.8c1.4-1.3,2.6-2.2,2.6-3.9c0-1.4-0.9-2.2-2.1-2.2c-1.4,0-2,1.3-2,2.7
			h-2.8c0-1.1,0.2-2.3,1-3.4c1.1-1.6,3-1.9,4-1.9c3,0,4.7,2.1,4.7,4.4c0,1.7-0.6,2.9-2.3,4.5c-1.1,1.1-2.3,2.2-3.4,3.3h5.8v2.4h-9.8
			V615.7z"/>
		<path class="st2" d="M753.7,615.4H747v-2.1l6.7-9.6h2.8v9.5h1.6v2.3h-1.6v2.6h-2.8V615.4z M753.9,613.1v-6l-3.9,6H753.9z"/>
		<path class="st2" d="M765.7,603.6h2.9v11.8h4.7v2.5h-7.6V603.6z"/>
		<path class="st2" d="M774.8,603.6h4.7c1.4,0,2.5,0.3,3.2,0.9c1,0.6,1.4,1.7,1.4,2.9c0,1.3-0.7,2.3-1.8,2.9
			c2.4,0.8,2.5,2.8,2.5,3.5c0,1.3-0.5,2.5-1.6,3.2c-1.1,0.9-2.1,1-4.1,1h-4.4V603.6z M777.7,609.4h1.6c0.4,0,0.9,0,1.2-0.2
			c0.6-0.3,0.8-0.8,0.8-1.4c0-0.7-0.4-1.2-0.8-1.4c-0.3-0.2-0.8-0.2-1.3-0.2h-1.6V609.4z M777.7,615.4h2c0.4,0,0.9,0,1.3-0.2
			c0.6-0.3,1-0.7,1-1.6c0-0.8-0.4-1.3-1-1.6c-0.5-0.2-1-0.2-1.5-0.2h-1.9V615.4z"/>
		<path class="st2" d="M788.9,613.5c0.1,1.9,1.4,2.3,2,2.3c1.1,0,2-0.9,2-1.9c0-1.2-1-1.5-3-2.3c-1.1-0.4-3.6-1.3-3.6-4
			c0-2.8,2.4-4.2,4.8-4.2c1.9,0,4.4,1,4.5,4.2h-2.9c-0.1-0.7-0.4-1.8-1.8-1.8c-1,0-1.8,0.7-1.8,1.6c0,1.1,0.8,1.3,3.2,2.3
			c2.2,1,3.4,2,3.4,4c0,2.3-1.4,4.5-4.8,4.5c-3.3,0-4.9-2-4.9-4.7H788.9z"/>
		<path class="st2" d="M800.4,618h-2.7v-2.9h2.7V618z"/>
	</g>
	<g>
		<path class="st2" d="M728.1,635.4h-2.6V633h5.4v14.4h-2.9V635.4z"/>
		<path class="st2" d="M736.2,645.1c1.4-1.3,2.8-2.5,4.2-3.8c1.4-1.3,2.6-2.2,2.6-3.9c0-1.4-0.9-2.2-2.1-2.2c-1.4,0-2,1.3-2,2.7
			h-2.8c0-1.1,0.2-2.3,1-3.4c1.1-1.6,3-1.9,4-1.9c3,0,4.7,2.1,4.7,4.4c0,1.7-0.6,2.9-2.3,4.5c-1.1,1.1-2.3,2.2-3.4,3.3h5.8v2.4h-9.8
			V645.1z"/>
		<path class="st2" d="M749.7,647.3l2.7-3.8c0.2-0.3,0.4-0.6,0.6-0.9c-0.2,0.1-0.7,0.2-1.1,0.2c-2.2,0-4.6-1.7-4.6-4.8
			c0-3.1,2.4-5.3,5.4-5.3c1.8,0,3.3,0.7,4.2,1.9c0.9,1,1.2,2.4,1.2,3.5c0,1.5-0.6,2.7-1.3,3.8l-3.8,5.5H749.7z M755.2,637.8
			c0-1.5-1.2-2.5-2.5-2.5c-1.4,0-2.5,1.1-2.5,2.5c0,1.5,1.1,2.6,2.5,2.6C754,640.4,755.2,639.4,755.2,637.8L755.2,637.8z"/>
		<path class="st2" d="M765.7,633h2.9v11.8h4.7v2.5h-7.6V633z"/>
		<path class="st2" d="M774.8,633h4.7c1.4,0,2.5,0.3,3.2,0.9c1,0.6,1.4,1.7,1.4,2.9c0,1.3-0.7,2.3-1.8,2.9c2.4,0.8,2.5,2.8,2.5,3.5
			c0,1.3-0.5,2.5-1.6,3.2c-1.1,0.9-2.1,1-4.1,1h-4.4V633z M777.7,638.7h1.6c0.4,0,0.9,0,1.2-0.2c0.6-0.3,0.8-0.8,0.8-1.4
			c0-0.7-0.4-1.2-0.8-1.4c-0.3-0.2-0.8-0.2-1.3-0.2h-1.6V638.7z M777.7,644.8h2c0.4,0,0.9,0,1.3-0.2c0.6-0.3,1-0.7,1-1.6
			c0-0.8-0.4-1.3-1-1.6c-0.5-0.2-1-0.2-1.5-0.2h-1.9V644.8z"/>
		<path class="st2" d="M788.9,642.9c0.1,1.9,1.4,2.3,2,2.3c1.1,0,2-0.9,2-1.9c0-1.2-1-1.5-3-2.3c-1.1-0.4-3.6-1.3-3.6-4
			c0-2.8,2.4-4.2,4.8-4.2c1.9,0,4.4,1,4.5,4.2h-2.9c-0.1-0.7-0.4-1.8-1.8-1.8c-1,0-1.8,0.7-1.8,1.6c0,1.1,0.8,1.3,3.2,2.3
			c2.2,1,3.4,2,3.4,4c0,2.3-1.4,4.5-4.8,4.5c-3.3,0-4.9-2-4.9-4.7H788.9z"/>
		<path class="st2" d="M800.4,647.3h-2.7v-2.9h2.7V647.3z"/>
	</g>
	<g>
		<path class="st2" d="M728.1,664.8h-2.6v-2.4h5.4v14.4h-2.9V664.8z"/>
		<path class="st2" d="M736.4,666.2c0.1-3.1,2.7-4.2,4.5-4.2c2.5,0,4.2,1.7,4.2,3.8c0,1.8-1.2,2.6-1.9,3c2.6,0.9,2.8,3,2.8,3.6
			c0,2.6-2.3,4.5-5.1,4.5c-1.6,0-3.3-0.6-4.2-1.9c-0.6-0.9-0.8-1.9-0.8-2.6h2.9c0.1,0.9,0.8,2,2.2,2c1.4,0,2.1-1,2.1-2.2
			c0-1.4-1.3-2.1-2.5-2.1h-1.2V668h0.6c1,0,2.2-0.6,2.2-1.8c0-0.9-0.5-1.6-1.4-1.6c-1.2,0-1.5,1-1.6,1.6H736.4z"/>
		<path class="st2" d="M748.1,666.2c0.1-3.1,2.7-4.2,4.5-4.2c2.5,0,4.2,1.7,4.2,3.8c0,1.8-1.2,2.6-1.9,3c2.6,0.9,2.8,3,2.8,3.6
			c0,2.6-2.3,4.5-5.1,4.5c-1.6,0-3.3-0.6-4.2-1.9c-0.6-0.9-0.8-1.9-0.8-2.6h2.9c0.1,0.9,0.8,2,2.2,2c1.4,0,2.1-1,2.1-2.2
			c0-1.4-1.3-2.1-2.5-2.1h-1.2V668h0.6c1,0,2.2-0.6,2.2-1.8c0-0.9-0.5-1.6-1.4-1.6c-1.2,0-1.5,1-1.6,1.6H748.1z"/>
		<path class="st2" d="M765.7,662.3h2.9v11.8h4.7v2.5h-7.6V662.3z"/>
		<path class="st2" d="M774.8,662.3h4.7c1.4,0,2.5,0.3,3.2,0.9c1,0.6,1.4,1.7,1.4,2.9c0,1.3-0.7,2.3-1.8,2.9
			c2.4,0.8,2.5,2.8,2.5,3.5c0,1.3-0.5,2.5-1.6,3.2c-1.1,0.9-2.1,1-4.1,1h-4.4V662.3z M777.7,668.1h1.6c0.4,0,0.9,0,1.2-0.2
			c0.6-0.3,0.8-0.8,0.8-1.4c0-0.7-0.4-1.2-0.8-1.4c-0.3-0.2-0.8-0.2-1.3-0.2h-1.6V668.1z M777.7,674.2h2c0.4,0,0.9,0,1.3-0.2
			c0.6-0.3,1-0.7,1-1.6c0-0.8-0.4-1.3-1-1.6c-0.5-0.2-1-0.2-1.5-0.2h-1.9V674.2z"/>
		<path class="st2" d="M788.9,672.2c0.1,1.9,1.4,2.3,2,2.3c1.1,0,2-0.9,2-1.9c0-1.2-1-1.5-3-2.3c-1.1-0.4-3.6-1.3-3.6-4
			c0-2.8,2.4-4.2,4.8-4.2c1.9,0,4.4,1,4.5,4.2h-2.9c-0.1-0.7-0.4-1.8-1.8-1.8c-1,0-1.8,0.7-1.8,1.6c0,1.1,0.8,1.3,3.2,2.3
			c2.2,1,3.4,2,3.4,4c0,2.3-1.4,4.5-4.8,4.5c-3.3,0-4.9-2-4.9-4.7H788.9z"/>
		<path class="st2" d="M800.4,676.7h-2.7v-2.9h2.7V676.7z"/>
	</g>
	<g>
		<path class="st2" d="M728.1,694.1h-2.6v-2.4h5.4v14.4h-2.9V694.1z"/>
		<path class="st2" d="M736.4,695.6c0.1-3.1,2.7-4.2,4.5-4.2c2.5,0,4.2,1.7,4.2,3.8c0,1.8-1.2,2.6-1.9,3c2.6,0.9,2.8,3,2.8,3.6
			c0,2.6-2.3,4.5-5.1,4.5c-1.6,0-3.3-0.6-4.2-1.9c-0.6-0.9-0.8-1.9-0.8-2.6h2.9c0.1,0.9,0.8,2,2.2,2c1.4,0,2.1-1,2.1-2.2
			c0-1.4-1.3-2.1-2.5-2.1h-1.2v-2.2h0.6c1,0,2.2-0.6,2.2-1.8c0-0.9-0.5-1.6-1.4-1.6c-1.2,0-1.5,1-1.6,1.6H736.4z"/>
		<path class="st2" d="M748.1,695.2c0-1.9,1.6-3.8,4.5-3.8c3,0,4.5,1.9,4.5,3.8c0,1.6-0.9,2.4-1.6,2.8c1.4,0.6,2.1,2,2.1,3.5
			c0,2.7-2.1,4.7-5,4.7c-2.9,0-5-2-5-4.7c0-1.5,0.6-2.9,2.1-3.5C749.1,697.7,748.1,696.8,748.1,695.2L748.1,695.2z M750.5,701.6
			c0,1.1,0.9,2.2,2.1,2.2c1.3,0,2.1-1.1,2.1-2.2c0-1.1-0.9-2.2-2.1-2.2C751.4,699.4,750.5,700.5,750.5,701.6L750.5,701.6z
			 M750.9,695.5c0,1,0.8,1.7,1.7,1.7c0.9,0,1.7-0.7,1.7-1.7c0-1-0.8-1.7-1.7-1.7C751.7,693.8,750.9,694.5,750.9,695.5L750.9,695.5z"
			/>
		<path class="st2" d="M765.7,691.7h2.9v11.8h4.7v2.5h-7.6V691.7z"/>
		<path class="st2" d="M774.8,691.7h4.7c1.4,0,2.5,0.3,3.2,0.9c1,0.6,1.4,1.7,1.4,2.9c0,1.3-0.7,2.3-1.8,2.9
			c2.4,0.8,2.5,2.8,2.5,3.5c0,1.3-0.5,2.5-1.6,3.2c-1.1,0.9-2.1,1-4.1,1h-4.4V691.7z M777.7,697.4h1.6c0.4,0,0.9,0,1.2-0.2
			c0.6-0.3,0.8-0.8,0.8-1.4c0-0.7-0.4-1.2-0.8-1.4c-0.3-0.2-0.8-0.2-1.3-0.2h-1.6V697.4z M777.7,703.5h2c0.4,0,0.9,0,1.3-0.2
			c0.6-0.3,1-0.7,1-1.6c0-0.8-0.4-1.3-1-1.6c-0.5-0.2-1-0.2-1.5-0.2h-1.9V703.5z"/>
		<path class="st2" d="M788.9,701.6c0.1,1.9,1.4,2.3,2,2.3c1.1,0,2-0.9,2-1.9c0-1.2-1-1.5-3-2.3c-1.1-0.4-3.6-1.3-3.6-4
			c0-2.8,2.4-4.2,4.8-4.2c1.9,0,4.4,1,4.5,4.2h-2.9c-0.1-0.7-0.4-1.8-1.8-1.8c-1,0-1.8,0.7-1.8,1.6c0,1.1,0.8,1.3,3.2,2.3
			c2.2,1,3.4,2,3.4,4c0,2.3-1.4,4.5-4.8,4.5c-3.3,0-4.9-2-4.9-4.7H788.9z"/>
		<path class="st2" d="M800.4,706.1h-2.7v-2.9h2.7V706.1z"/>
	</g>
	<g>
		<path class="st2" d="M728.1,723h-2.6v-2.4h5.4v14.4h-2.9V723z"/>
		<path class="st2" d="M742,732.3h-6.6v-2.1l6.7-9.6h2.8v9.5h1.6v2.3h-1.6v2.6H742V732.3z M742.2,730v-6l-3.9,6H742.2z"/>
		<path class="st2" d="M747.8,732.6c1.4-1.3,2.8-2.5,4.2-3.8c1.4-1.3,2.6-2.2,2.6-3.9c0-1.4-0.9-2.2-2.1-2.2c-1.4,0-2,1.3-2,2.7
			h-2.8c0-1.1,0.2-2.3,1-3.4c1.1-1.6,3-1.9,4-1.9c3,0,4.7,2.1,4.7,4.4c0,1.7-0.6,2.9-2.3,4.5c-1.1,1.1-2.3,2.2-3.4,3.3h5.8v2.4h-9.8
			V732.6z"/>
		<path class="st2" d="M765.7,720.5h2.9v11.8h4.7v2.5h-7.6V720.5z"/>
		<path class="st2" d="M774.8,720.5h4.7c1.4,0,2.5,0.3,3.2,0.9c1,0.6,1.4,1.7,1.4,2.9c0,1.3-0.7,2.3-1.8,2.9
			c2.4,0.8,2.5,2.8,2.5,3.5c0,1.3-0.5,2.5-1.6,3.2c-1.1,0.9-2.1,1-4.1,1h-4.4V720.5z M777.7,726.3h1.6c0.4,0,0.9,0,1.2-0.2
			c0.6-0.3,0.8-0.8,0.8-1.4c0-0.7-0.4-1.2-0.8-1.4c-0.3-0.2-0.8-0.2-1.3-0.2h-1.6V726.3z M777.7,732.3h2c0.4,0,0.9,0,1.3-0.2
			c0.6-0.3,1-0.7,1-1.6c0-0.8-0.4-1.3-1-1.6c-0.5-0.2-1-0.2-1.5-0.2h-1.9V732.3z"/>
		<path class="st2" d="M788.9,730.4c0.1,1.9,1.4,2.3,2,2.3c1.1,0,2-0.9,2-1.9c0-1.2-1-1.5-3-2.3c-1.1-0.4-3.6-1.3-3.6-4
			c0-2.8,2.4-4.2,4.8-4.2c1.9,0,4.4,1,4.5,4.2h-2.9c-0.1-0.7-0.4-1.8-1.8-1.8c-1,0-1.8,0.7-1.8,1.6c0,1.1,0.8,1.3,3.2,2.3
			c2.2,1,3.4,2,3.4,4c0,2.3-1.4,4.5-4.8,4.5c-3.3,0-4.9-2-4.9-4.7H788.9z"/>
		<path class="st2" d="M800.4,734.9h-2.7V732h2.7V734.9z"/>
	</g>
	<g>
		<path class="st2" d="M728.1,752.3h-2.6v-2.4h5.4v14.4h-2.9V752.3z"/>
		<path class="st2" d="M742,761.6h-6.6v-2.1l6.7-9.6h2.8v9.5h1.6v2.3h-1.6v2.6H742V761.6z M742.2,759.4v-6l-3.9,6H742.2z"/>
		<path class="st2" d="M756.7,749.9v2.4h-5.3l-0.5,2.8c0.4-0.3,1-0.6,2.2-0.6c3.2,0,4.8,2.7,4.8,4.8c0,2.3-1.8,5.1-5.3,5.1
			c-2.8,0-4.9-1.7-5.3-4.2h2.9c0.3,1,1.3,1.7,2.3,1.7c1.4,0,2.5-1.1,2.5-2.5c0-1.3-1-2.5-2.5-2.5c-0.7,0-1.6,0.2-2.2,1.4l-2.3-0.6
			l1.3-7.8H756.7z"/>
		<path class="st2" d="M765.7,749.9h2.9v11.8h4.7v2.5h-7.6V749.9z"/>
		<path class="st2" d="M774.8,749.9h4.7c1.4,0,2.5,0.3,3.2,0.9c1,0.6,1.4,1.7,1.4,2.9c0,1.3-0.7,2.3-1.8,2.9
			c2.4,0.8,2.5,2.8,2.5,3.5c0,1.3-0.5,2.5-1.6,3.2c-1.1,0.9-2.1,1-4.1,1h-4.4V749.9z M777.7,755.6h1.6c0.4,0,0.9,0,1.2-0.2
			c0.6-0.3,0.8-0.8,0.8-1.4c0-0.7-0.4-1.2-0.8-1.4c-0.3-0.2-0.8-0.2-1.3-0.2h-1.6V755.6z M777.7,761.7h2c0.4,0,0.9,0,1.3-0.2
			c0.6-0.3,1-0.7,1-1.6c0-0.8-0.4-1.3-1-1.6c-0.5-0.2-1-0.2-1.5-0.2h-1.9V761.7z"/>
		<path class="st2" d="M788.9,759.8c0.1,1.9,1.4,2.3,2,2.3c1.1,0,2-0.9,2-1.9c0-1.2-1-1.5-3-2.3c-1.1-0.4-3.6-1.3-3.6-4
			c0-2.8,2.4-4.2,4.8-4.2c1.9,0,4.4,1,4.5,4.2h-2.9c-0.1-0.7-0.4-1.8-1.8-1.8c-1,0-1.8,0.7-1.8,1.6c0,1.1,0.8,1.3,3.2,2.3
			c2.2,1,3.4,2,3.4,4c0,2.3-1.4,4.5-4.8,4.5c-3.3,0-4.9-2-4.9-4.7H788.9z"/>
		<path class="st2" d="M800.4,764.2h-2.7v-2.9h2.7V764.2z"/>
	</g>
	<rect x="500.5" y="498.2" class="st5" width="1" height="29.4"/>
	<rect x="500.5" y="557" class="st5" width="1" height="29.4"/>
	<rect x="500.5" y="615.7" class="st5" width="1" height="29.4"/>
	<rect x="500.5" y="674.4" class="st5" width="1" height="29.4"/>
	<rect x="532.5" y="508" class="st5" width="301.5" height="29.4"/>
	<rect x="532.5" y="566.8" class="st5" width="301.5" height="29.4"/>
	<rect x="532.5" y="625.5" class="st5" width="301.5" height="29.4"/>
	<rect x="532.5" y="684.2" class="st5" width="301.5" height="29.4"/>
	<rect x="532.5" y="742.4" class="st5" width="301.5" height="29.4"/>
	<rect x="540.8" y="395.8" class="st6" width="83.7" height="49.7"/>
	<path class="st6" d="M624.4,395.8h-83.7c1.4-18.8,15.2-34.2,33.3-38l1.6-0.3c2.3-0.4,4.6-0.6,6.9-0.6c20.6,0,37.8,14.9,41.3,34.5
		C624.1,392.9,624.3,394.4,624.4,395.8z"/>
	<g>
		<circle class="st7" cx="684.7" cy="400.4" r="44.3"/>
		<path class="st8" d="M724.2,397.9c0,21.7-17.6,39.3-39.3,39.3c-21.7,0-39.3-17.6-39.3-39.3c0-1,0-2,0.1-2.9
			c1.6,0.3,3.2,0.4,4.9,0.4c11.3,0,21.1-6.5,25.8-16c3.9,11.3,14.6,19.5,27.3,19.5c7.7,0,14.8-3.1,19.9-8
			C724,393.2,724.2,395.5,724.2,397.9z"/>
		<path class="st7" d="M723.6,390.9c-5.2,5-12.2,8-19.9,8c-12.7,0-23.4-8.2-27.3-19.5c-4.7,9.5-14.5,16-25.8,16
			c-1.7,0-3.3-0.1-4.9-0.4c1.3-17.6,14.3-32,31.2-35.5l1.5-0.3c2.1-0.4,4.3-0.5,6.5-0.5C704.2,358.6,720.3,372.5,723.6,390.9z"/>
		<g>
			<circle class="st9" cx="665" cy="416.9" r="6.2"/>
			<circle class="st9" cx="704.9" cy="416.9" r="6.2"/>
		</g>
		<g>
			<circle class="st3" cx="671.3" cy="404.5" r="2"/>
			<circle class="st3" cx="698.5" cy="404.5" r="2"/>
		</g>
	</g>
	<path class="st6" d="M621.8,395.8h-78.4c1.3-17.6,14.2-32,31.2-35.5l1.5-0.3c2.1-0.4,4.3-0.5,6.5-0.5c19.3,0,35.4,13.9,38.7,32.3
		C621.5,393.1,621.7,394.4,621.8,395.8z"/>
	<path class="st10" d="M621.8,395.8h-4.2c-0.8-2.7-2.5-7.5-4.4-8.6c0,0,1.8,4.8,2.3,8.6h-65.8c0.4-3.8,2.3-8.6,2.3-8.6
		c-1.8,1.1-3.5,5.8-4.4,8.6h-4.2c-0.1,1-0.1,1.9-0.1,2.9c0,21.7,17.6,39.3,39.3,39.3c21.7,0,39.3-17.6,39.3-39.3
		C621.9,397.8,621.8,396.8,621.8,395.8z"/>
	<g>
		<circle class="st11" cx="562.7" cy="417.8" r="6.2"/>
		<circle class="st11" cx="602.5" cy="417.8" r="6.2"/>
	</g>
	<g>
		<circle class="st3" cx="569" cy="405.3" r="2"/>
		<circle class="st3" cx="596.2" cy="405.3" r="2"/>
	</g>
	<g>
		<ellipse class="st12" cx="790.2" cy="395" rx="44.3" ry="38.1"/>
		<path class="st12" d="M829.8,398.6c0,0.6,0,1.2,0,1.8c-7.3-12.4-22.3-20.9-39.5-20.9c-16.9,0-31.6,8.1-39,20.1c0-0.3,0-0.7,0-1
			c0-1,0-2,0.1-2.9c1.3-17.6,14.2-32,31.2-35.5l1.5-0.3c2.1-0.4,4.3-0.5,6.5-0.5c19.3,0,35.4,13.9,38.7,32.3
			C829.6,393.9,829.8,396.2,829.8,398.6z"/>
		<path class="st13" d="M829.7,400.4c-0.9,20.9-18.2,37.5-39.2,37.5c-21.4,0-38.7-17-39.3-38.3v0c7.5-12,22.1-20.1,39-20.1
			C807.5,379.5,822.4,388,829.7,400.4z"/>
		<g>
			<circle class="st9" cx="770.6" cy="417.6" r="6.2"/>
			<circle class="st9" cx="810.4" cy="417.6" r="6.2"/>
		</g>
		<g>
			<circle class="st3" cx="776.9" cy="405.2" r="2"/>
			<circle class="st3" cx="804.1" cy="405.2" r="2"/>
		</g>
		<circle class="st12" cx="790.5" cy="356.8" r="11.6"/>
	</g>
	<g id="XMLID_3_">
		<g>
			<rect x="161" y="509" class="st0" width="139.7" height="29.4"/>
		</g>
		<g>
		</g>
	</g>
	<rect x="161" y="538.3" class="st0" width="139.7" height="29.4"/>
	<rect x="161" y="597" class="st0" width="139.7" height="29.4"/>
	<rect x="161" y="655.8" class="st0" width="139.7" height="29.4"/>
	<g>
		<path class="st2" d="M226.1,516.3v2.4h-5.3l-0.5,2.8c0.4-0.3,1-0.6,2.2-0.6c3.2,0,4.8,2.7,4.8,4.8c0,2.3-1.8,5.1-5.3,5.1
			c-2.8,0-4.9-1.7-5.3-4.2h2.9c0.3,1,1.3,1.7,2.3,1.7c1.4,0,2.5-1.1,2.5-2.5c0-1.3-1-2.5-2.5-2.5c-0.7,0-1.6,0.2-2.2,1.4l-2.3-0.6
			l1.3-7.8H226.1z"/>
		<path class="st2" d="M229.8,516.3h2.2l-1.9,4.4h-1.9L229.8,516.3z"/>
		<path class="st2" d="M242.6,516.3l-2.7,3.8c-0.2,0.3-0.4,0.6-0.6,0.9c0.2-0.1,0.7-0.2,1.1-0.2c2.2,0,4.6,1.7,4.6,4.8
			c0,3.1-2.4,5.3-5.4,5.3c-1.8,0-3.3-0.7-4.2-1.9c-0.9-1-1.2-2.4-1.2-3.5c0-1.5,0.6-2.7,1.3-3.8l3.8-5.5H242.6z M237.1,525.9
			c0,1.5,1.2,2.5,2.5,2.5c1.4,0,2.6-1.1,2.6-2.5c0-1.4-1.1-2.6-2.5-2.6C238.3,523.3,237.1,524.3,237.1,525.9L237.1,525.9z"/>
	</g>
	<rect x="161" y="567.7" class="st0" width="139.7" height="29.4"/>
	<rect x="161" y="626.4" class="st0" width="139.7" height="29.4"/>
	<rect x="161" y="685.1" class="st0" width="139.7" height="29.4"/>
	<rect x="161" y="714" class="st0" width="139.7" height="29.4"/>
	<rect x="161" y="743.3" class="st0" width="139.7" height="29.4"/>
	<rect x="321.6" y="509" class="st4" width="139.7" height="29.4"/>
	<rect x="321.6" y="538.3" class="st0" width="139.7" height="29.4"/>
	<rect x="321.6" y="597" class="st0" width="139.7" height="29.4"/>
	<rect x="321.6" y="655.8" class="st0" width="139.7" height="29.4"/>
	<rect x="321.6" y="567.7" class="st0" width="139.7" height="29.4"/>
	<rect x="321.6" y="626.4" class="st0" width="139.7" height="29.4"/>
	<rect x="321.6" y="685.1" class="st0" width="139.7" height="29.4"/>
	<rect x="321.6" y="714" class="st0" width="139.7" height="29.4"/>
	<rect x="321.6" y="743.3" class="st0" width="139.7" height="29.4"/>
	<g>
		<path class="st2" d="M226.2,545.7v2.4h-5.3l-0.5,2.8c0.4-0.3,1-0.6,2.2-0.6c3.2,0,4.8,2.7,4.8,4.8c0,2.3-1.8,5.1-5.3,5.1
			c-2.8,0-4.9-1.7-5.3-4.2h2.9c0.3,1,1.3,1.7,2.3,1.7c1.4,0,2.5-1.1,2.5-2.5c0-1.3-1-2.5-2.5-2.5c-0.7,0-1.6,0.2-2.2,1.4l-2.3-0.6
			l1.3-7.8H226.2z"/>
		<path class="st2" d="M229.9,545.7h2.2l-1.9,4.4h-1.9L229.9,545.7z"/>
		<path class="st2" d="M243.8,545.7v2.4h-5.3l-0.5,2.8c0.4-0.3,1-0.6,2.2-0.6c3.2,0,4.8,2.7,4.8,4.8c0,2.3-1.8,5.1-5.3,5.1
			c-2.8,0-4.9-1.7-5.3-4.2h2.9c0.3,1,1.3,1.7,2.3,1.7c1.4,0,2.5-1.1,2.5-2.5c0-1.3-1-2.5-2.5-2.5c-0.7,0-1.6,0.2-2.2,1.4l-2.3-0.6
			l1.3-7.8H243.8z"/>
	</g>
	<g>
		<path class="st2" d="M226.1,575.1v2.4h-5.3l-0.5,2.8c0.4-0.3,1-0.6,2.2-0.6c3.2,0,4.8,2.7,4.8,4.8c0,2.3-1.8,5.1-5.3,5.1
			c-2.8,0-4.9-1.7-5.3-4.2h2.9c0.3,1,1.3,1.7,2.3,1.7c1.4,0,2.5-1.1,2.5-2.5c0-1.3-1-2.5-2.5-2.5c-0.7,0-1.6,0.2-2.2,1.4l-2.3-0.6
			l1.3-7.8H226.1z"/>
		<path class="st2" d="M229.9,575.1h2.2l-1.9,4.4h-1.9L229.9,575.1z"/>
		<path class="st2" d="M240.7,586.8H234v-2.1l6.7-9.6h2.8v9.5h1.6v2.3h-1.6v2.6h-2.8V586.8z M240.8,584.5v-6l-3.9,6H240.8z"/>
	</g>
	<g>
		<path class="st2" d="M226.3,604.6v2.4H221l-0.5,2.8c0.4-0.3,1-0.6,2.2-0.6c3.2,0,4.8,2.7,4.8,4.8c0,2.3-1.8,5.1-5.3,5.1
			c-2.8,0-4.9-1.7-5.3-4.2h2.9c0.3,1,1.3,1.7,2.3,1.7c1.4,0,2.5-1.1,2.5-2.5c0-1.3-1-2.5-2.5-2.5c-0.7,0-1.6,0.2-2.2,1.4l-2.3-0.6
			l1.3-7.8H226.3z"/>
		<path class="st2" d="M230.1,604.6h2.2l-1.9,4.4h-1.9L230.1,604.6z"/>
		<path class="st2" d="M235.2,608.5c0.1-3.1,2.7-4.2,4.5-4.2c2.5,0,4.2,1.7,4.2,3.8c0,1.8-1.2,2.6-1.9,3c2.6,0.9,2.8,3,2.8,3.6
			c0,2.6-2.3,4.5-5.1,4.5c-1.6,0-3.3-0.6-4.2-1.9c-0.6-0.9-0.8-1.9-0.8-2.6h2.9c0.1,0.9,0.8,2,2.2,2c1.4,0,2.1-1,2.1-2.2
			c0-1.4-1.3-2.1-2.5-2.1h-1.2v-2.2h0.6c1,0,2.2-0.6,2.2-1.8c0-0.9-0.5-1.6-1.4-1.6c-1.2,0-1.5,1-1.6,1.6H235.2z"/>
	</g>
	<g>
		<path class="st2" d="M226.3,633.9v2.4H221l-0.5,2.8c0.4-0.3,1-0.6,2.2-0.6c3.2,0,4.8,2.7,4.8,4.8c0,2.3-1.8,5.1-5.3,5.1
			c-2.8,0-4.9-1.7-5.3-4.2h2.9c0.3,1,1.3,1.7,2.3,1.7c1.4,0,2.5-1.1,2.5-2.5c0-1.3-1-2.5-2.5-2.5c-0.7,0-1.6,0.2-2.2,1.4l-2.3-0.6
			l1.3-7.8H226.3z"/>
		<path class="st2" d="M230.1,633.9h2.2l-1.9,4.4h-1.9L230.1,633.9z"/>
		<path class="st2" d="M235,646c1.4-1.3,2.8-2.5,4.2-3.8c1.4-1.3,2.6-2.2,2.6-3.9c0-1.4-0.9-2.2-2.1-2.2c-1.4,0-2,1.3-2,2.7H235
			c0-1.1,0.2-2.3,1-3.4c1.1-1.6,3-1.9,4-1.9c3,0,4.7,2.1,4.7,4.4c0,1.7-0.6,2.9-2.3,4.5c-1.1,1.1-2.3,2.2-3.4,3.3h5.8v2.4H235V646z"
			/>
	</g>
	<g>
		<path class="st2" d="M228,663.1v2.4h-5.3l-0.5,2.8c0.4-0.3,1-0.6,2.2-0.6c3.2,0,4.8,2.7,4.8,4.8c0,2.3-1.8,5.1-5.3,5.1
			c-2.8,0-4.9-1.7-5.3-4.2h2.9c0.3,1,1.3,1.7,2.3,1.7c1.4,0,2.5-1.1,2.5-2.5c0-1.3-1-2.5-2.5-2.5c-0.7,0-1.6,0.2-2.2,1.4l-2.3-0.6
			l1.3-7.8H228z"/>
		<path class="st2" d="M231.7,663.1h2.2l-1.9,4.4h-1.9L231.7,663.1z"/>
		<path class="st2" d="M240.2,665.6h-2.6v-2.4h5.4v14.4h-2.9V665.6z"/>
	</g>
	<g>
		<path class="st2" d="M226.2,692.6v2.4h-5.3l-0.5,2.8c0.4-0.3,1-0.6,2.2-0.6c3.2,0,4.8,2.7,4.8,4.8c0,2.3-1.8,5.1-5.3,5.1
			c-2.8,0-4.9-1.7-5.3-4.2h2.9c0.3,1,1.3,1.7,2.3,1.7c1.4,0,2.5-1.1,2.5-2.5c0-1.3-1-2.5-2.5-2.5c-0.7,0-1.6,0.2-2.2,1.4l-2.3-0.6
			l1.3-7.8H226.2z"/>
		<path class="st2" d="M230,692.6h2.2l-1.9,4.4h-1.9L230,692.6z"/>
		<path class="st2" d="M234.6,697.6c0-4.2,3.4-5.3,5.2-5.3c2,0,5.1,1.4,5.1,5.2v4.4c0,3.9-3.1,5.2-5.1,5.2c-2,0-5.2-1.3-5.2-5.2
			V697.6z M237.5,702.1c0,1.3,0.7,2.6,2.3,2.6c1.6,0,2.3-1.5,2.3-2.6v-4.6c0-0.8-0.3-2.6-2.3-2.6c-1.6,0-2.2,1.4-2.2,2.6V702.1z"/>
	</g>
	<g>
		<path class="st2" d="M219.2,733.2h-6.6v-2.1l6.7-9.6h2.8v9.5h1.6v2.3H222v2.6h-2.8V733.2z M219.4,731v-6l-3.9,6H219.4z"/>
		<path class="st2" d="M226,721.5h2.2l-1.9,4.4h-1.9L226,721.5z"/>
		<path class="st2" d="M234.5,723.9H232v-2.4h5.4v14.4h-2.9V723.9z"/>
		<path class="st2" d="M246.2,723.9h-2.6v-2.4h5.4v14.4h-2.9V723.9z"/>
	</g>
	<g>
		<path class="st2" d="M217.5,762.6h-6.6v-2.1l6.7-9.6h2.8v9.5h1.6v2.3h-1.6v2.6h-2.8V762.6z M217.6,760.3v-6l-3.9,6H217.6z"/>
		<path class="st2" d="M224.3,750.8h2.2l-1.9,4.4h-1.9L224.3,750.8z"/>
		<path class="st2" d="M232.8,753.3h-2.6v-2.4h5.4v14.4h-2.9V753.3z"/>
		<path class="st2" d="M240.5,755.8c0-4.2,3.4-5.3,5.2-5.3c2,0,5.1,1.4,5.1,5.2v4.4c0,3.9-3.1,5.2-5.1,5.2c-2,0-5.2-1.3-5.2-5.2
			V755.8z M243.4,760.3c0,1.3,0.7,2.6,2.3,2.6c1.6,0,2.3-1.5,2.3-2.6v-4.6c0-0.8-0.3-2.6-2.3-2.6c-1.6,0-2.2,1.4-2.2,2.6V760.3z"/>
	</g>
	<g>
		<path class="st2" d="M356.5,693.5H354V691h5.4v14.4h-2.9V693.5z"/>
		<path class="st2" d="M368.2,693.5h-2.6V691h5.4v14.4h-2.9V693.5z"/>
		<path class="st2" d="M375.9,696c0-4.2,3.4-5.3,5.2-5.3c2,0,5.1,1.4,5.1,5.2v4.4c0,3.9-3.1,5.2-5.1,5.2c-2,0-5.2-1.3-5.2-5.2V696z
			 M378.8,700.5c0,1.3,0.7,2.6,2.3,2.6c1.6,0,2.3-1.5,2.3-2.6v-4.6c0-0.8-0.3-2.6-2.3-2.6c-1.6,0-2.2,1.4-2.2,2.6V700.5z"/>
		<path class="st2" d="M394.2,691h2.9v11.8h4.7v2.5h-7.6V691z"/>
		<path class="st2" d="M403.3,691h4.7c1.4,0,2.5,0.3,3.2,0.9c1,0.6,1.4,1.7,1.4,2.9c0,1.3-0.7,2.3-1.8,2.9c2.4,0.8,2.5,2.8,2.5,3.5
			c0,1.3-0.5,2.5-1.6,3.2c-1.1,0.9-2.1,1-4.1,1h-4.4V691z M406.2,696.8h1.6c0.4,0,0.9,0,1.2-0.2c0.6-0.3,0.8-0.8,0.8-1.4
			c0-0.7-0.4-1.2-0.8-1.4c-0.3-0.2-0.8-0.2-1.3-0.2h-1.6V696.8z M406.2,702.8h2c0.4,0,0.9,0,1.3-0.2c0.6-0.3,1-0.7,1-1.6
			c0-0.8-0.4-1.3-1-1.6c-0.5-0.2-1-0.2-1.5-0.2h-1.9V702.8z"/>
		<path class="st2" d="M417.4,700.9c0.1,1.9,1.4,2.3,2,2.3c1.1,0,2-0.9,2-1.9c0-1.2-1-1.5-3-2.3c-1.1-0.4-3.6-1.3-3.6-4
			c0-2.8,2.4-4.2,4.8-4.2c1.9,0,4.4,1,4.5,4.2h-2.9c-0.1-0.7-0.4-1.8-1.8-1.8c-1,0-1.8,0.7-1.8,1.6c0,1.1,0.8,1.3,3.2,2.3
			c2.2,1,3.4,2,3.4,4c0,2.3-1.4,4.5-4.8,4.5c-3.3,0-4.9-2-4.9-4.7H417.4z"/>
		<path class="st2" d="M428.9,705.4h-2.7v-2.9h2.7V705.4z"/>
	</g>
	<g>
		<path class="st2" d="M356.5,722.8H354v-2.4h5.4v14.4h-2.9V722.8z"/>
		<path class="st2" d="M368.2,722.8h-2.6v-2.4h5.4v14.4h-2.9V722.8z"/>
		<path class="st2" d="M385.2,720.4v2.4h-5.3l-0.5,2.8c0.4-0.3,1-0.6,2.2-0.6c3.2,0,4.8,2.7,4.8,4.8c0,2.3-1.8,5.1-5.3,5.1
			c-2.8,0-4.9-1.7-5.3-4.2h2.9c0.3,1,1.3,1.7,2.3,1.7c1.4,0,2.5-1.1,2.5-2.5c0-1.3-1-2.5-2.5-2.5c-0.7,0-1.6,0.2-2.2,1.4l-2.3-0.6
			l1.3-7.8H385.2z"/>
		<path class="st2" d="M394.2,720.4h2.9v11.8h4.7v2.5h-7.6V720.4z"/>
		<path class="st2" d="M403.3,720.4h4.7c1.4,0,2.5,0.3,3.2,0.9c1,0.6,1.4,1.7,1.4,2.9c0,1.3-0.7,2.3-1.8,2.9
			c2.4,0.8,2.5,2.8,2.5,3.5c0,1.3-0.5,2.5-1.6,3.2c-1.1,0.9-2.1,1-4.1,1h-4.4V720.4z M406.2,726.1h1.6c0.4,0,0.9,0,1.2-0.2
			c0.6-0.3,0.8-0.8,0.8-1.4c0-0.7-0.4-1.2-0.8-1.4c-0.3-0.2-0.8-0.2-1.3-0.2h-1.6V726.1z M406.2,732.2h2c0.4,0,0.9,0,1.3-0.2
			c0.6-0.3,1-0.7,1-1.6c0-0.8-0.4-1.3-1-1.6c-0.5-0.2-1-0.2-1.5-0.2h-1.9V732.2z"/>
		<path class="st2" d="M417.4,730.3c0.1,1.9,1.4,2.3,2,2.3c1.1,0,2-0.9,2-1.9c0-1.2-1-1.5-3-2.3c-1.1-0.4-3.6-1.3-3.6-4
			c0-2.8,2.4-4.2,4.8-4.2c1.9,0,4.4,1,4.5,4.2h-2.9c-0.1-0.7-0.4-1.8-1.8-1.8c-1,0-1.8,0.7-1.8,1.6c0,1.1,0.8,1.3,3.2,2.3
			c2.2,1,3.4,2,3.4,4c0,2.3-1.4,4.5-4.8,4.5c-3.3,0-4.9-2-4.9-4.7H417.4z"/>
		<path class="st2" d="M428.9,734.7h-2.7v-2.9h2.7V734.7z"/>
	</g>
	<g>
		<path class="st2" d="M356.5,752.2H354v-2.4h5.4v14.4h-2.9V752.2z"/>
		<path class="st2" d="M364.6,761.8c1.4-1.3,2.8-2.5,4.2-3.8c1.4-1.3,2.6-2.2,2.6-3.9c0-1.4-0.9-2.2-2.1-2.2c-1.4,0-2,1.3-2,2.7
			h-2.8c0-1.1,0.2-2.3,1-3.4c1.1-1.6,3-1.9,4-1.9c3,0,4.7,2.1,4.7,4.4c0,1.7-0.6,2.9-2.3,4.5c-1.1,1.1-2.3,2.2-3.4,3.3h5.8v2.4h-9.8
			V761.8z"/>
		<path class="st2" d="M375.9,754.8c0-4.2,3.4-5.3,5.2-5.3c2,0,5.1,1.4,5.1,5.2v4.4c0,3.9-3.1,5.2-5.1,5.2c-2,0-5.2-1.3-5.2-5.2
			V754.8z M378.8,759.2c0,1.3,0.7,2.6,2.3,2.6c1.6,0,2.3-1.5,2.3-2.6v-4.6c0-0.8-0.3-2.6-2.3-2.6c-1.6,0-2.2,1.4-2.2,2.6V759.2z"/>
		<path class="st2" d="M394.2,749.8h2.9v11.8h4.7v2.5h-7.6V749.8z"/>
		<path class="st2" d="M403.3,749.8h4.7c1.4,0,2.5,0.3,3.2,0.9c1,0.6,1.4,1.7,1.4,2.9c0,1.3-0.7,2.3-1.8,2.9
			c2.4,0.8,2.5,2.8,2.5,3.5c0,1.3-0.5,2.5-1.6,3.2c-1.1,0.9-2.1,1-4.1,1h-4.4V749.8z M406.2,755.5h1.6c0.4,0,0.9,0,1.2-0.2
			c0.6-0.3,0.8-0.8,0.8-1.4c0-0.7-0.4-1.2-0.8-1.4c-0.3-0.2-0.8-0.2-1.3-0.2h-1.6V755.5z M406.2,761.6h2c0.4,0,0.9,0,1.3-0.2
			c0.6-0.3,1-0.7,1-1.6c0-0.8-0.4-1.3-1-1.6c-0.5-0.2-1-0.2-1.5-0.2h-1.9V761.6z"/>
		<path class="st2" d="M417.4,759.7c0.1,1.9,1.4,2.3,2,2.3c1.1,0,2-0.9,2-1.9c0-1.2-1-1.5-3-2.3c-1.1-0.4-3.6-1.3-3.6-4
			c0-2.8,2.4-4.2,4.8-4.2c1.9,0,4.4,1,4.5,4.2h-2.9c-0.1-0.7-0.4-1.8-1.8-1.8c-1,0-1.8,0.7-1.8,1.6c0,1.1,0.8,1.3,3.2,2.3
			c2.2,1,3.4,2,3.4,4c0,2.3-1.4,4.5-4.8,4.5c-3.3,0-4.9-2-4.9-4.7H417.4z"/>
		<path class="st2" d="M428.9,764.1h-2.7v-2.9h2.7V764.1z"/>
	</g>
	<g>
		<path class="st2" d="M341.5,529.9h-2.7l5.1-12.6h2.2l5,12.6h-2.8l-0.9-2.5h-5L341.5,529.9z M344.9,520.4l-1.8,5.1h3.6L344.9,520.4
			z"/>
		<path class="st2" d="M360.4,526.1l-0.1-8.7h2.4v12.6h-2.2l-5.8-8.7l0.1,8.7h-2.4v-12.6h2.3L360.4,526.1z"/>
		<path class="st2" d="M368,525.4l-3.9-8.1h2.7l2.4,5.7l2.4-5.7h2.7l-3.8,8.1v4.5H368V525.4z"/>
		<path class="st2" d="M379.3,517.4h2.6l2.1,9.1l2.2-9.1h1.9l2.2,9.1l2.1-9.1h2.6l-3.4,12.6h-2.3l-2.2-8.9l-2.2,8.9h-2.3
			L379.3,517.4z"/>
		<path class="st2" d="M396.5,517.4h7v2.2H399v2.9h4.4v2.2H399v3h4.5v2.2h-7V517.4z"/>
		<path class="st2" d="M405.5,517.4h2.5v12.6h-2.5V517.4z"/>
		<path class="st2" d="M419.8,521.2c-0.3-0.4-0.6-0.7-0.9-1c-0.6-0.5-1.4-0.8-2.4-0.8c-2,0-4.1,1.5-4.1,4.3c0,2.8,2.1,4.3,4.1,4.3
			c1,0,1.8-0.3,2.5-0.8c0.7-0.5,1.1-1.2,1.3-1.9h-4.7v-2h7.6c0,0.8-0.1,2.1-0.6,3.2c-1.2,2.6-3.9,3.8-6.1,3.8
			c-3.7,0-6.6-2.9-6.6-6.5c0-3.8,3-6.5,6.7-6.5c2.8,0,5.3,1.8,6.1,4.1H419.8z"/>
		<path class="st2" d="M424.9,529.9v-12.6h2.5v5h4.8v-5h2.5v12.6h-2.5v-5.3h-4.8v5.3H424.9z"/>
		<path class="st2" d="M438.8,519.6h-2.7v-2.2h7.9v2.2h-2.7v10.3h-2.5V519.6z"/>
	</g>
	<g>
		<path class="st2" d="M341.5,559.3h-2.7l5.1-12.6h2.2l5,12.6h-2.8l-0.9-2.5h-5L341.5,559.3z M344.9,549.8l-1.8,5.1h3.6L344.9,549.8
			z"/>
		<path class="st2" d="M360.4,555.5l-0.1-8.7h2.4v12.6h-2.2l-5.8-8.7l0.1,8.7h-2.4v-12.6h2.3L360.4,555.5z"/>
		<path class="st2" d="M368,554.8l-3.9-8.1h2.7l2.4,5.7l2.4-5.7h2.7l-3.8,8.1v4.5H368V554.8z"/>
		<path class="st2" d="M379.3,546.8h2.6l2.1,9.1l2.2-9.1h1.9l2.2,9.1l2.1-9.1h2.6l-3.4,12.6h-2.3l-2.2-8.9l-2.2,8.9h-2.3
			L379.3,546.8z"/>
		<path class="st2" d="M396.5,546.8h7v2.2H399v2.9h4.4v2.2H399v3h4.5v2.2h-7V546.8z"/>
		<path class="st2" d="M405.5,546.8h2.5v12.6h-2.5V546.8z"/>
		<path class="st2" d="M419.8,550.6c-0.3-0.4-0.6-0.7-0.9-1c-0.6-0.5-1.4-0.8-2.4-0.8c-2,0-4.1,1.5-4.1,4.3c0,2.8,2.1,4.3,4.1,4.3
			c1,0,1.8-0.3,2.5-0.8c0.7-0.5,1.1-1.2,1.3-1.9h-4.7v-2h7.6c0,0.8-0.1,2.1-0.6,3.2c-1.2,2.6-3.9,3.8-6.1,3.8
			c-3.7,0-6.6-2.9-6.6-6.5c0-3.8,3-6.5,6.7-6.5c2.8,0,5.3,1.8,6.1,4.1H419.8z"/>
		<path class="st2" d="M424.9,559.3v-12.6h2.5v5h4.8v-5h2.5v12.6h-2.5V554h-4.8v5.3H424.9z"/>
		<path class="st2" d="M438.8,549h-2.7v-2.2h7.9v2.2h-2.7v10.3h-2.5V549z"/>
	</g>
	<g>
		<path class="st2" d="M341.5,588.8h-2.7l5.1-12.6h2.2l5,12.6h-2.8l-0.9-2.5h-5L341.5,588.8z M344.9,579.2l-1.8,5.1h3.6L344.9,579.2
			z"/>
		<path class="st2" d="M360.4,584.9l-0.1-8.7h2.4v12.6h-2.2l-5.8-8.7l0.1,8.7h-2.4v-12.6h2.3L360.4,584.9z"/>
		<path class="st2" d="M368,584.3l-3.9-8.1h2.7l2.4,5.7l2.4-5.7h2.7l-3.8,8.1v4.5H368V584.3z"/>
		<path class="st2" d="M379.3,576.2h2.6l2.1,9.1l2.2-9.1h1.9l2.2,9.1l2.1-9.1h2.6l-3.4,12.6h-2.3l-2.2-8.9l-2.2,8.9h-2.3
			L379.3,576.2z"/>
		<path class="st2" d="M396.5,576.2h7v2.2H399v2.9h4.4v2.2H399v3h4.5v2.2h-7V576.2z"/>
		<path class="st2" d="M405.5,576.2h2.5v12.6h-2.5V576.2z"/>
		<path class="st2" d="M419.8,580.1c-0.3-0.4-0.6-0.7-0.9-1c-0.6-0.5-1.4-0.8-2.4-0.8c-2,0-4.1,1.5-4.1,4.3c0,2.8,2.1,4.3,4.1,4.3
			c1,0,1.8-0.3,2.5-0.8c0.7-0.5,1.1-1.2,1.3-1.9h-4.7v-2h7.6c0,0.8-0.1,2.1-0.6,3.2c-1.2,2.6-3.9,3.8-6.1,3.8
			c-3.7,0-6.6-2.9-6.6-6.5c0-3.8,3-6.5,6.7-6.5c2.8,0,5.3,1.8,6.1,4.1H419.8z"/>
		<path class="st2" d="M424.9,588.8v-12.6h2.5v5h4.8v-5h2.5v12.6h-2.5v-5.3h-4.8v5.3H424.9z"/>
		<path class="st2" d="M438.8,578.4h-2.7v-2.2h7.9v2.2h-2.7v10.3h-2.5V578.4z"/>
	</g>
	<g>
		<path class="st2" d="M341.5,618.2h-2.7l5.1-12.6h2.2l5,12.6h-2.8l-0.9-2.5h-5L341.5,618.2z M344.9,608.6l-1.8,5.1h3.6L344.9,608.6
			z"/>
		<path class="st2" d="M360.4,614.3l-0.1-8.7h2.4v12.6h-2.2l-5.8-8.7l0.1,8.7h-2.4v-12.6h2.3L360.4,614.3z"/>
		<path class="st2" d="M368,613.7l-3.9-8.1h2.7l2.4,5.7l2.4-5.7h2.7l-3.8,8.1v4.5H368V613.7z"/>
		<path class="st2" d="M379.3,605.6h2.6l2.1,9.1l2.2-9.1h1.9l2.2,9.1l2.1-9.1h2.6l-3.4,12.6h-2.3l-2.2-8.9l-2.2,8.9h-2.3
			L379.3,605.6z"/>
		<path class="st2" d="M396.5,605.6h7v2.2H399v2.9h4.4v2.2H399v3h4.5v2.2h-7V605.6z"/>
		<path class="st2" d="M405.5,605.6h2.5v12.6h-2.5V605.6z"/>
		<path class="st2" d="M419.8,609.5c-0.3-0.4-0.6-0.7-0.9-1c-0.6-0.5-1.4-0.8-2.4-0.8c-2,0-4.1,1.5-4.1,4.3c0,2.8,2.1,4.3,4.1,4.3
			c1,0,1.8-0.3,2.5-0.8c0.7-0.5,1.1-1.2,1.3-1.9h-4.7v-2h7.6c0,0.8-0.1,2.1-0.6,3.2c-1.2,2.6-3.9,3.8-6.1,3.8
			c-3.7,0-6.6-2.9-6.6-6.5c0-3.8,3-6.5,6.7-6.5c2.8,0,5.3,1.8,6.1,4.1H419.8z"/>
		<path class="st2" d="M424.9,618.2v-12.6h2.5v5h4.8v-5h2.5v12.6h-2.5v-5.3h-4.8v5.3H424.9z"/>
		<path class="st2" d="M438.8,607.8h-2.7v-2.2h7.9v2.2h-2.7v10.3h-2.5V607.8z"/>
	</g>
	<g>
		<path class="st2" d="M341.5,647.6h-2.7l5.1-12.6h2.2l5,12.6h-2.8l-0.9-2.5h-5L341.5,647.6z M344.9,638l-1.8,5.1h3.6L344.9,638z"/>
		<path class="st2" d="M360.4,643.7l-0.1-8.7h2.4v12.6h-2.2l-5.8-8.7l0.1,8.7h-2.4V635h2.3L360.4,643.7z"/>
		<path class="st2" d="M368,643.1l-3.9-8.1h2.7l2.4,5.7l2.4-5.7h2.7l-3.8,8.1v4.5H368V643.1z"/>
		<path class="st2" d="M379.3,635h2.6l2.1,9.1l2.2-9.1h1.9l2.2,9.1l2.1-9.1h2.6l-3.4,12.6h-2.3l-2.2-8.9l-2.2,8.9h-2.3L379.3,635z"
			/>
		<path class="st2" d="M396.5,635h7v2.2H399v2.9h4.4v2.2H399v3h4.5v2.2h-7V635z"/>
		<path class="st2" d="M405.5,635h2.5v12.6h-2.5V635z"/>
		<path class="st2" d="M419.8,638.9c-0.3-0.4-0.6-0.7-0.9-1c-0.6-0.5-1.4-0.8-2.4-0.8c-2,0-4.1,1.5-4.1,4.3c0,2.8,2.1,4.3,4.1,4.3
			c1,0,1.8-0.3,2.5-0.8c0.7-0.5,1.1-1.2,1.3-1.9h-4.7v-2h7.6c0,0.8-0.1,2.1-0.6,3.2c-1.2,2.6-3.9,3.8-6.1,3.8
			c-3.7,0-6.6-2.9-6.6-6.5c0-3.8,3-6.5,6.7-6.5c2.8,0,5.3,1.8,6.1,4.1H419.8z"/>
		<path class="st2" d="M424.9,647.6V635h2.5v5h4.8v-5h2.5v12.6h-2.5v-5.3h-4.8v5.3H424.9z"/>
		<path class="st2" d="M438.8,637.3h-2.7V635h7.9v2.2h-2.7v10.3h-2.5V637.3z"/>
	</g>
	<g>
		<path class="st2" d="M341.5,677h-2.7l5.1-12.6h2.2l5,12.6h-2.8l-0.9-2.5h-5L341.5,677z M344.9,667.4l-1.8,5.1h3.6L344.9,667.4z"/>
		<path class="st2" d="M360.4,673.2l-0.1-8.7h2.4V677h-2.2l-5.8-8.7l0.1,8.7h-2.4v-12.6h2.3L360.4,673.2z"/>
		<path class="st2" d="M368,672.5l-3.9-8.1h2.7l2.4,5.7l2.4-5.7h2.7l-3.8,8.1v4.5H368V672.5z"/>
		<path class="st2" d="M379.3,664.5h2.6l2.1,9.1l2.2-9.1h1.9l2.2,9.1l2.1-9.1h2.6l-3.4,12.6h-2.3l-2.2-8.9l-2.2,8.9h-2.3
			L379.3,664.5z"/>
		<path class="st2" d="M396.5,664.5h7v2.2H399v2.9h4.4v2.2H399v3h4.5v2.2h-7V664.5z"/>
		<path class="st2" d="M405.5,664.5h2.5V677h-2.5V664.5z"/>
		<path class="st2" d="M419.8,668.3c-0.3-0.4-0.6-0.7-0.9-1c-0.6-0.5-1.4-0.8-2.4-0.8c-2,0-4.1,1.5-4.1,4.3c0,2.8,2.1,4.3,4.1,4.3
			c1,0,1.8-0.3,2.5-0.8c0.7-0.5,1.1-1.2,1.3-1.9h-4.7v-2h7.6c0,0.8-0.1,2.1-0.6,3.2c-1.2,2.6-3.9,3.8-6.1,3.8
			c-3.7,0-6.6-2.9-6.6-6.5c0-3.8,3-6.5,6.7-6.5c2.8,0,5.3,1.8,6.1,4.1H419.8z"/>
		<path class="st2" d="M424.9,677v-12.6h2.5v5h4.8v-5h2.5V677h-2.5v-5.3h-4.8v5.3H424.9z"/>
		<path class="st2" d="M438.8,666.7h-2.7v-2.2h7.9v2.2h-2.7V677h-2.5V666.7z"/>
	</g>
	<g>
		<path class="st3" d="M172.6,478.3h2.9v14.4h-2.9V478.3z"/>
		<path class="st3" d="M178.2,478.3h7.6v2.5h-4.7v3.4h4.6v2.5h-4.6v5.8h-2.9V478.3z"/>
		<path class="st3" d="M195,487.5l-4.4-9.2h3.1l2.7,6.5l2.7-6.5h3.1l-4.4,9.2v5.1H195V487.5z"/>
		<path class="st3" d="M202.1,485.6c0-4.6,3.5-7.6,7.5-7.6c4.3,0,7.5,3.4,7.5,7.4c0,4.1-3.2,7.4-7.6,7.4
			C205.2,492.9,202.1,489.5,202.1,485.6L202.1,485.6z M205,485.5c0,2.6,1.9,4.9,4.7,4.9c2.9,0,4.6-2.5,4.6-4.9
			c0-2.4-1.7-4.9-4.6-4.9C206.8,480.6,205,483,205,485.5L205,485.5z"/>
		<path class="st3" d="M222.1,478.3v8.8c0,0.7,0,1.5,0.4,2.2c0.3,0.6,1,1.1,1.9,1.1c1,0,1.6-0.4,1.9-1c0.4-0.7,0.4-1.5,0.4-2.2v-8.8
			h2.9v8.8c0,2.1-0.4,3.4-1.5,4.4c-0.9,0.8-2.1,1.4-3.7,1.4c-1,0-2.7-0.3-3.7-1.4c-1.3-1.3-1.5-2.5-1.5-4.4v-8.8H222.1z"/>
		<path class="st3" d="M239.4,492.7h-3.1l5.8-14.4h2.5l5.7,14.4h-3.2l-1-2.8h-5.7L239.4,492.7z M243.2,481.7l-2,5.8h4.1L243.2,481.7
			z"/>
		<path class="st3" d="M251.7,478.3h4.3c2.2,0,3.5,0.3,4.3,0.9c1.2,0.9,1.8,2.3,1.8,3.9c0,1-0.3,2-0.8,2.7c-0.6,0.9-1.4,1.3-2.4,1.6
			l3.2,5.3h-3l-3.9-6.7h0.6c1,0,2-0.1,2.6-0.5c0.6-0.5,0.9-1.2,0.9-2.1c0-0.9-0.4-1.7-1.1-2.1c-0.5-0.3-1.2-0.4-2-0.4h-1.7v11.8
			h-2.9V478.3z"/>
		<path class="st3" d="M264,478.3h8v2.5h-5.2v3.3h5.1v2.5h-5.1v3.5h5.2v2.5h-8V478.3z"/>
		<path class="st3" d="M277.3,492.7h-2.7v-2.9h2.7V492.7z"/>
		<path class="st3" d="M283.2,492.7h-2.7v-2.9h2.7V492.7z"/>
		<path class="st3" d="M289.1,492.7h-2.7v-2.9h2.7V492.7z"/>
	</g>
	<g>
		<path class="st3" d="M325.2,487.5l-4.4-9.2h3.1l2.7,6.5l2.7-6.5h3.1l-4.4,9.2v5.1h-2.9V487.5z"/>
		<path class="st3" d="M332.3,485.6c0-4.6,3.5-7.6,7.5-7.6c4.3,0,7.5,3.4,7.5,7.4c0,4.1-3.2,7.4-7.6,7.4
			C335.4,492.9,332.3,489.5,332.3,485.6L332.3,485.6z M335.2,485.5c0,2.6,1.9,4.9,4.7,4.9c2.9,0,4.6-2.5,4.6-4.9
			c0-2.4-1.7-4.9-4.6-4.9C337,480.6,335.2,483,335.2,485.5L335.2,485.5z"/>
		<path class="st3" d="M352.3,478.3v8.8c0,0.7,0,1.5,0.4,2.2c0.3,0.6,1,1.1,1.9,1.1c1,0,1.6-0.4,1.9-1c0.4-0.7,0.4-1.5,0.4-2.2v-8.8
			h2.9v8.8c0,2.1-0.4,3.4-1.5,4.4c-0.9,0.8-2.1,1.4-3.7,1.4c-1,0-2.7-0.3-3.7-1.4c-1.3-1.3-1.5-2.5-1.5-4.4v-8.8H352.3z"/>
		<path class="st3" d="M368.4,492.7v-14.4h3.9l3.7,10.3l3.6-10.3h3.9v14.4h-2.7l0.1-11.5l-4,11.5H375l-4-11.5l0.1,11.5H368.4z"/>
		<path class="st3" d="M389.1,478.3v8.8c0,0.7,0,1.5,0.4,2.2c0.3,0.6,1,1.1,1.9,1.1c1,0,1.6-0.4,1.9-1c0.4-0.7,0.4-1.5,0.4-2.2v-8.8
			h2.9v8.8c0,2.1-0.4,3.4-1.5,4.4c-0.9,0.8-2.1,1.4-3.7,1.4c-1,0-2.7-0.3-3.7-1.4c-1.3-1.3-1.5-2.5-1.5-4.4v-8.8H389.1z"/>
		<path class="st3" d="M401.4,488.2c0.1,1.9,1.4,2.3,2,2.3c1.1,0,2-0.9,2-1.9c0-1.2-1-1.5-3-2.3c-1.1-0.4-3.6-1.3-3.6-4
			c0-2.8,2.4-4.2,4.8-4.2c1.9,0,4.4,1,4.5,4.2h-2.9c-0.1-0.7-0.4-1.8-1.8-1.8c-1,0-1.8,0.7-1.8,1.6c0,1.1,0.8,1.3,3.2,2.3
			c2.2,1,3.4,2,3.4,4c0,2.3-1.4,4.5-4.8,4.5c-3.3,0-4.9-2-4.9-4.7H401.4z"/>
		<path class="st3" d="M412.1,480.9H409v-2.5h9.1v2.5H415v11.8h-2.9V480.9z"/>
		<path class="st3" d="M425.4,478.3h4.7c1.4,0,2.5,0.3,3.2,0.9c1,0.6,1.4,1.7,1.4,2.9c0,1.3-0.7,2.3-1.8,2.9
			c2.4,0.8,2.5,2.8,2.5,3.5c0,1.3-0.5,2.5-1.6,3.2c-1.1,0.9-2.1,1-4.1,1h-4.4V478.3z M428.3,484.1h1.6c0.4,0,0.9,0,1.2-0.2
			c0.6-0.3,0.8-0.8,0.8-1.4c0-0.7-0.4-1.2-0.8-1.4c-0.3-0.2-0.8-0.2-1.3-0.2h-1.6V484.1z M428.3,490.1h2c0.4,0,0.9,0,1.3-0.2
			c0.6-0.3,1-0.7,1-1.6c0-0.8-0.4-1.3-1-1.6c-0.5-0.2-1-0.2-1.5-0.2h-1.9V490.1z"/>
		<path class="st3" d="M437.4,478.3h8v2.5h-5.2v3.3h5.1v2.5h-5.1v3.5h5.2v2.5h-8V478.3z"/>
		<path class="st3" d="M450.7,492.7H448v-2.9h2.7V492.7z"/>
		<path class="st3" d="M456.6,492.7H454v-2.9h2.7V492.7z"/>
		<path class="st3" d="M462.5,492.7h-2.7v-2.9h2.7V492.7z"/>
	</g>
	<g>
		<rect x="161" y="509" class="st5" width="301.5" height="29.4"/>
		<rect x="161" y="567.7" class="st5" width="301.5" height="29.4"/>
		<rect x="161" y="626.4" class="st5" width="301.5" height="29.4"/>
		<rect x="161" y="685.1" class="st5" width="301.5" height="29.4"/>
		<rect x="161" y="743.3" class="st5" width="301.5" height="29.4"/>
	</g>
	<path class="st14" d="M462.1,393c0,2-0.1,4-0.4,5.9c-2.9,21.8-21.6,38.6-44.2,38.6c-22.6,0-41.3-16.8-44.2-38.6
		c-0.3-1.9-0.4-3.9-0.4-5.9c0-1.1,0-2.2,0.1-3.3c1.5-20,16.2-36.3,35.4-40.3l1.7-0.3c2.4-0.4,4.9-0.6,7.4-0.6
		c21.9,0,40.1,15.8,43.9,36.6C461.8,387.7,462.1,390.3,462.1,393z"/>
	<g>
		<circle class="st15" cx="394.9" cy="414.6" r="7"/>
		<circle class="st15" cx="440.1" cy="414.6" r="7"/>
	</g>
	<g>
		<circle class="st3" cx="402.1" cy="400.5" r="2.2"/>
		<circle class="st3" cx="432.9" cy="400.5" r="2.2"/>
	</g>
	<path class="st16" d="M462.1,393c0,2-0.1,4-0.4,5.9c-1.1-4.1-5.2-15.6-6.4-18.9c-1.4-4.1-70.8-5.2-74.7,0c-3.1,4.2-6.2,15-7.3,18.9
		c-0.3-1.9-0.4-3.9-0.4-5.9c0-1.1,0-2.2,0.1-3.3c1.5-20,16.2-36.3,35.4-40.3l1.7-0.3c2.4-0.4,4.9-0.6,7.4-0.6
		c21.9,0,40.1,15.8,43.9,36.6C461.8,387.7,462.1,390.3,462.1,393z"/>
	<path class="st17" d="M356.3,393c0,2-0.1,4-0.4,5.9c-2.9,21.8-21.6,38.6-44.2,38.6s-41.3-16.8-44.2-38.6c-0.3-1.9-0.4-3.9-0.4-5.9
		c0-1.1,0-2.2,0.1-3.3c1.5-20,16.2-36.3,35.4-40.3l1.7-0.3c2.4-0.4,4.9-0.6,7.4-0.6c21.9,0,40.1,15.8,43.9,36.6
		C356.1,387.7,356.3,390.3,356.3,393z"/>
	<circle class="st15" cx="289.2" cy="414.6" r="7"/>
	<circle class="st15" cx="334.3" cy="414.6" r="7"/>
	<circle class="st3" cx="296.3" cy="400.5" r="2.2"/>
	<circle class="st3" cx="327.2" cy="400.5" r="2.2"/>
	<path class="st18" d="M356.3,393c0,2-0.1,4-0.4,5.9c-1.1-4.1-5.2-15.6-6.4-18.9c-1.4-4.1-70.8-5.2-74.7,0c-3.1,4.2-6.2,15-7.3,18.9
		c-0.3-1.9-0.4-3.9-0.4-5.9c0-1.1,0-2.2,0.1-3.3c1.5-20,16.2-36.3,35.4-40.3l1.7-0.3c2.4-0.4,4.9-0.6,7.4-0.6
		c21.9,0,40.1,15.8,43.9,36.6C356.1,387.7,356.3,390.3,356.3,393z"/>
	<path class="st19" d="M250.6,393c0,2-0.1,4-0.4,5.9c-2.9,21.8-21.6,38.6-44.2,38.6s-41.3-16.8-44.2-38.6c-0.3-1.9-0.4-3.9-0.4-5.9
		c0-1.1,0-2.2,0.1-3.3c1.5-20,16.2-36.3,35.4-40.3l1.7-0.3c2.4-0.4,4.9-0.6,7.4-0.6c21.9,0,40.1,15.8,43.9,36.6
		C250.3,387.7,250.6,390.3,250.6,393z"/>
	<g>
		<circle class="st20" cx="183.4" cy="414.6" r="7"/>
		<circle class="st20" cx="228.6" cy="414.6" r="7"/>
	</g>
	<g>
		<circle class="st3" cx="190.6" cy="400.5" r="2.2"/>
		<circle class="st3" cx="221.4" cy="400.5" r="2.2"/>
	</g>
	<path class="st21" d="M250.6,393c0,2-0.1,4-0.4,5.9c-1.1-4.1-5.2-15.6-6.4-18.9c-1.4-4.1-70.8-5.2-74.7,0c-3.1,4.2-6.2,15-7.3,18.9
		c-0.3-1.9-0.4-3.9-0.4-5.9c0-1.1,0-2.2,0.1-3.3c1.5-20,16.2-36.3,35.4-40.3l1.7-0.3c2.4-0.4,4.9-0.6,7.4-0.6
		c21.9,0,40.1,15.8,43.9,36.6C250.3,387.7,250.6,390.3,250.6,393z"/>
	<path class="st21" d="M173,365.2c0,0,15.2-24.1,57.5-16c0,0,7.2,0.4,7.1-4.1c0,0,14.2,20.2-7.1,26.8
		C209.2,378.5,173,365.2,173,365.2z"/>
	<path class="st16" d="M382,378c0,0,49.5-4.5,52.7,10.7c0,0,2.4-1-0.1-11.9c0,0,15.4,5.2,14.4,18c0,0,11.5-13.5,2.3-21.3
		C451.2,373.5,391.3,368.5,382,378z"/>
	<g>
		<g>
			<polygon class="st22" points="190.4,330.6 200.6,306.2 190.4,281.7 221.3,281.7 221.3,316 246.7,330.6 			"/>
			<polygon class="st22" points="422.9,306.2 433.1,330.6 376.8,330.6 402.2,316 402.2,281.7 433.1,281.7 			"/>
			<rect x="221.3" y="267.1" class="st0" width="180.8" height="48.9"/>
			<polygon class="st23" points="402.2,316 376.8,330.6 376.8,316 			"/>
			<polygon class="st23" points="246.7,316 246.7,330.6 221.3,316 			"/>
			<g>
				<path class="st2" d="M277.7,301.5v-19.8h5.4l5.1,14.2l5-14.2h5.4v19.8h-3.7l0.1-15.9l-5.5,15.9h-2.6l-5.6-15.9l0.1,15.9H277.7z"
					/>
				<path class="st2" d="M305,301.5h-4.3l8-19.8h3.5l7.8,19.8h-4.4l-1.4-3.9h-7.8L305,301.5z M310.3,286.4l-2.8,8h5.7L310.3,286.4z"
					/>
				<path class="st2" d="M322.2,281.7h4V298h6.5v3.5h-10.5V281.7z"/>
				<path class="st2" d="M334.7,281.7h11.1v3.5h-7.1v4.5h7v3.5h-7v4.8h7.1v3.5h-11.1V281.7z"/>
			</g>
		</g>
		<g>
			<polygon class="st22" points="563.4,330.6 573.5,306.2 563.4,281.7 594.3,281.7 594.3,316 619.6,330.6 			"/>
			<polygon class="st22" points="795.8,306.2 806,330.6 749.7,330.6 775.1,316 775.1,281.7 806,281.7 			"/>
			<rect x="594.3" y="267.1" class="st0" width="180.8" height="48.9"/>
			<polygon class="st23" points="775.1,316 749.7,330.6 749.7,316 			"/>
			<polygon class="st23" points="619.6,316 619.6,330.6 594.3,316 			"/>
			<g>
				<path class="st2" d="M640.5,282.4h9.7v3.2h-6v4.4h5.9v3.2h-5.9v7.4h-3.7V282.4z"/>
				<path class="st2" d="M652.8,282.4h10.2v3.2h-6.6v4.1h6.4v3.2h-6.4v4.4h6.6v3.2h-10.2V282.4z"/>
				<path class="st2" d="M666,300.7v-18.3h5l4.7,13.1l4.6-13.1h5v18.3h-3.4l0.1-14.6l-5.1,14.6h-2.4l-5.1-14.6l0.1,14.6H666z"/>
				<path class="st2" d="M691.2,300.7h-4l7.4-18.3h3.2l7.2,18.3h-4l-1.3-3.6h-7.2L691.2,300.7z M696,286.8l-2.6,7.4h5.3L696,286.8z"
					/>
				<path class="st2" d="M707,282.4h3.7v15h6v3.2H707V282.4z"/>
				<path class="st2" d="M718.6,282.4h10.2v3.2h-6.6v4.1h6.4v3.2h-6.4v4.4h6.6v3.2h-10.2V282.4z"/>
			</g>
		</g>
	</g>
</g>
</svg>
