<?xml version="1.0" encoding="utf-8"?>
<!-- Generator: Adobe Illustrator 19.1.0, SVG Export Plug-In . SVG Version: 6.00 Build 0)  -->
<svg version="1.1" id="Layer_1" xmlns="http://www.w3.org/2000/svg" xmlns:xlink="http://www.w3.org/1999/xlink" x="0px" y="0px"
	 viewBox="0 0 1000 1000" style="enable-background:new 0 0 1000 1000;" xml:space="preserve">
<style type="text/css">
	.st0{fill:#E2F3F6;}
	.st1{fill:#171413;}
	.st2{fill:#DFA973;}
	.st3{opacity:0.38;fill:#EE6B6C;}
	.st4{fill:#231F20;}
	.st5{fill:#F9CDB2;}
	.st6{opacity:0.38;fill:#D84445;}
	.st7{fill:#C06C32;}
</style>
<rect class="st0" width="1000" height="1000"/>
<g>
	<g>
		<rect x="571" y="473.9" class="st1" width="401.1" height="238.3"/>
		<path class="st1" d="M972,473.9H571c6.6-90.3,72.9-164,159.6-181.9l7.7-1.4c10.8-1.8,21.9-2.7,33.3-2.7
			c98.8,0,181,71.3,197.9,165.2C970.7,459.9,971.6,466.8,972,473.9z"/>
		<path class="st1" d="M959.3,473.9H583.7c6.2-84.5,68.3-153.6,149.4-170.4l7.2-1.4c10.1-1.7,20.5-2.5,31.2-2.5
			c92.5,0,169.5,66.7,185.4,154.7C958,460.8,958.9,467.3,959.3,473.9z"/>
		<path class="st2" d="M959.3,473.9H939c-4-13-12.1-35.9-20.9-41c0,0,8.8,22.8,10.9,41H613.8c2.1-18.2,10.9-41,10.9-41
			c-8.8,5.1-16.9,28-20.9,41h-20.1c-0.3,4.6-0.5,9.3-0.5,14c0,104,84.3,188.4,188.4,188.4c104,0,188.3-84.3,188.3-188.4
			C959.9,483.2,959.7,478.5,959.3,473.9z"/>
		<g>
			<circle class="st3" cx="676" cy="579.1" r="29.8"/>
			<circle class="st3" cx="867" cy="579.1" r="29.8"/>
		</g>
		<g>
			<circle class="st4" cx="706.4" cy="519.4" r="9.4"/>
			<circle class="st4" cx="836.7" cy="519.4" r="9.4"/>
		</g>
	</g>
	<g>
		<path class="st5" d="M455.1,508c0,9.7-0.6,19.2-1.9,28.5C439.3,641,349.8,721.6,241.5,721.6S43.8,641,29.9,536.5
			c-1.3-9.3-1.9-18.8-1.9-28.5c0-5.3,0.2-10.7,0.5-15.9c7-95.9,77.5-174.2,169.5-193.2l8.1-1.5c11.5-1.9,23.3-2.9,35.4-2.9
			c105,0,192.2,75.7,210.2,175.5C454,482.3,455.1,495,455.1,508z"/>
		<g>
			<circle class="st6" cx="133.2" cy="611.4" r="33.8"/>
			<circle class="st6" cx="349.8" cy="611.4" r="33.8"/>
		</g>
		<g>
			<circle class="st4" cx="167.6" cy="543.7" r="10.6"/>
			<circle class="st4" cx="315.4" cy="543.7" r="10.6"/>
		</g>
		<path class="st7" d="M455.1,508c0,9.7-0.6,19.2-1.9,28.5c-5.4-19.8-24.9-74.8-30.5-90.7c-6.9-19.4-339.6-25.2-357.9,0
			c-14.8,20.3-29.7,71.7-34.9,90.7c-1.3-9.3-1.9-18.8-1.9-28.5c0-5.3,0.2-10.7,0.5-15.9c7-95.9,77.5-174.2,169.5-193.2l8.1-1.5
			c11.5-1.9,23.3-2.9,35.4-2.9c105,0,192.2,75.7,210.2,175.5C454,482.3,455.1,495,455.1,508z"/>
		<path class="st7" d="M83.3,374.8c0,0,73-115.4,275.6-76.8c0,0,34.6,1.8,34-19.6c0,0,67.9,97-34,128.4S83.3,374.8,83.3,374.8z"/>
	</g>
</g>
</svg>
