<?xml version="1.0" encoding="utf-8"?>
<!-- Generator: Adobe Illustrator 19.1.0, SVG Export Plug-In . SVG Version: 6.00 Build 0)  -->
<svg version="1.1" id="Layer_1" xmlns="http://www.w3.org/2000/svg" xmlns:xlink="http://www.w3.org/1999/xlink" x="0px" y="0px"
	 viewBox="0 0 1000 1000" style="enable-background:new 0 0 1000 1000;" xml:space="preserve">
<style type="text/css">
	.st0{fill:#E2F3F8;}
	.st1{fill:#F19290;}
	.st2{fill:#FFFFFF;}
	.st3{fill:#CDAE8F;}
	.st4{fill:#C5C7C9;}
	.st5{fill:#ECE2DA;}
	.st6{fill:#AC8063;}
	.st7{fill:#876249;}
	.st8{fill:#231F20;}
	.st9{fill:#F3E6DB;}
	.st10{fill:#FFF4ED;}
	.st11{fill:#424142;}
	.st12{fill:#D3A079;}
	.st13{fill:#F1DAC0;}
	.st14{fill:#E4BB9B;}
	.st15{fill:#DF7575;}
	.st16{fill:#EAD0CF;}
	.st17{fill:#FFFCF9;}
	.st18{fill:#434044;}
	.st19{fill:#FCFDFF;}
	.st20{fill:#DE4A52;}
	.st21{fill:#EC9C9C;}
	.st22{fill:#F8B6B6;}
	.st23{fill:#EE7A7B;}
	.st24{fill:#FCE1DC;}
	.st25{fill:#7B5F48;}
</style>
<rect class="st0" width="1000" height="1000"/>
<path class="st1" d="M576.4,750.9c-1.2,13.5-4,26-8.7,36.9c-3.1,7.1-7,12.8-11.8,16.9l-0.1,0.1c-4.3,4-9.2,6.7-15,8.5l-9.6,5.4
	c-2.3-0.8-4.5-1.9-6.6-3.1c-12.7-6.8-20.9-17.7-20.9-29.9c0-4.5,1.1-8.8,3.2-12.8c7.3-14.5,26.8-24.8,49.7-24.8
	c3.8,0,7.6,0.3,11.2,0.8C570.8,749.5,573.7,750,576.4,750.9z"/>
<path class="st1" d="M609.7,785.7c0,20.9-23.8,37.6-53,37.6c-5.3,0-10.5-0.6-15.3-1.6c14.3-3.8,25.1-12.8,32.2-26.9
	c0.7-1.2,1.2-2.5,1.8-3.7c4.9-11.1,7.8-23.7,9.2-37.3c11.1,4.9,19.5,12.6,23.1,21.8C609,778.8,609.7,782.2,609.7,785.7z"/>
<polygon class="st2" points="348.9,815.3 348.4,873.5 318,891.4 318,797.5 323.5,800.6 "/>
<polygon class="st3" points="442.5,866.2 441.9,869 441.5,868.8 441.5,866.8 "/>
<polygon class="st4" points="317.6,891 317.6,891.2 287.2,874 "/>
<path class="st4" d="M398.1,843.8l-49.2-28.5l-25.4-14.6c0-3.7,1.3-7.4,8.8-15.2c17.4-18.1,23.3-4.2,40.6,7.5
	c17.5,11.7,17.5,6.6,29.1,24C410.6,830,404.5,834.6,398.1,843.8z"/>
<path class="st5" d="M443.9,859.7l-1.4,6.5v0.1l-1,0.5v110.6l-30.7-17.7l-0.1-0.1v-86.1c1.7-0.2,3.7-0.2,5.8-0.2
	C424.9,873.2,434.4,864.4,443.9,859.7z"/>
<polygon class="st3" points="442.5,866.2 441.9,869 441.5,868.8 441.5,866.8 "/>
<polygon class="st6" points="318,891.9 318,907.8 287.2,889.7 287.2,874.5 287.2,874.5 "/>
<polygon class="st7" points="348.8,873.7 348.8,889.7 318,907.8 317.8,892 341.6,878 "/>
<path class="st8" d="M398.1,843.8l-49.2-28.5l-25.4-14.6c0-3.7,1.3-7.4,8.8-15.2c17.4-18.1,23.3-4.2,40.6,7.5
	c17.5,11.7,17.5,6.6,29.1,24C410.6,830,404.5,834.6,398.1,843.8z"/>
<path class="st8" d="M696.2,655.4l-1.1,5.2c-0.7-1-1.5-2-2.5-3.1c-0.9-1.1-1.9-2.1-3.1-3.2c-11.7-10.7-25.7-16-28.3-30.5
	c-1.9-11.3,7.1-14.7,27-15.6L696.2,655.4z"/>
<polygon class="st9" points="625,504 625,524.9 606.9,514.5 "/>
<path class="st8" d="M559.1,626.8c-0.8-0.5-1.7-0.9-2.4-1.3l1.7-1C558.6,625.3,558.9,626.1,559.1,626.8z"/>
<path class="st8" d="M621.4,602.7c-10.1,22.8,5.8,19.4-11.6,37.6c-6.1,6.3-10.7,8.8-15,8.8c-0.6,0-1.2-0.1-1.7-0.2
	c-0.4,0-0.8-0.1-1.2-0.2c-0.5-0.1-0.9-0.2-1.3-0.4c-0.2-0.1-0.4-0.1-0.7-0.2c-0.2-0.1-0.4-0.2-0.7-0.3c-2-0.8-3.9-2.2-6.1-3.8
	c-0.5-0.4-1-0.7-1.5-1.2c-1.4-1.2-2.8-2.3-4.4-3.6c-0.5-0.4-1.1-0.9-1.7-1.3c-1.2-1-2.4-1.9-3.7-2.8c-0.7-0.5-1.3-0.9-2-1.4v-0.1
	c-1.2-4.5-2.5-8.8-3.8-13.3l77.9-43.9C648.8,586.2,629.4,584.1,621.4,602.7z"/>
<polygon class="st8" points="606.1,514.4 595.2,508.2 595.2,508.1 "/>
<path class="st10" d="M595.3,507.8c2.1-6.5-1.6-8.8,1.1-13.1c0,0,0,0,0.1-0.1l6.2-3.6L625,504l-18.1,10.5L595.3,507.8z"/>
<path class="st10" d="M595.3,507.8l11.6,6.6l-0.4,0.2l-0.5-0.3l-10.8-6.3C595.3,508,595.3,507.9,595.3,507.8z"/>
<path class="st8" d="M595.2,508.1l-10.9-6.3L595.2,508.1z"/>
<path class="st8" d="M596.5,494.8c-2.7,4.3,0.9,6.6-1.1,13.1l-10.8-6.3L596.5,494.8z"/>
<path class="st11" d="M558.4,624.5l-1.7,1c-6.2-3.4-8.7-4.8-16.6-16.7c-8.9-13.4-2.2-17.9,4.3-27.4
	C549.4,595.5,554.2,610.1,558.4,624.5z"/>
<path class="st11" d="M644,576.2l-77.9,43.9c-4.9-16.6-10.5-33.1-16.4-49.1V571c0.1-0.1,0.1-0.2,0.2-0.3c6.6-18.4,15.5,11.7,35.8,0
	c10.6-6.2-7.5-33.1,10.7-24c18.3,9.2,19.9,0,40.6,20.8C640.9,571.3,643,574,644,576.2z"/>
<path class="st8" d="M595.3,507.8c0,0.1,0,0.2-0.1,0.3l-10.9-6.3l-0.2-0.1l0.4-0.2L595.3,507.8z"/>
<path class="st11" d="M595.2,508.1L595.2,508.1c-0.7,2.2-1.9,4.7-4.2,7.9c-2.8,3.9-5,6.4-6.9,7.6c-5.9,4-8.2-4-13.9-16.6
	c-7.5-16.7-41.5-0.8-38.1-16.7c1.4-6.6,5-10.7,10.1-13.1l42.3,24.4l-0.4,0.2l0.2,0.1L595.2,508.1z"/>
<path class="st11" d="M534.6,555.3c-0.7-0.2-1.5-0.5-2.2-0.8c-1.6-0.7-3.2-1.3-4.9-2.2c-0.8-0.4-1.7-0.8-2.6-1.3
	c-0.9-0.5-1.9-1.1-2.9-1.7c-1.2-0.7-2.6-1.6-3.9-2.4c-1.3-0.8-2.6-1.7-3.9-2.7c-2.7-1.9-4.7-3.3-6.3-4.2v-4.1l-4.7-2.3v-19.3
	c3,0.7,7.3,0.7,14.4-0.3C523.3,527,529,540.9,534.6,555.3z"/>
<path class="st11" d="M546.2,554.6c-0.4,0.7-1.1,1.3-1.9,1.7c-5.8-15-11.8-29.6-17.7-43.1c2-0.2,3.6-0.1,4.7,0.3
	c0.9,0.2,1.6,0.6,2.2,1.1c0.8,0.7,1.4,1.7,1.9,3.2c0.3,0.9,0.6,1.9,0.9,3.2c1.1,4.3,2.5,10.6,7.1,19.5
	C547,547.7,547.7,552.2,546.2,554.6z"/>
<path class="st9" d="M502,538.8l1.2-0.6l0.4-0.2l4.3-2.1v4.1v27.1c-0.4-0.8-1.1-1.8-1.8-2.8c-8.8-10.9-11.4-6.7-16.9-5.3v-14
	L502,538.8z"/>
<polygon class="st10" points="507.9,535.9 503.6,537.9 503.2,537.9 503.2,533.6 "/>
<path class="st10" d="M503.6,537.9l-0.4,0.2L503.6,537.9z"/>
<polygon class="st10" points="503.2,537.9 503.6,537.9 503.2,538.1 "/>
<polygon class="st10" points="503.2,484.3 429.4,527 429.4,526.9 503,484.2 "/>
<path class="st8" d="M489.2,559c5.5-1.5,8.1-5.7,16.9,5.3c0.8,1,1.5,2,1.8,2.8v2.3l-4.7,2.3l-14,6.9V559z"/>
<path class="st10" d="M556.6,625.5l-32.3,18.3l-77.4,43.7c-0.1-5.3-0.7-9.6-1.7-13l58.1-33.7v-69.1l4.7-2.3v-29.4
	c1.6,0.9,3.7,2.3,6.3,4.2c1.3,0.9,2.6,1.8,3.9,2.7c1.3,0.8,2.7,1.7,3.9,2.4c1,0.6,2,1.2,2.9,1.7c0.8,0.5,1.7,0.9,2.6,1.3
	c1.7,0.9,3.3,1.6,4.9,2.2c0.7,0.3,1.5,0.6,2.2,0.8c3.3,8.6,6.6,17.3,9.7,26.1c-6.6,9.6-13.2,14-4.3,27.4
	C547.9,620.7,550.4,622.1,556.6,625.5z"/>
<path class="st10" d="M502.2,479.6c4.9,10.5,10.1,22,15.5,34.3c-7.1,1-11.4,1.1-14.4,0.3v-30H503l-4.3-2.7L502.2,479.6z"/>
<path class="st10" d="M679.3,556.3L644,576.2c-1-2.2-3.2-5-7-8.8c-20.7-20.8-22.3-11.5-40.6-20.8c-18.2-9.1-0.2,17.8-10.7,24
	c-20.4,11.7-29.2-18.4-35.8,0c-0.1,0.1-0.1,0.2-0.2,0.3c-1.8-5-3.7-10-5.5-14.8c0.8-0.3,1.5-0.9,1.9-1.7c1.5-2.3,0.8-6.9-2.9-14.2
	c-4.6-8.9-6-15.2-7.1-19.5c-0.3-1.2-0.6-2.2-0.9-3.2c-0.5-1.4-1.1-2.4-1.9-3.2c-0.6-0.5-1.2-0.8-2.2-1.1c-1.2-0.3-2.7-0.4-4.7-0.3
	c-5.8-13.5-11.6-26.3-16.9-37.6l15-8.5l17.7,10.1c-5.2,2.4-8.7,6.5-10.1,13.1c-3.3,16,30.7,0,38.1,16.7c5.6,12.7,8,20.7,13.9,16.7
	c1.8-1.2,4.1-3.7,6.9-7.6c2.3-3.2,3.5-5.6,4.2-7.8l10.8,6.2l0.5,0.2l0.3-0.2l18.1,10.5L679.3,556.3z"/>
<path class="st10" d="M502,538.8c0.2-0.5,0.6-0.8,1.2-0.8v0.2L502,538.8z"/>
<path class="st5" d="M477,556.8c-8.8-4.7-14.3-11.4-18.4-14.3v-12.4l30.5,14.9v14C486.4,559.8,482.7,559.9,477,556.8z"/>
<path class="st8" d="M489.2,578.6l-30.5-15v-21.2c4.1,2.9,9.6,9.5,18.4,14.3c5.7,3.1,9.3,3.1,12.1,2.2V578.6z"/>
<path class="st10" d="M489.2,545l-30.5-15l10.1-4.9l8.6-4.2l3.2,1.6l22.7,11v4.4c-0.6,0-1,0.3-1.2,0.8L489.2,545z"/>
<path class="st11" d="M503.2,578.9c-8,4.7-22.3,7.7-29.5,13.4c-12.4,9.8,1.7,9.3-9.9,25.7c-11.6,16.3-13.3,7.6-20.8-9
	c-2.4-5.5-7.7-7.5-13.6-8.2v-25.1c4.2-0.3,8.8-0.4,13.6-0.4c10.8,0,0.8-11.9,6.6-27.6c2.7-7.5,5.3-7.9,9-5.2v21.2l30.5,15l14-6.9
	V578.9z"/>
<path class="st2" d="M503.2,484.3v49.2l-22.7-11l-3.2-1.6l-8.6,4.2l-10.1,4.9l30.5,15l-30.5-14.9v12.4c-3.7-2.7-6.3-2.3-9,5.2
	c-5.8,15.7,4.1,27.6-6.6,27.6c-4.8,0-9.4,0.1-13.6,0.4V527L503.2,484.3z"/>
<path class="st11" d="M429.8,683.4l15.3-8.9c1.1,3.4,1.7,7.6,1.8,13l-5,2.8L429.8,683.4z"/>
<polygon class="st12" points="441.5,453.9 441.5,489.4 418,502.9 418,467.5 "/>
<polygon class="st13" points="441.5,453.9 418,467.5 394.6,453.9 418,440.4 "/>
<path class="st2" d="M445.1,674.5l-15.3,8.9l-0.4-0.3v-82.2c5.9,0.7,11.1,2.7,13.6,8.2c7.5,16.6,9.2,25.3,20.8,9
	c11.6-16.4-2.5-15.9,9.9-25.7c7.3-5.7,21.5-8.6,29.5-13.4v61.8L445.1,674.5z"/>
<polygon class="st8" points="429.4,683.1 429.8,683.4 429.4,683.6 "/>
<path class="st8" d="M429.4,575.7v25.1c-12.1-1.5-26.8,2.2-24.5-8.6C407.5,580.4,416.8,576.8,429.4,575.7z"/>
<polygon class="st10" points="429.4,527 424,523.8 429.4,526.9 "/>
<path class="st8" d="M429.4,683.6l-30.7-17.7c0.2-0.1,0.3-0.2,0.5-0.3l30.2,17.5V683.6z"/>
<polygon class="st14" points="418,467.5 418,502.9 394.6,489.4 394.6,453.9 "/>
<path class="st8" d="M449.1,732.6c-4.2-1.1-9.1-3.7-14.1-8.5c-16.8-15.7-7.3-11.5-13.4-20.7c-6.1-9.1-20.4-3.3-24.1-24
	c-1.6-9-1.2-12.3,1.2-13.5l30.7,17.7l0.4-0.2l12.1,6.9L449.1,732.6z"/>
<polygon class="st15" points="397.5,568.7 397.5,646.4 381.7,655.5 381.2,655.8 360.9,667.6 360.9,590 "/>
<polygon class="st16" points="395.3,519.1 395.3,545.9 382.7,553.3 382.7,526.5 "/>
<polygon class="st12" points="389.4,426.8 389.4,427 389.2,427 "/>
<polygon class="st13" points="389.4,426.8 389.2,427 382.7,423.2 382.7,423 "/>
<polygon class="st13" points="389.2,427 382.7,430.6 382.7,423.2 "/>
<polygon class="st17" points="395.3,519.1 382.7,526.5 367.1,517.5 362.1,514.6 367.1,511.7 374.7,507.2 "/>
<polygon class="st12" points="389.4,462.2 365.9,475.8 365.9,440.4 382.7,430.6 389.2,427 389.4,427 "/>
<polygon class="st13" points="382.7,423 382.7,423.2 375.2,418.9 375.3,418.7 375.4,418.7 "/>
<path class="st5" d="M399.1,665.6c-0.2,0.2-0.2,0.2-0.4,0.3l-17.5-10.1l0.5-0.3L399.1,665.6z"/>
<polygon class="st13" points="375.2,418.6 351.7,432.2 342.5,426.8 365.9,413.3 "/>
<polygon class="st10" points="358.6,486.1 372.4,494.1 358.7,486.1 "/>
<polygon class="st18" points="368.2,536.6 368.2,526.9 375.7,531.2 375.7,541 "/>
<polygon class="st16" points="367.1,503.4 367.1,503.5 367,503.5 "/>
<path class="st19" d="M367.1,517.5l-5-2.9v26.8l15.3,8.8l5.4,3.1v-26.8L367.1,517.5z M375.7,541l-7.6-4.4v-9.7l7.6,4.3V541z"/>
<polygon class="st17" points="367,503.5 358.5,508.4 354.4,510.7 333.8,498.8 346.4,491.5 "/>
<polygon class="st13" points="365.9,440.4 351.7,432.2 375.2,418.6 375.3,418.7 375.2,418.9 382.7,423.2 382.7,430.6 "/>
<polygon class="st16" points="362.1,514.6 362.1,533.2 354.4,537.6 354.4,510.8 358.5,508.4 367,503.5 367.1,503.5 367.1,511.7 "/>
<polygon class="st5" points="397.5,568.7 360.9,589.9 360.8,589.8 360.9,589.8 "/>
<polygon class="st10" points="358.5,486 358.6,486.1 358.5,486 "/>
<polygon class="st5" points="354.4,510.8 333.8,498.8 354.4,510.7 358.5,508.4 "/>
<polygon class="st18" points="347.4,515.5 347.4,525.2 339.9,520.9 339.9,511.2 "/>
<polygon class="st14" points="342.5,437.7 342.5,426.8 351.7,432.2 365.9,440.4 365.9,475.8 363,474.1 344.3,463.3 342.5,462.2 "/>
<polygon class="st20" points="346.2,598.6 346.2,608.5 338.7,604 338.7,594.2 "/>
<polygon class="st10" points="344.3,477.7 358.7,485.9 358.5,486 358.5,486 344.3,477.8 "/>
<polygon class="st10" points="344.3,477.8 313.8,460.2 313.8,460 344.3,477.7 "/>
<polygon class="st10" points="335.9,437.1 339.9,439 335.9,441.3 322.8,448.9 322.7,448.9 313.8,444.5 332.5,435.4 "/>
<polygon class="st5" points="334.2,574.5 308.7,559.8 308.7,559.7 "/>
<path class="st19" d="M347.4,515.5l-7.5-4.4v9.7l7.5,4.4V515.5z M354.4,537.6l-20.6-12v-26.8l20.6,12V537.6z"/>
<polygon class="st5" points="322.7,448.9 313.8,454.1 313.8,444.5 "/>
<polygon class="st20" points="317.6,587.1 317.6,596.9 310,592.6 310,588.2 314.8,585.5 "/>
<polygon class="st20" points="314.8,585.5 310,588.2 310,582.7 "/>
<polygon class="st10" points="313.8,460.2 344.3,477.8 358.5,486 344.3,477.9 313.8,460.3 308.8,457.3 "/>
<path class="st10" d="M498.7,481.6L454.2,456l-7.2-4.2l-64.6-37.1l-7.1,4.1l7.4,4.2l6.6,3.8v35.7l-23.5,13.5l-2.9-1.7l-18.7-10.8
	l-1.8-1v-24.8l-2.6,1.5l-4.1,2.3l-13,7.6l-0.1,0.1l-8.9,5.1l-5.1,3l5.1,2.9V460l30.5,17.6l14.4,8.3l-0.2,0.1l0.1,0.1l13.9,8
	l51.4,29.7h0.1l5.4,3.1l73.6-42.6L498.7,481.6z M441.5,489.3L418,503l-23.4-13.6V454l23.4-13.5l23.5,13.5V489.3z"/>
<path class="st5" d="M429.4,575.7V527l-5.4-3.2h-0.1l-51.5-29.7l-13.7-7.9l-0.2-0.2h-0.1l-14.1-8.1l-30.5-17.6l-5-3h-0.1v93.5
	l28.9-16.6l33.7,19.4l26.2,15.1v77.7l-15.8,9.2l17.5,10.1l30.2,17.5v-82.2c-12.1-1.5-26.8,2.2-24.5-8.6
	C407.5,580.4,416.8,576.8,429.4,575.7z M395.3,545.9l-12.6,7.3l-5.4-3.1l-15.3-8.8v-8.2l-7.6,4.4l-20.6-12v-26.8l12.6-7.3l20.6,12
	h0.1v8.2l7.6-4.4l20.6,11.9V545.9z"/>
<path class="st21" d="M360.8,589.9l-26.5-15.4h-0.2l-25.5-14.7l-7.6-4.4v77.7l59.9,34.6L360.8,589.9L360.8,589.9z M317.6,596.9
	l-7.6-4.3v-9.9l4.8,2.7l2.8,1.7V596.9z M346.2,608.5l-7.6-4.4v-9.9l7.6,4.4V608.5z"/>
<polygon class="st22" points="397.5,568.7 360.9,589.8 360.8,589.8 334.3,574.5 334.2,574.5 308.7,559.7 301,555.2 308.7,550.8 
	337.6,534.2 371.3,553.6 "/>
<polygon class="st10" points="301,593.2 301,608.9 287.2,601 "/>
<path class="st8" d="M349.6,725c-0.2,1.5-0.2,3.1-0.4,4.7c-0.2,2-0.3,3.7-0.7,5.2c-3.8,23.8-19.1,1.8-30-9.4
	c-11.6-12-16.6-2.9-28.2,14c-2.8,4.1-5.5,7.2-8.3,9.7l-8.2-48.4c6.7,1.8,15.3,3.2,27.3-3.8c0.3-0.2,0.5-0.3,0.7-0.5
	c3.2-2.9-5.9-6.6-13.2-11.5c-2.7-2.4-4.8-4.4-6.5-5.9c-1.4-2-2-4.2-1-6.6c0.6-1.4,1.2-2.7,1.7-3.7c3.8-8.1,6.1-7.2,15,1.2
	c10,9.4,17.4,14.5,41.5,19.4C362.1,694,352.8,697.5,349.6,725z"/>
<path class="st8" d="M288.6,685c-2.7-1.8-5.1-3.7-6.5-5.9C283.8,680.6,286,682.6,288.6,685z"/>
<path class="st2" d="M679.3,756.3v72.5L648.5,847v-50.1c2.4,1.5,5.2-0.2,12.2-7.9c14.5-16,6.2-10.3,14.5-26
	C676.9,759.8,678.2,757.7,679.3,756.3z"/>
<path class="st11" d="M609.7,754.3c-2.5-14.7,13.2-16,47.3-16c18,0,6.6-14.3,24.1-13.6h0.4l-2.1,10.2v21.3c-1.1,1.5-2.4,3.5-4,6.7
	c-8.3,15.7,0,10-14.5,26c-7,7.7-9.8,9.5-12.2,7.9v-44.5l-30,17C614.1,765.3,610.8,760.6,609.7,754.3z"/>
<path class="st5" d="M648.5,796.9v49.5L617.8,829v-59.2l0.8-0.5c5.6,5.2,12.9,9.5,19.4,15.4C644,790.3,645.9,795.5,648.5,796.9z"/>
<path class="st8" d="M648.5,752.4v44.5c-2.6-1.4-4.6-6.6-10.6-12.1c-6.5-6-13.8-10.2-19.4-15.4L648.5,752.4z"/>
<path class="st2" d="M531.1,818.7l-9.1,5.2H522l-49.7,28.1v58.3c-11.9,16.7-26,24.8-3.6,30.2c1.2,0.3,2.4,0.6,3.6,0.8v2.3l-7.1,4.3
	l-23.7,14v-67c2.1-1.2,5.2-3.8,10.6-9.7c15.7-16.8,8.1-31-3.1-27.7c-1.7,0.5-3.4,1.3-5.2,2.2l11.7-55.4l1.8-8.4l1.3-6.5l36-20.3
	c2.3,0.2,4.6,0.5,6.6,1.1c1,0.2,1.9,0.6,2.8,1c1,0.4,1.9,1,2.7,1.7c-2.2,4-3.2,8.3-3.2,12.8c0,12.2,8.1,23.1,20.9,29.9
	C526.7,816.8,528.8,817.8,531.1,818.7z"/>
<polygon class="st2" points="465.2,959.5 472.3,955.2 472.3,955.4 441.5,973.5 441.5,973.5 "/>
<path class="st2" d="M696.2,655.4l-1.2,5.2v0.1l-13.6,64.1h-0.3c-17.4-0.7-6.1,13.5-24.1,13.5c-34.1,0-49.8,1.3-47.3,16
	c1.1,6.4,4.4,11,8.8,15l-0.7,0.5l-10.1,5.7l-34.1,19.3c0.7-1.2,1.2-2.5,1.8-3.7c4.9-11.1,7.8-23.7,9.2-37.3
	c1.2-11.2,1.3-23.3,0.6-35.7l32.7-18.5l74.6-42L696.2,655.4z"/>
<path class="st11" d="M576.4,741.2c0,0.3-0.1,0.6-0.2,0.8c-0.2,0.5-0.4,1-0.7,1.4c-0.3,0.5-0.7,0.9-1.2,1.3c-0.4,0.5-1,1-1.7,1.4
	c-1.3,1-2.9,1.9-4.7,2.7c-8.2,3.9-20.1,6.8-26.5,11.9c-12.5,9.8,1.6,9.3-10,25.7c-11.6,16.5-13.3,7.6-20.8-9
	c-0.3-0.7-0.7-1.5-1.2-2.1c-0.7-1-1.6-1.9-2.5-2.6c-0.8-0.7-1.7-1.2-2.7-1.7c-0.9-0.4-1.8-0.7-2.8-1c-2.1-0.6-4.3-0.9-6.6-1.1
	l73.7-41.7h0.1c1.4,1.2,3.2,2.8,5.1,5.3C576.3,736.2,577.1,738.9,576.4,741.2z"/>
<path class="st8" d="M568.4,727.4l-73.7,41.7c-11.6-0.8-24.4,1.8-22.2-8.2c3.4-16,19-17,38.1-17c10.8,0,0.8-11.8,6.6-27.6
	c5.8-15.7,10.8,0,27.4,9.1C558.7,733,560.3,721.2,568.4,727.4z"/>
<path class="st11" d="M472.3,921.8v31.1c-1.2-0.2-2.4-0.5-3.6-0.8C446.3,946.6,460.5,938.5,472.3,921.8z"/>
<path class="st9" d="M576.9,722.7l-8.4,4.7h-0.1c-8.1-6.3-9.7,5.6-23.8-2.2c-16.6-9.1-21.6-24.8-27.4-9.1
	c-5.8,15.8,4.2,27.6-6.6,27.6c-19.1,0-34.7,1.1-38,17c-2.2,10.1,10.6,7.5,22.2,8.3l-36,20.3l-9.7-56.8c9.7,2.3,16-3.8,13.5-11.5
	c-3.4-11-15.7-22.6-15.7-32.6v-1l77.4-43.7l32.3-18.3c0.7,0.4,1.6,0.8,2.4,1.3C568.7,659.9,575.6,693.1,576.9,722.7z"/>
<path class="st9" d="M696.2,655.4l-3.7,2.1l-74.6,42l-32.7,18.5c-1.6-26.6-7.3-55.5-15.2-84.5c0.7,0.5,1.3,0.9,2,1.4
	c1.2,0.9,2.5,1.8,3.7,2.8c0.6,0.4,1.2,0.9,1.7,1.3c1.6,1.2,3,2.4,4.4,3.6c0.5,0.4,1,0.7,1.5,1.2c2.2,1.6,4.1,3,6.1,3.8
	c0.2,0.2,0.5,0.2,0.7,0.3c0.2,0.2,0.5,0.2,0.7,0.2c0.4,0.2,0.8,0.3,1.3,0.4c0.3,0.2,0.7,0.2,1.2,0.2c0.6,0.1,1.2,0.2,1.7,0.2
	c4.2,0,8.9-2.5,15-8.8c17.4-18.1,1.6-14.7,11.6-37.6c8.1-18.7,27.4-16.5,22.7-26.5l35.2-19.9l8.9,51.8L696.2,655.4z"/>
<path class="st11" d="M452.1,885.1c-5.5,5.9-8.6,8.6-10.6,9.7v-26.1l0.4,0.2l0.6-2.7v-0.1l1.4-6.5c1.7-0.9,3.5-1.7,5.2-2.2
	C460.2,854.1,467.8,868.3,452.1,885.1z"/>
<path class="st8" d="M462.6,721.1c2.4,7.7-3.8,13.8-13.5,11.5l-7.2-42.3l5-2.8v1C446.9,698.5,459.2,710.1,462.6,721.1z"/>
<path class="st8" d="M443.9,859.7l-1.4,6.5v0.1l-0.6,2.7l-0.4-0.2v26.1c-3.8,2.3-4.2-0.2-10.1,3.7c-8.6,5.6-3.9,18.8-20.7,23.3
	v-48.4c1.7-0.2,3.7-0.2,5.8-0.2C424.9,873.2,434.4,864.4,443.9,859.7z"/>
<path class="st5" d="M458.8,789.4l-1.3,6.5l-1.8,8.4l-11.7,55.4c-9.5,4.7-19,13.5-27.4,13.5c-2.1,0-4.1,0.1-5.8,0.2V851l-12.6-7.2
	c6.5-9.1,12.5-13.7,3.9-26.8c-11.5-17.4-11.5-12.3-29.1-24c-17.4-11.7-23.2-25.6-40.6-7.5c-7.5,7.8-8.8,11.5-8.8,15.2l-5.5-3.2v94
	l-0.3-0.2V891l-30.4-17v-94.3l-5.2-30.4c2.8-2.5,5.5-5.6,8.3-9.7c11.6-16.9,16.6-26,28.2-14c10.9,11.2,26.2,33.2,30,9.4
	c0.3-1.6,0.5-3.2,0.7-5.2c0.2-1.7,0.2-3.2,0.4-4.7c3.2-27.6,12.5-31-10.4-35.6c-24.1-4.9-31.5-10.1-41.5-19.4
	c-8.8-8.4-11.1-9.3-15-1.2c-1.6-0.7-3.4-0.4-4.7,0.9c-1.6,1.7-1.5,4.3,0.2,5.8c0.5,0.5,1.8,1.7,3.8,3.6c1.4,2.2,3.8,4.1,6.5,5.9
	c3.6,3.2,8.1,7.1,13.2,11.5c-0.2,0.2-0.4,0.3-0.7,0.5c-12,7-20.6,5.6-27.3,3.8v-0.1l-3.4-20.2l16.9-79.6l13.8,7.9v24.2l59.9,34.6
	l20.3-11.8l17.5,10.1c-2.4,1.2-2.8,4.6-1.2,13.5c3.7,20.7,17.9,14.9,24.1,24c6.1,9.1-3.4,5,13.4,20.7c5.1,4.8,10,7.4,14.1,8.5
	L458.8,789.4z"/>
<path class="st5" d="M282.2,679.1c-2-1.9-3.3-3.1-3.8-3.6c-1.7-1.5-1.7-4.2-0.2-5.8c1.2-1.3,3.1-1.7,4.7-0.9
	c-0.5,1.1-1.1,2.3-1.7,3.7C280.2,674.9,280.8,677.1,282.2,679.1z"/>
<path class="st5" d="M301.9,696.5c-5.2-4.4-9.6-8.4-13.2-11.5C296,689.9,305.1,693.6,301.9,696.5z"/>
<polygon class="st5" points="317.6,891 317.6,891.2 287.2,874 "/>
<polygon class="st7" points="472.3,955.2 472.3,971.2 441.5,989.2 441.5,988.9 441.4,973.5 441.5,973.5 465.2,959.5 "/>
<polygon class="st6" points="648.5,845.6 648.5,861.5 617.7,843.4 617.7,828.1 617.7,828.1 "/>
<polygon class="st7" points="679.3,827.4 679.3,843.4 648.5,861.5 648.3,845.7 672.2,831.7 "/>
<polygon class="st6" points="441.5,973.4 441.5,989.3 410.7,971.2 410.7,955.9 410.7,955.9 "/>
<circle class="st23" cx="483.3" cy="171.9" r="157.5"/>
<path class="st24" d="M607.4,191.9c0,0-25.2-47.8-60.1-82.6c-34.9-34.9-77.9-55.3-77.9-55.3C545.6,53.9,607.4,115.7,607.4,191.9z"/>
<path class="st23" d="M494.7,335.2c0,3.2-2.6,5.7-5.7,5.7c-1.6,0-3.1-0.6-4.1-1.7c-1,1.1-2.5,1.7-4.1,1.7c-3.1,0-5.7-2.6-5.7-5.7
	s2.6-5.7,5.7-5.7c1.6,0,3.1,0.6,4.1,1.7c1-1.1,2.5-1.7,4.1-1.7C492.2,329.4,494.7,332,494.7,335.2z"/>
<path class="st25" d="M282.2,679.1c-2-1.9-3.3-3.1-3.8-3.6c-1.7-1.5-1.7-4.2-0.2-5.8c1.2-1.3,3.1-1.7,4.7-0.9
	c-0.5,1.1-1.1,2.3-1.7,3.7C280.2,674.9,280.8,677.1,282.2,679.1z"/>
<path class="st25" d="M301.9,696.5c-5.2-4.4-9.6-8.4-13.2-11.5C296,689.9,305.1,693.6,301.9,696.5z"/>
<path class="st2" d="M576.4,750.9c-1.2,13.5-4,26-8.7,36.9c-3.1,7.1-7,12.8-11.8,16.9l-0.1,0.1l-15,8.5l-9.6,5.4
	c-2.3-0.8-4.5-1.9-6.6-3.1c-12.7-6.8-20.9-17.7-20.9-29.9c0-4.5,1.1-8.8,3.2-12.8c0.9,0.7,1.7,1.6,2.5,2.6c0.4,0.6,0.8,1.3,1.2,2.1
	c7.5,16.6,9.1,25.4,20.8,9c11.5-16.4-2.5-15.9,10-25.7c6.4-5.1,18.3-8,26.5-11.9c1.8-0.8,3.4-1.7,4.7-2.7c0.7-0.4,1.2-0.9,1.7-1.4
	c0.5-0.4,0.8-0.8,1.2-1.3c0.3-0.4,0.6-0.9,0.7-1.4c0.2-0.2,0.2-0.5,0.2-0.8c0.7-2.3-0.1-5.1-2.8-8.5c-1.9-2.5-3.7-4.2-5.1-5.3
	l8.4-4.7C577.4,732.5,577.3,741.9,576.4,750.9z"/>
<path class="st25" d="M584.6,753.8c-1.4,13.6-4.3,26.2-9.2,37.3c-0.6,1.2-1.2,2.5-1.8,3.7c-7.1,14.1-17.9,23.1-32.2,26.9h-0.1
	c-1.1,0.3-2.2,0.6-3.2,0.8c-4.3,0.8-8.9,1.3-13.6,1.3c-0.7,0-1.5,0-2.3-0.1l9.1-5.2l9.6-5.4c5.8-1.7,10.7-4.5,15-8.5l0.1-0.1
	c4.8-4.2,8.7-9.9,11.8-16.9c4.7-10.9,7.6-23.3,8.7-36.9c0.9-9,1-18.4,0.5-28.2c-1.3-29.7-8.2-62.8-17.9-95.9
	c-0.2-0.7-0.4-1.6-0.7-2.3c-4.2-14.5-9-29-14-43.1c-3.2-8.8-6.4-17.5-9.7-26.1c-5.6-14.5-11.4-28.3-17-41.4
	c-5.3-12.3-10.6-23.8-15.5-34.3c-16.4-35.1-29-58.2-29.4-59l-0.6-0.9v-93.4H495c2.3,0,4.2,1.8,4.2,4.2s-1.8,4.2-4.2,4.2h-14.5v82.9
	c2.9,5.4,14.5,27,29.2,57.9c5.3,11.4,11.1,24.1,16.9,37.6c5.9,13.5,11.9,28.1,17.7,43.1c1.8,4.8,3.7,9.8,5.5,14.8v0.1
	c5.9,16,11.5,32.5,16.4,49.1c1.3,4.5,2.6,8.8,3.8,13.3v0.1c7.9,29,13.6,57.9,15.2,84.5C585.9,730.5,585.8,742.6,584.6,753.8z"/>
<polygon class="st25" points="480.6,411.9 454.2,456 447,451.8 473.5,407.6 "/>
</svg>
