<?xml version="1.0" encoding="utf-8"?>
<!-- Generator: Adobe Illustrator 19.1.0, SVG Export Plug-In . SVG Version: 6.00 Build 0)  -->
<svg version="1.1" id="Layer_1" xmlns="http://www.w3.org/2000/svg" xmlns:xlink="http://www.w3.org/1999/xlink" x="0px" y="0px"
	 viewBox="-372 594.2 46.9 37.8" style="enable-background:new -372 594.2 46.9 37.8;" xml:space="preserve">
<style type="text/css">
	.st0{fill:#2D2D2D;}
</style>
<path class="st0" d="M-329.7,603.4h-37.7c-2.5,0-4.6-2.1-4.6-4.6l0,0c0-2.5,2.1-4.6,4.6-4.6h37.8c2.5,0,4.6,2.1,4.6,4.6l0,0
	C-325.1,601.3-327.1,603.4-329.7,603.4z"/>
<path class="st0" d="M-329.7,617.7h-37.7c-2.5,0-4.6-2.1-4.6-4.6l0,0c0-2.5,2.1-4.6,4.6-4.6h37.8c2.5,0,4.6,2.1,4.6,4.6l0,0
	C-325.1,615.6-327.1,617.7-329.7,617.7z"/>
<path class="st0" d="M-329.7,632h-37.7c-2.5,0-4.6-2.1-4.6-4.6l0,0c0-2.5,2.1-4.6,4.6-4.6h37.8c2.5,0,4.6,2.1,4.6,4.6l0,0
	C-325.1,629.9-327.1,632-329.7,632z"/>
</svg>
