<?xml version="1.0" encoding="utf-8"?>
<!-- Generator: Adobe Illustrator 19.1.0, SVG Export Plug-In . SVG Version: 6.00 Build 0)  -->
<svg version="1.1" id="Layer_1" xmlns="http://www.w3.org/2000/svg" xmlns:xlink="http://www.w3.org/1999/xlink" x="0px" y="0px"
	 viewBox="-581 367 59.9 60" style="enable-background:new -581 367 59.9 60;" xml:space="preserve">
<style type="text/css">
	.st0{fill:#FFFFFF;}
</style>
<path class="st0" d="M-524.3,391c-2.3-10.9-11.5-19.5-22.5-21.1c-1-0.2-1.9-0.3-2.9-0.4h-2.7c-0.9,0.1-1.9,0.2-2.8,0.4
	c-11.9,1.8-21.3,11.3-23,23.3c-2.1,14.7,7.9,28.4,22.3,30.9c1.1,0.2,2.2,0.3,3.3,0.4h2.7c1-0.1,1.9-0.3,2.9-0.4
	c11.6-1.7,21.1-11,22.9-22.5c0.2-0.8,0.2-1.6,0.4-2.4v-4.4C-523.9,393.5-524,392.3-524.3,391z M-537,394.3c-0.5,1.4-1.1,2.7-1.8,4
	c-1.1,2-2.5,3.9-3.9,5.7c-1.3,1.7-2.6,3.3-4.1,4.7c-1,1-2,1.9-3.2,2.6c-0.8,0.5-1.7,0.9-2.6,1.1c-0.3,0.1-0.5,0.1-0.8,0.1
	c-0.1,0-0.3,0-0.4,0c-0.1,0-0.2,0-0.2,0c-0.7-0.1-1.3-0.5-1.9-1c-0.6-0.6-1.1-1.3-1.5-2.1c-0.3-0.7-0.7-1.3-0.9-2.1
	c-0.8-2.9-1.6-5.9-2.4-8.8c-0.3-1.1-0.6-2.2-1.1-3.3c-0.2-0.5-0.5-1.1-0.9-1.5c-0.2-0.2-0.4-0.4-0.7-0.5c-0.2-0.1-0.5-0.1-0.7,0
	c-0.1,0.1-0.2,0.1-0.3,0.2c-0.6,0.3-1.1,0.7-1.7,1.1c0,0-0.1,0.1-0.1,0.1c0,0-0.1-0.1-0.1-0.1c-0.4-0.6-0.9-1.1-1.3-1.7
	c0,0,0-0.1-0.1-0.1c0,0,0,0,0,0c0,0,0,0,0,0c1.1-0.9,2.1-1.9,3.2-2.8c0.9-0.8,1.8-1.6,2.8-2.4c0.7-0.5,1.4-1,2.2-1.4
	c1.1-0.5,2.2-0.4,3.2,0.2c0.6,0.4,1.1,1,1.4,1.6c0.4,0.8,0.7,1.7,0.8,2.5c0.3,1.7,0.5,3.3,0.8,5c0.2,1.4,0.5,2.9,0.9,4.2
	c0.2,0.7,0.4,1.4,0.8,2.1c0.1,0.3,0.3,0.5,0.5,0.7c0.3,0.3,0.6,0.3,1,0.1c0.2-0.1,0.3-0.2,0.5-0.3c0.2-0.2,0.5-0.5,0.7-0.7
	c0.7-0.9,1.4-1.9,2-2.9c0.5-0.8,0.9-1.6,1.2-2.5c0.3-0.8,0.4-1.6,0.3-2.4c-0.1-0.8-0.6-1.3-1.3-1.4c-0.2-0.1-0.5-0.1-0.7-0.1
	c-0.8,0-1.5,0.2-2.2,0.4c0,0-0.1,0.1-0.1,0c0,0,0,0,0,0c0.1-0.3,0.2-0.5,0.3-0.8c0.5-1.3,1-2.5,1.9-3.5c1.3-1.7,3-2.6,5.2-2.9
	c0.2,0,0.5,0,0.7-0.1c0.3,0,0.5,0,0.8,0c0,0,0.1,0,0.1,0c0.3,0,0.6,0,0.9,0.1c0.9,0.2,1.6,0.5,2.2,1.2c0.6,0.6,0.9,1.4,1.1,2.2
	C-536.3,390.8-536.4,392.6-537,394.3z"/>
</svg>
